<svg width="38" height="38" viewBox="0 0 38 38" fill="none" xmlns="http://www.w3.org/2000/svg">
<path d="M3.16667 38C3.16667 38 0 38 0 34.8333C0 31.6667 3.16667 22.1667 19 22.1667C34.8333 22.1667 38 31.6667 38 34.8333C38 38 34.8333 38 34.8333 38H3.16667ZM19 19C21.5196 19 23.9359 17.9991 25.7175 16.2175C27.4991 14.4359 28.5 12.0196 28.5 9.5C28.5 6.98044 27.4991 4.56408 25.7175 2.78249C23.9359 1.00089 21.5196 0 19 0C16.4804 0 14.0641 1.00089 12.2825 2.78249C10.5009 4.56408 9.5 6.98044 9.5 9.5C9.5 12.0196 10.5009 14.4359 12.2825 16.2175C14.0641 17.9991 16.4804 19 19 19Z" fill="#919191"/>
</svg>
