<svg width="483" height="396" viewBox="0 0 483 396" fill="none" xmlns="http://www.w3.org/2000/svg">
<path d="M482.058 70.3875H205.803V336.675H482.058V70.3875Z" fill="#E0E0E0"/>
<path d="M482.058 75.2217H210.238V332.021H482.058V75.2217Z" fill="#F5F5F5"/>
<path d="M212.244 269.835V192.582H220.258V182.376L238.32 173.942V163.497H241.328V192.582H244.343V269.835H248.353V229.701H257.384V208.638H260.392V269.835H267.404V246.753H272.424V240.737H283.46V219.674H289.483V205.63H296.502V184.56H299.517V205.63H306.542V219.674H312.551V240.737H323.588V246.753H328.601V269.835H334.624V240.737H345.66V176.539H348.675V169.513H372.739V176.539H377.759V222.689H397.826V227.689H404.838V230.703H397.826V248.765H418.889V188.571H422.899V176.539H432.933V130.396H435.941V176.539H442.966V188.571H482.058V332.021H210.238V269.835H212.244Z" fill="#E6E6E6"/>
<path d="M461.168 191.718H458.326V194.561H461.168V191.718Z" fill="#F0F0F0"/>
<path d="M461.168 196.486H458.326V199.328H461.168V196.486Z" fill="#F0F0F0"/>
<path d="M461.168 215.55H458.326V218.392H461.168V215.55Z" fill="#F0F0F0"/>
<path d="M461.168 220.305H458.326V223.147H461.168V220.305Z" fill="#F0F0F0"/>
<path d="M461.168 225.066H458.326V227.908H461.168V225.066Z" fill="#F0F0F0"/>
<path d="M461.168 239.369H458.326V242.211H461.168V239.369Z" fill="#F0F0F0"/>
<path d="M461.168 244.137H458.326V246.979H461.168V244.137Z" fill="#F0F0F0"/>
<path d="M456.652 210.783H453.81V213.625H456.652V210.783Z" fill="#F0F0F0"/>
<path d="M456.652 215.55H453.81V218.392H456.652V215.55Z" fill="#F0F0F0"/>
<path d="M456.652 220.305H453.81V223.147H456.652V220.305Z" fill="#F0F0F0"/>
<path d="M456.652 225.066H453.81V227.908H456.652V225.066Z" fill="#F0F0F0"/>
<path d="M456.652 229.834H453.81V232.676H456.652V229.834Z" fill="#F0F0F0"/>
<path d="M456.652 239.369H453.81V242.211H456.652V239.369Z" fill="#F0F0F0"/>
<path d="M456.652 244.137H453.81V246.979H456.652V244.137Z" fill="#F0F0F0"/>
<path d="M452.137 191.718H449.295V194.561H452.137V191.718Z" fill="#F0F0F0"/>
<path d="M452.137 196.486H449.295V199.328H452.137V196.486Z" fill="#F0F0F0"/>
<path d="M452.137 201.247H449.295V204.089H452.137V201.247Z" fill="#F0F0F0"/>
<path d="M452.137 206.015H449.295V208.857H452.137V206.015Z" fill="#F0F0F0"/>
<path d="M452.137 210.783H449.295V213.625H452.137V210.783Z" fill="#F0F0F0"/>
<path d="M452.137 215.55H449.295V218.392H452.137V215.55Z" fill="#F0F0F0"/>
<path d="M452.137 220.305H449.295V223.147H452.137V220.305Z" fill="#F0F0F0"/>
<path d="M452.137 225.066H449.295V227.908H452.137V225.066Z" fill="#F0F0F0"/>
<path d="M452.137 229.834H449.295V232.676H452.137V229.834Z" fill="#F0F0F0"/>
<path d="M452.137 234.601H449.295V237.443H452.137V234.601Z" fill="#F0F0F0"/>
<path d="M452.137 244.137H449.295V246.979H452.137V244.137Z" fill="#F0F0F0"/>
<path d="M447.622 191.718H444.78V194.561H447.622V191.718Z" fill="#F0F0F0"/>
<path d="M447.622 196.486H444.78V199.328H447.622V196.486Z" fill="#F0F0F0"/>
<path d="M447.622 201.247H444.78V204.089H447.622V201.247Z" fill="#F0F0F0"/>
<path d="M447.622 206.015H444.78V208.857H447.622V206.015Z" fill="#F0F0F0"/>
<path d="M447.622 210.783H444.78V213.625H447.622V210.783Z" fill="#F0F0F0"/>
<path d="M447.622 215.55H444.78V218.392H447.622V215.55Z" fill="#F0F0F0"/>
<path d="M447.622 220.305H444.78V223.147H447.622V220.305Z" fill="#F0F0F0"/>
<path d="M447.622 263.201H444.78V266.043H447.622V263.201Z" fill="#F0F0F0"/>
<path d="M443.106 191.718H440.264V194.561H443.106V191.718Z" fill="#F0F0F0"/>
<path d="M443.106 196.486H440.264V199.328H443.106V196.486Z" fill="#F0F0F0"/>
<path d="M443.106 201.247H440.264V204.089H443.106V201.247Z" fill="#F0F0F0"/>
<path d="M443.106 206.015H440.264V208.857H443.106V206.015Z" fill="#F0F0F0"/>
<path d="M443.106 210.783H440.264V213.625H443.106V210.783Z" fill="#F0F0F0"/>
<path d="M443.106 215.55H440.264V218.392H443.106V215.55Z" fill="#F0F0F0"/>
<path d="M443.106 220.305H440.264V223.147H443.106V220.305Z" fill="#F0F0F0"/>
<path d="M443.106 225.066H440.264V227.908H443.106V225.066Z" fill="#F0F0F0"/>
<path d="M443.106 253.666H440.264V256.508H443.106V253.666Z" fill="#F0F0F0"/>
<path d="M443.106 258.433H440.264V261.275H443.106V258.433Z" fill="#F0F0F0"/>
<path d="M443.106 263.201H440.264V266.043H443.106V263.201Z" fill="#F0F0F0"/>
<path d="M443.106 267.955H440.264V270.797H443.106V267.955Z" fill="#F0F0F0"/>
<path d="M443.106 287.02H440.264V289.862H443.106V287.02Z" fill="#F0F0F0"/>
<path d="M438.591 191.718H435.749V194.561H438.591V191.718Z" fill="#F0F0F0"/>
<path d="M438.591 196.486H435.749V199.328H438.591V196.486Z" fill="#F0F0F0"/>
<path d="M438.591 201.247H435.749V204.089H438.591V201.247Z" fill="#F0F0F0"/>
<path d="M438.591 206.015H435.749V208.857H438.591V206.015Z" fill="#F0F0F0"/>
<path d="M438.591 210.783H435.749V213.625H438.591V210.783Z" fill="#F0F0F0"/>
<path d="M438.591 215.55H435.749V218.392H438.591V215.55Z" fill="#F0F0F0"/>
<path d="M438.591 220.305H435.749V223.147H438.591V220.305Z" fill="#F0F0F0"/>
<path d="M438.591 225.066H435.749V227.908H438.591V225.066Z" fill="#F0F0F0"/>
<path d="M438.591 229.834H435.749V232.676H438.591V229.834Z" fill="#F0F0F0"/>
<path d="M438.591 234.601H435.749V237.443H438.591V234.601Z" fill="#F0F0F0"/>
<path d="M438.591 248.898H435.749V251.74H438.591V248.898Z" fill="#F0F0F0"/>
<path d="M438.591 253.666H435.749V256.508H438.591V253.666Z" fill="#F0F0F0"/>
<path d="M438.591 258.433H435.749V261.275H438.591V258.433Z" fill="#F0F0F0"/>
<path d="M438.591 263.201H435.749V266.043H438.591V263.201Z" fill="#F0F0F0"/>
<path d="M438.591 267.955H435.749V270.797H438.591V267.955Z" fill="#F0F0F0"/>
<path d="M438.591 287.02H435.749V289.862H438.591V287.02Z" fill="#F0F0F0"/>
<path d="M434.075 191.718H431.233V194.561H434.075V191.718Z" fill="#F0F0F0"/>
<path d="M434.075 196.486H431.233V199.328H434.075V196.486Z" fill="#F0F0F0"/>
<path d="M434.075 201.247H431.233V204.089H434.075V201.247Z" fill="#F0F0F0"/>
<path d="M434.075 206.015H431.233V208.857H434.075V206.015Z" fill="#F0F0F0"/>
<path d="M434.075 210.783H431.233V213.625H434.075V210.783Z" fill="#F0F0F0"/>
<path d="M434.075 215.55H431.233V218.392H434.075V215.55Z" fill="#F0F0F0"/>
<path d="M434.075 220.305H431.233V223.147H434.075V220.305Z" fill="#F0F0F0"/>
<path d="M434.075 225.066H431.233V227.908H434.075V225.066Z" fill="#F0F0F0"/>
<path d="M434.075 229.834H431.233V232.676H434.075V229.834Z" fill="#F0F0F0"/>
<path d="M434.075 234.601H431.233V237.443H434.075V234.601Z" fill="#F0F0F0"/>
<path d="M434.075 239.369H431.233V242.211H434.075V239.369Z" fill="#F0F0F0"/>
<path d="M434.075 244.137H431.233V246.979H434.075V244.137Z" fill="#F0F0F0"/>
<path d="M434.075 248.898H431.233V251.74H434.075V248.898Z" fill="#F0F0F0"/>
<path d="M434.075 253.666H431.233V256.508H434.075V253.666Z" fill="#F0F0F0"/>
<path d="M434.075 258.433H431.233V261.275H434.075V258.433Z" fill="#F0F0F0"/>
<path d="M434.075 263.201H431.233V266.043H434.075V263.201Z" fill="#F0F0F0"/>
<path d="M434.075 267.955H431.233V270.797H434.075V267.955Z" fill="#F0F0F0"/>
<path d="M434.075 272.716H431.233V275.558H434.075V272.716Z" fill="#F0F0F0"/>
<path d="M429.561 191.718H426.719V194.561H429.561V191.718Z" fill="#F0F0F0"/>
<path d="M429.561 196.486H426.719V199.328H429.561V196.486Z" fill="#F0F0F0"/>
<path d="M429.561 201.247H426.719V204.089H429.561V201.247Z" fill="#F0F0F0"/>
<path d="M429.561 206.015H426.719V208.857H429.561V206.015Z" fill="#F0F0F0"/>
<path d="M429.561 210.783H426.719V213.625H429.561V210.783Z" fill="#F0F0F0"/>
<path d="M429.561 215.55H426.719V218.392H429.561V215.55Z" fill="#F0F0F0"/>
<path d="M429.561 220.305H426.719V223.147H429.561V220.305Z" fill="#F0F0F0"/>
<path d="M429.561 225.066H426.719V227.908H429.561V225.066Z" fill="#F0F0F0"/>
<path d="M429.561 229.834H426.719V232.676H429.561V229.834Z" fill="#F0F0F0"/>
<path d="M429.561 234.601H426.719V237.443H429.561V234.601Z" fill="#F0F0F0"/>
<path d="M429.561 248.898H426.719V251.74H429.561V248.898Z" fill="#F0F0F0"/>
<path d="M429.561 253.666H426.719V256.508H429.561V253.666Z" fill="#F0F0F0"/>
<path d="M429.561 258.433H426.719V261.275H429.561V258.433Z" fill="#F0F0F0"/>
<path d="M429.561 263.201H426.719V266.043H429.561V263.201Z" fill="#F0F0F0"/>
<path d="M425.058 191.718H422.216V194.561H425.058V191.718Z" fill="#F0F0F0"/>
<path d="M425.058 196.486H422.216V199.328H425.058V196.486Z" fill="#F0F0F0"/>
<path d="M425.058 201.247H422.216V204.089H425.058V201.247Z" fill="#F0F0F0"/>
<path d="M425.058 206.015H422.216V208.857H425.058V206.015Z" fill="#F0F0F0"/>
<path d="M425.058 210.783H422.216V213.625H425.058V210.783Z" fill="#F0F0F0"/>
<path d="M425.058 215.55H422.216V218.392H425.058V215.55Z" fill="#F0F0F0"/>
<path d="M425.058 220.305H422.216V223.147H425.058V220.305Z" fill="#F0F0F0"/>
<path d="M425.058 225.066H422.216V227.908H425.058V225.066Z" fill="#F0F0F0"/>
<path d="M425.058 229.834H422.216V232.676H425.058V229.834Z" fill="#F0F0F0"/>
<path d="M425.058 234.601H422.216V237.443H425.058V234.601Z" fill="#F0F0F0"/>
<path d="M425.058 248.898H422.216V251.74H425.058V248.898Z" fill="#F0F0F0"/>
<path d="M425.058 253.666H422.216V256.508H425.058V253.666Z" fill="#F0F0F0"/>
<path d="M425.058 258.433H422.216V261.275H425.058V258.433Z" fill="#F0F0F0"/>
<path d="M374.227 179.348H371.385V182.19H374.227V179.348Z" fill="#F0F0F0"/>
<path d="M374.227 184.109H371.385V186.951H374.227V184.109Z" fill="#F0F0F0"/>
<path d="M374.227 188.876H371.385V191.718H374.227V188.876Z" fill="#F0F0F0"/>
<path d="M374.227 193.644H371.385V196.486H374.227V193.644Z" fill="#F0F0F0"/>
<path d="M374.227 198.412H371.385V201.254H374.227V198.412Z" fill="#F0F0F0"/>
<path d="M374.227 203.18H371.385V206.022H374.227V203.18Z" fill="#F0F0F0"/>
<path d="M374.227 207.934H371.385V210.776H374.227V207.934Z" fill="#F0F0F0"/>
<path d="M374.227 212.695H371.385V215.537H374.227V212.695Z" fill="#F0F0F0"/>
<path d="M374.227 226.998H371.385V229.84H374.227V226.998Z" fill="#F0F0F0"/>
<path d="M374.227 231.759H371.385V234.601H374.227V231.759Z" fill="#F0F0F0"/>
<path d="M369.711 179.348H366.869V182.19H369.711V179.348Z" fill="#F0F0F0"/>
<path d="M369.711 184.109H366.869V186.951H369.711V184.109Z" fill="#F0F0F0"/>
<path d="M369.711 188.876H366.869V191.718H369.711V188.876Z" fill="#F0F0F0"/>
<path d="M369.711 193.644H366.869V196.486H369.711V193.644Z" fill="#F0F0F0"/>
<path d="M369.711 198.412H366.869V201.254H369.711V198.412Z" fill="#F0F0F0"/>
<path d="M369.711 203.18H366.869V206.022H369.711V203.18Z" fill="#F0F0F0"/>
<path d="M369.711 207.934H366.869V210.776H369.711V207.934Z" fill="#F0F0F0"/>
<path d="M369.711 212.695H366.869V215.537H369.711V212.695Z" fill="#F0F0F0"/>
<path d="M369.711 231.759H366.869V234.601H369.711V231.759Z" fill="#F0F0F0"/>
<path d="M365.196 179.348H362.354V182.19H365.196V179.348Z" fill="#F0F0F0"/>
<path d="M365.196 184.109H362.354V186.951H365.196V184.109Z" fill="#F0F0F0"/>
<path d="M365.196 188.876H362.354V191.718H365.196V188.876Z" fill="#F0F0F0"/>
<path d="M365.196 193.644H362.354V196.486H365.196V193.644Z" fill="#F0F0F0"/>
<path d="M365.196 198.412H362.354V201.254H365.196V198.412Z" fill="#F0F0F0"/>
<path d="M365.196 203.18H362.354V206.022H365.196V203.18Z" fill="#F0F0F0"/>
<path d="M365.196 207.934H362.354V210.776H365.196V207.934Z" fill="#F0F0F0"/>
<path d="M365.196 212.695H362.354V215.537H365.196V212.695Z" fill="#F0F0F0"/>
<path d="M360.681 179.348H357.839V182.19H360.681V179.348Z" fill="#F0F0F0"/>
<path d="M360.681 184.109H357.839V186.951H360.681V184.109Z" fill="#F0F0F0"/>
<path d="M360.681 188.876H357.839V191.718H360.681V188.876Z" fill="#F0F0F0"/>
<path d="M360.681 193.644H357.839V196.486H360.681V193.644Z" fill="#F0F0F0"/>
<path d="M360.681 198.412H357.839V201.254H360.681V198.412Z" fill="#F0F0F0"/>
<path d="M360.681 203.18H357.839V206.022H360.681V203.18Z" fill="#F0F0F0"/>
<path d="M360.681 212.695H357.839V215.537H360.681V212.695Z" fill="#F0F0F0"/>
<path d="M360.681 217.463H357.839V220.305H360.681V217.463Z" fill="#F0F0F0"/>
<path d="M360.681 231.759H357.839V234.601H360.681V231.759Z" fill="#F0F0F0"/>
<path d="M360.681 236.527H357.839V239.369H360.681V236.527Z" fill="#F0F0F0"/>
<path d="M360.681 241.295H357.839V244.137H360.681V241.295Z" fill="#F0F0F0"/>
<path d="M360.681 246.062H357.839V248.904H360.681V246.062Z" fill="#F0F0F0"/>
<path d="M360.681 250.823H357.839V253.666H360.681V250.823Z" fill="#F0F0F0"/>
<path d="M360.681 255.585H357.839V258.427H360.681V255.585Z" fill="#F0F0F0"/>
<path d="M360.681 260.346H357.839V263.188H360.681V260.346Z" fill="#F0F0F0"/>
<path d="M356.164 179.348H353.322V182.19H356.164V179.348Z" fill="#F0F0F0"/>
<path d="M356.164 184.109H353.322V186.951H356.164V184.109Z" fill="#F0F0F0"/>
<path d="M356.164 188.876H353.322V191.718H356.164V188.876Z" fill="#F0F0F0"/>
<path d="M356.164 193.644H353.322V196.486H356.164V193.644Z" fill="#F0F0F0"/>
<path d="M356.164 198.412H353.322V201.254H356.164V198.412Z" fill="#F0F0F0"/>
<path d="M356.164 203.18H353.322V206.022H356.164V203.18Z" fill="#F0F0F0"/>
<path d="M356.164 217.463H353.322V220.305H356.164V217.463Z" fill="#F0F0F0"/>
<path d="M356.164 222.23H353.322V225.073H356.164V222.23Z" fill="#F0F0F0"/>
<path d="M356.164 226.998H353.322V229.84H356.164V226.998Z" fill="#F0F0F0"/>
<path d="M356.164 231.759H353.322V234.601H356.164V231.759Z" fill="#F0F0F0"/>
<path d="M356.164 236.527H353.322V239.369H356.164V236.527Z" fill="#F0F0F0"/>
<path d="M356.164 241.295H353.322V244.137H356.164V241.295Z" fill="#F0F0F0"/>
<path d="M356.164 246.062H353.322V248.904H356.164V246.062Z" fill="#F0F0F0"/>
<path d="M356.164 250.823H353.322V253.666H356.164V250.823Z" fill="#F0F0F0"/>
<path d="M356.164 255.585H353.322V258.427H356.164V255.585Z" fill="#F0F0F0"/>
<path d="M356.164 260.346H353.322V263.188H356.164V260.346Z" fill="#F0F0F0"/>
<path d="M356.164 265.113H353.322V267.955H356.164V265.113Z" fill="#F0F0F0"/>
<path d="M356.164 274.649H353.322V277.491H356.164V274.649Z" fill="#F0F0F0"/>
<path d="M351.65 179.348H348.808V182.19H351.65V179.348Z" fill="#F0F0F0"/>
<path d="M351.65 184.109H348.808V186.951H351.65V184.109Z" fill="#F0F0F0"/>
<path d="M351.65 188.876H348.808V191.718H351.65V188.876Z" fill="#F0F0F0"/>
<path d="M351.65 193.644H348.808V196.486H351.65V193.644Z" fill="#F0F0F0"/>
<path d="M351.65 198.412H348.808V201.254H351.65V198.412Z" fill="#F0F0F0"/>
<path d="M351.65 203.18H348.808V206.022H351.65V203.18Z" fill="#F0F0F0"/>
<path d="M351.65 217.463H348.808V220.305H351.65V217.463Z" fill="#F0F0F0"/>
<path d="M351.65 222.23H348.808V225.073H351.65V222.23Z" fill="#F0F0F0"/>
<path d="M351.65 226.998H348.808V229.84H351.65V226.998Z" fill="#F0F0F0"/>
<path d="M351.65 231.759H348.808V234.601H351.65V231.759Z" fill="#F0F0F0"/>
<path d="M351.65 246.062H348.808V248.904H351.65V246.062Z" fill="#F0F0F0"/>
<path d="M351.65 250.823H348.808V253.666H351.65V250.823Z" fill="#F0F0F0"/>
<path d="M351.65 255.585H348.808V258.427H351.65V255.585Z" fill="#F0F0F0"/>
<path d="M351.65 260.346H348.808V263.188H351.65V260.346Z" fill="#F0F0F0"/>
<path d="M351.65 265.113H348.808V267.955H351.65V265.113Z" fill="#F0F0F0"/>
<path d="M351.65 274.649H348.808V277.491H351.65V274.649Z" fill="#F0F0F0"/>
<path d="M351.65 279.41H348.808V282.252H351.65V279.41Z" fill="#F0F0F0"/>
<path d="M310.692 223.658H307.85V226.5H310.692V223.658Z" fill="#F0F0F0"/>
<path d="M310.692 228.419H307.85V231.261H310.692V228.419Z" fill="#F0F0F0"/>
<path d="M310.692 233.187H307.85V236.029H310.692V233.187Z" fill="#F0F0F0"/>
<path d="M310.692 237.941H307.85V240.783H310.692V237.941Z" fill="#F0F0F0"/>
<path d="M310.692 242.709H307.85V245.551H310.692V242.709Z" fill="#F0F0F0"/>
<path d="M310.692 247.477H307.85V250.319H310.692V247.477Z" fill="#F0F0F0"/>
<path d="M310.692 252.238H307.85V255.08H310.692V252.238Z" fill="#F0F0F0"/>
<path d="M310.692 266.541H307.85V269.383H310.692V266.541Z" fill="#F0F0F0"/>
<path d="M310.692 271.302H307.85V274.144H310.692V271.302Z" fill="#F0F0F0"/>
<path d="M310.692 276.07H307.85V278.912H310.692V276.07Z" fill="#F0F0F0"/>
<path d="M306.177 223.658H303.335V226.5H306.177V223.658Z" fill="#F0F0F0"/>
<path d="M306.177 228.419H303.335V231.261H306.177V228.419Z" fill="#F0F0F0"/>
<path d="M306.177 233.187H303.335V236.029H306.177V233.187Z" fill="#F0F0F0"/>
<path d="M306.177 237.941H303.335V240.783H306.177V237.941Z" fill="#F0F0F0"/>
<path d="M306.177 242.709H303.335V245.551H306.177V242.709Z" fill="#F0F0F0"/>
<path d="M306.177 247.477H303.335V250.319H306.177V247.477Z" fill="#F0F0F0"/>
<path d="M306.177 252.238H303.335V255.08H306.177V252.238Z" fill="#F0F0F0"/>
<path d="M301.661 223.658H298.819V226.5H301.661V223.658Z" fill="#F0F0F0"/>
<path d="M301.661 228.419H298.819V231.261H301.661V228.419Z" fill="#F0F0F0"/>
<path d="M301.661 233.187H298.819V236.029H301.661V233.187Z" fill="#F0F0F0"/>
<path d="M301.661 237.941H298.819V240.783H301.661V237.941Z" fill="#F0F0F0"/>
<path d="M301.661 242.709H298.819V245.551H301.661V242.709Z" fill="#F0F0F0"/>
<path d="M301.661 247.477H298.819V250.319H301.661V247.477Z" fill="#F0F0F0"/>
<path d="M301.661 252.238H298.819V255.08H301.661V252.238Z" fill="#F0F0F0"/>
<path d="M297.147 223.658H294.305V226.5H297.147V223.658Z" fill="#F0F0F0"/>
<path d="M297.147 228.419H294.305V231.261H297.147V228.419Z" fill="#F0F0F0"/>
<path d="M297.147 233.187H294.305V236.029H297.147V233.187Z" fill="#F0F0F0"/>
<path d="M297.147 237.941H294.305V240.783H297.147V237.941Z" fill="#F0F0F0"/>
<path d="M297.147 242.709H294.305V245.551H297.147V242.709Z" fill="#F0F0F0"/>
<path d="M297.147 247.477H294.305V250.319H297.147V247.477Z" fill="#F0F0F0"/>
<path d="M297.147 252.238H294.305V255.08H297.147V252.238Z" fill="#F0F0F0"/>
<path d="M297.147 257.006H294.305V259.848H297.147V257.006Z" fill="#F0F0F0"/>
<path d="M297.147 261.773H294.305V264.615H297.147V261.773Z" fill="#F0F0F0"/>
<path d="M297.147 266.541H294.305V269.383H297.147V266.541Z" fill="#F0F0F0"/>
<path d="M297.147 271.302H294.305V274.144H297.147V271.302Z" fill="#F0F0F0"/>
<path d="M292.631 223.658H289.789V226.5H292.631V223.658Z" fill="#F0F0F0"/>
<path d="M292.631 228.419H289.789V231.261H292.631V228.419Z" fill="#F0F0F0"/>
<path d="M292.631 233.187H289.789V236.029H292.631V233.187Z" fill="#F0F0F0"/>
<path d="M292.631 237.941H289.789V240.783H292.631V237.941Z" fill="#F0F0F0"/>
<path d="M292.631 242.709H289.789V245.551H292.631V242.709Z" fill="#F0F0F0"/>
<path d="M292.631 247.477H289.789V250.319H292.631V247.477Z" fill="#F0F0F0"/>
<path d="M292.631 252.238H289.789V255.08H292.631V252.238Z" fill="#F0F0F0"/>
<path d="M292.631 257.006H289.789V259.848H292.631V257.006Z" fill="#F0F0F0"/>
<path d="M292.631 261.773H289.789V264.615H292.631V261.773Z" fill="#F0F0F0"/>
<path d="M292.631 266.541H289.789V269.383H292.631V266.541Z" fill="#F0F0F0"/>
<path d="M292.631 271.302H289.789V274.144H292.631V271.302Z" fill="#F0F0F0"/>
<path d="M292.631 276.07H289.789V278.912H292.631V276.07Z" fill="#F0F0F0"/>
<path d="M292.631 290.36H289.789V293.202H292.631V290.36Z" fill="#F0F0F0"/>
<path d="M292.631 295.127H289.789V297.969H292.631V295.127Z" fill="#F0F0F0"/>
<path d="M288.115 223.658H285.273V226.5H288.115V223.658Z" fill="#F0F0F0"/>
<path d="M288.115 228.419H285.273V231.261H288.115V228.419Z" fill="#F0F0F0"/>
<path d="M288.115 233.187H285.273V236.029H288.115V233.187Z" fill="#F0F0F0"/>
<path d="M288.115 247.477H285.273V250.319H288.115V247.477Z" fill="#F0F0F0"/>
<path d="M288.115 252.238H285.273V255.08H288.115V252.238Z" fill="#F0F0F0"/>
<path d="M288.115 257.006H285.273V259.848H288.115V257.006Z" fill="#F0F0F0"/>
<path d="M288.115 261.773H285.273V264.615H288.115V261.773Z" fill="#F0F0F0"/>
<path d="M288.115 266.541H285.273V269.383H288.115V266.541Z" fill="#F0F0F0"/>
<path d="M288.115 271.302H285.273V274.144H288.115V271.302Z" fill="#F0F0F0"/>
<path d="M288.115 276.07H285.273V278.912H288.115V276.07Z" fill="#F0F0F0"/>
<path d="M288.115 290.36H285.273V293.202H288.115V290.36Z" fill="#F0F0F0"/>
<path d="M288.115 295.127H285.273V297.969H288.115V295.127Z" fill="#F0F0F0"/>
<path d="M288.115 299.888H285.273V302.73H288.115V299.888Z" fill="#F0F0F0"/>
<path d="M240.811 195.059H237.969V197.901H240.811V195.059Z" fill="#F0F0F0"/>
<path d="M240.811 199.826H237.969V202.668H240.811V199.826Z" fill="#F0F0F0"/>
<path d="M240.811 204.587H237.969V207.429H240.811V204.587Z" fill="#F0F0F0"/>
<path d="M240.811 209.355H237.969V212.197H240.811V209.355Z" fill="#F0F0F0"/>
<path d="M240.811 214.123H237.969V216.965H240.811V214.123Z" fill="#F0F0F0"/>
<path d="M240.811 218.89H237.969V221.733H240.811V218.89Z" fill="#F0F0F0"/>
<path d="M240.811 223.658H237.969V226.5H240.811V223.658Z" fill="#F0F0F0"/>
<path d="M240.811 228.419H237.969V231.261H240.811V228.419Z" fill="#F0F0F0"/>
<path d="M240.811 233.187H237.969V236.029H240.811V233.187Z" fill="#F0F0F0"/>
<path d="M240.811 237.941H237.969V240.783H240.811V237.941Z" fill="#F0F0F0"/>
<path d="M240.811 242.709H237.969V245.551H240.811V242.709Z" fill="#F0F0F0"/>
<path d="M240.811 247.477H237.969V250.319H240.811V247.477Z" fill="#F0F0F0"/>
<path d="M240.811 252.238H237.969V255.08H240.811V252.238Z" fill="#F0F0F0"/>
<path d="M240.811 257.006H237.969V259.848H240.811V257.006Z" fill="#F0F0F0"/>
<path d="M240.811 261.773H237.969V264.615H240.811V261.773Z" fill="#F0F0F0"/>
<path d="M240.811 266.541H237.969V269.383H240.811V266.541Z" fill="#F0F0F0"/>
<path d="M240.811 271.302H237.969V274.144H240.811V271.302Z" fill="#F0F0F0"/>
<path d="M240.811 276.07H237.969V278.912H240.811V276.07Z" fill="#F0F0F0"/>
<path d="M240.811 280.837H237.969V283.68H240.811V280.837Z" fill="#F0F0F0"/>
<path d="M240.811 285.592H237.969V288.434H240.811V285.592Z" fill="#F0F0F0"/>
<path d="M240.811 290.36H237.969V293.202H240.811V290.36Z" fill="#F0F0F0"/>
<path d="M240.811 295.127H237.969V297.969H240.811V295.127Z" fill="#F0F0F0"/>
<path d="M240.811 299.888H237.969V302.73H240.811V299.888Z" fill="#F0F0F0"/>
<path d="M236.295 195.059H233.453V197.901H236.295V195.059Z" fill="#F0F0F0"/>
<path d="M236.295 199.826H233.453V202.668H236.295V199.826Z" fill="#F0F0F0"/>
<path d="M236.295 204.587H233.453V207.429H236.295V204.587Z" fill="#F0F0F0"/>
<path d="M236.295 209.355H233.453V212.197H236.295V209.355Z" fill="#F0F0F0"/>
<path d="M236.295 214.123H233.453V216.965H236.295V214.123Z" fill="#F0F0F0"/>
<path d="M236.295 218.89H233.453V221.733H236.295V218.89Z" fill="#F0F0F0"/>
<path d="M236.295 223.658H233.453V226.5H236.295V223.658Z" fill="#F0F0F0"/>
<path d="M236.295 228.419H233.453V231.261H236.295V228.419Z" fill="#F0F0F0"/>
<path d="M236.295 233.187H233.453V236.029H236.295V233.187Z" fill="#F0F0F0"/>
<path d="M236.295 237.941H233.453V240.783H236.295V237.941Z" fill="#F0F0F0"/>
<path d="M236.295 242.709H233.453V245.551H236.295V242.709Z" fill="#F0F0F0"/>
<path d="M236.295 247.477H233.453V250.319H236.295V247.477Z" fill="#F0F0F0"/>
<path d="M236.295 252.238H233.453V255.08H236.295V252.238Z" fill="#F0F0F0"/>
<path d="M236.295 257.006H233.453V259.848H236.295V257.006Z" fill="#F0F0F0"/>
<path d="M236.295 261.773H233.453V264.615H236.295V261.773Z" fill="#F0F0F0"/>
<path d="M236.295 266.541H233.453V269.383H236.295V266.541Z" fill="#F0F0F0"/>
<path d="M236.295 271.302H233.453V274.144H236.295V271.302Z" fill="#F0F0F0"/>
<path d="M236.295 276.07H233.453V278.912H236.295V276.07Z" fill="#F0F0F0"/>
<path d="M236.295 280.837H233.453V283.68H236.295V280.837Z" fill="#F0F0F0"/>
<path d="M231.78 195.059H228.938V197.901H231.78V195.059Z" fill="#F0F0F0"/>
<path d="M231.78 199.826H228.938V202.668H231.78V199.826Z" fill="#F0F0F0"/>
<path d="M231.78 204.587H228.938V207.429H231.78V204.587Z" fill="#F0F0F0"/>
<path d="M231.78 209.355H228.938V212.197H231.78V209.355Z" fill="#F0F0F0"/>
<path d="M231.78 214.123H228.938V216.965H231.78V214.123Z" fill="#F0F0F0"/>
<path d="M231.78 218.89H228.938V221.733H231.78V218.89Z" fill="#F0F0F0"/>
<path d="M231.78 223.658H228.938V226.5H231.78V223.658Z" fill="#F0F0F0"/>
<path d="M231.78 228.419H228.938V231.261H231.78V228.419Z" fill="#F0F0F0"/>
<path d="M231.78 233.187H228.938V236.029H231.78V233.187Z" fill="#F0F0F0"/>
<path d="M231.78 237.941H228.938V240.783H231.78V237.941Z" fill="#F0F0F0"/>
<path d="M231.78 242.709H228.938V245.551H231.78V242.709Z" fill="#F0F0F0"/>
<path d="M231.78 247.477H228.938V250.319H231.78V247.477Z" fill="#F0F0F0"/>
<path d="M231.78 252.238H228.938V255.08H231.78V252.238Z" fill="#F0F0F0"/>
<path d="M231.78 257.006H228.938V259.848H231.78V257.006Z" fill="#F0F0F0"/>
<path d="M231.78 261.773H228.938V264.615H231.78V261.773Z" fill="#F0F0F0"/>
<path d="M231.78 266.541H228.938V269.383H231.78V266.541Z" fill="#F0F0F0"/>
<path d="M231.78 271.302H228.938V274.144H231.78V271.302Z" fill="#F0F0F0"/>
<path d="M231.78 276.07H228.938V278.912H231.78V276.07Z" fill="#F0F0F0"/>
<path d="M231.78 280.837H228.938V283.68H231.78V280.837Z" fill="#F0F0F0"/>
<path d="M227.264 195.059H224.422V197.901H227.264V195.059Z" fill="#F0F0F0"/>
<path d="M227.264 199.826H224.422V202.668H227.264V199.826Z" fill="#F0F0F0"/>
<path d="M227.264 204.587H224.422V207.429H227.264V204.587Z" fill="#F0F0F0"/>
<path d="M227.264 209.355H224.422V212.197H227.264V209.355Z" fill="#F0F0F0"/>
<path d="M227.264 214.123H224.422V216.965H227.264V214.123Z" fill="#F0F0F0"/>
<path d="M227.264 218.89H224.422V221.733H227.264V218.89Z" fill="#F0F0F0"/>
<path d="M227.264 223.658H224.422V226.5H227.264V223.658Z" fill="#F0F0F0"/>
<path d="M227.264 228.419H224.422V231.261H227.264V228.419Z" fill="#F0F0F0"/>
<path d="M227.264 233.187H224.422V236.029H227.264V233.187Z" fill="#F0F0F0"/>
<path d="M227.264 237.941H224.422V240.783H227.264V237.941Z" fill="#F0F0F0"/>
<path d="M227.264 242.709H224.422V245.551H227.264V242.709Z" fill="#F0F0F0"/>
<path d="M227.264 247.477H224.422V250.319H227.264V247.477Z" fill="#F0F0F0"/>
<path d="M227.264 252.238H224.422V255.08H227.264V252.238Z" fill="#F0F0F0"/>
<path d="M227.264 257.006H224.422V259.848H227.264V257.006Z" fill="#F0F0F0"/>
<path d="M227.264 261.773H224.422V264.615H227.264V261.773Z" fill="#F0F0F0"/>
<path d="M222.749 195.059H219.907V197.901H222.749V195.059Z" fill="#F0F0F0"/>
<path d="M222.749 199.826H219.907V202.668H222.749V199.826Z" fill="#F0F0F0"/>
<path d="M222.749 204.587H219.907V207.429H222.749V204.587Z" fill="#F0F0F0"/>
<path d="M222.749 209.355H219.907V212.197H222.749V209.355Z" fill="#F0F0F0"/>
<path d="M222.749 214.123H219.907V216.965H222.749V214.123Z" fill="#F0F0F0"/>
<path d="M222.749 218.89H219.907V221.733H222.749V218.89Z" fill="#F0F0F0"/>
<path d="M222.749 223.658H219.907V226.5H222.749V223.658Z" fill="#F0F0F0"/>
<path d="M222.749 228.419H219.907V231.261H222.749V228.419Z" fill="#F0F0F0"/>
<path d="M222.749 233.187H219.907V236.029H222.749V233.187Z" fill="#F0F0F0"/>
<path d="M222.749 237.941H219.907V240.783H222.749V237.941Z" fill="#F0F0F0"/>
<path d="M222.749 242.709H219.907V245.551H222.749V242.709Z" fill="#F0F0F0"/>
<path d="M222.749 247.477H219.907V250.319H222.749V247.477Z" fill="#F0F0F0"/>
<path d="M222.749 252.238H219.907V255.08H222.749V252.238Z" fill="#F0F0F0"/>
<path d="M218.234 195.059H215.392V197.901H218.234V195.059Z" fill="#F0F0F0"/>
<path d="M218.234 199.826H215.392V202.668H218.234V199.826Z" fill="#F0F0F0"/>
<path d="M218.234 204.587H215.392V207.429H218.234V204.587Z" fill="#F0F0F0"/>
<path d="M218.234 209.355H215.392V212.197H218.234V209.355Z" fill="#F0F0F0"/>
<path d="M218.234 214.123H215.392V216.965H218.234V214.123Z" fill="#F0F0F0"/>
<path d="M218.234 218.89H215.392V221.733H218.234V218.89Z" fill="#F0F0F0"/>
<path d="M218.234 223.658H215.392V226.5H218.234V223.658Z" fill="#F0F0F0"/>
<path d="M218.234 228.419H215.392V231.261H218.234V228.419Z" fill="#F0F0F0"/>
<path d="M218.234 233.187H215.392V236.029H218.234V233.187Z" fill="#F0F0F0"/>
<path d="M218.234 237.941H215.392V240.783H218.234V237.941Z" fill="#F0F0F0"/>
<path d="M218.234 242.709H215.392V245.551H218.234V242.709Z" fill="#F0F0F0"/>
<path d="M218.234 247.477H215.392V250.319H218.234V247.477Z" fill="#F0F0F0"/>
<path d="M481.726 193.644H478.884V196.486H481.726V193.644Z" fill="#F0F0F0"/>
<path d="M481.726 198.412H478.884V201.254H481.726V198.412Z" fill="#F0F0F0"/>
<path d="M481.726 203.18H478.884V206.022H481.726V203.18Z" fill="#F0F0F0"/>
<path d="M481.726 207.934H478.884V210.776H481.726V207.934Z" fill="#F0F0F0"/>
<path d="M481.726 212.695H478.884V215.537H481.726V212.695Z" fill="#F0F0F0"/>
<path d="M481.726 217.463H478.884V220.305H481.726V217.463Z" fill="#F0F0F0"/>
<path d="M481.726 222.23H478.884V225.073H481.726V222.23Z" fill="#F0F0F0"/>
<path d="M481.726 226.998H478.884V229.84H481.726V226.998Z" fill="#F0F0F0"/>
<path d="M481.726 231.759H478.884V234.601H481.726V231.759Z" fill="#F0F0F0"/>
<path d="M481.726 236.527H478.884V239.369H481.726V236.527Z" fill="#F0F0F0"/>
<path d="M481.726 241.295H478.884V244.137H481.726V241.295Z" fill="#F0F0F0"/>
<path d="M481.726 246.062H478.884V248.904H481.726V246.062Z" fill="#F0F0F0"/>
<path d="M481.726 250.823H478.884V253.666H481.726V250.823Z" fill="#F0F0F0"/>
<path d="M481.726 255.585H478.884V258.427H481.726V255.585Z" fill="#F0F0F0"/>
<path d="M481.726 260.346H478.884V263.188H481.726V260.346Z" fill="#F0F0F0"/>
<path d="M481.726 265.113H478.884V267.955H481.726V265.113Z" fill="#F0F0F0"/>
<path d="M481.726 269.881H478.884V272.723H481.726V269.881Z" fill="#F0F0F0"/>
<path d="M481.726 279.41H478.884V282.252H481.726V279.41Z" fill="#F0F0F0"/>
<path d="M481.726 284.178H478.884V287.02H481.726V284.178Z" fill="#F0F0F0"/>
<path d="M481.726 288.945H478.884V291.787H481.726V288.945Z" fill="#F0F0F0"/>
<path d="M481.726 293.713H478.884V296.555H481.726V293.713Z" fill="#F0F0F0"/>
<path d="M481.726 298.467H478.884V301.309H481.726V298.467Z" fill="#F0F0F0"/>
<path d="M477.21 193.644H474.368V196.486H477.21V193.644Z" fill="#F0F0F0"/>
<path d="M477.21 198.412H474.368V201.254H477.21V198.412Z" fill="#F0F0F0"/>
<path d="M477.21 203.18H474.368V206.022H477.21V203.18Z" fill="#F0F0F0"/>
<path d="M477.21 207.934H474.368V210.776H477.21V207.934Z" fill="#F0F0F0"/>
<path d="M477.21 212.695H474.368V215.537H477.21V212.695Z" fill="#F0F0F0"/>
<path d="M477.21 217.463H474.368V220.305H477.21V217.463Z" fill="#F0F0F0"/>
<path d="M477.21 222.23H474.368V225.073H477.21V222.23Z" fill="#F0F0F0"/>
<path d="M477.21 226.998H474.368V229.84H477.21V226.998Z" fill="#F0F0F0"/>
<path d="M477.21 231.759H474.368V234.601H477.21V231.759Z" fill="#F0F0F0"/>
<path d="M477.21 236.527H474.368V239.369H477.21V236.527Z" fill="#F0F0F0"/>
<path d="M477.21 241.295H474.368V244.137H477.21V241.295Z" fill="#F0F0F0"/>
<path d="M477.21 246.062H474.368V248.904H477.21V246.062Z" fill="#F0F0F0"/>
<path d="M477.21 250.823H474.368V253.666H477.21V250.823Z" fill="#F0F0F0"/>
<path d="M477.21 255.585H474.368V258.427H477.21V255.585Z" fill="#F0F0F0"/>
<path d="M477.21 260.346H474.368V263.188H477.21V260.346Z" fill="#F0F0F0"/>
<path d="M477.21 265.113H474.368V267.955H477.21V265.113Z" fill="#F0F0F0"/>
<path d="M477.21 293.713H474.368V296.555H477.21V293.713Z" fill="#F0F0F0"/>
<path d="M477.21 298.467H474.368V301.309H477.21V298.467Z" fill="#F0F0F0"/>
<path d="M472.708 193.644H469.866V196.486H472.708V193.644Z" fill="#F0F0F0"/>
<path d="M472.708 198.412H469.866V201.254H472.708V198.412Z" fill="#F0F0F0"/>
<path d="M472.708 203.18H469.866V206.022H472.708V203.18Z" fill="#F0F0F0"/>
<path d="M472.708 207.934H469.866V210.776H472.708V207.934Z" fill="#F0F0F0"/>
<path d="M472.708 212.695H469.866V215.537H472.708V212.695Z" fill="#F0F0F0"/>
<path d="M472.708 217.463H469.866V220.305H472.708V217.463Z" fill="#F0F0F0"/>
<path d="M472.708 222.23H469.866V225.073H472.708V222.23Z" fill="#F0F0F0"/>
<path d="M472.708 226.998H469.866V229.84H472.708V226.998Z" fill="#F0F0F0"/>
<path d="M472.708 231.759H469.866V234.601H472.708V231.759Z" fill="#F0F0F0"/>
<path d="M472.708 236.527H469.866V239.369H472.708V236.527Z" fill="#F0F0F0"/>
<path d="M472.708 241.295H469.866V244.137H472.708V241.295Z" fill="#F0F0F0"/>
<path d="M472.708 246.062H469.866V248.904H472.708V246.062Z" fill="#F0F0F0"/>
<path d="M472.708 250.823H469.866V253.666H472.708V250.823Z" fill="#F0F0F0"/>
<path d="M472.708 255.585H469.866V258.427H472.708V255.585Z" fill="#F0F0F0"/>
<path d="M472.708 260.346H469.866V263.188H472.708V260.346Z" fill="#F0F0F0"/>
<path d="M472.708 265.113H469.866V267.955H472.708V265.113Z" fill="#F0F0F0"/>
<path d="M472.708 274.649H469.866V277.491H472.708V274.649Z" fill="#F0F0F0"/>
<path d="M472.708 279.41H469.866V282.252H472.708V279.41Z" fill="#F0F0F0"/>
<path d="M472.708 284.178H469.866V287.02H472.708V284.178Z" fill="#F0F0F0"/>
<path d="M472.708 288.945H469.866V291.787H472.708V288.945Z" fill="#F0F0F0"/>
<path d="M472.708 298.467H469.866V301.309H472.708V298.467Z" fill="#F0F0F0"/>
<path d="M393.954 226.998H391.112V229.84H393.954V226.998Z" fill="#F0F0F0"/>
<path d="M393.954 231.759H391.112V234.601H393.954V231.759Z" fill="#F0F0F0"/>
<path d="M393.954 236.527H391.112V239.369H393.954V236.527Z" fill="#F0F0F0"/>
<path d="M393.954 241.295H391.112V244.137H393.954V241.295Z" fill="#F0F0F0"/>
<path d="M393.954 246.062H391.112V248.904H393.954V246.062Z" fill="#F0F0F0"/>
<path d="M393.954 250.823H391.112V253.666H393.954V250.823Z" fill="#F0F0F0"/>
<path d="M393.954 255.585H391.112V258.427H393.954V255.585Z" fill="#F0F0F0"/>
<path d="M393.954 260.346H391.112V263.188H393.954V260.346Z" fill="#F0F0F0"/>
<path d="M393.954 265.113H391.112V267.955H393.954V265.113Z" fill="#F0F0F0"/>
<path d="M393.954 269.881H391.112V272.723H393.954V269.881Z" fill="#F0F0F0"/>
<path d="M393.954 274.649H391.112V277.491H393.954V274.649Z" fill="#F0F0F0"/>
<path d="M393.954 279.41H391.112V282.252H393.954V279.41Z" fill="#F0F0F0"/>
<path d="M393.954 284.178H391.112V287.02H393.954V284.178Z" fill="#F0F0F0"/>
<path d="M393.954 293.713H391.112V296.555H393.954V293.713Z" fill="#F0F0F0"/>
<path d="M393.954 298.467H391.112V301.309H393.954V298.467Z" fill="#F0F0F0"/>
<path d="M393.954 303.229H391.112V306.071H393.954V303.229Z" fill="#F0F0F0"/>
<path d="M393.954 307.996H391.112V310.838H393.954V307.996Z" fill="#F0F0F0"/>
<path d="M393.954 317.532H391.112V320.374H393.954V317.532Z" fill="#F0F0F0"/>
<path d="M393.954 322.299H391.112V325.141H393.954V322.299Z" fill="#F0F0F0"/>
<path d="M393.954 327.06H391.112V329.902H393.954V327.06Z" fill="#F0F0F0"/>
<path d="M389.439 226.998H386.597V229.84H389.439V226.998Z" fill="#F0F0F0"/>
<path d="M389.439 231.759H386.597V234.601H389.439V231.759Z" fill="#F0F0F0"/>
<path d="M389.439 236.527H386.597V239.369H389.439V236.527Z" fill="#F0F0F0"/>
<path d="M389.439 241.295H386.597V244.137H389.439V241.295Z" fill="#F0F0F0"/>
<path d="M389.439 246.062H386.597V248.904H389.439V246.062Z" fill="#F0F0F0"/>
<path d="M389.439 250.823H386.597V253.666H389.439V250.823Z" fill="#F0F0F0"/>
<path d="M389.439 255.585H386.597V258.427H389.439V255.585Z" fill="#F0F0F0"/>
<path d="M389.439 260.346H386.597V263.188H389.439V260.346Z" fill="#F0F0F0"/>
<path d="M389.439 265.113H386.597V267.955H389.439V265.113Z" fill="#F0F0F0"/>
<path d="M389.439 269.881H386.597V272.723H389.439V269.881Z" fill="#F0F0F0"/>
<path d="M389.439 274.649H386.597V277.491H389.439V274.649Z" fill="#F0F0F0"/>
<path d="M389.439 279.41H386.597V282.252H389.439V279.41Z" fill="#F0F0F0"/>
<path d="M389.439 284.178H386.597V287.02H389.439V284.178Z" fill="#F0F0F0"/>
<path d="M389.439 298.467H386.597V301.309H389.439V298.467Z" fill="#F0F0F0"/>
<path d="M389.439 303.229H386.597V306.071H389.439V303.229Z" fill="#F0F0F0"/>
<path d="M389.439 312.764H386.597V315.606H389.439V312.764Z" fill="#F0F0F0"/>
<path d="M389.439 317.532H386.597V320.374H389.439V317.532Z" fill="#F0F0F0"/>
<path d="M389.439 322.299H386.597V325.141H389.439V322.299Z" fill="#F0F0F0"/>
<path d="M389.439 327.06H386.597V329.902H389.439V327.06Z" fill="#F0F0F0"/>
<path d="M384.924 226.998H382.082V229.84H384.924V226.998Z" fill="#F0F0F0"/>
<path d="M384.924 231.759H382.082V234.601H384.924V231.759Z" fill="#F0F0F0"/>
<path d="M384.924 236.527H382.082V239.369H384.924V236.527Z" fill="#F0F0F0"/>
<path d="M384.924 241.295H382.082V244.137H384.924V241.295Z" fill="#F0F0F0"/>
<path d="M384.924 246.062H382.082V248.904H384.924V246.062Z" fill="#F0F0F0"/>
<path d="M384.924 250.823H382.082V253.666H384.924V250.823Z" fill="#F0F0F0"/>
<path d="M384.924 255.585H382.082V258.427H384.924V255.585Z" fill="#F0F0F0"/>
<path d="M384.924 260.346H382.082V263.188H384.924V260.346Z" fill="#F0F0F0"/>
<path d="M384.924 265.113H382.082V267.955H384.924V265.113Z" fill="#F0F0F0"/>
<path d="M384.924 269.881H382.082V272.723H384.924V269.881Z" fill="#F0F0F0"/>
<path d="M384.924 274.649H382.082V277.491H384.924V274.649Z" fill="#F0F0F0"/>
<path d="M384.924 279.41H382.082V282.252H384.924V279.41Z" fill="#F0F0F0"/>
<path d="M384.924 284.178H382.082V287.02H384.924V284.178Z" fill="#F0F0F0"/>
<path d="M384.924 288.945H382.082V291.787H384.924V288.945Z" fill="#F0F0F0"/>
<path d="M384.924 298.467H382.082V301.309H384.924V298.467Z" fill="#F0F0F0"/>
<path d="M384.924 307.996H382.082V310.838H384.924V307.996Z" fill="#F0F0F0"/>
<path d="M384.924 312.764H382.082V315.606H384.924V312.764Z" fill="#F0F0F0"/>
<path d="M384.924 317.532H382.082V320.374H384.924V317.532Z" fill="#F0F0F0"/>
<path d="M384.924 322.299H382.082V325.141H384.924V322.299Z" fill="#F0F0F0"/>
<path d="M384.924 327.06H382.082V329.902H384.924V327.06Z" fill="#F0F0F0"/>
<path d="M412.342 254.17H409.5V257.012H412.342V254.17Z" fill="#F0F0F0"/>
<path d="M412.342 258.931H409.5V261.773H412.342V258.931Z" fill="#F0F0F0"/>
<path d="M412.342 263.699H409.5V266.541H412.342V263.699Z" fill="#F0F0F0"/>
<path d="M412.342 268.453H409.5V271.295H412.342V268.453Z" fill="#F0F0F0"/>
<path d="M412.342 273.221H409.5V276.063H412.342V273.221Z" fill="#F0F0F0"/>
<path d="M412.342 277.989H409.5V280.831H412.342V277.989Z" fill="#F0F0F0"/>
<path d="M412.342 292.285H409.5V295.127H412.342V292.285Z" fill="#F0F0F0"/>
<path d="M412.342 297.053H409.5V299.895H412.342V297.053Z" fill="#F0F0F0"/>
<path d="M412.342 301.821H409.5V304.663H412.342V301.821Z" fill="#F0F0F0"/>
<path d="M412.342 306.582H409.5V309.424H412.342V306.582Z" fill="#F0F0F0"/>
<path d="M412.342 311.35H409.5V314.192H412.342V311.35Z" fill="#F0F0F0"/>
<path d="M412.342 316.104H409.5V318.946H412.342V316.104Z" fill="#F0F0F0"/>
<path d="M412.342 320.872H409.5V323.714H412.342V320.872Z" fill="#F0F0F0"/>
<path d="M407.826 254.17H404.984V257.012H407.826V254.17Z" fill="#F0F0F0"/>
<path d="M407.826 258.931H404.984V261.773H407.826V258.931Z" fill="#F0F0F0"/>
<path d="M407.826 263.699H404.984V266.541H407.826V263.699Z" fill="#F0F0F0"/>
<path d="M407.826 268.453H404.984V271.295H407.826V268.453Z" fill="#F0F0F0"/>
<path d="M407.826 273.221H404.984V276.063H407.826V273.221Z" fill="#F0F0F0"/>
<path d="M407.826 277.989H404.984V280.831H407.826V277.989Z" fill="#F0F0F0"/>
<path d="M407.826 292.285H404.984V295.127H407.826V292.285Z" fill="#F0F0F0"/>
<path d="M407.826 297.053H404.984V299.895H407.826V297.053Z" fill="#F0F0F0"/>
<path d="M407.826 301.821H404.984V304.663H407.826V301.821Z" fill="#F0F0F0"/>
<path d="M407.826 306.582H404.984V309.424H407.826V306.582Z" fill="#F0F0F0"/>
<path d="M407.826 311.35H404.984V314.192H407.826V311.35Z" fill="#F0F0F0"/>
<path d="M407.826 316.104H404.984V318.946H407.826V316.104Z" fill="#F0F0F0"/>
<path d="M407.826 325.639H404.984V328.481H407.826V325.639Z" fill="#F0F0F0"/>
<path d="M257.857 233.187H255.015V236.029H257.857V233.187Z" fill="#F0F0F0"/>
<path d="M257.857 237.941H255.015V240.783H257.857V237.941Z" fill="#F0F0F0"/>
<path d="M257.857 242.709H255.015V245.551H257.857V242.709Z" fill="#F0F0F0"/>
<path d="M257.857 247.477H255.015V250.319H257.857V247.477Z" fill="#F0F0F0"/>
<path d="M257.857 252.238H255.015V255.08H257.857V252.238Z" fill="#F0F0F0"/>
<path d="M257.857 257.006H255.015V259.848H257.857V257.006Z" fill="#F0F0F0"/>
<path d="M257.857 261.773H255.015V264.615H257.857V261.773Z" fill="#F0F0F0"/>
<path d="M257.857 266.541H255.015V269.383H257.857V266.541Z" fill="#F0F0F0"/>
<path d="M257.857 271.302H255.015V274.144H257.857V271.302Z" fill="#F0F0F0"/>
<path d="M257.857 276.07H255.015V278.912H257.857V276.07Z" fill="#F0F0F0"/>
<path d="M257.857 280.837H255.015V283.68H257.857V280.837Z" fill="#F0F0F0"/>
<path d="M257.857 290.36H255.015V293.202H257.857V290.36Z" fill="#F0F0F0"/>
<path d="M257.857 295.127H255.015V297.969H257.857V295.127Z" fill="#F0F0F0"/>
<path d="M257.857 299.888H255.015V302.73H257.857V299.888Z" fill="#F0F0F0"/>
<path d="M257.857 304.656H255.015V307.498H257.857V304.656Z" fill="#F0F0F0"/>
<path d="M257.857 309.424H255.015V312.266H257.857V309.424Z" fill="#F0F0F0"/>
<path d="M257.857 314.192H255.015V317.034H257.857V314.192Z" fill="#F0F0F0"/>
<path d="M257.857 318.953H255.015V321.795H257.857V318.953Z" fill="#F0F0F0"/>
<path d="M257.857 323.72H255.015V326.562H257.857V323.72Z" fill="#F0F0F0"/>
<path d="M253.354 233.187H250.512V236.029H253.354V233.187Z" fill="#F0F0F0"/>
<path d="M253.354 237.941H250.512V240.783H253.354V237.941Z" fill="#F0F0F0"/>
<path d="M253.354 242.709H250.512V245.551H253.354V242.709Z" fill="#F0F0F0"/>
<path d="M253.354 247.477H250.512V250.319H253.354V247.477Z" fill="#F0F0F0"/>
<path d="M253.354 252.238H250.512V255.08H253.354V252.238Z" fill="#F0F0F0"/>
<path d="M253.354 257.006H250.512V259.848H253.354V257.006Z" fill="#F0F0F0"/>
<path d="M253.354 261.773H250.512V264.615H253.354V261.773Z" fill="#F0F0F0"/>
<path d="M253.354 266.541H250.512V269.383H253.354V266.541Z" fill="#F0F0F0"/>
<path d="M253.354 271.302H250.512V274.144H253.354V271.302Z" fill="#F0F0F0"/>
<path d="M253.354 276.07H250.512V278.912H253.354V276.07Z" fill="#F0F0F0"/>
<path d="M253.354 280.837H250.512V283.68H253.354V280.837Z" fill="#F0F0F0"/>
<path d="M253.354 285.592H250.512V288.434H253.354V285.592Z" fill="#F0F0F0"/>
<path d="M253.354 290.36H250.512V293.202H253.354V290.36Z" fill="#F0F0F0"/>
<path d="M253.354 295.127H250.512V297.969H253.354V295.127Z" fill="#F0F0F0"/>
<path d="M253.354 299.888H250.512V302.73H253.354V299.888Z" fill="#F0F0F0"/>
<path d="M253.354 304.656H250.512V307.498H253.354V304.656Z" fill="#F0F0F0"/>
<path d="M253.354 309.424H250.512V312.266H253.354V309.424Z" fill="#F0F0F0"/>
<path d="M253.354 314.192H250.512V317.034H253.354V314.192Z" fill="#F0F0F0"/>
<path d="M253.354 318.953H250.512V321.795H253.354V318.953Z" fill="#F0F0F0"/>
<path d="M253.354 323.72H250.512V326.562H253.354V323.72Z" fill="#F0F0F0"/>
<path d="M280.101 251.74H277.259V254.582H280.101V251.74Z" fill="#F0F0F0"/>
<path d="M280.101 256.508H277.259V259.35H280.101V256.508Z" fill="#F0F0F0"/>
<path d="M280.101 261.269H277.259V264.111H280.101V261.269Z" fill="#F0F0F0"/>
<path d="M280.101 266.036H277.259V268.878H280.101V266.036Z" fill="#F0F0F0"/>
<path d="M280.101 270.804H277.259V273.646H280.101V270.804Z" fill="#F0F0F0"/>
<path d="M280.101 275.572H277.259V278.414H280.101V275.572Z" fill="#F0F0F0"/>
<path d="M280.101 280.333H277.259V283.175H280.101V280.333Z" fill="#F0F0F0"/>
<path d="M280.101 285.094H277.259V287.936H280.101V285.094Z" fill="#F0F0F0"/>
<path d="M280.101 289.855H277.259V292.697H280.101V289.855Z" fill="#F0F0F0"/>
<path d="M280.101 294.623H277.259V297.465H280.101V294.623Z" fill="#F0F0F0"/>
<path d="M275.586 251.74H272.744V254.582H275.586V251.74Z" fill="#F0F0F0"/>
<path d="M275.586 256.508H272.744V259.35H275.586V256.508Z" fill="#F0F0F0"/>
<path d="M275.586 261.269H272.744V264.111H275.586V261.269Z" fill="#F0F0F0"/>
<path d="M275.586 266.036H272.744V268.878H275.586V266.036Z" fill="#F0F0F0"/>
<path d="M275.586 270.804H272.744V273.646H275.586V270.804Z" fill="#F0F0F0"/>
<path d="M275.586 275.572H272.744V278.414H275.586V275.572Z" fill="#F0F0F0"/>
<path d="M275.586 280.333H272.744V283.175H275.586V280.333Z" fill="#F0F0F0"/>
<path d="M275.586 285.094H272.744V287.936H275.586V285.094Z" fill="#F0F0F0"/>
<path d="M275.586 289.855H272.744V292.697H275.586V289.855Z" fill="#F0F0F0"/>
<path d="M302.438 70.9121H297.67V336.675H302.438V70.9121Z" fill="#E0E0E0"/>
<path d="M392.183 70.9121H387.415V336.675H392.183V70.9121Z" fill="#E0E0E0"/>
<path d="M481.919 70.9121H477.151V336.675H481.919V70.9121Z" fill="#E0E0E0"/>
<path d="M142.72 310.772H172.116C173.449 310.772 174.728 311.301 175.671 312.244C176.613 313.187 177.143 314.465 177.143 315.799V372.613H137.706V315.845C137.699 315.185 137.823 314.529 138.069 313.917C138.316 313.304 138.681 312.746 139.144 312.275C139.606 311.804 140.157 311.428 140.765 311.17C141.373 310.912 142.026 310.777 142.687 310.772H142.72Z" fill="#F0F0F0"/>
<path d="M177.15 319.185H137.707V323.621H177.15V319.185Z" fill="#E6E6E6"/>
<path d="M160.137 365.189H169.965C170.681 365.189 171.369 365.473 171.876 365.98C172.382 366.487 172.667 367.175 172.667 367.891V372.679H157.395V367.845C157.395 367.128 157.679 366.441 158.186 365.934C158.693 365.427 159.38 365.142 160.097 365.142L160.137 365.189Z" fill="#E0E0E0"/>
<path d="M172.715 372.659H161.785C161.32 372.659 160.874 372.474 160.546 372.146C160.217 371.817 160.032 371.371 160.032 370.906C160.034 370.442 160.219 369.998 160.548 369.671C160.877 369.343 161.321 369.16 161.785 369.16H172.715C173.179 369.16 173.624 369.343 173.952 369.671C174.281 369.998 174.466 370.442 174.468 370.906C174.468 371.371 174.283 371.817 173.955 372.146C173.626 372.474 173.18 372.659 172.715 372.659Z" fill="#E6E6E6"/>
<path d="M347.841 58.4388C362.275 55.032 371.215 40.5692 367.808 26.1352C364.401 11.7011 349.938 2.76171 335.504 6.16846C321.07 9.5752 312.131 24.038 315.538 38.4721C318.944 52.9061 333.407 61.8455 347.841 58.4388Z" fill="#E0E0E0"/>
<path d="M341.669 55.1083C354.281 55.1083 364.505 44.8843 364.505 32.2724C364.505 19.6605 354.281 9.43654 341.669 9.43654C329.057 9.43654 318.833 19.6605 318.833 32.2724C318.833 44.8843 329.057 55.1083 341.669 55.1083Z" fill="#F0F0F0"/>
<path d="M342.752 16.6213V32.5845L353.323 26.6016" fill="#F0F0F0"/>
<path d="M342.753 33.6934C342.549 33.695 342.349 33.6399 342.175 33.5341C342.005 33.4327 341.864 33.2888 341.766 33.1165C341.668 32.9442 341.617 32.7494 341.617 32.5513V16.5748C341.639 16.2878 341.769 16.0197 341.98 15.8241C342.191 15.6284 342.468 15.5197 342.756 15.5197C343.044 15.5197 343.321 15.6284 343.532 15.8241C343.743 16.0197 343.873 16.2878 343.895 16.5748V30.6256L352.766 25.6056C353.03 25.4559 353.343 25.4173 353.636 25.4982C353.928 25.5792 354.177 25.7731 354.327 26.0372C354.476 26.3014 354.515 26.6142 354.434 26.9068C354.353 27.1995 354.159 27.448 353.895 27.5977L343.31 33.5739C343.136 33.6567 342.945 33.6977 342.753 33.6934Z" fill="#85339B"/>
<path d="M84.6707 294.397C82.6189 290.977 79.2456 293.952 79.2456 293.952C79.7237 287.471 73.7674 283.049 73.7674 283.049C73.7674 283.049 80.6932 283.049 81.6494 276.448C82.6056 269.848 79.2456 272.916 76.0716 272.869C72.8975 272.823 69.584 282.079 73.7939 287.292C78.0039 292.504 76.8485 301.396 67.1935 309.948C64.8822 312.109 63.1494 314.814 62.1536 317.817C62.8773 309.962 63.289 298.886 61.0114 291.502C57.087 278.958 64.5706 275.565 66.7088 269.29C68.8469 263.015 61.0114 257.703 61.0114 257.703C61.0114 257.703 68.4352 254.283 64.8097 250.465C61.1841 246.647 53.7005 247.145 53.7005 252.171C53.7005 257.198 58.7737 259.15 58.7737 259.15C58.7737 259.15 64.5706 265.18 64.5706 268.274C64.5706 271.368 58.7737 278.201 58.7737 278.201C58.7737 278.201 61.4298 272.424 56.1176 272.185C50.8053 271.946 49.1187 278.932 51.2967 282.066C53.4747 285.2 57.087 282.557 57.087 282.557C57.3283 286.208 57.8927 289.83 58.7737 293.381C59.3248 295.194 59.0725 302.272 58.6143 309.643C57.6067 306.983 55.995 304.594 53.9063 302.664C44.2448 294.111 43.1292 285.213 47.3126 280.007C51.4959 274.802 48.1492 265.538 45.0283 265.585C41.9074 265.631 38.4744 262.557 39.4438 269.157C40.4133 275.758 47.3325 275.798 47.3325 275.798C47.3325 275.798 41.3562 280.22 41.8476 286.694C41.8476 286.694 38.4279 283.753 36.4225 287.139C32.7571 293.175 41.2566 296.914 42.6777 293.985C42.6777 293.985 60.6861 306.728 56.3632 325.075L57.3659 326.569C57.2398 328.056 57.1601 328.94 57.1601 328.94L58.5612 328.335L60.1681 330.659C60.1166 333.322 60.2541 335.985 60.5798 338.628L64.8761 332.266C60.5333 313.919 78.5616 301.17 78.5616 301.17C79.8764 304.178 88.356 300.426 84.6707 294.397Z" fill="#E0E0E0"/>
<path opacity="0.2" d="M84.6707 294.397C82.6189 290.977 79.2456 293.952 79.2456 293.952C79.7237 287.471 73.7674 283.049 73.7674 283.049C73.7674 283.049 80.6932 283.049 81.6494 276.448C82.6056 269.848 79.2456 272.916 76.0716 272.869C72.8975 272.823 69.584 282.079 73.7939 287.292C78.0039 292.504 76.8485 301.396 67.1935 309.948C64.8822 312.109 63.1494 314.814 62.1536 317.817C62.8773 309.962 63.289 298.886 61.0114 291.502C57.087 278.958 64.5706 275.565 66.7088 269.29C68.8469 263.015 61.0114 257.703 61.0114 257.703C61.0114 257.703 68.4352 254.283 64.8097 250.465C61.1841 246.647 53.7005 247.145 53.7005 252.171C53.7005 257.198 58.7737 259.15 58.7737 259.15C58.7737 259.15 64.5706 265.18 64.5706 268.274C64.5706 271.368 58.7737 278.201 58.7737 278.201C58.7737 278.201 61.4298 272.424 56.1176 272.185C50.8053 271.946 49.1187 278.932 51.2967 282.066C53.4747 285.2 57.087 282.557 57.087 282.557C57.3283 286.208 57.8927 289.83 58.7737 293.381C59.3248 295.194 59.0725 302.272 58.6143 309.643C57.6067 306.983 55.995 304.594 53.9063 302.664C44.2448 294.111 43.1292 285.213 47.3126 280.007C51.4959 274.802 48.1492 265.538 45.0283 265.585C41.9074 265.631 38.4744 262.557 39.4438 269.157C40.4133 275.758 47.3325 275.798 47.3325 275.798C47.3325 275.798 41.3562 280.22 41.8476 286.694C41.8476 286.694 38.4279 283.753 36.4225 287.139C32.7571 293.175 41.2566 296.914 42.6777 293.985C42.6777 293.985 60.6861 306.728 56.3632 325.075L57.3659 326.569C57.2398 328.056 57.1601 328.94 57.1601 328.94L58.5612 328.335L60.1681 330.659C60.1166 333.322 60.2541 335.985 60.5798 338.628L64.8761 332.266C60.5333 313.919 78.5616 301.17 78.5616 301.17C79.8764 304.178 88.356 300.426 84.6707 294.397Z" fill="#E0E0E0"/>
<path d="M81.1714 372.659H39.9287L35.4863 327.505H85.6336L81.1714 372.659Z" fill="#E6E6E6"/>
<path d="M87.8252 322.525H33.2754V332.492H87.8252V322.525Z" fill="#F0F0F0"/>
<path d="M286.46 94.4862L258.06 109.784C257.295 110.197 257.009 111.151 257.421 111.916L266.484 128.741C266.896 129.506 267.851 129.793 268.616 129.38L297.016 114.082C297.781 113.67 298.068 112.715 297.655 111.95L288.592 95.1253C288.18 94.3601 287.226 94.074 286.46 94.4862Z" fill="#85339B"/>
<path opacity="0.7" d="M286.46 94.4862L258.06 109.784C257.295 110.197 257.009 111.151 257.421 111.916L266.484 128.741C266.896 129.506 267.851 129.793 268.616 129.38L297.016 114.082C297.781 113.67 298.068 112.715 297.655 111.95L288.592 95.1253C288.18 94.3601 287.226 94.074 286.46 94.4862Z" fill="white"/>
<path opacity="0.2" d="M281.323 113.755C280.973 114.509 280.389 115.129 279.658 115.524C278.927 115.918 278.088 116.067 277.266 115.946L258.454 113.171L276.934 114.997C277.648 115.07 278.368 114.929 279.001 114.592C279.635 114.255 280.154 113.737 280.493 113.104L289.331 96.5037L281.323 113.755Z" fill="black"/>
<path d="M302.578 94.93C299.576 87.6987 272.696 69.9227 274.622 68.3158C276.548 66.7088 281.382 70.1286 281.382 70.1286C281.382 70.1286 278.679 67.0077 281.382 66.8084C284.084 66.6092 289.954 70.2282 289.954 70.2282C289.954 70.2282 287.106 66.9678 289.954 66.8084C292.803 66.6491 298.222 71.9148 298.222 71.9148C298.222 71.9148 294.457 66.4964 300.174 70.4075C305.891 74.3186 310.586 87.1011 310.891 93.4426C311.197 99.784 305.579 102.161 302.578 94.93Z" fill="#85339B"/>
<path opacity="0.4" d="M302.578 94.93C299.576 87.6987 272.696 69.9227 274.622 68.3158C276.548 66.7088 281.382 70.1286 281.382 70.1286C281.382 70.1286 278.679 67.0077 281.382 66.8084C284.084 66.6092 289.954 70.2282 289.954 70.2282C289.954 70.2282 287.106 66.9678 289.954 66.8084C292.803 66.6491 298.222 71.9148 298.222 71.9148C298.222 71.9148 294.457 66.4964 300.174 70.4075C305.891 74.3186 310.586 87.1011 310.891 93.4426C311.197 99.784 305.579 102.161 302.578 94.93Z" fill="white"/>
<path d="M290.553 95.7268L288.375 98.1704C288.339 98.2097 288.295 98.2398 288.245 98.2582C288.196 98.2767 288.142 98.283 288.09 98.2767C288.005 98.2651 287.929 98.2211 287.877 98.1541C287.825 98.0871 287.801 98.0024 287.811 97.9181L288.129 95.023L284.358 95.3151C284.303 95.3214 284.247 95.3116 284.198 95.2868C284.148 95.2621 284.107 95.2235 284.079 95.1757C284.058 95.1426 284.045 95.1059 284.039 95.0675C284.033 95.0291 284.034 94.99 284.044 94.9522C284.053 94.9145 284.07 94.879 284.093 94.8479C284.116 94.8167 284.145 94.7904 284.178 94.7706L287.771 92.493L290.553 95.7268Z" fill="#85339B"/>
<path opacity="0.3" d="M290.553 95.7268L288.375 98.1704C288.339 98.2097 288.295 98.2398 288.245 98.2582C288.196 98.2767 288.142 98.283 288.09 98.2767C288.005 98.2651 287.929 98.2211 287.877 98.1541C287.825 98.0871 287.801 98.0024 287.811 97.9181L288.129 95.023L284.358 95.3151C284.303 95.3214 284.247 95.3116 284.198 95.2868C284.148 95.2621 284.107 95.2235 284.079 95.1757C284.058 95.1426 284.045 95.1059 284.039 95.0675C284.033 95.0291 284.034 94.99 284.044 94.9522C284.053 94.9145 284.07 94.879 284.093 94.8479C284.116 94.8167 284.145 94.7904 284.178 94.7706L287.771 92.493L290.553 95.7268Z" fill="white"/>
<path d="M327.393 89.3189C330.002 98.4427 324.504 108.828 314.165 108.702C303.826 108.576 299.271 98.6618 293.58 97.3005C287.89 95.9393 286.362 93.0375 287.717 90.2419C289.072 87.4464 292.724 87.453 300.194 89.8701C306.489 91.8954 314.431 92.0547 317.684 90.2419C323.581 86.9616 325.713 77.0012 325.713 77.0012C333.223 74.79 338.196 78.2098 338.196 78.2098C333.604 80.8002 329.854 84.6565 327.393 89.3189Z" fill="#85339B"/>
<path opacity="0.5" d="M327.393 89.3189C330.002 98.4427 324.504 108.828 314.165 108.702C303.826 108.576 299.271 98.6618 293.58 97.3005C287.89 95.9393 286.362 93.0375 287.717 90.2419C289.072 87.4464 292.724 87.453 300.194 89.8701C306.489 91.8954 314.431 92.0547 317.684 90.2419C323.581 86.9616 325.713 77.0012 325.713 77.0012C333.223 74.79 338.196 78.2098 338.196 78.2098C333.604 80.8002 329.854 84.6565 327.393 89.3189Z" fill="white"/>
<path d="M291.064 91.6098C291.19 91.6242 291.307 91.6846 291.392 91.7795C291.476 91.8744 291.523 91.9972 291.523 92.1244C291.523 92.2517 291.476 92.3744 291.392 92.4694C291.307 92.5643 291.19 92.6247 291.064 92.6391C290.937 92.6247 290.821 92.5643 290.736 92.4694C290.651 92.3744 290.604 92.2517 290.604 92.1244C290.604 91.9972 290.651 91.8744 290.736 91.7795C290.821 91.6846 290.937 91.6242 291.064 91.6098Z" fill="#2F2E41"/>
<path d="M317.744 92.161C325.533 91.497 350.72 71.4168 351.689 73.7807C352.659 76.1447 347.885 79.6507 347.885 79.6507C347.885 79.6507 351.716 78.0571 351.032 80.68C350.348 83.3029 345.102 87.7585 345.102 87.7585C345.102 87.7585 349.126 86.0719 348.383 88.8276C347.639 91.5833 340.985 95.1159 340.985 95.1159C340.985 95.1159 347.28 93.1769 341.809 97.3935C336.337 101.61 322.718 102.135 316.576 100.475C310.433 98.8145 309.942 92.7852 317.744 92.161Z" fill="#85339B"/>
<path opacity="0.4" d="M317.744 92.161C325.533 91.497 350.72 71.4168 351.689 73.7807C352.659 76.1447 347.885 79.6507 347.885 79.6507C347.885 79.6507 351.716 78.0571 351.032 80.68C350.348 83.3029 345.102 87.7585 345.102 87.7585C345.102 87.7585 349.126 86.0719 348.383 88.8276C347.639 91.5833 340.985 95.1159 340.985 95.1159C340.985 95.1159 347.28 93.1769 341.809 97.3935C336.337 101.61 322.718 102.135 316.576 100.475C310.433 98.8145 309.942 92.7852 317.744 92.161Z" fill="white"/>
<path d="M356.702 72.8112C356.603 72.8108 356.507 72.7755 356.431 72.7114C356.354 72.6473 356.303 72.5585 356.286 72.4605C356.268 72.3625 356.286 72.2615 356.335 72.1751C356.385 72.0888 356.463 72.0225 356.556 71.9878C357.625 71.5458 358.718 71.1644 359.83 70.8457C359.885 70.8245 359.944 70.8149 360.003 70.8175C360.063 70.8201 360.121 70.8348 360.174 70.8607C360.227 70.8867 360.274 70.9233 360.313 70.9683C360.351 71.0133 360.38 71.0657 360.397 71.1222C360.415 71.1788 360.42 71.2384 360.414 71.2972C360.407 71.356 360.388 71.4128 360.359 71.4641C360.329 71.5154 360.289 71.5601 360.242 71.5953C360.194 71.6306 360.14 71.6557 360.082 71.6691C358.989 72.0011 357.909 72.3553 356.842 72.7316C356.796 72.7382 356.749 72.7382 356.702 72.7316V72.8112Z" fill="#85339B"/>
<path d="M418.71 164.606C418.602 164.582 418.507 164.517 418.446 164.424C418.385 164.331 418.363 164.217 418.385 164.108C418.406 163.997 418.47 163.898 418.563 163.834C418.656 163.769 418.771 163.744 418.883 163.763C421.116 164.173 423.379 164.395 425.649 164.427C425.754 164.44 425.85 164.491 425.919 164.57C425.989 164.648 426.027 164.75 426.027 164.855C426.027 164.961 425.989 165.062 425.919 165.141C425.85 165.22 425.754 165.271 425.649 165.284C423.321 165.252 421 165.025 418.71 164.606ZM432.396 164.938C432.305 164.925 432.222 164.883 432.157 164.818C432.093 164.754 432.05 164.67 432.037 164.58C432.028 164.523 432.029 164.466 432.042 164.41C432.055 164.355 432.079 164.302 432.113 164.256C432.146 164.21 432.188 164.17 432.237 164.14C432.285 164.111 432.339 164.091 432.396 164.082C434.656 163.822 436.902 163.443 439.122 162.946C439.178 162.932 439.236 162.929 439.292 162.937C439.349 162.946 439.403 162.965 439.452 162.995C439.501 163.025 439.543 163.065 439.577 163.112C439.61 163.159 439.633 163.212 439.645 163.268C439.657 163.324 439.658 163.382 439.647 163.438C439.636 163.494 439.614 163.548 439.582 163.595C439.55 163.643 439.508 163.683 439.46 163.714C439.412 163.746 439.358 163.767 439.302 163.776C437.047 164.293 434.763 164.675 432.462 164.918L432.396 164.938ZM412.223 162.661C412.15 162.657 412.08 162.637 412.017 162.601C409.87 161.67 407.875 160.421 406.1 158.896C406.012 158.82 405.958 158.712 405.949 158.597C405.94 158.481 405.978 158.366 406.054 158.278C406.13 158.19 406.237 158.136 406.353 158.127C406.469 158.118 406.583 158.156 406.671 158.232C408.379 159.704 410.3 160.908 412.369 161.804C412.47 161.853 412.547 161.94 412.585 162.045C412.622 162.151 412.616 162.267 412.568 162.369C412.536 162.443 412.482 162.507 412.413 162.551C412.345 162.595 412.264 162.617 412.183 162.614L412.223 162.661ZM445.424 161.598C445.39 161.491 445.398 161.374 445.448 161.273C445.497 161.171 445.584 161.093 445.69 161.054C447.848 160.337 449.986 159.5 452.064 158.59C452.158 158.557 452.261 158.558 452.355 158.593C452.448 158.629 452.527 158.696 452.575 158.783C452.604 158.832 452.622 158.886 452.63 158.943C452.637 158.999 452.634 159.056 452.619 159.111C452.604 159.166 452.578 159.218 452.544 159.263C452.509 159.308 452.466 159.346 452.416 159.374C450.305 160.297 448.127 161.14 445.962 161.864H445.829C445.743 161.864 445.658 161.839 445.586 161.792C445.514 161.745 445.458 161.677 445.424 161.598ZM458.446 156.352C458.36 156.369 458.271 156.36 458.19 156.325C458.11 156.291 458.041 156.233 457.994 156.16C457.967 156.112 457.95 156.058 457.944 156.003C457.938 155.948 457.942 155.893 457.958 155.84C457.973 155.787 457.999 155.737 458.034 155.694C458.068 155.651 458.111 155.615 458.16 155.589C460.152 154.46 462.144 153.238 463.964 151.97C464.056 151.906 464.17 151.881 464.281 151.901C464.392 151.921 464.49 151.984 464.555 152.076C464.588 152.121 464.611 152.172 464.624 152.227C464.637 152.281 464.639 152.338 464.629 152.393C464.62 152.448 464.6 152.5 464.57 152.548C464.54 152.595 464.501 152.635 464.455 152.667C462.602 153.955 460.624 155.184 458.578 156.326C458.511 156.346 458.44 156.346 458.372 156.326L458.446 156.352ZM402.076 153.743C401.991 153.762 401.901 153.756 401.82 153.724C401.738 153.692 401.668 153.636 401.618 153.564C401.253 152.9 400.914 152.235 400.602 151.571C399.953 150.126 399.439 148.623 399.068 147.083C399.053 147.028 399.049 146.971 399.057 146.915C399.064 146.859 399.082 146.805 399.111 146.756C399.139 146.707 399.177 146.665 399.222 146.631C399.267 146.597 399.319 146.572 399.374 146.558C399.485 146.532 399.603 146.551 399.701 146.61C399.799 146.67 399.87 146.766 399.898 146.877C400.251 148.369 400.747 149.823 401.379 151.22C401.678 151.884 402.01 152.548 402.362 153.132C402.389 153.18 402.406 153.233 402.413 153.287C402.42 153.342 402.416 153.397 402.401 153.451C402.386 153.504 402.361 153.553 402.327 153.597C402.293 153.64 402.25 153.676 402.202 153.703C402.135 153.723 402.064 153.723 401.997 153.703L402.076 153.743ZM469.694 148.477C469.627 148.465 469.563 148.437 469.509 148.396C469.454 148.354 469.411 148.3 469.382 148.238C469.306 148.156 469.264 148.048 469.264 147.936C469.264 147.824 469.306 147.716 469.382 147.634C471.086 146.13 472.683 144.511 474.163 142.786C474.201 142.747 474.247 142.715 474.298 142.694C474.349 142.672 474.403 142.661 474.459 142.661C474.514 142.661 474.568 142.672 474.619 142.694C474.67 142.715 474.716 142.747 474.754 142.786C474.833 142.867 474.877 142.976 474.877 143.089C474.877 143.201 474.833 143.31 474.754 143.391C473.247 145.15 471.621 146.803 469.887 148.338C469.81 148.401 469.714 148.439 469.614 148.444L469.694 148.477ZM398.71 140.509C398.595 140.509 398.485 140.463 398.404 140.382C398.324 140.301 398.278 140.192 398.278 140.077C398.3 137.758 398.522 135.445 398.942 133.165C398.965 133.052 399.03 132.953 399.124 132.887C399.218 132.822 399.333 132.795 399.447 132.813C399.502 132.823 399.554 132.844 399.601 132.875C399.648 132.906 399.688 132.945 399.72 132.991C399.751 133.038 399.773 133.09 399.784 133.144C399.796 133.199 399.796 133.256 399.785 133.311C399.385 135.544 399.176 137.808 399.161 140.077C399.161 140.133 399.15 140.188 399.129 140.24C399.107 140.291 399.076 140.338 399.037 140.378C398.997 140.417 398.95 140.448 398.899 140.47C398.847 140.491 398.792 140.502 398.736 140.502L398.71 140.509ZM400.868 126.963C400.76 126.927 400.67 126.852 400.616 126.751C400.563 126.651 400.551 126.534 400.582 126.425C401.173 124.433 401.91 122.275 402.78 119.884C402.822 119.779 402.902 119.694 403.005 119.647C403.108 119.6 403.225 119.595 403.331 119.632C403.435 119.674 403.517 119.756 403.561 119.86C403.604 119.963 403.605 120.079 403.564 120.183C402.681 122.553 401.963 124.672 401.386 126.67C401.358 126.758 401.303 126.835 401.229 126.89C401.155 126.944 401.066 126.975 400.974 126.976L400.868 126.963ZM405.516 114.007C405.463 113.984 405.415 113.951 405.376 113.91C405.336 113.868 405.304 113.819 405.283 113.765C405.262 113.712 405.252 113.655 405.253 113.597C405.254 113.539 405.267 113.483 405.29 113.43C406.014 111.637 406.997 109.572 408.046 107.294V107.181C408.101 107.09 408.188 107.023 408.29 106.992C408.392 106.961 408.502 106.969 408.599 107.014C408.695 107.06 408.772 107.139 408.813 107.237C408.854 107.336 408.858 107.446 408.823 107.546V107.659C407.787 109.884 406.791 111.982 406.06 113.802C406.029 113.874 405.977 113.935 405.911 113.977C405.845 114.02 405.767 114.042 405.689 114.041L405.516 114.007ZM411.373 101.57C411.32 101.55 411.273 101.518 411.233 101.477C411.13 101.432 411.05 101.348 411.009 101.244C410.968 101.139 410.97 101.023 411.014 100.92C412.037 98.5622 412.847 96.4772 413.484 94.5449C413.521 94.4366 413.598 94.3468 413.7 94.2947C413.802 94.2426 413.92 94.2323 414.029 94.266C414.136 94.3049 414.223 94.3848 414.272 94.4881C414.321 94.5914 414.326 94.7097 414.288 94.8171C413.624 96.7627 412.82 98.8743 411.791 101.258C411.756 101.334 411.7 101.399 411.629 101.444C411.559 101.488 411.476 101.512 411.393 101.51L411.373 101.57ZM415.496 88.4491C415.387 88.4266 415.289 88.3634 415.224 88.2723C415.159 88.1812 415.13 88.0689 415.144 87.9577C415.332 86.7761 415.428 85.5817 415.43 84.3852C415.437 83.3381 415.342 82.2927 415.144 81.2643C415.138 81.1667 415.163 81.0695 415.217 80.9879C415.271 80.9062 415.351 80.8447 415.443 80.8128C415.497 80.7952 415.554 80.7885 415.611 80.793C415.668 80.7975 415.723 80.8132 415.773 80.8391C415.824 80.865 415.869 80.9007 415.906 80.944C415.942 80.9874 415.97 81.0375 415.988 81.0917C416.195 82.1861 416.295 83.298 416.286 84.4118C416.287 85.6507 416.187 86.8876 415.988 88.1104C415.971 88.2103 415.92 88.3012 415.844 88.3678C415.767 88.4343 415.67 88.4725 415.569 88.4756L415.496 88.4491ZM412.568 75.5537C412.495 75.5526 412.423 75.5332 412.359 75.4973C412.295 75.4613 412.242 75.4099 412.203 75.3478C410.749 73.6408 408.976 72.2334 406.983 71.2043C406.885 71.1494 406.811 71.0593 406.777 70.9521C406.742 70.8449 406.75 70.7286 406.798 70.6266C406.853 70.5277 406.946 70.4543 407.055 70.4221C407.164 70.3899 407.281 70.4013 407.382 70.454C409.472 71.5361 411.334 73.0105 412.867 74.7967C412.943 74.8789 412.985 74.9868 412.985 75.0988C412.985 75.2108 412.943 75.3187 412.867 75.401C412.79 75.4627 412.693 75.4955 412.594 75.4939L412.568 75.5537ZM366.584 69.9161C366.489 69.914 366.398 69.8801 366.324 69.8199C366.251 69.7597 366.2 69.6767 366.179 69.5841C366.166 69.5287 366.165 69.4714 366.174 69.4153C366.183 69.3593 366.204 69.3057 366.234 69.2575C366.264 69.2094 366.304 69.1677 366.35 69.1349C366.397 69.102 366.449 69.0787 366.504 69.0662C368.782 68.608 371.066 68.2162 373.344 67.924C373.399 67.9166 373.455 67.9202 373.508 67.9346C373.562 67.949 373.612 67.9739 373.656 68.0079C373.7 68.0419 373.737 68.0843 373.764 68.1326C373.791 68.1809 373.809 68.2341 373.815 68.2892C373.823 68.3442 373.819 68.4002 373.805 68.4538C373.79 68.5074 373.765 68.5576 373.731 68.6015C373.697 68.6453 373.655 68.682 373.607 68.7094C373.558 68.7367 373.505 68.7541 373.45 68.7607C371.159 69.0595 368.888 69.4247 366.704 69.9028H366.577L366.584 69.9161ZM400.748 68.9334C398.535 68.4345 396.286 68.1104 394.022 67.9639C393.91 67.9537 393.807 67.8999 393.735 67.8141C393.663 67.7283 393.627 67.6174 393.636 67.5057C393.647 67.393 393.7 67.2885 393.785 67.2143C393.871 67.14 393.982 67.1017 394.095 67.1073C396.396 67.266 398.683 67.5989 400.934 68.1033C400.99 68.1083 401.044 68.1243 401.093 68.1505C401.143 68.1767 401.186 68.2125 401.221 68.2559C401.257 68.2992 401.283 68.3491 401.299 68.4028C401.314 68.4564 401.319 68.5126 401.313 68.5681C401.299 68.6804 401.242 68.7829 401.154 68.8537C401.066 68.9245 400.954 68.9579 400.841 68.9466L400.748 68.9334ZM380.23 68.2029C380.128 68.1806 380.038 68.1216 379.976 68.0371C379.915 67.9526 379.887 67.8485 379.898 67.7447C379.894 67.6896 379.902 67.6343 379.92 67.5821C379.938 67.5299 379.967 67.482 380.004 67.4411C380.041 67.4002 380.086 67.3672 380.136 67.344C380.187 67.3209 380.241 67.3081 380.296 67.3065C382.235 67.167 384.619 67.0276 387.136 66.9745C387.247 66.9745 387.353 67.0185 387.432 67.097C387.51 67.1754 387.554 67.2819 387.554 67.3928C387.556 67.5062 387.513 67.6157 387.435 67.6977C387.356 67.7797 387.249 67.8276 387.136 67.8311C384.639 67.8775 382.275 68.0236 380.296 68.1564L380.23 68.2029Z" fill="#85339B"/>
<path d="M478.479 137.919C478.389 137.921 478.301 137.895 478.226 137.846C478.181 137.816 478.143 137.777 478.113 137.732C478.083 137.687 478.063 137.636 478.053 137.583C478.043 137.53 478.044 137.475 478.055 137.422C478.067 137.369 478.089 137.319 478.12 137.275C478.673 136.301 479.169 135.297 479.608 134.267C479.656 134.165 479.74 134.084 479.845 134.043C479.95 134.001 480.067 134 480.172 134.041C480.275 134.086 480.356 134.17 480.397 134.275C480.438 134.379 480.436 134.496 480.391 134.599C479.941 135.663 479.426 136.698 478.851 137.7C478.814 137.768 478.759 137.824 478.692 137.863C478.626 137.902 478.549 137.921 478.472 137.919H478.479Z" fill="#85339B"/>
<path d="M94.3652 153.285L106.265 279.496H112.354L99.9032 153.006L94.3652 153.285Z" fill="#C2C4C6"/>
<path d="M111.253 153.285L119.274 277.836H124.261L117.335 153.006L111.253 153.285Z" fill="#C2C4C6"/>
<path d="M110.421 395.468H104.325V288.354H113.462L110.421 395.468Z" fill="#C2C4C6"/>
<path d="M145.018 394.911H138.929L136.438 288.354H145.569L145.018 394.911Z" fill="#C2C4C6"/>
<path d="M154.148 395.19H160.237L162.727 288.627H153.597L154.148 395.19Z" fill="#C2C4C6"/>
<path d="M200.372 395.189H206.461L206.74 289.463H197.603L200.372 395.189Z" fill="#C2C4C6"/>
<path d="M151.658 275.618H103.224V290.008H151.658V275.618Z" fill="#2E3135"/>
<path d="M208.399 275.618H151.658V290.008H208.399V275.618Z" fill="#3F4347"/>
<path d="M158.025 372.493V383.841H171.034V371.112L158.025 372.493Z" fill="#F9B499"/>
<path d="M157.469 393.901V383.011L171.068 382.839L186.268 390.86C186.686 391.082 187.037 391.414 187.281 391.82C187.526 392.225 187.655 392.69 187.655 393.164C187.654 393.851 187.382 394.509 186.898 394.996C186.415 395.483 185.759 395.76 185.072 395.767L159.607 396C159.328 396.005 159.051 395.955 158.792 395.851C158.532 395.748 158.296 395.595 158.097 395.399C157.898 395.204 157.74 394.971 157.632 394.714C157.524 394.456 157.469 394.18 157.469 393.901Z" fill="#85339B"/>
<path d="M217.809 372.221V383.562H230.817V370.833L217.809 372.221Z" fill="#F9B499"/>
<path d="M217.257 393.622V382.732L230.856 382.56L246.029 390.581C246.448 390.802 246.799 391.134 247.044 391.54C247.288 391.946 247.417 392.411 247.417 392.885C247.417 393.572 247.145 394.231 246.662 394.719C246.178 395.206 245.521 395.483 244.834 395.488L219.368 395.727C219.091 395.728 218.817 395.674 218.561 395.569C218.305 395.464 218.072 395.309 217.876 395.113C217.68 394.918 217.524 394.685 217.418 394.429C217.311 394.174 217.257 393.899 217.257 393.622Z" fill="#85339B"/>
<path d="M67.5186 395.468H71.6687L94.0863 229.395H89.6572L67.5186 395.468Z" fill="#9EA0A3"/>
<path d="M148.059 395.468H143.909L121.491 229.395H125.92L148.059 395.468Z" fill="#9EA0A3"/>
<path d="M135.888 320.46H78.8682V324.889H135.888V320.46Z" fill="#9EA0A3"/>
<path d="M284.789 395.468H288.939L311.363 229.395H306.934L284.789 395.468Z" fill="#9EA0A3"/>
<path d="M365.335 395.468H361.178L338.761 229.395H343.19L365.335 395.468Z" fill="#9EA0A3"/>
<path d="M353.158 320.46H296.138V324.889H353.158V320.46Z" fill="#9EA0A3"/>
<path d="M165.776 138.065L166.327 154.945L92.1484 156.605L91.3184 140.276L165.776 138.065Z" fill="#2E3135"/>
<path d="M362.566 223.864H80.5277C78.0816 223.864 76.0986 225.847 76.0986 228.293C76.0986 230.739 78.0816 232.722 80.5277 232.722H362.566C365.012 232.722 366.995 230.739 366.995 228.293C366.995 225.847 365.012 223.864 362.566 223.864Z" fill="#E1E1E2"/>
<path d="M150.276 377.752H185.151L190.961 301.389C190.961 301.389 191.24 290.32 190.41 285.061C190.41 285.061 204.799 294.47 208.119 296.13L207.103 372.101C207.103 372.101 230.544 377.5 241.334 374.18L245.212 291.422C245.212 291.422 247.974 270.665 231.931 257.377L202.714 232.848L126.922 232.589C126.922 232.589 118.954 262.915 135.309 280.353L151.611 296.595C152.251 297.232 152.751 297.996 153.079 298.838C153.407 299.679 153.556 300.58 153.517 301.482L150.276 377.752Z" fill="#2F2E41"/>
<path opacity="0.2" d="M190.41 285.034C190.41 285.034 191.24 275.074 183.491 263.719L168.544 239.083C168.544 239.083 200.025 264.151 212.469 278.095C215.373 281.35 216.955 285.573 216.905 289.935L215.836 373.602C212.896 373.269 209.98 372.755 207.104 372.061L208.12 296.13L190.41 285.034Z" fill="black"/>
<path d="M170.617 141.996L141.114 148.856C141.114 148.856 126.725 149.134 122.296 164.633L115.788 198.817L131.426 210.026L144.262 223.844H226.109L221.66 169.892C221.66 169.892 217.504 154.865 188.858 148.404L170.617 141.996Z" fill="#85339B"/>
<path opacity="0.2" d="M145.848 163.803L144.52 187.548L144.287 223.844H164.686C164.686 223.844 151.937 188.438 145.848 163.803Z" fill="black"/>
<path opacity="0.2" d="M203.12 223.844H215.929C215.929 223.844 207.848 195.909 207.569 173.763L203.12 223.844Z" fill="black"/>
<path d="M297.207 143.596H218.128C214.285 143.596 211.169 146.712 211.169 150.555V200.577C211.169 204.42 214.285 207.536 218.128 207.536H297.207C301.05 207.536 304.166 204.42 304.166 200.577V150.555C304.166 146.712 301.05 143.596 297.207 143.596Z" fill="#2F2E41"/>
<path opacity="0.2" d="M297.3 143.596H218.035C214.243 143.596 211.169 146.671 211.169 150.463V200.67C211.169 204.462 214.243 207.536 218.035 207.536H297.3C301.092 207.536 304.166 204.462 304.166 200.67V150.463C304.166 146.671 301.092 143.596 297.3 143.596Z" fill="black"/>
<path d="M262.757 130.967C262.728 131.255 262.601 131.524 262.398 131.73C262.196 131.937 261.933 132.072 261.648 132.115L252.962 133.357C252.962 133.357 255.731 133.908 255.731 135.568C255.731 135.568 256.282 136.677 254.622 137.786C254.942 138.345 255.086 138.987 255.036 139.629C254.986 140.27 254.745 140.882 254.343 141.385C254.343 141.385 255.054 143.165 254.011 143.656L234.416 143.596C234.416 143.596 241.056 131.139 251.853 129.758L261.15 129.526H261.442C261.625 129.527 261.806 129.566 261.973 129.64C262.141 129.715 262.291 129.823 262.414 129.959C262.538 130.094 262.632 130.253 262.691 130.427C262.75 130.6 262.772 130.784 262.757 130.967Z" fill="#F9B499"/>
<path d="M262.756 130.967C262.727 131.255 262.6 131.524 262.397 131.73C262.195 131.937 261.932 132.072 261.647 132.115L252.961 133.357C250.026 133.173 247.11 133.949 244.654 135.568C246.593 131.697 255.172 131.697 255.172 131.697C259.084 131.418 260.598 130.435 261.149 129.526H261.441C261.624 129.527 261.805 129.566 261.972 129.64C262.14 129.715 262.29 129.823 262.413 129.959C262.537 130.094 262.631 130.253 262.69 130.427C262.749 130.6 262.771 130.784 262.756 130.967Z" fill="#F7A48B"/>
<path d="M253.514 138.337L249.35 142.488C249.35 142.488 248.401 143.437 244.038 143.656" stroke="#F7A48B" stroke-miterlimit="10"/>
<path d="M188.751 138.337V149.825C188.751 152.211 187.803 154.5 186.116 156.187C184.428 157.875 182.14 158.823 179.753 158.823C177.367 158.823 175.079 157.875 173.391 156.187C171.704 154.5 170.756 152.211 170.756 149.825V132.248L173.678 131.02L188.751 138.337Z" fill="#F9B499"/>
<path d="M188.75 138.337V146.512C186.287 146.399 179.7 145.283 175.603 136.777L188.75 138.337Z" fill="#F7A48B"/>
<path d="M195.39 127.547C198.141 127.547 200.371 124.387 200.371 120.488C200.371 116.59 198.141 113.43 195.39 113.43C192.64 113.43 190.41 116.59 190.41 120.488C190.41 124.387 192.64 127.547 195.39 127.547Z" fill="#85339B"/>
<path opacity="0.2" d="M194.84 126.139C196.828 126.139 198.439 123.856 198.439 121.039C198.439 118.223 196.828 115.94 194.84 115.94C192.853 115.94 191.241 118.223 191.241 121.039C191.241 123.856 192.853 126.139 194.84 126.139Z" fill="black"/>
<path d="M194.136 113.928C191.651 107.27 184.238 103.887 177.58 106.372C170.921 108.858 167.538 116.27 170.024 122.929L173.993 133.561C176.478 140.219 183.891 143.602 190.549 141.116C197.208 138.631 200.591 131.218 198.105 124.56L194.136 113.928Z" fill="#F9B499"/>
<path d="M164.599 128.53C164.599 128.53 157.574 119.977 162.607 108.025C163.029 106.992 163.756 106.114 164.692 105.508C165.298 105.086 166.014 104.851 166.751 104.832C167.489 104.814 168.216 105.011 168.842 105.402C168.842 105.402 168.842 105.249 168.902 104.997C169.083 103.974 169.466 102.999 170.028 102.126C170.591 101.254 171.321 100.502 172.178 99.9153C173.034 99.3286 173.999 98.9184 175.015 98.7089C176.032 98.4994 177.08 98.4947 178.099 98.695C181.673 99.3377 185.326 99.4117 188.923 98.9142C189.526 98.8337 190.123 98.7095 190.709 98.5423C192.787 97.9712 199.613 96.7826 200.078 105.926C200.078 105.926 201.705 110.74 194.388 114.286L193.279 111.936C192.688 110.914 191.937 109.995 191.054 109.213C191.054 109.213 183.478 115.614 174.062 113.954L172.999 117.274L164.599 128.53Z" fill="#2F2E41"/>
<path d="M170.331 126.139H174.315V134.167H170.331C169.275 134.167 168.261 133.748 167.514 133C166.767 132.253 166.347 131.24 166.347 130.183C166.339 129.655 166.436 129.13 166.633 128.64C166.83 128.15 167.122 127.703 167.493 127.327C167.863 126.951 168.305 126.652 168.793 126.448C169.28 126.244 169.803 126.139 170.331 126.139Z" fill="#F9B499"/>
<path d="M169.375 118.131C169.375 118.131 167.681 104.187 178.074 98.695L180.431 99.1001C180.431 99.1001 172.462 107.148 174.375 117.899L169.375 118.131Z" fill="#85339B"/>
<path d="M172.143 132.806C175.202 132.806 177.681 129.274 177.681 124.917C177.681 120.561 175.202 117.029 172.143 117.029C169.085 117.029 166.605 120.561 166.605 124.917C166.605 129.274 169.085 132.806 172.143 132.806Z" fill="#3F4347"/>
<path d="M169.375 131.697C172.433 131.697 174.913 128.662 174.913 124.917C174.913 121.173 172.433 118.138 169.375 118.138C166.316 118.138 163.837 121.173 163.837 124.917C163.837 128.662 166.316 131.697 169.375 131.697Z" fill="#85339B"/>
<path opacity="0.2" d="M168.956 129.479C171.021 129.479 172.695 127.312 172.695 124.639C172.695 121.965 171.021 119.798 168.956 119.798C166.892 119.798 165.218 121.965 165.218 124.639C165.218 127.312 166.892 129.479 168.956 129.479Z" fill="black"/>
<path d="M134.911 226.354C146.298 226.354 155.529 217.186 155.529 205.876C155.529 194.565 146.298 185.397 134.911 185.397C123.524 185.397 114.293 194.565 114.293 205.876C114.293 217.186 123.524 226.354 134.911 226.354Z" fill="#85339B"/>
<path d="M171.034 208.638C171.034 208.638 123.43 234.661 117.912 210.298C117.912 210.298 113.204 191.479 133.961 191.479C133.961 191.479 149.738 191.201 172.714 195.908L196.227 200.763C198.369 201.208 200.29 202.381 201.665 204.083L211.951 216.699C212.058 216.831 212.135 216.985 212.176 217.149C212.218 217.314 212.223 217.486 212.192 217.653C212.16 217.82 212.092 217.977 211.993 218.116C211.895 218.254 211.767 218.369 211.619 218.452C211.404 218.576 211.156 218.628 210.91 218.6C210.664 218.573 210.433 218.467 210.251 218.299L198.71 207.814L200.775 213.319C200.986 213.864 201.069 214.449 201.017 215.031C200.965 215.612 200.78 216.174 200.477 216.673C199.813 217.708 198.571 218.612 196.22 218.06C196.22 218.06 194.56 219.72 191.791 218.06C191.791 218.06 189.46 219.455 183.723 219.687C183.576 219.711 183.424 219.684 183.294 219.61C183.164 219.537 183.062 219.422 183.005 219.284C182.948 219.146 182.94 218.992 182.981 218.849C183.022 218.705 183.11 218.579 183.232 218.492C184.294 217.483 185.968 216.228 187.641 216.394L185.981 212.522C185.981 212.522 174.905 214.176 171.034 208.638Z" fill="#F9B499"/>
<path d="M191.513 203.937C191.513 203.937 197.602 203.379 198.711 207.808" stroke="#F7A48B" stroke-miterlimit="10"/>
<path d="M189.023 205.046L192.397 206.659C193.309 207.092 194.09 207.758 194.664 208.589C195.237 209.42 195.582 210.387 195.664 211.394L196.221 218.034" stroke="#F7A48B" stroke-miterlimit="10"/>
<path d="M191.792 218.054L191.579 213.658C191.552 212.951 191.374 212.258 191.057 211.626C190.74 210.994 190.291 210.437 189.74 209.992L187.084 207.808" stroke="#F7A48B" stroke-miterlimit="10"/>
<path d="M299.935 143.596H225.358C220.272 143.596 216.148 147.72 216.148 152.807V198.326C216.148 203.412 220.272 207.536 225.358 207.536H299.935C305.022 207.536 309.145 203.412 309.145 198.326V152.807C309.145 147.72 305.022 143.596 299.935 143.596Z" fill="#2F2E41"/>
<path d="M280.226 149.964H280.22C278.922 149.964 277.869 151.017 277.869 152.315V161.731C277.869 163.029 278.922 164.082 280.22 164.082H280.226C281.525 164.082 282.577 163.029 282.577 161.731V152.315C282.577 151.017 281.525 149.964 280.226 149.964Z" fill="#85339B"/>
<path d="M287.425 149.964H287.418C286.12 149.964 285.067 151.017 285.067 152.315V161.731C285.067 163.029 286.12 164.082 287.418 164.082H287.425C288.723 164.082 289.775 163.029 289.775 161.731V152.315C289.775 151.017 288.723 149.964 287.425 149.964Z" fill="#85339B"/>
<path d="M294.895 149.964H294.889C293.59 149.964 292.538 151.017 292.538 152.315V161.731C292.538 163.029 293.59 164.082 294.889 164.082H294.895C296.194 164.082 297.246 163.029 297.246 161.731V152.315C297.246 151.017 296.194 149.964 294.895 149.964Z" fill="#85339B"/>
<path d="M252.67 175.43L263.188 220.816H231.102C230.882 220.815 230.664 220.858 230.461 220.942C230.257 221.026 230.072 221.149 229.917 221.304C229.761 221.46 229.638 221.645 229.554 221.848C229.471 222.051 229.428 222.269 229.429 222.489C229.429 222.932 229.604 223.355 229.917 223.668C230.229 223.981 230.653 224.156 231.095 224.156H277.903C278.505 224.159 279.101 224.027 279.646 223.77C280.191 223.513 280.672 223.138 281.054 222.671C281.436 222.205 281.708 221.659 281.853 221.074C281.997 220.489 282.008 219.879 281.887 219.289L272.922 175.702L252.67 175.43Z" fill="#85339B"/>
<path opacity="0.2" d="M252.683 175.43L252.457 207.429L260.014 207.655L252.683 175.43Z" fill="black"/>
<path d="M45.0156 312.299C38.03 297.949 25.7588 290.579 12.04 294.643C-1.6788 298.706 -3.86344 317.923 6.46217 322.771C16.7878 327.618 27.047 313.474 32.4522 310.553C37.8573 307.631 45.0156 312.299 45.0156 312.299Z" fill="#85339B"/>
<path d="M51.7757 350.58C51.7757 348.847 51.6629 347.114 51.6031 345.381C51.4836 341.928 51.3596 338.477 51.2312 335.029C51.0055 328.707 50.3215 322.512 47.7119 316.682C45.3932 311.408 41.5317 306.961 36.6359 303.926C34.8183 302.826 32.859 301.979 30.8124 301.409C28.9603 299.528 26.5994 298.229 24.0194 297.671C20.8302 297.016 17.5503 296.931 14.3313 297.418C14.2051 297.418 14.2184 297.624 14.3313 297.598C17.3973 297.206 20.5108 297.431 23.4882 298.262C24.7659 298.606 26.0035 299.084 27.1802 299.689C27.923 300.078 28.6355 300.522 29.3117 301.017C26.5322 300.436 23.6598 300.463 20.8919 301.097C19.8927 301.336 18.9154 301.658 17.9701 302.06C17.221 301.892 16.453 301.823 15.6859 301.854C14.6796 301.891 13.6801 302.036 12.7044 302.286C10.7096 302.841 8.80282 303.675 7.04027 304.762C6.93403 304.762 7.04027 304.968 7.13987 304.908C8.87221 303.946 10.729 303.226 12.6579 302.77C13.5961 302.564 14.5483 302.426 15.5066 302.359C16.0309 302.332 16.5561 302.332 17.0804 302.359C13.1588 304.167 10.0059 307.309 8.1824 311.223C8.1824 311.33 8.28864 311.429 8.34176 311.316C9.43438 309.05 11.0208 307.057 12.9846 305.484C14.9484 303.911 17.2396 302.797 19.69 302.226C20.0021 302.159 20.3142 302.12 20.6196 302.06C20.5466 302.518 20.5001 302.983 20.4735 303.441C20.3739 304.138 20.2544 304.835 20.1216 305.526C19.8365 306.949 19.4639 308.352 19.006 309.729C18.5225 311.122 17.948 312.482 17.2862 313.8C16.6666 315.207 15.882 316.535 14.9488 317.757C14.9274 317.771 14.912 317.792 14.9058 317.817C14.8996 317.842 14.9031 317.868 14.9156 317.89C14.9345 317.905 14.9579 317.914 14.982 317.914C15.0062 317.914 15.0296 317.905 15.0484 317.89C15.067 317.877 15.081 317.859 15.0883 317.837C15.9183 316.509 16.8811 315.347 17.6381 313.999C18.3619 312.721 18.9857 311.389 19.5041 310.015C20.0243 308.617 20.4263 307.177 20.7059 305.712C20.8648 304.942 20.9845 304.164 21.0645 303.381C21.1639 302.91 21.1974 302.427 21.1641 301.947C22.7803 301.707 24.4206 301.676 26.0447 301.854C25.4338 305.28 24.7831 308.853 22.8574 311.814C22.7976 311.907 22.9703 312.007 23.03 311.901C23.9397 310.325 24.7427 308.69 25.4338 307.007C26.0708 305.371 26.4753 303.655 26.6357 301.907C29.4756 302.291 32.2174 303.208 34.7169 304.61C39.4236 307.352 43.183 311.463 45.4941 316.396C47.9079 321.693 49.2614 327.412 49.4782 333.229C49.9364 340.533 50.0294 347.951 50.7664 355.262C50.7664 355.74 51.5699 355.926 51.6562 355.355C51.8343 353.77 51.8743 352.172 51.7757 350.58Z" fill="#2F2E41"/>
<path d="M35.6331 302.691C35.1676 302.147 34.6343 301.665 34.0461 301.256C33.4684 300.792 32.8442 300.333 32.2665 299.928C31.0507 299.097 29.7039 298.475 28.2823 298.089C28.1628 298.089 28.1097 298.248 28.2823 298.268C29.7041 298.63 31.0343 299.286 32.1868 300.194C32.7799 300.611 33.3455 301.065 33.8801 301.555C34.3645 302.054 34.901 302.499 35.4804 302.883C35.5733 302.916 35.7061 302.77 35.6331 302.691Z" fill="#2F2E41"/>
<path d="M28.3755 306.476C28.2253 307.368 27.9574 308.237 27.5786 309.059C27.1948 309.875 26.7463 310.658 26.2373 311.403C26.2373 311.403 26.2373 311.502 26.3103 311.403C27.5224 310.019 28.2965 308.306 28.5348 306.482C28.568 306.403 28.3821 306.356 28.3755 306.476Z" fill="#2F2E41"/>
<path d="M50.8057 312.644C50.8057 312.644 60.693 300.22 79.8236 304.623C97.9515 308.82 106.278 342.067 87.9978 346.052C69.7171 350.036 72.8447 319.291 66.1712 314.026C61.2707 310.201 54.2121 311.024 50.8057 312.644Z" fill="#85339B"/>
<path d="M94.4985 322.791C93.2559 321.701 91.9427 320.693 90.5675 319.776C89.2723 318.892 87.8627 318.188 86.3775 317.684C85.6333 316.555 84.803 315.485 83.894 314.484C82.2069 312.674 80.2599 311.125 78.117 309.889H78.6947C79.71 309.836 80.7273 309.836 81.7426 309.889C83.7746 310.015 85.7663 310.512 87.6192 311.356C87.7255 311.356 87.8118 311.237 87.7055 311.19C85.8183 310.376 83.8445 309.779 81.8223 309.411C80.8381 309.237 79.8402 309.152 78.8408 309.158C78.3057 309.143 77.7702 309.174 77.2405 309.251H76.9284C75.1724 308.376 73.3206 307.707 71.4103 307.259C71.5913 307.226 71.7691 307.177 71.9416 307.113C72.8726 306.903 73.8148 306.745 74.7637 306.642C76.663 306.425 78.5824 306.454 80.4743 306.728C80.6005 306.728 80.6204 306.569 80.4743 306.562C78.5606 306.324 76.6308 306.242 74.7039 306.316C73.0842 306.363 71.4734 306.575 69.8963 306.947C68.7447 306.735 67.58 306.602 66.4102 306.549C59.7699 306.256 52.5055 308.747 48.3686 314.218C44.2317 319.69 43.4747 326.987 42.7576 333.601C41.6735 342.817 41.4645 352.115 42.1334 361.371C42.1334 361.909 42.9369 361.816 42.9568 361.298C43.2091 353.455 43.488 345.666 44.2317 337.798C44.5837 334.192 44.9688 330.586 45.5598 326.974C46.0059 323.888 46.9007 320.884 48.2159 318.056C49.6285 315.162 51.8677 312.752 54.6503 311.13C57.4435 309.523 60.5609 308.561 63.774 308.315C66.6543 308.083 69.5531 308.355 72.34 309.118C72.2536 309.682 72.2536 310.255 72.34 310.818C72.3997 311.525 72.5401 312.222 72.7583 312.897C72.9646 313.538 73.2314 314.158 73.5551 314.749C73.9004 315.413 74.3453 315.951 74.757 316.609C74.757 316.708 74.9695 316.609 74.8965 316.502C74.1039 315.381 73.5854 314.089 73.3825 312.731C73.2683 312.092 73.1907 311.446 73.1501 310.798V309.318C76.1789 310.251 79.0056 311.744 81.4836 313.72C81.9469 314.097 82.3902 314.499 82.8117 314.922C82.1804 315.508 81.6329 316.178 81.1848 316.914C80.532 317.871 79.9654 318.885 79.4915 319.942C78.6003 322.037 77.9907 324.241 77.6787 326.496C77.6787 326.615 77.8315 326.655 77.8447 326.496C78.1971 324.289 78.9343 322.16 80.0228 320.208C80.5267 319.243 81.0923 318.311 81.716 317.419C82.0281 316.961 82.3801 316.502 82.7121 316.057C82.898 315.832 83.0972 315.593 83.2831 315.327C85.5301 317.521 87.3613 320.104 88.6883 322.95C87.7861 323.905 87.0339 324.991 86.4572 326.171C85.7732 327.397 85.1784 328.67 84.6776 329.982C83.7537 332.526 82.9908 335.125 82.3933 337.765C82.3847 337.787 82.3854 337.813 82.3953 337.835C82.4053 337.858 82.4236 337.875 82.4464 337.884C82.4703 337.893 82.4966 337.892 82.5201 337.883C82.5436 337.873 82.5624 337.854 82.5726 337.831C82.5793 337.809 82.5793 337.786 82.5726 337.765C83.1712 335.11 84.0991 332.54 85.335 330.115C85.9127 328.913 86.5369 327.711 87.1544 326.582C87.8113 325.51 88.4077 324.401 88.9406 323.262C90.2077 326.048 90.9463 329.045 91.1186 332.1C91.1186 332.227 91.3112 332.213 91.2979 332.1C90.9442 327.31 89.4801 322.668 87.0216 318.541C88.1969 319.01 89.3472 319.54 90.4679 320.128C91.907 320.883 93.2456 321.815 94.452 322.904C94.472 323.01 94.5915 322.904 94.4985 322.791Z" fill="#2F2E41"/>
<path d="M80.501 323.488C79.9366 325.38 79.2128 327.206 78.6949 329.106C78.1694 330.933 77.8858 332.822 77.8516 334.723H77.9379C78.4622 330.915 79.3836 327.171 80.687 323.554C80.6913 323.542 80.6932 323.529 80.6926 323.516C80.6919 323.503 80.6888 323.491 80.6832 323.479C80.6777 323.467 80.6699 323.457 80.6602 323.448C80.6506 323.439 80.6394 323.432 80.6272 323.428C80.615 323.424 80.602 323.422 80.5891 323.422C80.5761 323.423 80.5634 323.426 80.5517 323.432C80.54 323.437 80.5295 323.445 80.5208 323.455C80.5121 323.464 80.5054 323.476 80.501 323.488Z" fill="#2F2E41"/>
<path d="M92.5995 318.826C91.8431 318.105 90.9865 317.497 90.0563 317.02C89.1156 316.588 88.1377 316.241 87.1345 315.984C87.0283 315.984 86.9951 316.13 87.1345 316.157C88.1351 316.433 89.0934 316.844 89.9832 317.379C90.883 317.842 91.7464 318.373 92.5663 318.966C92.5663 318.966 92.6393 318.873 92.5995 318.826Z" fill="#2F2E41"/>
<path d="M60.1885 296.05C60.1885 296.05 62.0212 273.732 78.6152 266.508C92.4668 260.492 100.402 276.03 90.6341 285.565C82.6791 293.275 69.9696 289.795 60.1885 296.05Z" fill="#85339B"/>
<path d="M87.5322 270.824C85.0055 271.847 82.5401 273.016 80.1482 274.323C78.1613 275.466 76.2494 276.735 74.4243 278.122C74.7032 277.557 74.9422 276.92 75.2211 276.415C75.6473 275.551 76.1171 274.708 76.6289 273.892C77.6348 272.2 78.8459 270.639 80.2345 269.244C80.3209 269.177 80.2345 269.044 80.1017 269.124C78.706 270.514 77.4206 272.01 76.257 273.6C75.6861 274.412 75.1586 275.255 74.6766 276.123C74.1904 276.928 73.8152 277.794 73.5611 278.699L73.3818 278.832C70.4846 281.144 67.8283 283.742 65.4533 286.588C65.4694 286.361 65.5186 286.137 65.5994 285.924C65.9115 284.828 66.2634 283.759 66.6087 282.677C67.3207 280.387 68.3274 278.2 69.6035 276.169C69.6093 276.159 69.6131 276.148 69.6146 276.137C69.6161 276.125 69.6153 276.114 69.6122 276.103C69.6091 276.091 69.6038 276.081 69.5966 276.072C69.5894 276.063 69.5804 276.055 69.5703 276.05C69.5603 276.044 69.5492 276.04 69.5378 276.039C69.5263 276.037 69.5146 276.038 69.5035 276.041C69.4923 276.044 69.4819 276.05 69.4728 276.057C69.4638 276.064 69.4563 276.073 69.4507 276.083C68.1424 278.117 66.9797 280.24 65.9712 282.438C65.4919 283.514 65.0902 284.624 64.7693 285.758C64.5301 286.488 64.3502 287.237 64.2315 287.996C63.5077 288.905 62.7839 289.835 62.1265 290.791C54.9949 300.931 51.4224 313.196 50.5725 325.473C50.3124 329.131 50.2481 332.799 50.3799 336.463C50.4073 340.164 50.7315 343.857 51.3494 347.506C51.359 347.531 51.3734 347.554 51.392 347.574C51.4105 347.594 51.4327 347.609 51.4574 347.621C51.4821 347.632 51.5087 347.638 51.5357 347.639C51.5628 347.639 51.5897 347.635 51.615 347.625C51.6516 347.611 51.6834 347.586 51.7068 347.554C51.7303 347.523 51.7445 347.485 51.7478 347.446C51.6747 344.219 51.3361 340.998 51.2763 337.824C51.2144 334.589 51.3185 331.354 51.5884 328.129C52.1116 321.691 53.3226 315.326 55.2007 309.145C57.1208 302.815 59.9552 296.8 63.6139 291.289C64.3112 291.143 65.0084 290.951 65.699 290.785L68.1824 290.121C69.7833 289.709 71.3402 289.142 72.8306 288.427C72.9369 288.427 72.8306 288.208 72.731 288.268C71.2726 289.074 69.687 289.624 68.043 289.895C66.7482 290.147 65.3869 290.313 64.0987 290.612C65.3028 288.841 66.5888 287.15 67.9567 285.539C71.1101 285.829 74.2897 285.593 77.3659 284.842C78.9982 284.442 80.6038 283.941 82.1735 283.341C83.8336 282.677 85.4073 281.873 87.0474 281.189C87.167 281.189 87.0474 280.957 86.9744 281.017C83.9914 282.648 80.7349 283.719 77.3659 284.178C74.4076 284.65 71.4173 284.894 68.4215 284.908C69.6234 283.58 70.8253 282.252 72.1135 281.004C76.4446 276.643 81.6495 273.248 87.3861 271.043C87.7048 270.957 87.6384 270.778 87.5322 270.824Z" fill="#2F2E41"/>
<path d="M74.0473 270.897C73.2979 271.835 72.6188 272.827 72.0154 273.865C71.3922 274.959 70.8997 276.123 70.5479 277.331H70.6143C71.172 276.236 71.6369 275.1 72.1946 274.011C72.7487 272.936 73.4166 271.923 74.1867 270.99C74.2332 270.93 74.1004 270.797 74.0473 270.897Z" fill="#2F2E41"/>
<path d="M89.4315 278.327C88.353 278.921 87.2129 279.395 86.0316 279.742C84.8961 280.121 83.7386 280.432 82.5654 280.671V280.764C83.7944 280.639 85.0057 280.378 86.1777 279.988C87.3126 279.55 88.4211 279.046 89.4979 278.48C89.6639 278.407 89.5643 278.268 89.4315 278.327Z" fill="#2F2E41"/>
<path d="M47.3469 292.033C47.2539 293.009 44.8368 283.932 30.8126 275.884C18.0102 268.58 2.85708 249.549 15.2877 237.523C25.3809 227.908 51.9419 248.984 47.3469 292.033Z" fill="#85339B"/>
<path d="M56.9682 344.026C56.7683 334.589 56.0256 325.171 54.7437 315.818C53.6341 307.227 51.6471 298.772 48.814 290.585C47.7714 287.63 46.5762 284.729 45.2946 281.867C45.3806 280.762 45.3806 279.652 45.2946 278.547C45.2216 277.112 45.0888 275.685 44.956 274.264C44.8232 272.843 44.6904 271.415 44.5111 269.994C44.3318 268.573 44.0396 267.159 43.9799 265.738C43.9799 265.716 43.9717 265.695 43.957 265.679C43.9422 265.663 43.9219 265.653 43.9002 265.651C43.8773 265.651 43.8553 265.66 43.8391 265.676C43.8229 265.693 43.8139 265.715 43.8139 265.738C44.0933 267.23 44.2576 268.742 44.3052 270.26C44.4115 271.634 44.4978 273.015 44.531 274.396C44.5642 275.778 44.531 277.152 44.531 278.533V280.094C43.2029 277.305 41.7819 274.569 40.2679 271.886C41.2175 266.063 39.9758 259.994 38.8004 254.303C38.8004 254.183 38.5946 254.303 38.6212 254.303C39.1931 257.266 39.4931 260.276 39.5176 263.294C39.5176 265.698 39.5176 268.108 39.4446 270.512C39.1059 269.934 38.7805 269.37 38.4352 268.805C36.6158 265.822 34.6724 262.915 32.6051 260.087C32.7704 258.709 32.7256 257.314 32.4723 255.95C32.2378 254.416 31.8961 252.901 31.4497 251.414C31.007 249.931 30.4891 248.473 29.8959 247.039C29.2982 245.558 28.4815 244.163 27.9038 242.683C27.8938 242.663 27.8764 242.647 27.8554 242.64C27.8343 242.632 27.8112 242.633 27.7909 242.643C27.7804 242.647 27.7709 242.653 27.7629 242.661C27.7549 242.669 27.7486 242.679 27.7443 242.69C27.74 242.7 27.7377 242.711 27.7378 242.723C27.7378 242.734 27.74 242.745 27.7444 242.756C28.4557 244.155 29.0166 245.627 29.4178 247.145C29.8815 248.578 30.2629 250.037 30.5599 251.514C30.8609 252.988 31.1088 254.471 31.3036 255.963C31.4497 256.946 31.536 257.955 31.702 258.964C28.7004 254.927 25.4187 251.107 21.8811 247.53C21.7947 247.444 21.6752 247.53 21.7549 247.663C27.0988 253.69 31.8736 260.198 36.0182 267.105L36.4764 267.889C35.6928 267.411 34.8163 267.026 34.0726 266.614L29.9822 264.363C28.6541 263.659 27.3261 262.922 25.998 262.192C25.334 261.813 24.67 261.421 23.9528 261.069C23.1163 260.694 22.3122 260.25 21.549 259.741C21.4494 259.668 21.3299 259.828 21.4494 259.887C22.7775 260.631 23.986 261.74 25.3008 262.544C26.6156 263.347 27.9569 264.19 29.2849 264.947C31.775 266.342 34.4776 267.351 36.9412 268.779C38.6411 271.754 40.2148 274.795 41.6558 277.929C40.1683 276.982 38.6499 276.072 37.1005 275.2C36.1111 274.649 35.1085 274.098 34.1058 273.566C33.1033 273.103 32.1548 272.53 31.277 271.86C31.1841 271.787 31.0645 271.86 31.1442 271.993C32.7829 273.46 34.5961 274.72 36.5428 275.744C38.3489 276.8 40.1551 277.81 42.0409 278.739C43.5873 282.028 44.9615 285.394 46.1579 288.826C52.0611 305.539 54.2258 323.302 55.2617 340.925C55.5738 346.184 55.7331 351.437 55.7995 356.703C55.8659 361.968 55.587 367.201 55.6003 372.46C55.6072 372.491 55.6244 372.519 55.6492 372.538C55.6739 372.558 55.7047 372.569 55.7365 372.569C55.7682 372.569 55.799 372.558 55.8237 372.538C55.8485 372.519 55.8657 372.491 55.8726 372.46C56.5366 367.812 56.6229 363.051 56.8221 358.363C57.0213 353.675 57.0545 348.801 56.9682 344.026Z" fill="#2F2E41"/>
<path d="M31.4497 268.321C28.8887 267.19 26.4005 265.902 23.9993 264.463C21.5673 263.095 19.2111 261.596 16.9407 259.974C16.9407 259.974 16.8544 259.974 16.9407 260.034C19.0865 261.799 21.3567 263.408 23.7337 264.848C26.2218 266.23 28.7919 267.458 31.4298 268.526C31.4763 268.526 31.5493 268.367 31.4497 268.321Z" fill="#2F2E41"/>
<path d="M35.5327 249.416C35.3202 248.599 35.0679 247.809 34.789 247.012C34.7988 247.001 34.8042 246.987 34.8042 246.972C34.8042 246.957 34.7988 246.943 34.789 246.932C34.6097 246.474 34.4305 246.029 34.2379 245.604C34.2445 245.547 34.2445 245.489 34.2379 245.432L34.125 245.179L34.2711 245.637C34.2884 245.728 34.3128 245.817 34.3441 245.903C35.2714 249.021 35.9661 252.204 36.4225 255.425C36.4225 255.448 36.4316 255.47 36.4478 255.486C36.464 255.502 36.486 255.512 36.5089 255.512C36.5199 255.512 36.5308 255.509 36.541 255.505C36.5511 255.5 36.5602 255.494 36.5677 255.486C36.5752 255.478 36.5809 255.468 36.5845 255.458C36.5881 255.447 36.5895 255.436 36.5885 255.425C36.4279 253.393 36.0743 251.381 35.5327 249.416Z" fill="#2F2E41"/>
<path d="M71.7697 347.419L70.7736 359.292L67.7058 395.482H34.8763L31.8152 359.292L30.8125 347.419H71.7697Z" fill="#2F2E41"/>
<path opacity="0.2" d="M71.7697 347.419L70.7736 359.292H31.8152L30.8125 347.419H71.7697Z" fill="black"/>
<path d="M74.989 342.658H27.5908V354.046H74.989V342.658Z" fill="#2F2E41"/>
<path d="M150.557 79.3187H127.375C125.516 79.3187 124.009 80.826 124.009 82.6853V92.5992C124.009 94.4585 125.516 95.9658 127.375 95.9658H150.557C152.416 95.9658 153.923 94.4585 153.923 92.5992V82.6853C153.923 80.826 152.416 79.3187 150.557 79.3187Z" fill="#85339B"/>
<path d="M141.624 94.7042L152.893 103.562L145.907 94.0668L141.624 94.7042Z" fill="#85339B"/>
<path d="M145.649 87.6257C145.649 87.4975 145.674 87.3706 145.723 87.2521C145.772 87.1337 145.844 87.0261 145.935 86.9355C146.026 86.8448 146.133 86.7729 146.252 86.7239C146.37 86.6748 146.497 86.6496 146.625 86.6496C146.82 86.6509 147.009 86.7098 147.17 86.8189C147.331 86.928 147.456 87.0823 147.529 87.2624C147.602 87.4424 147.62 87.6402 147.581 87.8305C147.542 88.0209 147.447 88.1954 147.309 88.3319C147.17 88.4684 146.995 88.5608 146.804 88.5974C146.613 88.6341 146.415 88.6133 146.236 88.5377C146.057 88.4621 145.905 88.3351 145.798 88.1728C145.691 88.0104 145.634 87.82 145.636 87.6257H145.649Z" fill="white"/>
<path d="M140.543 87.6257C140.543 87.3668 140.645 87.1185 140.829 86.9355C141.012 86.7524 141.26 86.6496 141.519 86.6496C141.713 86.6509 141.903 86.7098 142.064 86.8189C142.224 86.928 142.349 87.0823 142.423 87.2624C142.496 87.4424 142.514 87.6402 142.475 87.8305C142.435 88.0209 142.341 88.1954 142.202 88.3319C142.064 88.4684 141.888 88.5608 141.697 88.5974C141.506 88.6341 141.309 88.6133 141.13 88.5377C140.951 88.4621 140.798 88.3351 140.691 88.1728C140.584 88.0104 140.528 87.82 140.529 87.6257H140.543Z" fill="white"/>
<path d="M135.435 87.6257C135.435 87.3668 135.538 87.1185 135.721 86.9355C135.904 86.7524 136.152 86.6496 136.411 86.6496C136.606 86.6509 136.795 86.7098 136.956 86.8189C137.117 86.928 137.242 87.0823 137.315 87.2624C137.388 87.4424 137.406 87.6402 137.367 87.8305C137.328 88.0209 137.233 88.1954 137.095 88.3319C136.956 88.4684 136.781 88.5608 136.59 88.5974C136.399 88.6341 136.202 88.6133 136.022 88.5377C135.843 88.4621 135.691 88.3351 135.584 88.1728C135.477 88.0104 135.421 87.82 135.422 87.6257H135.435Z" fill="white"/>
<path d="M130.33 87.6257C130.33 87.3668 130.433 87.1185 130.616 86.9355C130.799 86.7524 131.047 86.6496 131.306 86.6496C131.5 86.6509 131.69 86.7098 131.851 86.8189C132.012 86.928 132.136 87.0823 132.21 87.2624C132.283 87.4424 132.301 87.6402 132.262 87.8305C132.223 88.0209 132.128 88.1954 131.989 88.3319C131.851 88.4684 131.675 88.5608 131.484 88.5974C131.293 88.6341 131.096 88.6133 130.917 88.5377C130.738 88.4621 130.585 88.3351 130.478 88.1728C130.371 88.0104 130.315 87.82 130.316 87.6257H130.33Z" fill="white"/>
</svg>
