<svg width="40" height="35" viewBox="0 0 49 49" fill="none" xmlns="http://www.w3.org/2000/svg">
<path d="M12.25 1.51279C12.25 1.11157 12.0887 0.726787 11.8015 0.443085C11.5143 0.159382 11.1249 0 10.7188 0C10.3126 0 9.92316 0.159382 9.63599 0.443085C9.34883 0.726787 9.1875 1.11157 9.1875 1.51279V3.02557H6.125C4.50055 3.02557 2.94263 3.6631 1.79397 4.79791C0.645311 5.93272 0 7.47185 0 9.07671L0 12.1023H49V9.07671C49 7.47185 48.3547 5.93272 47.206 4.79791C46.0574 3.6631 44.4995 3.02557 42.875 3.02557H39.8125V1.51279C39.8125 1.11157 39.6512 0.726787 39.364 0.443085C39.0768 0.159382 38.6874 0 38.2812 0C37.8751 0 37.4857 0.159382 37.1985 0.443085C36.9113 0.726787 36.75 1.11157 36.75 1.51279V3.02557H12.25V1.51279ZM28.7936 31C30.7077 31 32.4196 29.5356 32.4196 27.4298C32.4196 24.9125 30.8057 23.7084 28.8671 23.7084C27.0725 23.7084 25.2901 24.8793 25.2901 27.3693C25.2901 29.8412 26.9531 31 28.7936 31Z" fill="#919191"/>
<path d="M49 42.8182V15H0V42.8182C0 44.4577 0.645311 46.0301 1.79397 47.1894C2.94263 48.3487 4.50055 49 6.125 49H42.875C44.4995 49 46.0574 48.3487 47.206 47.1894C48.3547 46.0301 49 44.4577 49 42.8182ZM28.5915 39.0782C25.1921 39.0782 23.52 36.7075 23.3761 34.7293H25.4678C25.5994 35.8729 26.6529 37.2638 28.6864 37.2638C31.2712 37.2638 32.6707 34.6427 32.683 30.5751H32.6003C32.1318 31.8547 30.6495 33.0169 28.3649 33.0169C25.7556 33.0169 23.2321 31.1315 23.2321 27.546C23.2321 24.0316 25.8996 21.9545 28.7354 21.9545C32.3247 21.9545 34.7165 24.2233 34.7165 30.2011C34.7165 35.7802 32.4441 39.0751 28.5915 39.0751V39.0782ZM19.7409 22.2791V38.7598H17.6706V24.5169H17.6339C16.7458 24.9991 14.9297 26.1242 13.7812 26.9185V24.7673C15.0701 23.8559 16.4129 23.025 17.8023 22.2791H19.7378H19.7409Z" fill="#919191"/>
</svg>

