<svg width="47" height="35" viewBox="0 0 47 35" fill="none" xmlns="http://www.w3.org/2000/svg">
<path d="M0.146875 4.53542C0.443028 3.24696 1.17105 2.09654 2.21171 1.27257C3.25236 0.448594 4.54397 -8.89421e-05 5.875 1.32246e-08H41.125C42.456 -8.89421e-05 43.7476 0.448594 44.7883 1.27257C45.8289 2.09654 46.557 3.24696 46.8531 4.53542L23.5 18.7075L0.146875 4.53542ZM0 7.86625V28.5862L17.0463 18.2087L0 7.86625ZM19.8604 19.9208L0.561063 31.6663C1.0379 32.6646 1.79048 33.5079 2.73123 34.0981C3.67198 34.6883 4.7622 35.0011 5.875 35H41.125C42.2376 35.0002 43.3274 34.6868 44.2676 34.0961C45.2079 33.5054 45.9598 32.6618 46.436 31.6633L27.1366 19.9179L23.5 22.1258L19.8604 19.9179V19.9208ZM29.9537 18.2117L47 28.5862V7.86625L29.9537 18.2087V18.2117Z" fill="#919191"/>
</svg>
