<svg width="421" height="367" viewBox="0 0 421 367" fill="none" xmlns="http://www.w3.org/2000/svg">
<path d="M420.193 251.195C427.668 177.528 313.183 19.7183 236.448 97.8071C196.058 138.927 97.783 186.72 25.6307 211.195C-44.5277 234.994 100.416 353.532 209.376 364.577C318.335 375.622 412.711 324.862 420.193 251.195Z" fill="#85339B"/>
<path opacity="0.7" d="M420.193 251.195C427.668 177.528 313.183 19.7183 236.448 97.8071C196.058 138.927 97.783 186.72 25.6307 211.195C-44.5277 234.994 100.416 353.532 209.376 364.577C318.335 375.622 412.711 324.862 420.193 251.195Z" fill="#FFF4F2"/>
<path d="M59.3556 306.137C63.5585 306.137 63.5648 299.608 59.3556 299.608C55.1464 299.608 55.14 306.137 59.3556 306.137Z" fill="#85339B"/>
<path d="M20.5607 156.469C24.7636 156.469 24.7699 149.94 20.5607 149.94C16.3514 149.94 16.3451 156.469 20.5607 156.469Z" fill="#85339B"/>
<path d="M86.8581 62.1978C91.061 62.1978 91.0674 55.663 86.8581 55.663C82.6489 55.663 82.6489 62.1978 86.8581 62.1978Z" fill="#85339B"/>
<path d="M86.8581 62.1978C91.061 62.1978 91.0674 55.663 86.8581 55.663C82.6489 55.663 82.6489 62.1978 86.8581 62.1978Z" fill="#85339B"/>
<path d="M3.16643 302.436C7.36935 302.436 7.38201 295.908 3.16643 295.908C-1.04915 295.908 -1.06181 302.436 3.16643 302.436Z" fill="#85339B"/>
<path d="M206.249 6.53482C210.452 6.53482 210.458 0 206.249 0C202.039 0 202.033 6.53482 206.249 6.53482Z" fill="#85339B"/>
<path d="M164.473 257.287C168.676 257.287 168.682 250.759 164.473 250.759C160.264 250.759 160.257 257.287 164.473 257.287Z" fill="#85339B"/>
<path d="M52.7411 130.367C56.944 130.367 56.9503 123.839 52.7411 123.839C48.5318 123.839 48.5445 130.367 52.7411 130.367Z" fill="#85339B"/>
<path d="M81.7438 337.862C85.9467 337.862 85.953 331.327 81.7438 331.327C77.5345 331.327 77.5282 337.862 81.7438 337.862Z" fill="#85339B"/>
<path d="M309.891 309.091C314.094 309.091 314.101 302.563 309.891 302.563C305.682 302.563 305.682 309.091 309.891 309.091Z" fill="#85339B"/>
<path d="M322.044 53.9676C326.253 53.9676 326.26 47.4391 322.044 47.4391C317.828 47.4391 317.835 53.9676 322.044 53.9676Z" fill="#85339B"/>
<path d="M408.141 257.287C412.344 257.287 412.35 250.759 408.141 250.759C403.932 250.759 403.932 257.287 408.141 257.287Z" fill="#85339B"/>
<path d="M71.5653 259.457C73.6667 259.457 73.6667 256.193 71.5653 256.193C69.4638 256.193 69.4575 259.457 71.5653 259.457Z" fill="#85339B"/>
<path d="M279.705 20.876C281.806 20.876 281.813 17.6117 279.705 17.6117C277.597 17.6117 277.603 20.876 279.705 20.876Z" fill="#85339B"/>
<path d="M226.858 129.653C228.96 129.653 228.96 126.388 226.858 126.388C224.757 126.388 224.75 129.653 226.858 129.653Z" fill="#85339B"/>
<path d="M253.835 266.504C255.937 266.504 255.943 263.24 253.835 263.24C251.727 263.24 251.727 266.504 253.835 266.504Z" fill="#85339B"/>
<path d="M192.684 352.298C194.785 352.298 194.792 349.034 192.684 349.034C190.576 349.034 190.582 352.298 192.684 352.298Z" fill="#85339B"/>
<path d="M379.663 349.951C381.765 349.951 381.765 346.687 379.663 346.687C377.562 346.687 377.556 349.951 379.663 349.951Z" fill="#85339B"/>
<path d="M229.143 193.628C231.245 193.628 231.245 190.364 229.143 190.364C227.042 190.364 227.036 193.628 229.143 193.628Z" fill="#85339B"/>
<path d="M134.293 14.3665C136.394 14.3665 136.401 11.1022 134.293 11.1022C132.185 11.1022 132.185 14.3665 134.293 14.3665Z" fill="#85339B"/>
<path d="M23.7127 230.503C25.8142 230.503 25.8205 227.238 23.7127 227.238C21.605 227.238 21.6113 230.503 23.7127 230.503Z" fill="#85339B"/>
<path d="M224.276 51.5574C226.377 51.5574 226.377 48.2931 224.276 48.2931C222.174 48.2931 222.168 51.5574 224.276 51.5574Z" fill="#85339B"/>
<path d="M411.293 65.7783C413.401 65.7783 413.401 62.5141 411.293 62.5141C409.185 62.5141 409.191 65.7783 411.293 65.7783Z" fill="#85339B"/>
<path d="M142.92 243.408C145.022 243.408 145.028 240.143 142.92 240.143C140.812 240.143 140.819 243.408 142.92 243.408Z" fill="#85339B"/>
<path d="M318.183 219.71C320.284 219.71 320.284 216.446 318.183 216.446C316.082 216.446 316.075 219.71 318.183 219.71Z" fill="#85339B"/>
<path d="M349.68 16.0366C351.781 16.0366 351.787 12.7723 349.68 12.7723C347.572 12.7723 347.578 16.0366 349.68 16.0366Z" fill="#85339B"/>
<path d="M409.008 317.903C411.11 317.903 411.11 314.639 409.008 314.639C406.907 314.639 406.9 317.903 409.008 317.903Z" fill="#85339B"/>
<path d="M175.404 51.0639V60.1102L170.79 62.0839C170.79 62.0839 172.277 84.9589 183.253 78.9555C194.228 72.9521 197.178 62.8684 194.83 62.0839L191.538 60.1102L191.146 51.5004L175.404 51.0639Z" fill="#FED4C0"/>
<path d="M298.821 95.9662L261.551 101.704C259.866 101.962 258.144 101.838 256.513 101.342C254.882 100.846 253.383 99.9903 252.126 98.8383C234.182 82.2893 222.326 74.0085 215.123 69.8776C208.667 66.1832 195.007 61.5146 195.007 61.5146L195.147 62.2104L194.868 62.0966C182.063 88.7356 170.815 62.0966 170.815 62.0966C170.815 62.0966 157.156 66.7589 150.699 70.4596C143.496 74.5905 131.641 82.865 113.696 99.4203C112.438 100.573 110.936 101.428 109.303 101.923C107.669 102.418 105.945 102.54 104.258 102.28L66.9891 96.5482L59.5454 115.482L102.587 126.977C105.654 127.795 108.861 127.943 111.991 127.412C115.12 126.88 118.098 125.681 120.722 123.896L148.319 105.063L148.44 104.658C149.009 125.762 150.642 148.82 150.642 148.82L151.161 159.265H214.401L214.433 158.683H214.547L215.066 148.238C215.066 148.238 216.699 125.18 217.269 104.076L217.389 104.481L245.088 123.339C247.712 125.124 250.69 126.323 253.819 126.855C256.948 127.387 260.156 127.238 263.222 126.42L306.264 114.925L298.821 95.9662Z" fill="#2F2E41"/>
<path d="M198.957 31.2064C198.957 18.295 192.058 7.83167 183.538 7.83167C175.018 7.83167 168.119 18.295 168.119 31.2381H168.024C167.267 31.2086 166.513 31.3472 165.816 31.6437C165.119 31.9403 164.496 32.3876 163.993 32.9533C163.49 33.519 163.118 34.1892 162.905 34.9157C162.691 35.6421 162.642 36.4068 162.76 37.1546C162.877 37.9025 163.159 38.615 163.586 39.2409C164.012 39.8668 164.571 40.3906 165.224 40.7745C165.877 41.1585 166.607 41.3931 167.361 41.4615C168.116 41.5298 168.876 41.4303 169.587 41.17C172.056 49.0839 177.354 54.5749 183.513 54.5749C189.671 54.5749 194.957 49.0965 197.438 41.2016C198.141 41.4186 198.882 41.4815 199.612 41.386C200.341 41.2905 201.042 41.0387 201.665 40.648C202.288 40.2573 202.82 39.7367 203.224 39.1219C203.627 38.5071 203.893 37.8125 204.004 37.0855C204.114 36.3585 204.067 35.6162 203.864 34.9094C203.661 34.2025 203.308 33.5477 202.829 32.9896C202.35 32.4315 201.756 31.9833 201.088 31.6756C200.42 31.3678 199.693 31.2078 198.957 31.2064Z" fill="#FED4C0"/>
<path d="M169.796 35.7739C169.796 35.7739 168.878 17.7636 175.284 13.8351C175.284 13.8351 177.632 10.8302 184.298 17.8838C190.963 24.9373 197.438 21.1543 197.438 21.1543C197.438 21.1543 199.065 33.294 198.02 35.7739C198.02 35.7739 207.426 19.712 197.102 11.4881C186.779 3.26426 181.164 6.12996 172.929 11.4881C172.929 11.4881 157.51 13.3353 169.796 35.7739Z" fill="#2F2E41"/>
<path d="M175.942 51.5573C178.095 52.9546 180.571 53.7758 183.133 53.9423C184.388 54.0009 185.644 53.849 186.848 53.4931C187.469 53.3202 188.077 53.109 188.671 52.8605C189.304 52.6201 189.836 52.2912 190.469 52.0445C189.984 52.5013 189.468 52.924 188.925 53.3097C188.358 53.6882 187.756 54.0102 187.127 54.2712C185.853 54.8153 184.473 55.0661 183.089 55.005C181.706 54.9457 180.35 54.6011 179.107 53.9929C177.893 53.4125 176.814 52.5826 175.942 51.5573Z" fill="#F9C0AA"/>
<path d="M153.022 159.24V338.925H177.063L180.196 182.222H186.469L198.489 338.925H222.529L212.079 159.24H153.022Z" fill="#85339B"/>
<path d="M203.717 345.194C203.717 345.194 197.185 363.476 202.672 366.07H208.16C208.16 366.07 210.768 358.757 214.427 366.07H247.879C247.879 366.07 249.968 360.326 241.866 357.713C233.764 355.101 220.18 345.175 220.18 345.175L203.717 345.194Z" fill="#85339B"/>
<path d="M202.672 338.925L203.717 345.194H220.18V338.925H202.672Z" fill="#FED4C0"/>
<path d="M173.005 345.194C173.005 345.194 179.537 363.476 174.049 366.07H168.574C168.574 366.07 165.96 358.757 162.301 366.07H128.855C128.855 366.07 126.766 360.326 134.862 357.713C142.958 355.1 156.548 345.194 156.548 345.194H173.005Z" fill="#85339B"/>
<path d="M174.062 338.925L173.018 345.194H156.554V338.925H174.062Z" fill="#FED4C0"/>
<g opacity="0.2">
<path d="M188.633 181.779C186.885 182.161 185.099 182.341 183.31 182.317C181.521 182.345 179.734 182.164 177.987 181.779C179.734 181.389 181.52 181.206 183.31 181.235C185.1 181.209 186.886 181.392 188.633 181.779Z" fill="black"/>
</g>
<g opacity="0.2">
<path d="M152.478 128.02C152.719 129.683 153.089 131.324 153.586 132.929C153.807 133.739 154.105 134.524 154.364 135.314L155.314 137.63C156.665 140.668 158.482 143.477 160.7 145.955C162.889 148.453 165.482 150.566 168.372 152.205C169.804 153.063 171.303 153.805 172.853 154.425C174.391 155.102 176.018 155.507 177.613 156.114C176.79 155.944 175.961 155.766 175.138 155.57L173.872 155.286L173.239 155.14L172.638 154.931C171.021 154.391 169.448 153.725 167.935 152.939C164.862 151.392 162.117 149.265 159.852 146.676C157.57 144.115 155.773 141.162 154.548 137.959C153.281 134.793 152.58 131.429 152.478 128.02Z" fill="black"/>
</g>
<g opacity="0.2">
<path d="M159.998 130.93C160.578 132.51 161.28 134.041 162.099 135.51C162.485 136.251 162.941 136.959 163.365 137.68L164.783 139.749C166.724 142.437 169.07 144.808 171.739 146.777C174.418 148.769 177.414 150.296 180.601 151.294C182.182 151.841 183.803 152.264 185.449 152.559C187.089 152.901 188.779 152.958 190.456 153.223C189.608 153.223 188.766 153.223 187.924 153.223H186.658H186.025L185.392 153.141C183.698 152.954 182.021 152.631 180.379 152.173C177.053 151.303 173.926 149.799 171.169 147.745C168.395 145.713 166.011 143.197 164.131 140.318C162.212 137.456 160.813 134.278 159.998 130.93Z" fill="black"/>
</g>
<g opacity="0.2">
<path d="M206.243 87.3438H187.772V110.371H206.243V87.3438Z" fill="black"/>
</g>
<path d="M365.751 51.0386V61.1603L369.922 62.0712C369.922 62.0712 368.878 84.9273 357.896 78.9175C346.914 72.9078 343.521 62.8557 345.869 62.0712L349.528 60.8946L349.996 51.4624L365.751 51.0386Z" fill="#B86A4B"/>
<path d="M342.223 31.1811C342.223 18.2697 349.123 7.80637 357.642 7.80637C366.162 7.80637 373.055 18.2697 373.055 31.1811H373.157C374.516 31.1811 375.82 31.721 376.782 32.682C377.743 33.6429 378.284 34.9462 378.284 36.3052C378.284 37.6642 377.743 38.9676 376.782 39.9285C375.82 40.8895 374.516 41.4294 373.157 41.4294C372.615 41.4249 372.078 41.3309 371.568 41.151C369.099 49.0649 363.795 54.5559 357.642 54.5559C351.49 54.5559 346.192 49.0775 343.717 41.1826C343.014 41.3964 342.273 41.4563 341.545 41.3582C340.817 41.2602 340.118 41.0064 339.497 40.6143C338.876 40.2222 338.347 39.7009 337.945 39.0859C337.543 38.4708 337.279 37.7766 337.17 37.0503C337.061 36.3241 337.11 35.5829 337.314 34.8773C337.517 34.1716 337.87 33.5181 338.349 32.9611C338.828 32.4042 339.422 31.9569 340.089 31.6497C340.756 31.3426 341.482 31.1828 342.217 31.1811H342.223Z" fill="#B86A4B"/>
<path d="M371.359 35.7485C371.359 35.7485 372.277 17.7636 365.871 13.8098C365.871 13.8098 363.523 10.8049 356.857 17.8584C350.192 24.912 343.717 21.129 343.717 21.129C343.717 21.129 342.09 33.2687 343.135 35.7485C343.135 35.7485 333.729 19.6867 344.052 11.4628C354.376 3.23893 359.991 6.10464 368.225 11.4628C368.225 11.4375 383.638 13.291 371.359 35.7485Z" fill="#2F2E41"/>
<path d="M365.213 51.532C364.344 52.5673 363.265 53.4061 362.048 53.9929C360.807 54.6017 359.454 54.9463 358.073 55.005C356.689 55.0661 355.309 54.8153 354.034 54.2712C353.404 54.0127 352.802 53.6906 352.237 53.3097C351.693 52.924 351.177 52.5013 350.692 52.0445C351.325 52.2912 351.889 52.6201 352.49 52.8605C353.084 53.1099 353.692 53.3212 354.313 53.4931C355.518 53.8494 356.774 54.0012 358.029 53.9423C360.59 53.7671 363.064 52.9372 365.213 51.532Z" fill="#B2593D"/>
<path d="M411.122 174.757L415.255 198.91C415.478 200.205 415.43 201.532 415.115 202.808C414.8 204.084 414.225 205.281 413.426 206.324L405.134 217.148C404.912 217.44 404.625 217.677 404.295 217.838C403.965 218 403.602 218.082 403.235 218.078C402.608 218.078 402.005 217.829 401.561 217.385C401.117 216.941 400.868 216.34 400.868 215.712C400.869 214.474 401.283 213.272 402.045 212.296L408.375 204.135C408.375 204.135 407.533 192.976 407.35 194.646L404.052 200.017C403.899 200.264 403.686 200.467 403.434 200.61C403.181 200.753 402.897 200.829 402.606 200.833C402.316 200.837 402.03 200.768 401.774 200.632C401.518 200.496 401.3 200.297 401.14 200.055C400.941 199.752 400.841 199.393 400.855 199.03C400.938 197.686 401.319 196.377 401.969 195.197L402.887 193.527C402.887 193.527 400.836 181.071 403.444 174.751L411.122 174.757Z" fill="#B86A4B"/>
<path d="M356.199 83.6811L358.972 92.9993L328.747 132.683C324.057 138.977 315.227 138.673 311.297 130.785C311.297 130.785 310.999 125.016 311.79 123.314C315.322 115.685 319.183 114.729 325.298 109.605L356.199 83.6811Z" fill="#8C4D3E"/>
<path d="M357.288 84.7691L360.06 94.0874L329.836 133.771C325.146 140.065 316.316 139.762 312.385 131.873C312.385 131.873 312.087 126.104 312.879 124.402C316.411 116.773 320.272 115.817 326.386 110.693L357.288 84.7691Z" fill="#8C4D3E"/>
<path d="M287.573 109.15C287.573 109.15 287.364 104.962 280.838 98.3955C274.312 91.829 268.476 87.3755 271.9 92.9234L274.578 97.1113C274.578 97.1113 267.615 94.5049 263.596 92.5882C262.539 92.0641 261.341 91.8925 260.179 92.0986C259.017 92.3047 257.952 92.8776 257.14 93.7332C255.658 95.3716 255.722 97.1492 259.906 100.243C266.172 104.873 275.869 111.921 277.749 112.61C278.407 112.857 287.573 109.15 287.573 109.15Z" fill="#B86A4B"/>
<path d="M326.545 159.239H389.519L390.044 148.795L398.906 184.854L415.363 182.241C410.837 129.102 400.33 94.739 394.823 79.7083C393.833 77.0022 392.291 74.5314 390.295 72.4525C388.299 70.3736 385.892 68.732 383.227 67.6319L369.891 62.1029C369.891 62.1029 358.655 88.7419 345.838 62.1029L332.501 67.6319C327.114 69.8586 320.139 74.0844 318.139 79.5628C315.689 86.3443 310.993 101.267 307.48 108.188C307.247 108.641 306.918 109.037 306.515 109.349C306.113 109.66 305.647 109.88 305.151 109.993C304.654 110.106 304.139 110.109 303.642 110.001C303.144 109.894 302.676 109.679 302.27 109.371L282.471 97.5667L274.875 112.268L300.112 133.214C303.456 135.517 307.573 136.414 311.573 135.711C315.573 135.008 319.136 132.761 321.494 129.456L325.785 123.459L326.304 159.239H389.285" fill="#2F2E41"/>
<path d="M278.667 99.0281C277.926 98.8622 277.208 98.6096 276.527 98.2753C275.842 97.9552 275.191 97.5673 274.584 97.1176C274.97 97.1504 275.35 97.2289 275.717 97.3516C276.077 97.4634 276.428 97.6008 276.768 97.7628C277.463 98.0835 278.103 98.5103 278.667 99.0281Z" fill="#160B07"/>
<path d="M269.071 97.8577C268.188 97.5693 267.321 97.2314 266.476 96.8456C265.628 96.4723 264.805 96.0422 263.995 95.5804C263.181 95.1277 262.395 94.6271 261.64 94.0811C260.877 93.545 260.175 92.9278 259.545 92.2402C261.083 93.284 262.665 94.1823 264.273 95.0869C265.881 95.9916 267.482 96.8835 269.071 97.8577Z" fill="#160B07"/>
<path d="M265.311 101.634C264.484 101.438 263.673 101.178 262.887 100.856C262.093 100.546 261.319 100.186 260.57 99.7809C259.052 98.9921 257.678 97.9526 256.506 96.7064C257.228 97.1682 257.931 97.6237 258.652 98.0475C259.374 98.4714 260.102 98.8889 260.842 99.3127L265.311 101.634Z" fill="#160B07"/>
<path d="M267.375 100.002C266.392 99.7443 265.427 99.4187 264.489 99.0281C263.543 98.6469 262.622 98.2096 261.729 97.7186C260.838 97.2298 259.99 96.6646 259.197 96.0295C258.368 95.4163 257.68 94.6335 257.178 93.7332C257.838 94.4885 258.606 95.1429 259.456 95.6753C260.292 96.2256 261.146 96.7444 262.033 97.2188C263.754 98.2057 265.565 99.0787 267.375 100.002Z" fill="#160B07"/>
<path d="M290.915 334.604L293.162 347.693L309.334 359.643C309.334 359.643 290.345 366.494 280.724 356.309L282.68 347.3L278.173 335.743L290.915 334.604Z" fill="#8C4D3E"/>
<path d="M231.004 334.604L230.935 347.693L214.781 359.643C214.781 359.643 233.77 366.494 243.391 356.309L241.436 347.3L243.765 335.743L231.004 334.604Z" fill="#8C4D3E"/>
<path d="M260.355 143.696L252.43 157.867C246.956 167.665 243.284 178.365 241.587 189.459L219.667 338.121L300.314 335.743L304.891 194.735C305.432 182.162 303.083 169.631 298.023 158.107C295.778 152.888 292.771 148.032 289.098 143.696H260.355Z" fill="#2F2E41"/>
<path d="M251.784 48.2425C251.917 50.0834 252.62 50.1403 253.05 52.19C253.683 55.1569 252.354 55.7768 252.981 58.1554C253.342 59.5029 253.804 59.4207 256.146 62.8114C258.589 66.2844 258.044 66.2844 259.342 67.6762C261.608 70.1243 262.633 69.4285 265.203 72.0664C266.906 73.8124 266.71 74.3818 268.59 76.1025C269.337 76.792 269.647 76.9502 272.558 78.8923C277.388 82.1059 277.686 82.4159 278.819 82.6879C280.581 82.9865 282.389 82.8585 284.091 82.3146C285.99 81.8275 286.047 81.4163 289.256 80.1891C292.465 78.9618 292.744 79.2718 293.953 78.4368C295.769 77.1716 295.383 76.3618 297.567 74.445C299.624 72.6358 300.2 73.1798 301.409 71.6869C302.96 69.7891 302.181 68.7453 303.777 67.1068C304.986 65.8416 305.707 66.1895 307.017 64.7725C307.878 63.8299 307.935 63.2922 308.796 61.6474C310.549 58.3009 311.328 58.6678 312.379 56.2197C312.942 54.9038 312.581 55.1316 313.702 51.045C314.588 47.7997 314.752 47.8819 314.841 46.8381C315.094 43.6751 313.524 43.4727 314.094 41.1447C314.436 39.7466 315.36 38.279 314.847 36.3052C314.335 32.6172 313.955 29.9159 311.929 27.4171C310.828 26.0634 310.663 26.4746 307.302 23.204C305.194 21.129 304.77 20.4458 303.314 19.5918C301.416 18.4721 301.099 18.9592 298.744 17.8458C295.694 16.3655 295.769 15.2711 293.32 14.4677C291.699 13.9426 291.687 14.4234 288.573 13.9616C284.623 13.3796 284.49 12.5825 282.502 12.7786C280.382 12.9874 280.141 13.9426 277.072 14.8409C274.502 15.5937 274.103 14.8409 272.147 15.5874C270.191 16.3339 270.337 17.0487 267.887 18.3392C264.988 19.8702 264.146 19.1869 262.792 20.5091C261.437 21.8312 262.121 22.6726 260.64 25.2916C259.424 27.4298 258.836 27.1198 256.842 29.9033C255.706 31.5511 254.713 33.2929 253.873 35.1096C252.797 37.2415 252.253 38.3359 252.12 39.4683C251.905 41.2965 252.525 41.4926 252.424 43.7826C252.348 46.1612 251.651 46.389 251.784 48.2425Z" fill="#2F2E41"/>
<path d="M265.881 56.3968H265.938C266.299 45.9462 272.901 37.5515 281.262 37.368C289.624 37.1846 296.593 45.2566 297.428 55.682H297.491C300.023 55.625 302.112 57.8581 302.175 60.6669C302.239 63.4757 300.245 65.8036 297.745 65.8669C297.25 65.8667 296.76 65.7811 296.295 65.6139C294.554 70.8012 291.149 74.8689 286.902 76.6781L287.028 89.6149L286.459 99.104L273.439 98.1551L273.704 89.9312L274.73 75.5458H274.768C271.448 73.2902 268.925 70.0446 267.558 66.2718C267.1 66.4638 266.611 66.571 266.115 66.5881C263.583 66.645 261.494 64.4119 261.431 61.6031C261.368 58.7944 263.355 56.4601 265.881 56.3968Z" fill="#8C4D3E"/>
<path d="M234.986 186.789L232.675 203.901C232.556 204.829 232.647 205.771 232.942 206.658C233.237 207.545 233.728 208.354 234.378 209.026L241.208 216.275C241.4 216.474 241.633 216.629 241.891 216.728C242.149 216.828 242.426 216.869 242.702 216.851C243.166 216.848 243.61 216.661 243.938 216.331C244.265 216.002 244.449 215.556 244.449 215.092C244.397 214.21 244.028 213.377 243.411 212.745L238.201 207.286C238.201 207.286 238.435 199.423 238.644 200.593L241.398 204.224C241.537 204.393 241.714 204.527 241.914 204.617C242.114 204.706 242.332 204.748 242.551 204.738C242.77 204.729 242.984 204.669 243.176 204.564C243.368 204.458 243.533 204.309 243.657 204.129C243.804 203.914 243.869 203.654 243.841 203.395C243.723 202.449 243.38 201.544 242.841 200.757L242.062 199.625C242.062 199.625 243.189 190.807 240.929 186.479L234.986 186.789Z" fill="#8C4D3E"/>
<path d="M238.638 130.298L233.966 194.887L241.885 191.325L251.968 136.124L238.638 130.298Z" fill="#8C4D3E"/>
<path d="M237.524 140.628L240.163 106.164C240.383 103.285 241.285 100.5 242.794 98.0388C244.303 95.5772 246.375 93.5094 248.841 92.0062C251.732 90.235 254.867 88.8965 258.146 88.0334C263.225 86.8282 268.428 86.2252 273.648 86.2368C273.648 86.2368 279.135 101.388 286.972 86.2368L297.808 89.8806C300.917 90.929 303.777 92.6048 306.21 94.8042C308.644 97.0035 310.599 99.6794 311.955 102.666L323.652 121.89L314.341 133.277L298.606 122.397L289.111 143.696H260.355L254.025 121.89L251.709 140.628H237.524Z" fill="#85339B"/>
<path d="M116.753 40.7335C116.12 51.1841 100.22 50.2985 100.758 39.8415C101.296 29.3845 117.304 30.2765 116.753 40.7335Z" fill="#2F2E41"/>
<path d="M80.5915 42.3656C79.9585 52.8162 64.0583 51.9306 64.5964 41.4736C65.1344 31.0166 81.1359 31.9086 80.5915 42.3656Z" fill="#2F2E41"/>
<path d="M107.904 58.9398H107.847C107.847 34.4264 79.1043 32.8449 76.3952 57.1939C69.5274 56.7004 70.3503 69.2134 77.2307 67.1511C77.8637 73.5973 79.4904 77.6144 86.1619 80.518C85.8074 85.5789 85.6175 95.884 85.9403 100.945L98.9922 100.426L99.4669 91.8923L98.5048 80.3282C103.891 78.9681 105.803 71.0795 105.911 68.7389C112.493 71.535 114.728 59.3131 107.904 58.9398Z" fill="#B86A4B"/>
<path d="M87.7695 81.5049C90.9027 81.5049 93.7511 81.7959 96.7577 80.9229C94.4537 83.2256 90.4533 83.0421 87.7695 81.5049Z" fill="#B2593D"/>
<path d="M80.7627 48.932C85.4909 49.0016 84.7314 45.4843 85.3327 42.606C85.3327 42.606 88.1431 49.0965 93.7322 43.0741C94.9981 41.7014 94.2892 52.0508 100.815 44.8264C102.474 43.2386 103.98 52.5695 106.866 52.0571L106.771 61.3121C125.716 26.4176 53.9121 23.8619 77.9902 62.6532C77.9902 62.6786 75.4331 48.8561 80.7627 48.932Z" fill="#2F2E41"/>
<path d="M298.821 95.9662L261.551 101.704C259.866 101.962 258.144 101.838 256.513 101.342C254.882 100.846 253.383 99.9903 252.126 98.8383C234.182 82.2893 222.326 74.0085 215.123 69.8776C208.667 66.1832 195.007 61.5146 195.007 61.5146L195.147 62.2104L194.868 62.0966C182.063 88.7356 170.815 62.0966 170.815 62.0966C170.815 62.0966 157.156 66.7589 150.699 70.4596C143.496 74.5905 131.641 82.865 113.696 99.4203C112.438 100.573 110.936 101.428 109.303 101.923C107.669 102.418 105.945 102.54 104.258 102.28L66.9891 96.5482L59.5454 115.482L102.587 126.977C105.654 127.795 108.861 127.943 111.991 127.412C115.12 126.88 118.098 125.681 120.722 123.896L148.319 105.063L148.44 104.658C149.009 125.762 150.642 148.82 150.642 148.82L151.161 159.265H214.401L214.433 158.683H214.547L215.066 148.238C215.066 148.238 216.699 125.18 217.269 104.076L217.389 104.481L245.088 123.339C247.712 125.124 250.69 126.323 253.819 126.855C256.948 127.387 260.156 127.238 263.222 126.42L306.264 114.925L298.821 95.9662Z" fill="#2F2E41"/>
<path d="M90.2443 35.1412L87.9656 31.9782C87.9656 31.9782 82.5347 32.5602 85.6869 30.5738C88.8391 28.5875 89.4404 30.1943 89.4025 30.7826L90.2443 35.1412Z" fill="#2F2E41"/>
<path d="M137.844 188.928C137.66 192.97 142.439 208.083 138.477 211.164L131.641 218.413C129.007 220.476 127.248 216.724 129.438 214.877L134.679 209.418C134.679 209.418 134.445 201.561 134.236 202.725L131.482 206.356C130.767 207.349 128.919 206.805 129.039 205.534C129.147 204.161 130.02 202.864 130.818 201.738C130.818 201.738 129.691 192.919 131.951 188.592L137.844 188.928Z" fill="#B86A4B"/>
<path d="M134.198 132.43L138.863 197.019L130.945 193.457L120.861 138.262L134.198 132.43Z" fill="#B86A4B"/>
<path d="M114.541 158.077L113.499 158.392L113.656 158.912L114.698 158.598L114.541 158.077Z" fill="#200100"/>
<path d="M118.291 174.251L117.956 173.157L119 172.841L119.329 173.935L118.291 174.251ZM117.627 172.062L117.297 170.968L118.335 170.652L118.671 171.746L117.627 172.062ZM116.962 169.874L116.633 168.779L117.671 168.463L118.006 169.557L116.962 169.874ZM116.329 167.685L116 166.59L117.038 166.274L117.373 167.368L116.329 167.685ZM115.664 165.496L115.335 164.402L116.38 164.085L116.671 165.161L115.664 165.496ZM115 163.307L114.671 162.213L115.715 161.896L116.044 162.991L115 163.307ZM114.367 161.118L114.031 160.024L115.076 159.708L115.405 160.802L114.367 161.118Z" fill="#200100"/>
<path d="M120.067 175.876L119.021 176.192L119.179 176.714L120.225 176.398L120.067 175.876Z" fill="#200100"/>
<path d="M135.306 142.76C131.508 112.61 141.002 88.7482 99.163 88.356C99.163 88.356 93.6751 103.501 85.8706 88.356L75.0532 91.9935C62.5773 95.2957 56.0641 114.634 49.2217 124.003V146.676L74.2556 124.535L83.7565 145.828H112.493L118.823 124.022L121.14 142.76H135.306Z" fill="#85339B"/>
<g opacity="0.2">
<path d="M68.3311 112.654C70.9495 116.251 72.9418 120.263 74.224 124.522C71.6019 120.928 69.6093 116.915 68.3311 112.654Z" fill="black"/>
</g>
<g opacity="0.2">
<path d="M118.842 124.041C119.662 118.758 121.219 113.615 123.469 108.764C122.649 114.048 121.091 119.19 118.842 124.041Z" fill="black"/>
</g>
<path d="M45.3982 83.7064L37.2393 89.0076L34.5048 138.8C34.3904 140.552 34.7823 142.301 35.634 143.837C36.4857 145.373 37.7613 146.632 39.3088 147.464C40.8562 148.296 42.6103 148.666 44.3622 148.529C46.114 148.393 47.7898 147.756 49.1897 146.695C57.6082 131.936 46.93 99.2874 45.3982 83.7064Z" fill="#B86A4B"/>
<path d="M46.2149 92.5249C46.2149 92.5249 48.3607 89.3619 47.2466 81.0684C46.1326 72.7749 44.3666 66.3287 43.7906 72.2119L43.4298 76.7097C43.4298 76.7097 39.8219 71.0163 37.9736 67.4168C35.505 63.172 28.2006 63.1657 31.1122 70.9277C33.0934 77.7029 36.2266 88.1093 37.2077 89.6402C37.5495 90.1716 46.2149 92.5249 46.2149 92.5249Z" fill="#B86A4B"/>
<path d="M45.3286 80.3219C44.4553 79.2602 43.8091 78.0308 43.4297 76.7097C44.4164 77.6921 45.0789 78.9525 45.3286 80.3219Z" fill="#B2593D"/>
<path d="M120.469 347.471C122.494 308.111 126.343 217.553 125.532 179.059C128.463 184.12 126.267 171.544 121.133 160.081C118.903 154.856 115.905 149.993 112.24 145.651H83.4843C75.3443 159.625 66.6789 175.169 64.7167 191.42L44.6453 337.9L43.0059 347.471L26.8271 359.421C26.8271 359.421 45.8162 366.279 55.4437 356.087L53.4878 347.079L95.9918 180.913H97.5489L109.993 347.079L108.037 356.087C117.639 366.279 136.654 359.421 136.654 359.421L120.469 347.471Z" fill="#B86A4B"/>
<path d="M142.92 366.083C142.92 366.083 121.557 366.481 116.462 361.654V366.083H107.056C107.056 366.083 104.1 350.356 109.107 351.166C114.114 351.975 131.932 365.564 132.331 356.227C136.027 358.365 143.623 360.503 142.92 366.083Z" fill="#2F2E41"/>
<path d="M83.6046 145.651L75.6798 159.828C59.5897 184.917 61.2101 220.292 57.1274 241.75H126.488C126.912 212.068 134.445 169.76 112.348 145.626L83.6046 145.651Z" fill="#2F2E41"/>
<path d="M20.5607 366.083C20.5607 366.083 41.9235 366.481 47.0189 361.654V366.083H56.4248C56.4248 366.083 59.3808 350.356 54.374 351.166C49.3672 351.975 31.5491 365.564 31.1503 356.227C27.4538 358.365 19.8581 360.503 20.5607 366.083Z" fill="#2F2E41"/>
<path d="M285.212 77.2664C284.515 77.6595 283.758 77.9332 282.971 78.0762C282.188 78.2334 281.389 78.2929 280.591 78.2533C279.784 78.2048 278.988 78.0364 278.23 77.7535C277.47 77.4622 276.789 76.9963 276.243 76.3934C277.021 76.6148 277.73 76.8046 278.458 76.9375C279.186 77.0703 279.914 77.1273 280.654 77.1715C282.136 77.2285 283.617 77.2285 285.212 77.2664Z" fill="#874032"/>
<g opacity="0.2">
<path d="M289.471 22.875C289.257 22.8765 289.044 22.8467 288.838 22.7865C287.376 22.3816 286.68 20.6799 286.648 20.604C286.622 20.538 286.609 20.4674 286.609 20.3962C286.61 20.325 286.625 20.2548 286.654 20.1895C286.682 20.1241 286.723 20.0651 286.774 20.0157C286.825 19.9663 286.886 19.9276 286.952 19.9018C287.086 19.8475 287.235 19.8482 287.368 19.904C287.501 19.9597 287.606 20.0659 287.661 20.1991C287.661 20.1991 288.193 21.4643 289.136 21.7427C289.423 21.7928 289.719 21.7761 289.998 21.6938C290.278 21.6116 290.536 21.4659 290.75 21.2682C290.807 21.2249 290.872 21.1932 290.941 21.1751C291.01 21.1571 291.082 21.1529 291.152 21.1629C291.223 21.1729 291.291 21.1969 291.352 21.2334C291.414 21.27 291.467 21.3184 291.51 21.3758C291.553 21.433 291.585 21.4982 291.603 21.5677C291.621 21.6373 291.626 21.7097 291.615 21.7809C291.605 21.8521 291.581 21.9206 291.545 21.9824C291.508 22.0442 291.46 22.0982 291.402 22.1412C290.856 22.5901 290.178 22.8479 289.471 22.875Z" fill="black"/>
</g>
<g opacity="0.2">
<path d="M306.562 32.2439C305.678 32.1858 304.834 31.8567 304.144 31.3013C304.032 31.209 303.962 31.0762 303.948 30.9321C303.935 30.7879 303.979 30.6443 304.071 30.5327C304.163 30.4211 304.296 30.3508 304.441 30.3371C304.585 30.3235 304.729 30.3677 304.84 30.4599C304.84 30.4599 305.916 31.3393 306.872 31.0926C307.15 31.0032 307.404 30.8495 307.612 30.6439C307.819 30.4384 307.976 30.1868 308.068 29.9096C308.13 29.78 308.24 29.6796 308.375 29.63C308.51 29.5804 308.659 29.5853 308.79 29.6439C308.921 29.7044 309.022 29.8143 309.072 29.9495C309.122 30.0847 309.116 30.2342 309.056 30.3651C308.898 30.7966 308.639 31.1841 308.301 31.4955C307.963 31.8069 307.556 32.0331 307.113 32.1553C306.933 32.2064 306.748 32.2361 306.562 32.2439Z" fill="black"/>
</g>
<g opacity="0.2">
<path d="M296.168 37.5768C295.286 37.5195 294.444 37.1901 293.757 36.6342C293.648 36.5409 293.579 36.4086 293.566 36.2656C293.553 36.1226 293.597 35.9802 293.687 35.8687C293.78 35.7581 293.912 35.6887 294.056 35.6756C294.199 35.6626 294.342 35.707 294.453 35.7991C294.453 35.7991 295.536 36.6658 296.485 36.4317C296.762 36.3397 297.014 36.1851 297.221 35.9799C297.429 35.7748 297.586 35.5246 297.681 35.2488C297.746 35.1246 297.856 35.0301 297.988 34.9848C298.121 34.9395 298.265 34.9469 298.393 35.0055C298.52 35.0641 298.619 35.1695 298.671 35.2996C298.722 35.4297 298.721 35.5746 298.669 35.7042C298.51 36.1362 298.25 36.524 297.911 36.8354C297.572 37.1468 297.163 37.3727 296.719 37.4945C296.54 37.5438 296.355 37.5714 296.168 37.5768Z" fill="black"/>
</g>
<path d="M281.363 42.4352C280.481 42.3779 279.639 42.0486 278.952 41.4926L279.648 40.6576C279.648 40.6576 280.724 41.5306 281.68 41.2902C281.957 41.1981 282.209 41.0435 282.416 40.8384C282.624 40.6332 282.781 40.383 282.876 40.1072L283.864 40.5627C283.706 40.9952 283.446 41.3835 283.107 41.695C282.768 42.0065 282.358 42.2321 281.914 42.353C281.734 42.4022 281.549 42.4298 281.363 42.4352Z" fill="#560D0D"/>
<g opacity="0.2">
<path d="M302.245 48.2362C302.007 48.2367 301.771 48.2026 301.542 48.135C300.093 47.6858 299.441 45.9651 299.416 45.8892C299.373 45.756 299.383 45.6114 299.444 45.4855C299.505 45.3596 299.613 45.262 299.744 45.2132C299.875 45.1643 300.02 45.1678 300.149 45.2231C300.277 45.2783 300.38 45.3809 300.435 45.5097C300.435 45.5097 300.935 46.7749 301.872 47.0912C302.157 47.1536 302.453 47.1477 302.736 47.074C303.018 47.0004 303.28 46.861 303.498 46.6673C303.616 46.5834 303.762 46.5496 303.904 46.5734C304.047 46.5971 304.174 46.6764 304.258 46.7938C304.342 46.9113 304.376 47.0572 304.352 47.1996C304.328 47.342 304.249 47.4691 304.131 47.553C303.59 47.9732 302.93 48.2123 302.245 48.2362Z" fill="black"/>
</g>
<g opacity="0.2">
<path d="M275.293 19.7183C275.055 19.7207 274.817 19.6844 274.59 19.6108C273.141 19.1679 272.483 17.4473 272.457 17.3713C272.432 17.3045 272.421 17.2334 272.423 17.162C272.426 17.0907 272.443 17.0205 272.473 16.9558C272.503 16.891 272.545 16.8328 272.598 16.7847C272.651 16.7366 272.713 16.6995 272.78 16.6755C272.915 16.6259 273.065 16.6312 273.196 16.6903C273.327 16.7495 273.43 16.8577 273.483 16.9918C273.483 16.9918 273.976 18.257 274.913 18.5733C275.199 18.6313 275.495 18.6227 275.777 18.5481C276.059 18.4735 276.32 18.3349 276.54 18.1431C276.658 18.0592 276.805 18.0258 276.948 18.0501C277.091 18.0744 277.219 18.1545 277.303 18.2728C277.387 18.3911 277.42 18.5379 277.396 18.6808C277.371 18.8238 277.291 18.9512 277.173 19.0351C276.634 19.4545 275.976 19.6935 275.293 19.7183Z" fill="black"/>
</g>
<g opacity="0.2">
<path d="M259.874 34.6099C259.636 34.6092 259.399 34.5729 259.172 34.5023C257.722 34.0532 257.07 32.3325 257.038 32.2566C256.988 32.1207 256.994 31.9703 257.054 31.8386C257.115 31.707 257.225 31.6047 257.361 31.5544C257.497 31.504 257.648 31.5098 257.779 31.5703C257.911 31.6308 258.013 31.7411 258.064 31.877C258.064 31.877 258.558 33.1422 259.494 33.4648C259.78 33.5229 260.076 33.5143 260.358 33.4397C260.64 33.3651 260.901 33.2265 261.121 33.0347C261.179 32.9931 261.245 32.9635 261.315 32.9473C261.384 32.9312 261.457 32.929 261.527 32.9407C261.598 32.9525 261.665 32.978 261.726 33.0158C261.786 33.0536 261.839 33.103 261.881 33.1612C261.922 33.2193 261.952 33.2851 261.968 33.3547C261.984 33.4243 261.986 33.4965 261.975 33.567C261.963 33.6374 261.937 33.7049 261.9 33.7656C261.862 33.8262 261.812 33.8788 261.754 33.9203C261.215 34.3412 260.558 34.5824 259.874 34.6099Z" fill="black"/>
</g>
<g opacity="0.2">
<path d="M258.291 49.8873C258.053 49.8887 257.816 49.8524 257.589 49.7797C256.139 49.3369 255.487 47.6099 255.462 47.5403C255.419 47.4071 255.43 47.2625 255.491 47.1366C255.552 47.0107 255.659 46.9131 255.79 46.8643C255.922 46.8154 256.067 46.8189 256.195 46.8742C256.324 46.9294 256.426 47.032 256.481 47.1608C256.481 47.1608 256.981 48.4576 257.918 48.7423C258.204 48.8012 258.499 48.7936 258.781 48.7201C259.063 48.6466 259.324 48.5091 259.545 48.3184C259.603 48.2769 259.669 48.2472 259.738 48.2311C259.808 48.215 259.88 48.2127 259.951 48.2245C260.021 48.2362 260.089 48.2617 260.149 48.2996C260.21 48.3374 260.263 48.3868 260.304 48.4449C260.346 48.5031 260.376 48.5689 260.392 48.6385C260.408 48.7081 260.41 48.7802 260.398 48.8507C260.387 48.9212 260.361 48.9887 260.323 49.0493C260.285 49.1099 260.236 49.1625 260.178 49.2041C259.636 49.6243 258.976 49.8634 258.291 49.8873Z" fill="black"/>
</g>
<g opacity="0.2">
<path d="M272.457 30.8712C271.48 30.7852 270.566 30.352 269.881 29.6502C269.78 29.5462 269.725 29.4065 269.728 29.2617C269.73 29.117 269.79 28.9791 269.894 28.8785C269.998 28.7778 270.138 28.7226 270.283 28.7249C270.427 28.7273 270.565 28.7871 270.666 28.8911C270.666 28.8911 271.647 29.8653 272.609 29.7704C272.895 29.71 273.164 29.5843 273.393 29.4033C273.622 29.2222 273.807 28.9907 273.932 28.7266C274.01 28.6099 274.13 28.5276 274.267 28.497C274.404 28.4665 274.547 28.49 274.667 28.5626C274.787 28.6353 274.875 28.7515 274.911 28.8869C274.948 29.0224 274.93 29.1667 274.863 29.2896C274.657 29.7008 274.356 30.0571 273.985 30.3288C273.614 30.6006 273.184 30.78 272.73 30.8522L272.457 30.8712Z" fill="black"/>
</g>
<path d="M296.295 49.9695C296.295 49.9695 291.054 48.7043 289.554 40.1388C289.554 40.1388 289.098 50.6338 267.14 49.571L266.938 58.826L261.874 51.6459C261.874 51.6459 266.938 32.3388 284.256 34.2999C287.031 34.6971 289.663 35.7847 291.908 37.4629C294.671 39.4572 296.984 42.0072 298.701 44.9488C300.418 47.8905 301.5 51.1587 301.878 54.5433L302.106 56.3968C302.106 56.3968 298.358 50.3997 295.681 61.1413L296.295 49.9695Z" fill="#2F2E41"/>
<g opacity="0.2">
<path d="M267.856 41.9734C266.973 41.9177 266.13 41.5882 265.444 41.0308C265.34 40.9364 265.277 40.8057 265.268 40.666C265.258 40.5263 265.303 40.3883 265.393 40.2807C265.483 40.1731 265.61 40.1042 265.75 40.0884C265.889 40.0726 266.029 40.111 266.14 40.1957C266.14 40.1957 267.216 41.0751 268.172 40.8284C268.449 40.7363 268.701 40.5817 268.909 40.3766C269.116 40.1714 269.273 39.9212 269.368 39.6454C269.433 39.5212 269.543 39.4267 269.675 39.3814C269.808 39.3361 269.953 39.3435 270.08 39.4021C270.207 39.4608 270.306 39.5661 270.358 39.6962C270.409 39.8263 270.409 39.9712 270.356 40.1009C270.197 40.5328 269.937 40.9206 269.598 41.232C269.259 41.5434 268.85 41.7693 268.406 41.8911C268.227 41.9404 268.042 41.968 267.856 41.9734Z" fill="black"/>
</g>
<g opacity="0.2">
<path d="M282.977 41.6318C282.093 41.5737 281.249 41.2445 280.559 40.6892C280.45 40.5959 280.381 40.4636 280.368 40.3206C280.355 40.1776 280.399 40.0352 280.49 39.9237C280.581 39.8122 280.713 39.7415 280.857 39.7273C281 39.7131 281.144 39.7564 281.255 39.8478C281.255 39.8478 282.344 40.7208 283.287 40.4804C283.564 40.3884 283.816 40.2338 284.024 40.0286C284.231 39.8235 284.389 39.5733 284.484 39.2974C284.548 39.1733 284.658 39.0787 284.79 39.0334C284.923 38.9881 285.068 38.9956 285.195 39.0542C285.322 39.1128 285.422 39.2181 285.473 39.3483C285.524 39.4784 285.524 39.6233 285.471 39.7529C285.313 40.1844 285.054 40.572 284.716 40.8834C284.378 41.1948 283.971 41.421 283.528 41.5432C283.348 41.5939 283.163 41.6236 282.977 41.6318Z" fill="black"/>
</g>
<g opacity="0.2">
<path d="M307.138 58.8386C306.254 58.7822 305.409 58.4529 304.72 57.8961C304.616 57.8016 304.553 57.671 304.544 57.5313C304.534 57.3915 304.579 57.2535 304.669 57.1459C304.758 57.0384 304.886 56.9695 305.025 56.9537C305.165 56.9378 305.305 56.9763 305.416 57.061C305.416 57.061 306.492 57.9277 307.448 57.6936C307.725 57.6016 307.977 57.447 308.184 57.2418C308.392 57.0367 308.549 56.7865 308.644 56.5107C308.705 56.3799 308.815 56.2785 308.95 56.2287C309.085 56.1789 309.235 56.1847 309.366 56.245C309.431 56.2743 309.49 56.3163 309.539 56.3686C309.588 56.421 309.626 56.4825 309.651 56.5497C309.675 56.6168 309.686 56.6883 309.683 56.7598C309.68 56.8313 309.662 56.9015 309.632 56.9661C309.474 57.3976 309.215 57.7852 308.877 58.0966C308.539 58.408 308.132 58.6342 307.689 58.7564C307.508 58.802 307.324 58.8295 307.138 58.8386Z" fill="black"/>
</g>
<path d="M299.7 56.2576C299.447 53.4399 298.936 50.6511 298.175 47.9262C297.462 45.2494 296.359 42.6917 294.902 40.3349C293.509 38.043 291.503 36.1851 289.111 34.9704C286.697 33.8405 284.02 33.392 281.37 33.6736C278.675 33.913 276.059 34.7118 273.691 36.0189C271.323 37.3261 269.253 39.1128 267.615 41.2649C265.951 43.4592 264.785 45.9891 264.197 48.679C263.608 51.4317 263.439 54.2578 263.697 57.061C262.989 54.2597 262.8 51.3523 263.14 48.4829C263.514 45.5385 264.572 42.7222 266.229 40.259C267.914 37.7743 270.131 35.6952 272.719 34.1722C275.307 32.6492 278.201 31.7204 281.192 31.4531C282.699 31.3405 284.214 31.4084 285.705 31.6556C287.219 31.8934 288.683 32.3763 290.041 33.0853C292.725 34.5299 294.925 36.7293 296.371 39.4113C297.771 41.9764 298.738 44.7551 299.232 47.6352C299.745 50.4788 299.902 53.3752 299.7 56.2576Z" fill="#85339B"/>
<path d="M315.607 366.329C315.607 366.329 294.244 366.734 289.149 361.901V366.329H279.743C279.743 366.329 276.787 350.603 281.794 351.412C286.801 352.222 304.619 365.811 305.018 356.473L311.98 360.073C313.066 360.629 313.976 361.473 314.612 362.514C315.247 363.554 315.583 364.75 315.582 365.969L315.607 366.329Z" fill="#2F2E41"/>
<g opacity="0.2">
<path d="M291.079 158.202C290.962 158.203 290.849 158.165 290.755 158.096C290.661 158.026 290.593 157.928 290.56 157.816L290.104 156.304C290.077 156.234 290.064 156.16 290.067 156.085C290.07 156.009 290.088 155.936 290.12 155.868C290.153 155.801 290.199 155.74 290.257 155.692C290.314 155.643 290.38 155.606 290.452 155.584C290.524 155.562 290.6 155.555 290.674 155.564C290.749 155.573 290.821 155.597 290.886 155.635C290.951 155.673 291.007 155.724 291.051 155.785C291.095 155.845 291.126 155.915 291.142 155.988L291.617 157.55C291.659 157.689 291.644 157.838 291.577 157.966C291.509 158.094 291.394 158.19 291.256 158.234C291.196 158.231 291.137 158.22 291.079 158.202Z" fill="black"/>
<path d="M294.535 169.69C294.418 169.691 294.305 169.654 294.211 169.584C294.117 169.514 294.049 169.416 294.016 169.304L293.168 166.426C293.14 166.356 293.127 166.281 293.13 166.206C293.133 166.131 293.151 166.058 293.184 165.99C293.217 165.922 293.263 165.862 293.32 165.813C293.377 165.764 293.444 165.728 293.515 165.706C293.587 165.684 293.663 165.677 293.738 165.686C293.812 165.695 293.884 165.719 293.949 165.757C294.014 165.795 294.07 165.846 294.114 165.906C294.159 165.967 294.19 166.036 294.206 166.11L295.079 168.975C295.1 169.044 295.106 169.116 295.099 169.187C295.092 169.258 295.07 169.327 295.036 169.39C295.002 169.453 294.956 169.508 294.9 169.553C294.845 169.598 294.781 169.632 294.712 169.652C294.656 169.676 294.596 169.689 294.535 169.69ZM292.801 163.959C292.684 163.958 292.57 163.92 292.476 163.851C292.381 163.781 292.311 163.684 292.275 163.573L291.427 160.732C291.401 160.663 291.39 160.589 291.394 160.516C291.397 160.442 291.416 160.369 291.449 160.303C291.482 160.237 291.527 160.178 291.584 160.13C291.64 160.082 291.705 160.045 291.776 160.024C291.846 160.002 291.921 159.994 291.994 160.002C292.068 160.01 292.139 160.032 292.204 160.068C292.268 160.105 292.325 160.154 292.37 160.212C292.415 160.271 292.447 160.338 292.465 160.41L293.339 163.282C293.38 163.419 293.366 163.568 293.298 163.695C293.23 163.821 293.115 163.916 292.978 163.959C292.926 163.967 292.872 163.967 292.82 163.959H292.801Z" fill="black"/>
<path d="M295.896 174.118C295.779 174.119 295.666 174.082 295.572 174.012C295.478 173.943 295.41 173.844 295.377 173.733L294.902 172.17C294.86 172.032 294.875 171.882 294.943 171.755C295.012 171.627 295.128 171.532 295.266 171.49C295.405 171.448 295.554 171.463 295.682 171.531C295.81 171.599 295.905 171.715 295.947 171.854L296.421 173.416C296.443 173.485 296.45 173.557 296.443 173.628C296.436 173.7 296.415 173.769 296.381 173.832C296.346 173.895 296.3 173.951 296.244 173.996C296.188 174.04 296.123 174.074 296.054 174.093C296.004 174.111 295.95 174.12 295.896 174.118Z" fill="black"/>
</g>
<g opacity="0.2">
<path d="M304.498 110.529C303.199 114.781 301.208 118.791 298.605 122.396C299.911 118.147 301.901 114.138 304.498 110.529Z" fill="black"/>
</g>
<g opacity="0.2">
<path d="M253.987 121.89C251.756 117.03 250.199 111.888 249.36 106.607C250.498 109.024 251.447 111.526 252.196 114.09C252.992 116.641 253.591 119.248 253.987 121.89Z" fill="black"/>
</g>
<path d="M387.69 159.24V338.925H363.649L360.516 182.222H354.243L342.223 338.925H318.183L328.633 159.24H387.69Z" fill="#85339B"/>
<g opacity="0.2">
<path d="M325.76 93.9482C325.981 96.4091 326.089 98.8636 326.177 101.324C326.266 103.785 326.291 106.246 326.304 108.701C326.317 111.155 326.304 113.622 326.177 116.083L326.026 119.771C325.937 120.998 325.88 122.232 325.76 123.459C325.633 122.232 325.582 120.998 325.494 119.771L325.342 116.083C325.241 113.622 325.228 111.161 325.215 108.701C325.203 106.24 325.215 103.785 325.342 101.324C325.468 98.8636 325.551 96.4091 325.76 93.9482Z" fill="black"/>
</g>
<g opacity="0.2">
<path d="M389.519 95.2514C389.791 99.6797 389.937 104.171 390.07 108.631C390.203 113.091 390.234 117.557 390.329 122.017C390.424 126.477 390.373 130.943 390.329 135.403L390.247 142.096C390.177 144.329 390.146 146.562 390.044 148.795C389.899 146.562 389.823 144.335 389.709 142.102L389.481 135.428C389.354 130.962 389.31 126.502 389.228 122.042C389.145 117.582 389.177 113.116 389.228 108.656C389.278 104.196 389.342 99.7176 389.519 95.2514Z" fill="black"/>
</g>
<path d="M336.995 345.194C336.995 345.194 343.527 363.476 338.04 366.07H332.552C332.552 366.07 329.938 358.757 326.279 366.07H292.833C292.833 366.07 290.744 360.326 298.84 357.713C306.935 355.101 320.532 345.175 320.532 345.175L336.995 345.194Z" fill="#85339B"/>
<path d="M338.039 338.925L336.995 345.194H320.531V338.925H338.039Z" fill="#B86A4B"/>
<path d="M367.694 345.194C367.694 345.194 361.162 363.476 366.649 366.07H372.137C372.137 366.07 374.752 358.757 378.41 366.07H411.856C411.856 366.07 413.945 360.326 405.843 357.713C397.741 355.101 384.157 345.175 384.157 345.175L367.694 345.194Z" fill="#85339B"/>
<path d="M366.649 338.925L367.694 345.194H384.157V338.925H366.649Z" fill="#B86A4B"/>
<g opacity="0.2">
<path d="M352.73 181.779C354.478 181.392 356.264 181.209 358.054 181.235C359.843 181.206 361.63 181.389 363.377 181.779C361.63 182.164 359.843 182.345 358.054 182.317C356.265 182.341 354.479 182.161 352.73 181.779Z" fill="black"/>
</g>
<path d="M322.551 120.802L325.76 123.965L325.931 135.352C325.931 135.352 316.329 140.59 313.24 132.189L322.551 120.802Z" fill="#8C4D3E"/>
<path d="M265.545 73.9516H261.039V64.2854H265.545V73.9516ZM261.855 73.1355H264.729V65.1014H261.855V73.1355Z" fill="#85339B"/>
<path d="M302.485 73.4329H297.979V63.7413H302.485V73.4329ZM298.795 72.6168H301.669V64.5764H298.795V72.6168Z" fill="#85339B"/>
<path d="M298.789 64.5764V63.4377H301.536C300.916 64.498 299.944 65.3081 298.789 65.7277V64.5764Z" fill="#8C4D3E"/>
<path d="M264.786 66.3856V64.2601H262.197C262.782 65.2514 263.699 66.0042 264.786 66.3856Z" fill="#8C4D3E"/>
<path d="M81.3827 88.8621L82.7689 92.2276C83.0951 93.0236 83.2083 93.8907 83.0973 94.7437C82.9864 95.5967 82.655 96.4062 82.136 97.0923C81.9227 97.3854 81.6739 97.651 81.3954 97.8831C80.9922 98.2362 80.532 98.5185 80.0345 98.7181L75.1416 100.736C74.9696 100.808 74.7917 100.865 74.6099 100.907C74.2874 101.016 73.9502 101.075 73.6098 101.084C72.5653 101.167 71.5214 100.916 70.6293 100.366C69.7372 99.817 69.0431 98.9983 68.6474 98.0286L67.2991 94.6631C66.9979 93.9307 67 93.1088 67.3051 92.378C67.6101 91.6472 68.1931 91.0674 68.9259 90.7662L77.5026 87.2426C78.2324 86.9471 79.0494 86.9514 79.776 87.2547C80.5026 87.5579 81.08 88.1356 81.3827 88.8621Z" fill="#FED4C0"/>
<path d="M82.1612 97.0923C81.9479 97.3854 81.6992 97.651 81.4206 97.8831L78.6925 91.4811C78.6413 91.3603 78.6402 91.2241 78.6895 91.1025C78.7388 90.9809 78.8343 90.8838 78.9552 90.8327C79.0761 90.7815 79.2123 90.7804 79.334 90.8296C79.4557 90.8789 79.5528 90.9744 79.604 91.0952L82.1612 97.0923Z" fill="#F9C0AA"/>
<path d="M79.7688 98.8446L78.851 99.2178L76.0343 92.6451C75.9969 92.5263 76.0052 92.398 76.0576 92.285C76.1099 92.1721 76.2026 92.0828 76.3174 92.0345C76.4322 91.9863 76.5608 91.9825 76.6782 92.0241C76.7956 92.0657 76.8933 92.1495 76.9521 92.2592L79.7688 98.8446Z" fill="#F9C0AA"/>
<path d="M77.0661 99.9517L76.142 100.331L73.4012 93.9103C73.3544 93.7918 73.3552 93.6597 73.4036 93.5418C73.452 93.4239 73.5441 93.3292 73.6608 93.2777C73.7795 93.2324 73.911 93.2341 74.0286 93.2823C74.1461 93.3304 74.2409 93.4215 74.2937 93.537L77.0661 99.9517Z" fill="#F9C0AA"/>
<path d="M74.6352 100.907C74.3126 101.016 73.9755 101.075 73.6351 101.084L70.8184 94.4796C70.7727 94.3617 70.7734 94.2309 70.8204 94.1135C70.8674 93.9961 70.9572 93.9009 71.0716 93.847C71.1909 93.7989 71.3243 93.7998 71.4428 93.8496C71.5614 93.8994 71.6555 93.9939 71.7046 94.1127L74.6352 100.907Z" fill="#F9C0AA"/>
<path d="M305.574 93.4169L304.163 96.776C303.83 97.5682 303.298 98.2608 302.618 98.7864C301.938 99.3119 301.134 99.6523 300.283 99.7745C299.924 99.8262 299.561 99.8368 299.2 99.8062C298.666 99.7685 298.142 99.6424 297.65 99.4329L292.769 97.3896C292.287 97.1767 291.839 96.8931 291.44 96.5483C290.64 95.8649 290.079 94.9442 289.839 93.9202C289.599 92.8962 289.692 91.8223 290.105 90.8548L291.516 87.4957C291.823 86.7675 292.407 86.1908 293.139 85.892C293.871 85.5932 294.692 85.5966 295.422 85.9015L303.973 89.4884C304.337 89.6398 304.668 89.8618 304.946 90.1417C305.224 90.4216 305.444 90.7537 305.593 91.119C305.742 91.4843 305.817 91.8754 305.814 92.2698C305.811 92.6642 305.729 93.0541 305.574 93.4169Z" fill="#FED4C0"/>
<path d="M300.283 99.7746C299.924 99.8262 299.561 99.8368 299.2 99.8062L301.814 93.3536C301.864 93.232 301.96 93.135 302.081 93.084C302.202 93.0329 302.338 93.0321 302.46 93.0816C302.582 93.1311 302.679 93.2269 302.73 93.3479C302.781 93.4689 302.782 93.6052 302.732 93.7268L300.283 99.7746Z" fill="#F9C0AA"/>
<path d="M297.358 99.3127L296.434 98.9268L299.112 92.2971C299.162 92.1794 299.256 92.0859 299.374 92.0363C299.492 91.9868 299.625 91.985 299.745 92.0314C299.804 92.0544 299.859 92.0892 299.905 92.1337C299.952 92.1781 299.989 92.2314 300.014 92.2904C300.039 92.3493 300.053 92.4128 300.053 92.4769C300.054 92.5411 300.041 92.6047 300.017 92.664L297.358 99.3127Z" fill="#F9C0AA"/>
<path d="M294.656 98.1804L293.738 97.7945L296.365 91.3229C296.387 91.2625 296.421 91.2072 296.466 91.1606C296.51 91.114 296.564 91.0771 296.623 91.0521C296.683 91.0272 296.746 91.0148 296.811 91.0157C296.875 91.0165 296.939 91.0307 296.998 91.0572C297.114 91.1089 297.207 91.2028 297.258 91.3201C297.308 91.4375 297.313 91.5695 297.27 91.6898L294.656 98.1804Z" fill="#F9C0AA"/>
<path d="M292.269 97.1366C291.967 96.9794 291.688 96.7815 291.44 96.5482L294.136 89.8806C294.186 89.7616 294.279 89.6663 294.397 89.6144C294.515 89.5626 294.648 89.5582 294.769 89.6022C294.889 89.6501 294.985 89.7436 295.036 89.8622C295.088 89.9809 295.089 90.1149 295.042 90.2348L292.269 97.1366Z" fill="#F9C0AA"/>
<path d="M388.051 69.7764L386.639 73.1292C386.308 73.9221 385.776 74.6154 385.096 75.141C384.415 75.6667 383.61 76.0067 382.759 76.1277C382.401 76.1857 382.037 76.1963 381.677 76.1594C381.143 76.124 380.619 76 380.126 75.7925L375.246 73.7428C375.07 73.6764 374.903 73.5916 374.746 73.4898C374.442 73.3371 374.163 73.141 373.916 72.9078C373.117 72.2238 372.557 71.3032 372.317 70.2794C372.077 69.2556 372.169 68.182 372.581 67.2143L373.992 63.8615C374.3 63.1333 374.883 62.5567 375.615 62.2578C376.347 61.959 377.168 61.9624 377.898 62.2674L386.449 65.8542C386.813 66.0057 387.143 66.2274 387.42 66.5069C387.698 66.7863 387.917 67.1178 388.066 67.4823C388.215 67.8469 388.29 68.2372 388.288 68.6309C388.285 69.0246 388.204 69.4139 388.051 69.7764Z" fill="#8C4D3E"/>
<path d="M382.759 76.1277C382.401 76.1857 382.037 76.1963 381.676 76.1594L384.29 69.7068C384.34 69.588 384.434 69.4934 384.552 69.4437C384.671 69.3939 384.804 69.393 384.923 69.4411C385.043 69.4891 385.14 69.5822 385.192 69.7005C385.244 69.8188 385.248 69.9528 385.202 70.0737L382.759 76.1277Z" fill="#874032"/>
<path d="M379.834 75.666L378.917 75.2864L381.594 68.6504C381.646 68.5337 381.74 68.4412 381.858 68.3918C381.975 68.3424 382.107 68.3399 382.227 68.3847C382.345 68.435 382.438 68.5292 382.488 68.6472C382.537 68.7653 382.539 68.898 382.493 69.0173L379.834 75.666Z" fill="#874032"/>
<path d="M377.132 74.5399L376.22 74.154L378.841 67.6825C378.864 67.6225 378.898 67.5678 378.943 67.5216C378.987 67.4753 379.041 67.4384 379.1 67.413C379.159 67.3877 379.222 67.3744 379.286 67.3739C379.351 67.3735 379.414 67.3859 379.474 67.4104C379.593 67.4596 379.688 67.5533 379.738 67.6714C379.789 67.7896 379.792 67.9229 379.746 68.043L377.132 74.5399Z" fill="#874032"/>
<path d="M374.745 73.4898C374.442 73.3371 374.163 73.141 373.916 72.9078L376.612 66.2528C376.662 66.1338 376.755 66.0385 376.873 65.9866C376.991 65.9348 377.124 65.9304 377.245 65.9744C377.305 65.9974 377.36 66.0322 377.406 66.0767C377.453 66.1211 377.49 66.1744 377.515 66.2334C377.54 66.2923 377.554 66.3558 377.554 66.4199C377.555 66.4841 377.542 66.5477 377.518 66.607L374.745 73.4898Z" fill="#874032"/>
<path d="M264.71 84.8198L266.02 88.2168C266.331 89.0173 266.428 89.8847 266.303 90.7341C266.177 91.5835 265.834 92.3859 265.305 93.0626C265.085 93.3502 264.829 93.6095 264.545 93.8344C264.136 94.1786 263.671 94.4522 263.172 94.6441L258.228 96.5419C258.056 96.61 257.878 96.6629 257.697 96.7001C257.37 96.7993 257.031 96.8525 256.69 96.8582C255.645 96.917 254.607 96.6423 253.728 96.0738C252.848 95.5054 252.172 94.6724 251.797 93.6952L250.487 90.2981C250.346 89.9326 250.279 89.543 250.289 89.1514C250.299 88.7599 250.386 88.3742 250.546 88.0164C250.705 87.6586 250.933 87.3357 251.218 87.0661C251.502 86.7966 251.837 86.5857 252.202 86.4456L260.855 83.1117C261.22 82.9709 261.61 82.9033 262.001 82.9129C262.393 82.9225 262.779 83.0091 263.137 83.1677C263.494 83.3263 263.818 83.5539 264.088 83.8373C264.358 84.1208 264.569 84.4546 264.71 84.8198Z" fill="#B86A4B"/>
<path d="M265.305 93.0879C265.085 93.3756 264.83 93.6348 264.545 93.8597L261.957 87.4008C261.91 87.2807 261.913 87.1474 261.964 87.0292C262.015 86.911 262.11 86.8174 262.229 86.7682C262.349 86.7238 262.482 86.7272 262.6 86.7779C262.717 86.8285 262.811 86.9224 262.862 87.0402L265.305 93.0879Z" fill="#B2593D"/>
<path d="M262.887 94.7833L261.956 95.1439L259.292 88.5078C259.248 88.3861 259.253 88.2521 259.306 88.1341C259.359 88.0161 259.456 87.9233 259.576 87.8752C259.636 87.8518 259.7 87.8403 259.764 87.8416C259.829 87.8429 259.892 87.8569 259.951 87.8828C260.01 87.9087 260.063 87.9459 260.107 87.9924C260.152 88.0388 260.186 88.0936 260.209 88.1536L262.887 94.7833Z" fill="#B2593D"/>
<path d="M260.146 95.8334L259.216 96.194L256.621 89.7098C256.596 89.6505 256.584 89.5869 256.584 89.5227C256.584 89.4585 256.598 89.3951 256.623 89.3361C256.648 89.2772 256.685 89.2239 256.732 89.1794C256.778 89.1349 256.833 89.1002 256.893 89.0772C257.013 89.0328 257.146 89.0362 257.264 89.0869C257.381 89.1375 257.475 89.2314 257.526 89.3492L260.146 95.8334Z" fill="#B2593D"/>
<path d="M208.489 366.329C208.489 366.329 229.852 366.734 234.947 361.901V366.329H244.353C244.353 366.329 247.309 350.603 242.303 351.412C237.296 352.222 219.484 365.811 219.079 356.473L212.116 360.073C211.032 360.63 210.122 361.475 209.486 362.515C208.851 363.555 208.515 364.75 208.515 365.969L208.489 366.329Z" fill="#2F2E41"/>
<path d="M257.697 96.7317C257.37 96.8309 257.031 96.8841 256.69 96.8899L254.025 90.2222C253.983 90.1019 253.987 89.9698 254.037 89.8525C254.088 89.7352 254.181 89.6412 254.298 89.5896C254.419 89.5442 254.554 89.5487 254.673 89.602C254.791 89.6553 254.884 89.7531 254.931 89.8743L257.697 96.7317Z" fill="#B2593D"/>
<path d="M309.891 309.091C314.094 309.091 314.101 302.563 309.891 302.563C305.682 302.563 305.682 309.091 309.891 309.091Z" fill="#85339B"/>
<path d="M322.044 53.9676C326.253 53.9676 326.26 47.4391 322.044 47.4391C317.828 47.4391 317.835 53.9676 322.044 53.9676Z" fill="#85339B"/>
<path d="M408.141 257.287C412.344 257.287 412.35 250.759 408.141 250.759C403.932 250.759 403.932 257.287 408.141 257.287Z" fill="#85339B"/>
<path d="M379.663 349.951C381.765 349.951 381.765 346.687 379.663 346.687C377.562 346.687 377.556 349.951 379.663 349.951Z" fill="#85339B"/>
<path d="M411.293 65.7783C413.401 65.7783 413.401 62.5141 411.293 62.5141C409.185 62.5141 409.191 65.7783 411.293 65.7783Z" fill="#85339B"/>
<path d="M318.183 219.71C320.284 219.71 320.284 216.446 318.183 216.446C316.082 216.446 316.075 219.71 318.183 219.71Z" fill="#85339B"/>
<path d="M349.68 16.0366C351.781 16.0366 351.787 12.7723 349.68 12.7723C347.572 12.7723 347.578 16.0366 349.68 16.0366Z" fill="#85339B"/>
<path d="M409.008 317.903C411.11 317.903 411.11 314.639 409.008 314.639C406.907 314.639 406.9 317.903 409.008 317.903Z" fill="#85339B"/>
<path d="M365.751 51.0386V61.1603L369.922 62.0712C369.922 62.0712 368.878 84.9273 357.896 78.9175C346.914 72.9078 343.521 62.8557 345.869 62.0712L349.528 60.8946L349.996 51.4624L365.751 51.0386Z" fill="#B86A4B"/>
<path d="M342.223 31.1811C342.223 18.2697 349.123 7.80637 357.642 7.80637C366.162 7.80637 373.055 18.2697 373.055 31.1811H373.157C374.516 31.1811 375.82 31.721 376.782 32.682C377.743 33.6429 378.284 34.9462 378.284 36.3052C378.284 37.6642 377.743 38.9676 376.782 39.9285C375.82 40.8895 374.516 41.4294 373.157 41.4294C372.615 41.4249 372.078 41.3309 371.568 41.151C369.099 49.0649 363.795 54.5559 357.642 54.5559C351.49 54.5559 346.192 49.0775 343.717 41.1826C343.014 41.3964 342.273 41.4563 341.545 41.3582C340.817 41.2602 340.118 41.0064 339.497 40.6143C338.876 40.2222 338.347 39.7009 337.945 39.0859C337.543 38.4708 337.279 37.7766 337.17 37.0503C337.061 36.3241 337.11 35.5829 337.314 34.8773C337.517 34.1716 337.87 33.5181 338.349 32.9611C338.828 32.4042 339.422 31.9569 340.089 31.6497C340.756 31.3426 341.482 31.1828 342.217 31.1811H342.223Z" fill="#B86A4B"/>
<path d="M371.359 35.7485C371.359 35.7485 372.277 17.7636 365.871 13.8098C365.871 13.8098 363.523 10.8049 356.857 17.8584C350.192 24.912 343.717 21.129 343.717 21.129C343.717 21.129 342.09 33.2687 343.135 35.7485C343.135 35.7485 333.729 19.6867 344.052 11.4628C354.376 3.23893 359.991 6.10464 368.225 11.4628C368.225 11.4375 383.638 13.291 371.359 35.7485Z" fill="#2F2E41"/>
<path d="M365.213 51.532C364.344 52.5673 363.265 53.4061 362.048 53.9929C360.807 54.6017 359.454 54.9463 358.073 55.005C356.689 55.0661 355.309 54.8153 354.034 54.2712C353.404 54.0127 352.802 53.6906 352.237 53.3097C351.693 52.924 351.177 52.5013 350.692 52.0445C351.325 52.2912 351.889 52.6201 352.49 52.8605C353.084 53.1099 353.692 53.3212 354.313 53.4931C355.518 53.8494 356.774 54.0012 358.029 53.9423C360.59 53.7671 363.064 52.9372 365.213 51.532Z" fill="#B2593D"/>
<path d="M411.122 174.757L415.255 198.91C415.478 200.205 415.43 201.532 415.115 202.808C414.8 204.084 414.225 205.281 413.426 206.324L405.134 217.148C404.912 217.44 404.625 217.677 404.295 217.838C403.965 218 403.602 218.082 403.235 218.078C402.608 218.078 402.005 217.829 401.561 217.385C401.117 216.941 400.868 216.34 400.868 215.712C400.869 214.474 401.283 213.272 402.045 212.296L408.375 204.135C408.375 204.135 407.533 192.976 407.35 194.646L404.052 200.017C403.899 200.264 403.686 200.467 403.434 200.61C403.181 200.753 402.897 200.829 402.606 200.833C402.316 200.837 402.03 200.768 401.774 200.632C401.518 200.496 401.3 200.297 401.14 200.055C400.941 199.752 400.841 199.393 400.855 199.03C400.938 197.686 401.319 196.377 401.969 195.197L402.887 193.527C402.887 193.527 400.836 181.071 403.444 174.751L411.122 174.757Z" fill="#B86A4B"/>
<path d="M356.199 83.6811L358.972 92.9993L328.747 132.683C324.057 138.977 315.227 138.673 311.297 130.785C311.297 130.785 310.999 125.016 311.79 123.314C315.322 115.685 319.183 114.729 325.298 109.605L356.199 83.6811Z" fill="#8C4D3E"/>
<path d="M357.288 84.7691L360.06 94.0874L329.836 133.771C325.146 140.065 316.316 139.762 312.385 131.873C312.385 131.873 312.087 126.104 312.879 124.402C316.411 116.773 320.272 115.817 326.386 110.693L357.288 84.7691Z" fill="#8C4D3E"/>
<path d="M287.573 109.15C287.573 109.15 287.364 104.962 280.838 98.3955C274.312 91.829 268.476 87.3755 271.9 92.9234L274.578 97.1113C274.578 97.1113 267.615 94.5049 263.596 92.5882C262.539 92.0641 261.341 91.8925 260.179 92.0986C259.017 92.3047 257.952 92.8776 257.14 93.7332C255.658 95.3716 255.722 97.1492 259.906 100.243C266.172 104.873 275.869 111.921 277.749 112.61C278.407 112.857 287.573 109.15 287.573 109.15Z" fill="#B86A4B"/>
<path d="M326.545 159.239H389.519L390.044 148.795L398.906 184.854L415.363 182.241C410.837 129.102 400.33 94.739 394.823 79.7083C393.833 77.0022 392.291 74.5314 390.295 72.4525C388.299 70.3736 385.892 68.732 383.227 67.6319L369.891 62.1029C369.891 62.1029 358.655 88.7419 345.838 62.1029L332.501 67.6319C327.114 69.8586 320.139 74.0844 318.139 79.5628C315.689 86.3443 310.993 101.267 307.48 108.188C307.247 108.641 306.918 109.037 306.515 109.349C306.113 109.66 305.647 109.88 305.151 109.993C304.654 110.106 304.139 110.109 303.642 110.001C303.144 109.894 302.676 109.679 302.27 109.371L282.471 97.5667L274.875 112.268L300.112 133.214C303.456 135.517 307.573 136.414 311.573 135.711C315.573 135.008 319.136 132.761 321.494 129.456L325.785 123.459L326.304 159.239H389.285" fill="#2F2E41"/>
<path d="M290.915 334.604L293.162 347.693L309.334 359.643C309.334 359.643 290.345 366.494 280.724 356.309L282.68 347.3L278.173 335.743L290.915 334.604Z" fill="#8C4D3E"/>
<path d="M260.355 143.696L252.43 157.867C246.956 167.665 243.284 178.365 241.587 189.459L219.667 338.121L300.314 335.743L304.891 194.735C305.432 182.162 303.083 169.631 298.023 158.107C295.778 152.888 292.771 148.032 289.098 143.696H260.355Z" fill="#2F2E41"/>
<path d="M251.784 48.2425C251.917 50.0834 252.62 50.1403 253.05 52.19C253.683 55.1569 252.354 55.7768 252.981 58.1554C253.342 59.5029 253.804 59.4207 256.146 62.8114C258.589 66.2844 258.044 66.2844 259.342 67.6762C261.608 70.1243 262.633 69.4285 265.203 72.0664C266.906 73.8124 266.71 74.3818 268.59 76.1025C269.337 76.792 269.647 76.9502 272.558 78.8923C277.388 82.1059 277.686 82.4159 278.819 82.6879C280.581 82.9865 282.389 82.8585 284.091 82.3146C285.99 81.8275 286.047 81.4163 289.256 80.1891C292.465 78.9618 292.744 79.2718 293.953 78.4368C295.769 77.1716 295.383 76.3618 297.567 74.445C299.624 72.6358 300.2 73.1798 301.409 71.6869C302.96 69.7891 302.181 68.7453 303.777 67.1068C304.986 65.8416 305.707 66.1895 307.017 64.7725C307.878 63.8299 307.935 63.2922 308.796 61.6474C310.549 58.3009 311.328 58.6678 312.379 56.2197C312.942 54.9038 312.581 55.1316 313.702 51.045C314.588 47.7997 314.752 47.8819 314.841 46.8381C315.094 43.6751 313.524 43.4727 314.094 41.1447C314.436 39.7466 315.36 38.279 314.847 36.3052C314.335 32.6172 313.955 29.9159 311.929 27.4171C310.828 26.0634 310.663 26.4746 307.302 23.204C305.194 21.129 304.77 20.4458 303.314 19.5918C301.416 18.4721 301.099 18.9592 298.744 17.8458C295.694 16.3655 295.769 15.2711 293.32 14.4677C291.699 13.9426 291.687 14.4234 288.573 13.9616C284.623 13.3796 284.49 12.5825 282.502 12.7786C280.382 12.9874 280.141 13.9426 277.072 14.8409C274.502 15.5937 274.103 14.8409 272.147 15.5874C270.191 16.3339 270.337 17.0487 267.887 18.3392C264.988 19.8702 264.146 19.1869 262.792 20.5091C261.437 21.8312 262.121 22.6726 260.64 25.2916C259.424 27.4298 258.836 27.1198 256.842 29.9033C255.706 31.5511 254.713 33.2929 253.873 35.1096C252.797 37.2415 252.253 38.3359 252.12 39.4683C251.905 41.2965 252.525 41.4926 252.424 43.7826C252.348 46.1612 251.651 46.389 251.784 48.2425Z" fill="#2F2E41"/>
<path d="M265.881 56.3968H265.938C266.299 45.9462 272.901 37.5515 281.262 37.368C289.624 37.1846 296.593 45.2566 297.428 55.682H297.491C300.023 55.625 302.112 57.8581 302.175 60.6669C302.239 63.4757 300.245 65.8036 297.745 65.8669C297.25 65.8667 296.76 65.7811 296.295 65.6139C294.554 70.8012 291.149 74.8689 286.902 76.6781L287.028 89.6149L286.459 99.104L273.439 98.1551L273.704 89.9312L274.73 75.5458H274.768C271.448 73.2902 268.925 70.0446 267.558 66.2718C267.1 66.4638 266.611 66.571 266.115 66.5881C263.583 66.645 261.494 64.4119 261.431 61.6031C261.368 58.7944 263.355 56.4601 265.881 56.3968Z" fill="#8C4D3E"/>
<path d="M237.524 140.628L240.163 106.164C240.383 103.285 241.285 100.5 242.794 98.0388C244.303 95.5772 246.375 93.5094 248.841 92.0062C251.732 90.235 254.867 88.8965 258.146 88.0334C263.225 86.8282 268.428 86.2252 273.648 86.2368C273.648 86.2368 279.135 101.388 286.972 86.2368L297.808 89.8806C300.917 90.929 303.777 92.6048 306.21 94.8042C308.644 97.0035 310.599 99.6794 311.955 102.666L323.652 121.89L314.341 133.277L298.606 122.397L289.111 143.696H260.355L254.025 121.89L251.709 140.628H237.524Z" fill="#85339B"/>
<path d="M285.212 77.2664C284.515 77.6595 283.758 77.9332 282.971 78.0762C282.188 78.2334 281.389 78.2929 280.591 78.2533C279.784 78.2048 278.988 78.0364 278.23 77.7535C277.47 77.4622 276.789 76.9963 276.243 76.3934C277.021 76.6148 277.73 76.8046 278.458 76.9375C279.186 77.0703 279.914 77.1273 280.654 77.1715C282.136 77.2285 283.617 77.2285 285.212 77.2664Z" fill="#874032"/>
<g opacity="0.2">
<path d="M289.471 22.875C289.257 22.8765 289.044 22.8467 288.838 22.7865C287.376 22.3816 286.68 20.6799 286.648 20.604C286.622 20.538 286.609 20.4674 286.609 20.3962C286.61 20.325 286.625 20.2548 286.654 20.1895C286.682 20.1241 286.723 20.0651 286.774 20.0157C286.825 19.9663 286.886 19.9276 286.952 19.9018C287.086 19.8475 287.235 19.8482 287.368 19.904C287.501 19.9597 287.606 20.0659 287.661 20.1991C287.661 20.1991 288.193 21.4643 289.136 21.7427C289.423 21.7928 289.719 21.7761 289.998 21.6938C290.278 21.6116 290.536 21.4659 290.75 21.2682C290.807 21.2249 290.872 21.1932 290.941 21.1751C291.01 21.1571 291.082 21.1529 291.152 21.1629C291.223 21.1729 291.291 21.1969 291.352 21.2334C291.414 21.27 291.467 21.3184 291.51 21.3758C291.553 21.433 291.585 21.4982 291.603 21.5677C291.621 21.6373 291.626 21.7097 291.615 21.7809C291.605 21.8521 291.581 21.9206 291.545 21.9824C291.508 22.0442 291.46 22.0982 291.402 22.1412C290.856 22.5901 290.178 22.8479 289.471 22.875Z" fill="black"/>
</g>
<g opacity="0.2">
<path d="M306.562 32.2439C305.678 32.1858 304.834 31.8567 304.144 31.3013C304.032 31.209 303.962 31.0762 303.948 30.9321C303.935 30.7879 303.979 30.6443 304.071 30.5327C304.163 30.4211 304.296 30.3508 304.441 30.3371C304.585 30.3235 304.729 30.3677 304.84 30.4599C304.84 30.4599 305.916 31.3393 306.872 31.0926C307.15 31.0032 307.404 30.8495 307.612 30.6439C307.819 30.4384 307.976 30.1868 308.068 29.9096C308.13 29.78 308.24 29.6796 308.375 29.63C308.51 29.5804 308.659 29.5853 308.79 29.6439C308.921 29.7044 309.022 29.8143 309.072 29.9495C309.122 30.0847 309.116 30.2342 309.056 30.3651C308.898 30.7966 308.639 31.1841 308.301 31.4955C307.963 31.8069 307.556 32.0331 307.113 32.1553C306.933 32.2064 306.748 32.2361 306.562 32.2439Z" fill="black"/>
</g>
<g opacity="0.2">
<path d="M296.168 37.5768C295.286 37.5195 294.444 37.1901 293.757 36.6342C293.648 36.5409 293.579 36.4086 293.566 36.2656C293.553 36.1226 293.597 35.9802 293.687 35.8687C293.78 35.7581 293.912 35.6887 294.056 35.6756C294.199 35.6626 294.342 35.707 294.453 35.7991C294.453 35.7991 295.536 36.6658 296.485 36.4317C296.762 36.3397 297.014 36.1851 297.221 35.9799C297.429 35.7748 297.586 35.5246 297.681 35.2488C297.746 35.1246 297.856 35.0301 297.988 34.9848C298.121 34.9395 298.265 34.9469 298.393 35.0055C298.52 35.0641 298.619 35.1695 298.671 35.2996C298.722 35.4297 298.721 35.5746 298.669 35.7042C298.51 36.1362 298.25 36.524 297.911 36.8354C297.572 37.1468 297.163 37.3727 296.719 37.4945C296.54 37.5438 296.355 37.5714 296.168 37.5768Z" fill="black"/>
</g>
<g opacity="0.2">
<path d="M302.245 48.2362C302.007 48.2367 301.771 48.2026 301.542 48.135C300.093 47.6858 299.441 45.9651 299.416 45.8892C299.373 45.756 299.383 45.6114 299.444 45.4855C299.505 45.3596 299.613 45.262 299.744 45.2132C299.875 45.1643 300.02 45.1678 300.149 45.2231C300.277 45.2783 300.38 45.3809 300.435 45.5097C300.435 45.5097 300.935 46.7749 301.872 47.0912C302.157 47.1536 302.453 47.1477 302.736 47.074C303.018 47.0004 303.28 46.861 303.498 46.6673C303.616 46.5834 303.762 46.5496 303.904 46.5734C304.047 46.5971 304.174 46.6764 304.258 46.7938C304.342 46.9113 304.376 47.0572 304.352 47.1996C304.328 47.342 304.249 47.4691 304.131 47.553C303.59 47.9732 302.93 48.2123 302.245 48.2362Z" fill="black"/>
</g>
<path d="M296.295 49.9695C296.295 49.9695 291.054 48.7043 289.554 40.1388C289.554 40.1388 289.098 50.6338 267.14 49.571L266.938 58.826L261.874 51.6459C261.874 51.6459 266.938 32.3388 284.256 34.2999C287.031 34.6971 289.663 35.7847 291.908 37.4629C294.671 39.4572 296.984 42.0072 298.701 44.9488C300.418 47.8905 301.5 51.1587 301.878 54.5433L302.106 56.3968C302.106 56.3968 298.358 50.3997 295.681 61.1413L296.295 49.9695Z" fill="#2F2E41"/>
<g opacity="0.2">
<path d="M282.977 41.6318C282.093 41.5737 281.249 41.2445 280.559 40.6892C280.45 40.5959 280.381 40.4636 280.368 40.3206C280.355 40.1776 280.399 40.0352 280.49 39.9237C280.581 39.8122 280.713 39.7415 280.857 39.7273C281 39.7131 281.144 39.7564 281.255 39.8478C281.255 39.8478 282.344 40.7208 283.287 40.4804C283.564 40.3884 283.816 40.2338 284.024 40.0286C284.231 39.8235 284.389 39.5733 284.484 39.2974C284.548 39.1733 284.658 39.0787 284.79 39.0334C284.923 38.9881 285.068 38.9956 285.195 39.0542C285.322 39.1128 285.422 39.2181 285.473 39.3483C285.524 39.4784 285.524 39.6233 285.471 39.7529C285.313 40.1844 285.054 40.572 284.716 40.8834C284.378 41.1948 283.971 41.421 283.528 41.5432C283.348 41.5939 283.163 41.6236 282.977 41.6318Z" fill="black"/>
</g>
<g opacity="0.2">
<path d="M307.138 58.8386C306.254 58.7822 305.409 58.4529 304.72 57.8961C304.616 57.8016 304.553 57.671 304.544 57.5313C304.534 57.3915 304.579 57.2535 304.669 57.1459C304.758 57.0384 304.886 56.9695 305.025 56.9537C305.165 56.9378 305.305 56.9763 305.416 57.061C305.416 57.061 306.492 57.9277 307.448 57.6936C307.725 57.6016 307.977 57.447 308.184 57.2418C308.392 57.0367 308.549 56.7865 308.644 56.5107C308.705 56.3799 308.815 56.2785 308.95 56.2287C309.085 56.1789 309.235 56.1847 309.366 56.245C309.431 56.2743 309.49 56.3163 309.539 56.3686C309.588 56.421 309.626 56.4825 309.651 56.5497C309.675 56.6168 309.686 56.6883 309.683 56.7598C309.68 56.8313 309.662 56.9015 309.632 56.9661C309.474 57.3976 309.215 57.7852 308.877 58.0966C308.539 58.408 308.132 58.6342 307.689 58.7564C307.508 58.802 307.324 58.8295 307.138 58.8386Z" fill="black"/>
</g>
<path d="M299.7 56.2576C299.447 53.4399 298.936 50.6511 298.175 47.9262C297.462 45.2494 296.359 42.6917 294.902 40.3349C293.509 38.043 291.503 36.1851 289.111 34.9704C286.697 33.8405 284.02 33.392 281.37 33.6736C278.675 33.913 276.059 34.7118 273.691 36.0189C271.323 37.3261 269.253 39.1128 267.615 41.2649C265.951 43.4592 264.785 45.9891 264.197 48.679C263.608 51.4317 263.439 54.2578 263.697 57.061C262.989 54.2597 262.8 51.3523 263.14 48.4829C263.514 45.5385 264.572 42.7222 266.229 40.259C267.914 37.7743 270.131 35.6952 272.719 34.1722C275.307 32.6492 278.201 31.7204 281.192 31.4531C282.699 31.3405 284.214 31.4084 285.705 31.6556C287.219 31.8934 288.683 32.3763 290.041 33.0853C292.725 34.5299 294.925 36.7293 296.371 39.4113C297.771 41.9764 298.738 44.7551 299.232 47.6352C299.745 50.4788 299.902 53.3752 299.7 56.2576Z" fill="#85339B"/>
<path d="M315.607 366.329C315.607 366.329 294.244 366.734 289.149 361.901V366.329H279.743C279.743 366.329 276.787 350.603 281.794 351.412C286.801 352.222 304.619 365.811 305.018 356.473L311.98 360.073C313.066 360.629 313.976 361.473 314.612 362.514C315.247 363.554 315.583 364.75 315.582 365.969L315.607 366.329Z" fill="#2F2E41"/>
<g opacity="0.2">
<path d="M291.079 158.202C290.962 158.203 290.849 158.165 290.755 158.096C290.661 158.026 290.593 157.928 290.56 157.816L290.104 156.304C290.077 156.234 290.064 156.16 290.067 156.085C290.07 156.009 290.088 155.936 290.12 155.868C290.153 155.801 290.199 155.74 290.257 155.692C290.314 155.643 290.38 155.606 290.452 155.584C290.524 155.562 290.6 155.555 290.674 155.564C290.749 155.573 290.821 155.597 290.886 155.635C290.951 155.673 291.007 155.724 291.051 155.785C291.095 155.845 291.126 155.915 291.142 155.988L291.617 157.55C291.659 157.689 291.644 157.838 291.577 157.966C291.509 158.094 291.394 158.19 291.256 158.234C291.196 158.231 291.137 158.22 291.079 158.202Z" fill="black"/>
<path d="M294.535 169.69C294.418 169.691 294.305 169.654 294.211 169.584C294.117 169.514 294.049 169.416 294.016 169.304L293.168 166.426C293.14 166.356 293.127 166.281 293.13 166.206C293.133 166.131 293.151 166.058 293.184 165.99C293.217 165.922 293.263 165.862 293.32 165.813C293.377 165.764 293.444 165.728 293.515 165.706C293.587 165.684 293.663 165.677 293.738 165.686C293.812 165.695 293.884 165.719 293.949 165.757C294.014 165.795 294.07 165.846 294.114 165.906C294.159 165.967 294.19 166.036 294.206 166.11L295.079 168.975C295.1 169.044 295.106 169.116 295.099 169.187C295.092 169.258 295.07 169.327 295.036 169.39C295.002 169.453 294.956 169.508 294.9 169.553C294.845 169.598 294.781 169.632 294.712 169.652C294.656 169.676 294.596 169.689 294.535 169.69ZM292.801 163.959C292.684 163.958 292.57 163.92 292.476 163.851C292.381 163.781 292.311 163.684 292.275 163.573L291.427 160.732C291.401 160.663 291.39 160.589 291.394 160.516C291.397 160.442 291.416 160.369 291.449 160.303C291.482 160.237 291.527 160.178 291.584 160.13C291.64 160.082 291.705 160.045 291.776 160.024C291.846 160.002 291.921 159.994 291.994 160.002C292.068 160.01 292.139 160.032 292.204 160.068C292.268 160.105 292.325 160.154 292.37 160.212C292.415 160.271 292.447 160.338 292.465 160.41L293.339 163.282C293.38 163.419 293.366 163.568 293.298 163.695C293.23 163.821 293.115 163.916 292.978 163.959C292.926 163.967 292.872 163.967 292.82 163.959H292.801Z" fill="black"/>
<path d="M295.896 174.118C295.779 174.119 295.666 174.082 295.572 174.012C295.478 173.943 295.41 173.844 295.377 173.733L294.902 172.17C294.86 172.032 294.875 171.882 294.943 171.755C295.012 171.627 295.128 171.532 295.266 171.49C295.405 171.448 295.554 171.463 295.682 171.531C295.81 171.599 295.905 171.715 295.947 171.854L296.421 173.416C296.443 173.485 296.45 173.557 296.443 173.628C296.436 173.7 296.415 173.769 296.381 173.832C296.346 173.895 296.3 173.951 296.244 173.996C296.188 174.04 296.123 174.074 296.054 174.093C296.004 174.111 295.95 174.12 295.896 174.118Z" fill="black"/>
</g>
<g opacity="0.2">
<path d="M304.498 110.529C303.199 114.781 301.208 118.791 298.605 122.396C299.911 118.147 301.901 114.138 304.498 110.529Z" fill="black"/>
</g>
<path d="M387.69 159.24V338.925H363.649L360.516 182.222H354.243L342.223 338.925H318.183L328.633 159.24H387.69Z" fill="#85339B"/>
<g opacity="0.2">
<path d="M325.76 93.9482C325.981 96.4091 326.089 98.8636 326.177 101.324C326.266 103.785 326.291 106.246 326.304 108.701C326.317 111.155 326.304 113.622 326.177 116.083L326.026 119.771C325.937 120.998 325.88 122.232 325.76 123.459C325.633 122.232 325.582 120.998 325.494 119.771L325.342 116.083C325.241 113.622 325.228 111.161 325.215 108.701C325.203 106.24 325.215 103.785 325.342 101.324C325.468 98.8636 325.551 96.4091 325.76 93.9482Z" fill="black"/>
</g>
<g opacity="0.2">
<path d="M389.519 95.2514C389.791 99.6797 389.937 104.171 390.07 108.631C390.203 113.091 390.234 117.557 390.329 122.017C390.424 126.477 390.373 130.943 390.329 135.403L390.247 142.096C390.177 144.329 390.146 146.562 390.044 148.795C389.899 146.562 389.823 144.335 389.709 142.102L389.481 135.428C389.354 130.962 389.31 126.502 389.228 122.042C389.145 117.582 389.177 113.116 389.228 108.656C389.278 104.196 389.342 99.7176 389.519 95.2514Z" fill="black"/>
</g>
<path d="M336.995 345.194C336.995 345.194 343.527 363.476 338.04 366.07H332.552C332.552 366.07 329.938 358.757 326.279 366.07H292.833C292.833 366.07 290.744 360.326 298.84 357.713C306.935 355.101 320.532 345.175 320.532 345.175L336.995 345.194Z" fill="#85339B"/>
<path d="M338.039 338.925L336.995 345.194H320.531V338.925H338.039Z" fill="#B86A4B"/>
<path d="M367.694 345.194C367.694 345.194 361.162 363.476 366.649 366.07H372.137C372.137 366.07 374.752 358.757 378.41 366.07H411.856C411.856 366.07 413.945 360.326 405.843 357.713C397.741 355.101 384.157 345.175 384.157 345.175L367.694 345.194Z" fill="#85339B"/>
<path d="M366.649 338.925L367.694 345.194H384.157V338.925H366.649Z" fill="#B86A4B"/>
<g opacity="0.2">
<path d="M352.73 181.779C354.478 181.392 356.264 181.209 358.054 181.235C359.843 181.206 361.63 181.389 363.377 181.779C361.63 182.164 359.843 182.345 358.054 182.317C356.265 182.341 354.479 182.161 352.73 181.779Z" fill="black"/>
</g>
<path d="M322.551 120.802L325.76 123.965L325.931 135.352C325.931 135.352 316.329 140.59 313.24 132.189L322.551 120.802Z" fill="#8C4D3E"/>
<path d="M302.485 73.4329H297.979V63.7413H302.485V73.4329ZM298.795 72.6168H301.669V64.5764H298.795V72.6168Z" fill="#85339B"/>
<path d="M298.789 64.5764V63.4377H301.536C300.916 64.498 299.944 65.3081 298.789 65.7277V64.5764Z" fill="#8C4D3E"/>
<path d="M305.574 93.4169L304.163 96.776C303.83 97.5682 303.298 98.2608 302.618 98.7864C301.938 99.3119 301.134 99.6523 300.283 99.7745C299.924 99.8262 299.561 99.8368 299.2 99.8062C298.666 99.7685 298.142 99.6424 297.65 99.4329L292.769 97.3896C292.287 97.1767 291.839 96.8931 291.44 96.5483C290.64 95.8649 290.079 94.9442 289.839 93.9202C289.599 92.8962 289.692 91.8223 290.105 90.8548L291.516 87.4957C291.823 86.7675 292.407 86.1908 293.139 85.892C293.871 85.5932 294.692 85.5966 295.422 85.9015L303.973 89.4884C304.337 89.6398 304.668 89.8618 304.946 90.1417C305.224 90.4216 305.444 90.7537 305.593 91.119C305.742 91.4843 305.817 91.8754 305.814 92.2698C305.811 92.6642 305.729 93.0541 305.574 93.4169Z" fill="#FED4C0"/>
<path d="M300.283 99.7746C299.924 99.8262 299.561 99.8368 299.2 99.8062L301.814 93.3536C301.864 93.232 301.96 93.135 302.081 93.084C302.202 93.0329 302.338 93.0321 302.46 93.0816C302.582 93.1311 302.679 93.2269 302.73 93.3479C302.781 93.4689 302.782 93.6052 302.732 93.7268L300.283 99.7746Z" fill="#F9C0AA"/>
<path d="M297.358 99.3127L296.434 98.9268L299.112 92.2971C299.162 92.1794 299.256 92.0859 299.374 92.0363C299.492 91.9868 299.625 91.985 299.745 92.0314C299.804 92.0544 299.859 92.0892 299.905 92.1337C299.952 92.1781 299.989 92.2314 300.014 92.2904C300.039 92.3493 300.053 92.4128 300.053 92.4769C300.054 92.5411 300.041 92.6047 300.017 92.664L297.358 99.3127Z" fill="#F9C0AA"/>
<path d="M294.656 98.1804L293.738 97.7945L296.365 91.3229C296.387 91.2625 296.421 91.2072 296.466 91.1606C296.51 91.114 296.564 91.0771 296.623 91.0521C296.683 91.0272 296.746 91.0148 296.811 91.0157C296.875 91.0165 296.939 91.0307 296.998 91.0572C297.114 91.1089 297.207 91.2028 297.258 91.3201C297.308 91.4375 297.313 91.5695 297.27 91.6898L294.656 98.1804Z" fill="#F9C0AA"/>
<path d="M292.269 97.1366C291.967 96.9794 291.688 96.7815 291.44 96.5482L294.136 89.8806C294.186 89.7616 294.279 89.6663 294.397 89.6144C294.515 89.5626 294.648 89.5582 294.769 89.6022C294.889 89.6501 294.985 89.7436 295.036 89.8622C295.088 89.9809 295.089 90.1149 295.042 90.2348L292.269 97.1366Z" fill="#F9C0AA"/>
<path d="M388.051 69.7764L386.639 73.1292C386.308 73.9221 385.776 74.6154 385.096 75.141C384.415 75.6667 383.61 76.0067 382.759 76.1277C382.401 76.1857 382.037 76.1963 381.677 76.1594C381.143 76.124 380.619 76 380.126 75.7925L375.246 73.7428C375.07 73.6764 374.903 73.5916 374.746 73.4898C374.442 73.3371 374.163 73.141 373.916 72.9078C373.117 72.2238 372.557 71.3032 372.317 70.2794C372.077 69.2556 372.169 68.182 372.581 67.2143L373.992 63.8615C374.3 63.1333 374.883 62.5567 375.615 62.2578C376.347 61.959 377.168 61.9624 377.898 62.2674L386.449 65.8542C386.813 66.0057 387.143 66.2274 387.42 66.5069C387.698 66.7863 387.917 67.1178 388.066 67.4823C388.215 67.8469 388.29 68.2372 388.288 68.6309C388.285 69.0246 388.204 69.4139 388.051 69.7764Z" fill="#8C4D3E"/>
<path d="M382.759 76.1277C382.401 76.1857 382.037 76.1963 381.676 76.1594L384.29 69.7068C384.34 69.588 384.434 69.4934 384.552 69.4437C384.671 69.3939 384.804 69.393 384.923 69.4411C385.043 69.4891 385.14 69.5822 385.192 69.7005C385.244 69.8188 385.248 69.9528 385.202 70.0737L382.759 76.1277Z" fill="#874032"/>
<path d="M379.834 75.666L378.917 75.2864L381.594 68.6504C381.646 68.5337 381.74 68.4412 381.858 68.3918C381.975 68.3424 382.107 68.3399 382.227 68.3847C382.345 68.435 382.438 68.5292 382.488 68.6472C382.537 68.7653 382.539 68.898 382.493 69.0173L379.834 75.666Z" fill="#874032"/>
<path d="M377.132 74.5399L376.22 74.154L378.841 67.6825C378.864 67.6225 378.898 67.5678 378.943 67.5216C378.987 67.4753 379.041 67.4384 379.1 67.413C379.159 67.3877 379.222 67.3744 379.286 67.3739C379.351 67.3735 379.414 67.3859 379.474 67.4104C379.593 67.4596 379.688 67.5533 379.738 67.6714C379.789 67.7896 379.792 67.9229 379.746 68.043L377.132 74.5399Z" fill="#874032"/>
<path d="M374.745 73.4898C374.442 73.3371 374.163 73.141 373.916 72.9078L376.612 66.2528C376.662 66.1338 376.755 66.0385 376.873 65.9866C376.991 65.9348 377.124 65.9304 377.245 65.9744C377.305 65.9974 377.36 66.0322 377.406 66.0767C377.453 66.1211 377.49 66.1744 377.515 66.2334C377.54 66.2923 377.554 66.3558 377.554 66.4199C377.555 66.4841 377.542 66.5477 377.518 66.607L374.745 73.4898Z" fill="#874032"/>
</svg>
