<svg width="1194" height="950" viewBox="0 0 1194 950" fill="none" xmlns="http://www.w3.org/2000/svg">
<path d="M172.582 946.464C172.582 946.464 26.0254 828.128 43.2665 703.919C60.5077 579.71 201.322 683.212 235.761 570.836C270.199 458.459 143.172 311.62 258.453 209.138C373.734 106.655 480.066 204.183 551.902 183.477C623.737 162.77 617.995 3.02118 781.793 0.0631347C945.591 -2.89492 1081.38 97.6933 1020.68 386.009C959.975 674.324 1146.74 706.877 1172.61 810.379C1198.48 913.882 1134.72 949.991 1134.72 949.991L172.582 946.464Z" fill="#85339B"/>
<path opacity="0.7" d="M172.582 946.464C172.582 946.464 26.0254 828.128 43.2665 703.919C60.5077 579.71 201.322 683.212 235.761 570.836C270.199 458.459 143.172 311.62 258.453 209.138C373.734 106.655 480.066 204.183 551.902 183.477C623.737 162.77 617.995 3.02118 781.793 0.0631347C945.591 -2.89492 1081.38 97.6933 1020.68 386.009C959.975 674.324 1146.74 706.877 1172.61 810.379C1198.48 913.882 1134.72 949.991 1134.72 949.991L172.582 946.464Z" fill="white"/>
<path d="M130.142 547.404C130.142 547.404 167.948 516.294 179.957 530.909C179.957 530.909 188.934 536.505 169.245 547.404C169.245 547.404 67.2262 579.112 157.207 718.359L217.689 685.544C217.689 685.544 322.258 636 297.526 594.325C297.526 594.325 273.61 517.095 314.417 512.505C314.417 512.505 339.193 512.505 332.037 547.404C332.037 547.404 316.822 601.524 324.021 623.177C324.021 623.177 351.421 607.571 364.537 598.172C364.537 598.172 480.095 504.272 486.959 503.311C493.824 502.349 496.564 491.376 496.564 491.376L480.153 446.321L423.664 429.52C423.664 429.52 309.593 415.866 253.323 440.696C253.323 440.696 273.362 447.618 263.422 454.277C261.022 455.831 258.207 456.619 255.348 456.535C238.894 456.259 162.045 459.989 130.142 547.404Z" fill="#939598"/>
<path d="M157.207 718.359C157.207 718.359 136.979 607.119 217.69 527.908C217.69 527.908 302.219 445.476 413.551 449.891L496.506 491.333L483.302 541.678L311.736 652.903C311.736 652.903 175.279 722.366 157.207 718.359Z" fill="#BCBEC0"/>
<path d="M163.575 512.505C163.575 512.505 208.594 464.419 304.696 471.705" stroke="#A7A9AC" stroke-width="2.29" stroke-miterlimit="10"/>
<path d="M229.582 498.677C229.582 498.677 253.935 473.439 298.182 474.663" stroke="#A7A9AC" stroke-width="2.29" stroke-miterlimit="10"/>
<path d="M257.199 598.114C266.705 598.114 274.411 581.321 274.411 560.606C274.411 539.892 266.705 523.099 257.199 523.099C247.693 523.099 239.987 539.892 239.987 560.606C239.987 581.321 247.693 598.114 257.199 598.114Z" fill="#D1D3D4"/>
<path d="M377.786 512.505C377.786 512.505 366.899 486.495 396.834 474.619L377.786 512.505Z" fill="#D1D3D4"/>
<path d="M113.631 547.419C122.75 547.419 130.143 540.027 130.143 530.909C130.143 521.791 122.75 514.4 113.631 514.4C104.511 514.4 97.1182 521.791 97.1182 530.909C97.1182 540.027 104.511 547.419 113.631 547.419Z" fill="#2F2E41"/>
<path d="M130.143 637.909C135.141 637.909 131.6 587.433 196.994 551.674" stroke="#A7A9AC" stroke-width="2.29" stroke-miterlimit="10"/>
<path d="M196.994 449.891V637.865H73.3769L98.7649 597.006C102.138 591.572 103.335 585.065 102.116 578.786C100.897 572.508 97.3531 566.92 92.192 563.142C89.3891 561.086 86.1933 559.627 82.8032 558.857C79.413 558.087 75.9008 558.022 72.4843 558.665C69.0679 559.309 65.8202 560.648 62.9427 562.598C60.0652 564.549 57.6193 567.07 55.7569 570.005L4.03351 651.067C1.55628 654.948 0.168104 659.423 0.0143289 664.024C-0.139446 668.625 0.946842 673.182 3.15944 677.22C5.37205 681.257 8.62957 684.625 12.5909 686.971C16.5523 689.318 21.0717 690.556 25.676 690.557H199.107V772.158C199.107 778.844 201.764 785.256 206.492 789.983C211.221 794.711 217.634 797.367 224.321 797.367C227.632 797.369 230.912 796.718 233.971 795.452C237.031 794.186 239.812 792.329 242.153 789.988C244.495 787.646 246.352 784.867 247.618 781.807C248.885 778.748 249.536 775.469 249.534 772.158V690.557H288.257C291.695 690.57 295.101 689.904 298.281 688.598C301.46 687.292 304.35 685.37 306.785 682.944C309.22 680.517 311.151 677.634 312.469 674.459C313.786 671.285 314.463 667.881 314.461 664.444C314.461 657.521 311.712 650.882 306.817 645.985C301.922 641.088 295.283 638.336 288.359 638.332H250.189L250.787 426.474C250.789 420.551 249.624 414.686 247.357 409.213C245.091 403.74 241.769 398.768 237.58 394.58C233.391 390.392 228.418 387.07 222.944 384.804C217.471 382.538 211.604 381.373 205.68 381.375C190.057 381.375 171.373 388.588 163.153 401.863L126.645 463.923C124.944 466.605 123.797 469.601 123.271 472.733C122.745 475.865 122.852 479.07 123.584 482.161C124.316 485.251 125.659 488.164 127.533 490.728C129.408 493.291 131.777 495.454 134.501 497.088C139.496 500.078 145.413 501.136 151.135 500.062C156.856 498.988 161.987 495.857 165.558 491.26L196.994 449.891Z" fill="#85339B"/>
<path opacity="0.36" d="M196.994 449.891V637.865H73.3769L98.7649 597.006C102.138 591.572 103.335 585.065 102.116 578.786C100.897 572.508 97.3531 566.92 92.192 563.142C89.3891 561.086 86.1933 559.627 82.8032 558.857C79.413 558.087 75.9008 558.022 72.4843 558.665C69.0679 559.309 65.8202 560.648 62.9427 562.598C60.0652 564.549 57.6193 567.07 55.7569 570.005L4.03351 651.067C1.55628 654.948 0.168104 659.423 0.0143289 664.024C-0.139446 668.625 0.946842 673.182 3.15944 677.22C5.37205 681.257 8.62957 684.625 12.5909 686.971C16.5523 689.318 21.0717 690.556 25.676 690.557H199.107V772.158C199.107 778.844 201.764 785.256 206.492 789.983C211.221 794.711 217.634 797.367 224.321 797.367C227.632 797.369 230.912 796.718 233.971 795.452C237.031 794.186 239.812 792.329 242.153 789.988C244.495 787.646 246.352 784.867 247.618 781.807C248.885 778.748 249.536 775.469 249.534 772.158V690.557H288.257C291.695 690.57 295.101 689.904 298.281 688.598C301.46 687.292 304.35 685.37 306.785 682.944C309.22 680.517 311.151 677.634 312.469 674.459C313.786 671.285 314.463 667.881 314.461 664.444C314.461 657.521 311.712 650.882 306.817 645.985C301.922 641.088 295.283 638.336 288.359 638.332H250.189L250.787 426.474C250.789 420.551 249.624 414.686 247.357 409.213C245.091 403.74 241.769 398.768 237.58 394.58C233.391 390.392 228.418 387.07 222.944 384.804C217.471 382.538 211.604 381.373 205.68 381.375C190.057 381.375 171.373 388.588 163.153 401.863L126.645 463.923C124.944 466.605 123.797 469.601 123.271 472.733C122.745 475.865 122.852 479.07 123.584 482.161C124.316 485.251 125.659 488.164 127.533 490.728C129.408 493.291 131.777 495.454 134.501 497.088C139.496 500.078 145.413 501.136 151.135 500.062C156.856 498.988 161.987 495.857 165.558 491.26L196.994 449.891Z" fill="white"/>
<path d="M1110.95 648.969C1110.95 648.969 1123.41 636.219 1131.19 654.885C1131.19 654.885 1136.91 668.379 1131.19 686.549C1131.19 686.549 1129.63 693.282 1148.32 701.587C1148.32 701.587 1172.19 709.893 1176.87 715.081C1176.87 715.081 1201.09 678.083 1191.91 631.075C1190.19 622.05 1185.72 613.778 1179.11 607.396C1170.91 599.466 1161.03 593.489 1150.2 589.91C1149.38 589.668 1148.67 589.152 1148.19 588.449C1147.71 587.745 1147.49 586.897 1147.56 586.049C1147.88 583.703 1150.6 581.196 1161.81 582.712C1161.81 582.712 1168.33 584.256 1176.72 586.967C1176.72 586.967 1163.23 542.246 1100.19 539.244H1086.89C1085.74 539.244 1084.62 538.926 1083.65 538.324C1082.68 537.722 1081.89 536.862 1081.38 535.839C1080.87 534.815 1080.66 533.67 1080.76 532.532C1080.87 531.394 1081.29 530.307 1081.98 529.394C1082.37 528.898 1083.93 528.345 1083.43 527.849C1078.03 523.041 1048.63 523.638 1048.63 523.638V593.466C1048.63 593.466 1057.58 589.823 1062.33 598.056C1063 599.254 1063.49 600.545 1063.79 601.888C1064.72 605.837 1066.57 616.241 1067.26 638.652L1090.57 639.104C1090.57 639.104 1103.49 638.798 1110.95 648.969Z" fill="#D1D3D4"/>
<path d="M1098.07 631.838C1104.04 631.021 1107.43 619.751 1105.64 606.667C1103.85 593.582 1097.56 583.638 1091.58 584.455C1085.61 585.272 1082.22 596.541 1084.01 609.626C1085.8 622.71 1092.09 632.655 1098.07 631.838Z" fill="#BCBEC0"/>
<path d="M1129.54 633.63C1133.22 632.868 1134.75 625.19 1132.94 616.483C1131.14 607.775 1126.69 601.334 1123.01 602.097C1119.33 602.86 1117.81 610.537 1119.61 619.245C1121.42 627.953 1125.86 634.393 1129.54 633.63Z" fill="#BCBEC0"/>
<path d="M1051.31 541.683C1060.18 541.111 1067.21 538.003 1067 534.743C1066.79 531.482 1059.42 529.303 1050.55 529.875C1041.67 530.448 1034.65 533.555 1034.86 536.815C1035.07 540.076 1042.43 542.255 1051.31 541.683Z" fill="#BCBEC0"/>
<path d="M1048.05 553.554C1051.77 553.866 1055.47 554.411 1059.12 555.186C1060.95 555.55 1062.77 555.943 1064.56 556.41C1066.35 556.876 1068.17 557.284 1069.94 557.867C1073.52 558.858 1077.02 560.125 1080.52 561.364C1082.25 562.02 1083.96 562.748 1085.69 563.448L1088.27 564.497L1090.79 565.677C1104.3 571.932 1116.8 580.157 1127.88 590.085C1130.61 592.606 1133.19 595.287 1135.84 597.881C1138.49 600.474 1140.71 603.447 1143.13 606.216C1145.59 609.022 1147.83 612.008 1149.85 615.148C1151.9 618.237 1153.75 621.443 1155.55 624.678C1159.1 631.162 1162.29 637.793 1165.25 644.568C1168.21 651.344 1170.78 658.237 1173.21 665.173C1167.69 651.563 1161.25 638.345 1153.93 625.611C1152.03 622.492 1150.11 619.374 1148.1 616.372C1146.08 613.356 1143.84 610.497 1141.39 607.819C1138.93 605.123 1136.54 602.34 1134 599.731C1131.47 597.123 1128.76 594.66 1126.05 592.227C1115.1 582.605 1102.83 574.597 1089.61 568.446L1087.15 567.266L1084.63 566.216C1082.94 565.517 1081.28 564.759 1079.57 564.133L1074.44 562.282C1072.74 561.626 1070.97 561.175 1069.24 560.606C1062.27 558.425 1055.13 556.864 1047.89 555.943L1048.05 553.554Z" fill="#A7A9AC"/>
<path d="M1135.97 597.91C1141.6 599.296 1147 601.48 1152 604.394C1157.01 607.227 1161.66 610.652 1165.85 614.594C1170.03 618.502 1173.72 622.906 1176.84 627.709C1178.41 630.074 1179.83 632.532 1181.11 635.068C1181.76 636.321 1182.33 637.61 1182.83 638.929L1184.43 642.834C1181.83 637.888 1178.8 633.178 1175.38 628.758C1172.02 624.361 1168.17 620.358 1163.91 616.824C1159.74 613.231 1155.18 610.109 1150.33 607.513C1147.92 606.199 1145.45 605.012 1142.92 603.957C1140.44 602.85 1137.88 601.901 1135.27 601.116L1135.97 597.91Z" fill="#A7A9AC"/>
<path d="M1153.21 582.435C1144.75 583.411 1148.45 588.803 1148.45 588.803C1148.45 588.803 1137.01 581.123 1150.2 579.112C1157.57 578.605 1164.89 580.767 1170.8 585.203C1170.8 585.203 1161.55 581.75 1153.21 582.435Z" fill="#BCBEC0"/>
<path d="M1050.61 554.18C1054.81 552.624 1059.11 551.392 1063.49 550.494C1067.86 549.651 1072.26 549.038 1076.68 548.658C1085.58 547.904 1094.53 548.143 1103.37 549.372C1105.58 549.561 1107.74 550.1 1109.96 550.464C1112.15 550.839 1114.33 551.326 1116.47 551.922L1122.93 553.627C1125.06 554.253 1127.13 555.084 1129.22 555.783C1133.46 557.138 1137.44 559.105 1141.51 560.854L1142.97 561.539C1143.46 561.787 1143.94 562.078 1144.42 562.34L1147.34 563.929C1149.28 564.997 1151.23 566.076 1153.17 567.164C1151.14 566.289 1149.12 565.415 1147.11 564.512L1144.09 563.171C1143.59 562.952 1143.1 562.719 1142.63 562.515L1141.07 561.962C1136.93 560.504 1132.9 558.756 1128.64 557.677C1126.54 557.095 1124.46 556.424 1122.34 555.871L1115.95 554.413C1113.83 553.874 1111.66 553.583 1109.52 553.233C1107.38 552.883 1105.22 552.446 1103.05 552.301L1096.53 551.63L1090.01 551.353C1085.63 551.251 1081.26 551.353 1076.89 551.601C1068.19 552.108 1059.58 553.574 1051.21 555.973L1050.61 554.18Z" fill="#A7A9AC"/>
<path d="M1048.59 593.524L1047.97 583.907C1047.97 583.907 1068.77 577.524 1070.78 609.931C1072.79 642.339 1070.78 638.769 1070.78 638.769H1067.2L1064.88 608.168C1064.88 608.168 1064.43 589.123 1048.59 593.524Z" fill="#BCBEC0"/>
<path d="M1106.88 644.743C1106.88 644.743 1113.32 633.596 1123.48 639.221C1125.64 640.442 1127.48 642.16 1128.84 644.233C1131.18 647.76 1134.16 654.433 1133.48 665.144C1133.48 665.144 1129.89 632.794 1110.95 648.969L1106.88 644.743Z" fill="#BCBEC0"/>
<path d="M1131.19 686.549C1131.19 686.549 1138.61 695.161 1157.32 699.154C1157.32 699.154 1170.95 703.03 1175.23 706.76C1175.23 706.76 1190.73 682.455 1193.98 651.388C1194.42 673.81 1188.49 695.898 1176.87 715.081C1176.87 715.081 1170.31 708.451 1156.16 704.502C1156.16 704.575 1132.58 698.338 1131.19 686.549Z" fill="#BCBEC0"/>
<path d="M1083.78 597.997C1083.78 597.997 1086.6 588.176 1093.1 588.803C1093.1 588.803 1100.89 590.085 1102.61 595.112C1102.61 595.112 1097.83 583.032 1091.58 584.446C1091.58 584.446 1086.11 583.906 1083.78 597.997Z" fill="#A7A9AC"/>
<path d="M1118.95 611.141C1118.95 611.141 1123.04 600.795 1130.13 608.125C1130.13 608.125 1127.83 601.844 1123.07 602.136C1123 602.136 1118.13 603.01 1118.95 611.141Z" fill="#A7A9AC"/>
<path d="M528.583 792.762C528.583 792.762 540.432 797.979 571.329 796.784V745.521L549.103 744.399C549.103 744.399 542.603 749.689 538.668 750.956C538.712 750.956 539.514 777.972 528.583 792.762Z" fill="#85339B"/>
<path opacity="0.5" d="M528.583 792.762C528.583 792.762 540.432 797.979 571.329 796.784V745.521L549.103 744.399C549.103 744.399 542.603 749.689 538.668 750.956C538.712 750.956 539.514 777.972 528.583 792.762Z" fill="white"/>
<path d="M893.503 531.798C919.695 531.798 940.927 510.569 940.927 484.382C940.927 458.195 919.695 436.966 893.503 436.966C867.312 436.966 846.079 458.195 846.079 484.382C846.079 510.569 867.312 531.798 893.503 531.798Z" fill="#85339B"/>
<path opacity="0.9" d="M893.503 531.798C919.695 531.798 940.927 510.569 940.927 484.382C940.927 458.195 919.695 436.966 893.503 436.966C867.312 436.966 846.079 458.195 846.079 484.382C846.079 510.569 867.312 531.798 893.503 531.798Z" fill="white"/>
<path d="M723.045 309.318L737.459 310.178L738.916 364.778L724.823 363.685C724.823 363.685 738.566 323.161 723.045 309.318Z" fill="#2F2E41"/>
<path d="M719.416 304.64C719.416 304.64 727.417 298.637 730.215 294.63C730.215 294.63 733.014 289.151 743.42 289.296L757.833 282.229C757.833 282.229 776.24 274.623 785.043 293.435L758.97 292.677C748.939 295.966 740.146 302.227 733.757 310.629H726.164C726.164 310.629 725.012 307.832 719.416 304.64Z" fill="#F7A48B"/>
<path d="M724.867 308.793L734.53 300.05C734.53 300.05 741.817 292.429 747.02 293.508C747.02 293.508 773.807 283.57 777.844 293.362L735.506 310.702H726.223L724.867 308.793Z" fill="#F9B499"/>
<path d="M804.689 303.343L804.004 302.775C803.902 302.775 794.356 294.994 777.946 297.267L777.188 297.369V296.611C777.101 295.591 775.119 271.592 785.787 261.231C787.68 259.419 789.97 258.074 792.475 257.303C794.98 256.531 797.63 256.355 800.215 256.787C802.776 257.49 805.149 258.751 807.165 260.479C809.18 262.207 810.789 264.36 811.874 266.783C815.736 275.366 813.492 287.417 805.229 302.557L804.689 303.343ZM784.052 295.387C791.203 295.206 798.24 297.209 804.223 301.129C811.933 286.761 814.031 275.41 810.446 267.395C809.444 265.201 807.984 263.246 806.164 261.663C804.344 260.079 802.207 258.904 799.895 258.215C797.543 257.836 795.135 258.005 792.859 258.71C790.584 259.416 788.503 260.638 786.778 262.28C777.64 271.169 778.325 291.54 778.573 295.722C780.391 295.503 782.221 295.392 784.052 295.387Z" fill="#2F2E41"/>
<path d="M812.986 456.791C838.82 449.472 857.853 436.798 855.496 428.482C853.139 420.166 830.286 419.358 804.451 426.677C778.617 433.996 759.584 446.671 761.941 454.986C764.298 463.302 787.151 464.11 812.986 456.791Z" fill="#2F2E41"/>
<path d="M672.094 409.848C672.094 409.848 717.711 429.869 752.252 488.71L651.122 493.285L641.183 418.97L672.094 409.848Z" fill="#85339B"/>
<path opacity="0.8" d="M672.094 409.848C672.094 409.848 717.711 429.869 752.252 488.71L651.122 493.285L641.183 418.97L672.094 409.848Z" fill="#85339B"/>
<g opacity="0.36">
<path d="M672.094 409.848C672.094 409.848 717.711 429.869 752.252 488.71L651.122 493.285L641.183 418.97L672.094 409.848Z" fill="white"/>
<path opacity="0.8" d="M672.094 409.848C672.094 409.848 717.711 429.869 752.252 488.71L651.122 493.285L641.183 418.97L672.094 409.848Z" fill="white"/>
</g>
<path d="M566.942 462.801C566.942 462.801 540.461 459.756 547.515 445.315C547.515 445.315 551.13 438.787 566.782 436.937L566.942 462.801Z" fill="#2F2E41"/>
<path d="M647.931 440.652C647.931 440.652 654.008 440.652 657.841 443.217L651.56 460.703L647.931 440.652Z" fill="#2F2E41"/>
<path d="M175.352 378.271C175.352 378.271 134.093 296.451 258.541 262.208C258.541 262.208 273.231 319.227 328.496 310.629C328.496 310.629 345.985 298.753 305.425 272.087C305.425 272.087 283.054 261.115 273.96 258.521C273.96 258.521 334.107 237.232 361.71 272.087C367.231 280.925 370.715 290.88 371.912 301.231C371.912 301.231 375.541 324.764 389.124 326.498C389.124 326.498 406.875 328.552 394.954 286.979C394.954 286.979 378.922 263.883 371.883 258.492C371.883 258.492 430.529 259.031 434.77 293.464C434.77 293.464 425.02 353.426 452.988 364.865C452.988 364.865 478.157 364.209 456.486 309.056C456.486 309.056 452.288 293.726 444.593 287.096C444.593 287.096 513.601 337.397 524.197 444.193L527.111 481.089L496.593 491.42C496.593 491.42 426.886 479.53 396.921 474.75C396.921 474.75 379.593 471.996 373.297 456.623C373.297 456.623 409.732 456.623 422.251 438.321C423.485 436.606 424.148 434.546 424.148 432.434C424.148 430.321 423.485 428.262 422.251 426.547C418.972 422.175 412.18 418.139 398.524 425.163C398.524 425.163 307.641 486.699 278.274 437.053C278.274 437.053 380.292 416.784 369.857 386.723C369.857 386.723 364.96 373.608 327.913 392.755C327.913 392.755 215.518 462.568 187.915 388.151C187.915 388.151 230.179 383.663 236.883 363.83C237.316 362.61 237.466 361.307 237.321 360.02C237.176 358.733 236.74 357.496 236.047 356.403C235.353 355.309 234.42 354.388 233.318 353.708C232.215 353.028 230.973 352.608 229.684 352.479C225.035 351.998 217.791 353.106 206.526 358.133C206.38 358.046 186.297 368.493 175.352 378.271Z" fill="#D1D3D4"/>
<path d="M640.787 431.32C677.459 424.828 698.186 368.726 687.081 306.011C675.976 243.297 637.244 197.72 600.571 204.211C563.899 210.703 543.172 266.805 554.278 329.52C565.383 392.234 604.114 437.811 640.787 431.32Z" fill="#F9B499"/>
<path d="M496.506 392.741C496.506 392.741 485.357 421.884 505.382 436.252C508.175 438.215 511.399 439.479 514.782 439.938C524.546 441.396 547.894 442.401 566.986 425.469L566.432 370.679C566.432 370.679 554.234 383.429 534.996 359.43C534.996 359.43 529.094 348.895 528.277 344.363C528.234 344.363 496.506 377.863 496.506 392.741Z" fill="#85339B"/>
<path opacity="0.2" d="M496.506 392.741C496.506 392.741 485.357 421.884 505.382 436.252C508.175 438.215 511.399 439.479 514.782 439.938C524.546 441.396 547.894 442.401 566.986 425.469L566.432 370.679C566.432 370.679 554.234 383.429 534.996 359.43C534.996 359.43 529.094 348.895 528.277 344.363C528.234 344.363 496.506 377.863 496.506 392.741Z" fill="black"/>
<path d="M549.774 372.34C549.774 372.34 544.528 386.227 524.124 398.234C524.124 398.234 544.528 391.429 555.342 377.426C553.275 388.654 547.829 398.985 539.733 407.035C539.733 407.035 554.54 413.84 566.943 411.043L566.389 370.65C566.389 370.65 559.991 376.989 549.774 372.34Z" fill="#2F2E41"/>
<path d="M642.771 203.192C642.771 203.192 648.018 203.542 649.796 206.66C649.796 206.66 660.508 194.843 667.649 205.611C669.294 208.268 670.49 211.178 671.191 214.223C671.191 214.223 691.682 213.407 671.191 231.636C671.191 231.636 665.449 226.798 652.245 227.862C652.245 227.862 636.213 231.491 622.047 230.208C622.062 230.208 616.334 201.079 642.771 203.192Z" fill="#2F2E41"/>
<path d="M546.276 220.285C546.276 220.285 546.276 212.066 556.478 208.394C556.478 208.394 563.765 207.156 569.376 210.58L561.127 220.285H546.276Z" fill="#2F2E41"/>
<path d="M566.942 462.801L566.389 370.679C566.389 370.679 592.855 441.177 646.007 430.059L652.725 467.056C652.725 467.056 651.56 491.945 650.598 503.267C650.598 503.267 633.429 464.987 616.101 464.929L566.942 462.801Z" fill="#F9B499"/>
<path d="M566.389 370.679C566.389 370.679 571.592 445.723 651.56 460.659L646.007 430.059C646.007 430.059 598.452 448.186 566.389 370.679Z" fill="#F7A48B"/>
<path d="M576.153 745.769L481.903 741.004L493.402 652.116C480.285 673.114 445.307 705.405 445.307 705.405L511.386 699.576C491.507 715.766 495.704 741.004 495.704 741.004C497.512 787.21 522.725 796.813 522.725 796.813C507.116 808.223 466.892 808.223 466.892 808.223L339.631 802.817C306.023 796.216 303.021 774.009 303.021 774.009C291.012 743.408 331.834 690.586 331.834 690.586L411.539 565.357C416.085 558.294 420.094 550.9 423.534 543.237C447.858 488.054 496.506 491.362 496.506 491.362L542.837 467.056C540.287 455.137 547.515 445.344 547.515 445.344C547.515 445.344 536.104 462.175 585.583 463.617L616.101 464.929C616.101 464.929 628.358 462.918 641.27 484.601L650.598 503.267L652.725 467.056L651.56 460.659L657.841 443.173C657.841 443.173 672.998 439.836 676.991 473.847C676.991 473.847 752.631 472.244 779.841 510.655L762.235 454.641C762.235 454.641 775.439 470.845 816.261 453.432C821.668 453.432 843.267 443.232 855.276 429.432L890.691 531.434L743.026 773.863L576.153 745.769Z" fill="#85339B"/>
<path opacity="0.2" d="M493.401 652.116L536.526 598.201C536.526 598.201 502.102 693.238 486.901 702.432L493.401 652.116Z" fill="black"/>
<path d="M522.725 796.784C522.725 796.784 537.648 795.079 538.756 750.956C538.756 750.956 508.544 762.919 498.925 763.313C498.881 763.313 504.07 786.788 522.725 796.784Z" fill="#2F2E41"/>
<path d="M511.314 699.562V704.356L500.048 713.828C500.048 713.828 506.839 703.117 511.314 699.562Z" fill="#2F2E41"/>
<path d="M719.416 368.654C719.416 368.654 745.431 402.664 769.434 401.061C769.434 401.061 791.514 425.41 794.881 460.659C794.881 460.659 832.088 448.9 841.241 441.716C832.591 425.861 826.841 408.59 824.262 390.715C824.262 390.715 819.059 365.055 815.809 362.65L782.289 375.459L727.461 359.051C727.461 359.051 724.619 366.249 719.416 368.654Z" fill="#F9B499"/>
<path opacity="0.2" d="M542.341 471.748C542.341 471.748 535.258 512.374 562.672 541.692C562.672 541.692 574.855 503.893 615.138 476.95C615.138 476.95 588.205 485.489 561.214 518.319C561.243 518.305 544.469 504.491 542.341 471.748Z" fill="black"/>
<path opacity="0.2" d="M673.726 498.677C673.726 498.677 661.819 464.054 670.141 450.59C674.06 457.759 676.396 465.684 676.991 473.832L673.726 498.677Z" fill="black"/>
<path opacity="0.2" d="M641.241 518.305C644.444 518.305 647.041 515.708 647.041 512.505C647.041 509.302 644.444 506.706 641.241 506.706C638.037 506.706 635.44 509.302 635.44 512.505C635.44 515.708 638.037 518.305 641.241 518.305Z" fill="black"/>
<path d="M791.135 494.597L681.801 551.543V857.213L791.135 801.287V494.597Z" fill="#E6E7E8"/>
<path d="M901.038 857.213L791.135 801.287V494.597L901.038 553.539V857.213Z" fill="#85339B"/>
<path opacity="0.8" d="M901.038 857.213L791.135 801.287V494.597L901.038 553.539V857.213Z" fill="white"/>
<path d="M901.038 553.539L993.948 506.706V773.863L901.038 857.213V553.539Z" fill="#E6E7E8"/>
<path d="M995.07 449.891V637.865H871.453L896.87 596.963C900.243 591.528 901.44 585.021 900.221 578.743C899.003 572.464 895.458 566.877 890.297 563.098C887.494 561.042 884.299 559.583 880.909 558.813C877.518 558.043 874.006 557.978 870.59 558.622C867.173 559.265 863.925 560.604 861.048 562.555C858.171 564.505 855.725 567.026 853.862 569.961L802.11 651.024C799.632 654.904 798.244 659.379 798.091 663.98C797.937 668.581 799.023 673.139 801.236 677.176C803.448 681.213 806.706 684.581 810.667 686.928C814.628 689.274 819.148 690.512 823.752 690.513H997.184V772.114C997.184 778.8 999.84 785.212 1004.57 789.94C1009.3 794.667 1015.71 797.323 1022.4 797.323C1029.08 797.323 1035.5 794.667 1040.23 789.94C1044.95 785.212 1047.61 778.8 1047.61 772.114V690.513L1090.49 691.329C1093.92 691.338 1097.32 690.671 1100.5 689.363C1103.67 688.056 1106.56 686.135 1108.99 683.711C1111.42 681.286 1113.35 678.406 1114.67 675.235C1115.98 672.064 1116.66 668.664 1116.66 665.231C1116.66 658.306 1113.91 651.664 1109.01 646.767C1104.11 641.87 1097.47 639.119 1090.55 639.119L1048.28 638.288L1048.88 426.43C1048.87 414.483 1044.12 403.028 1035.67 394.58C1027.22 386.132 1015.76 381.383 1003.81 381.375C988.191 381.375 969.507 388.588 961.288 401.863L924.853 463.923C923.152 466.605 922.004 469.601 921.479 472.733C920.953 475.865 921.059 479.07 921.791 482.161C922.523 485.251 923.866 488.164 925.741 490.728C927.616 493.291 929.985 495.454 932.708 497.088C937.703 500.078 943.62 501.136 949.342 500.062C955.064 498.988 960.194 495.857 963.765 491.26L995.07 449.891Z" fill="#85339B"/>
<path opacity="0.36" d="M995.07 449.891V637.865H871.453L896.87 596.963C900.243 591.528 901.44 585.021 900.221 578.743C899.003 572.464 895.458 566.877 890.297 563.098C887.494 561.042 884.299 559.583 880.909 558.813C877.518 558.043 874.006 557.978 870.59 558.622C867.173 559.265 863.925 560.604 861.048 562.555C858.171 564.505 855.725 567.026 853.862 569.961L802.11 651.024C799.632 654.904 798.244 659.379 798.091 663.98C797.937 668.581 799.023 673.139 801.236 677.176C803.448 681.213 806.706 684.581 810.667 686.928C814.628 689.274 819.148 690.512 823.752 690.513H997.184V772.114C997.184 778.8 999.84 785.212 1004.57 789.94C1009.3 794.667 1015.71 797.323 1022.4 797.323C1029.08 797.323 1035.5 794.667 1040.23 789.94C1044.95 785.212 1047.61 778.8 1047.61 772.114V690.513L1090.49 691.329C1093.92 691.338 1097.32 690.671 1100.5 689.363C1103.67 688.056 1106.56 686.135 1108.99 683.711C1111.42 681.286 1113.35 678.406 1114.67 675.235C1115.98 672.064 1116.66 668.664 1116.66 665.231C1116.66 658.306 1113.91 651.664 1109.01 646.767C1104.11 641.87 1097.47 639.119 1090.55 639.119L1048.28 638.288L1048.88 426.43C1048.87 414.483 1044.12 403.028 1035.67 394.58C1027.22 386.132 1015.76 381.383 1003.81 381.375C988.191 381.375 969.507 388.588 961.288 401.863L924.853 463.923C923.152 466.605 922.004 469.601 921.479 472.733C920.953 475.865 921.059 479.07 921.791 482.161C922.523 485.251 923.866 488.164 925.741 490.728C927.616 493.291 929.985 495.454 932.708 497.088C937.703 500.078 943.62 501.136 949.342 500.062C955.064 498.988 960.194 495.857 963.765 491.26L995.07 449.891Z" fill="white"/>
<path d="M911.707 547.419C920.826 547.419 928.219 540.027 928.219 530.909C928.219 521.791 920.826 514.4 911.707 514.4C902.587 514.4 895.194 521.791 895.194 530.909C895.194 540.027 902.587 547.419 911.707 547.419Z" fill="#2F2E41"/>
<path d="M780.321 378.635C780.321 378.635 736.409 385.382 730.419 353.601C732.899 347.951 734.158 341.842 734.113 335.672C734.067 329.502 732.719 323.411 730.157 317.799C729.845 316.365 730.039 314.868 730.706 313.561C731.373 312.254 732.471 311.218 733.815 310.629C733.815 310.629 743.419 294.717 759.028 292.677L786.034 293.435L780.321 378.635Z" fill="#85339B"/>
<path d="M642.742 308.968C642.742 308.968 602.75 311.97 604.354 336.028C604.354 336.028 600.71 357.506 645.161 364.778L642.742 308.968Z" fill="#85339B"/>
<path d="M762.38 510.072L760.923 509.81L774.739 432.988C778.004 407.225 790.304 378.271 790.435 377.98L791.776 378.548C791.645 378.839 779.432 407.618 776.167 433.206L762.38 510.072Z" fill="#2F2E41"/>
<path d="M682.165 419.567L681.422 418.314C681.582 418.212 698.415 408.201 717.289 404.879C724.126 403.738 731.099 403.679 737.955 404.704C750.445 406.467 791.966 409.454 802.168 374.278L803.625 374.672C793.103 410.999 750.59 407.953 737.823 406.147C731.117 405.151 724.297 405.21 717.609 406.321C698.925 409.586 682.34 419.465 682.165 419.567Z" fill="#2F2E41"/>
<path d="M791.354 918.632C805.448 918.632 816.873 907.209 816.873 893.117C816.873 879.026 805.448 867.602 791.354 867.602C777.26 867.602 765.835 879.026 765.835 893.117C765.835 907.209 777.26 918.632 791.354 918.632Z" fill="#85339B"/>
<path d="M180.743 373.899C180.743 373.899 155.501 320.305 207.647 283.657C207.647 283.657 150.925 314.462 175.351 378.271L180.743 373.899Z" fill="#BCBEC0"/>
<path d="M226.784 352.042C226.784 352.042 243.311 346.213 247.056 354.242C247.449 355.118 247.651 356.066 247.651 357.025C247.651 357.985 247.449 358.933 247.056 359.809C244.345 366.002 232.963 382.715 187.827 388.063C187.827 388.063 233.24 385.149 237.248 360.479C237.219 360.479 239.988 354.446 226.784 352.042Z" fill="#BCBEC0"/>
<path d="M269.995 411.684C215.372 429.418 187.769 388.005 187.769 388.005C187.769 388.005 198.043 434.241 261.936 419.669C261.936 419.669 283.68 415.56 312.508 400.988C312.508 400.988 337.022 387.043 345.679 384.843C345.679 384.843 315.627 395.203 287.382 405.709C287.411 405.768 277.078 409.731 269.995 411.684Z" fill="#BCBEC0"/>
<path d="M351.29 383.327C351.29 383.327 371.038 374.395 376.853 382.847C377.163 383.291 377.399 383.783 377.553 384.304C378.223 386.854 378.369 393.95 364.217 403.349C364.217 403.349 373.078 396.573 369.712 386.591C369.712 386.635 367.438 380.675 351.29 383.327Z" fill="#BCBEC0"/>
<path d="M423.606 429.476C419.54 414.671 398.379 425.104 398.379 425.104C382.347 437.126 351.29 448.944 351.29 448.944C294.451 471.588 278.128 436.995 278.128 436.995C278.128 436.995 301.665 463.909 351.29 443.902L395.668 422.598C395.668 422.598 426.069 406.7 428.474 432.696C428.474 432.696 429.684 439.705 419.001 442.037C421.005 440.705 422.532 438.769 423.361 436.51C424.189 434.251 424.275 431.787 423.606 429.476Z" fill="#BCBEC0"/>
<path d="M452.915 364.778C452.915 364.778 472.605 373.113 470.404 345.179C470.404 345.179 468.407 320.028 452.915 298.826C452.915 298.826 480.504 360.537 452.915 364.778Z" fill="#BCBEC0"/>
<path d="M224.787 325.434C253.808 325.344 282.777 327.876 311.343 332.997C340.028 337.884 368.061 346.034 394.896 357.288C408.304 363.024 421.192 369.908 433.415 377.863C445.691 385.822 457.007 395.171 467.139 405.724C468.407 407.05 469.661 408.376 470.856 409.775C472.051 411.174 473.29 412.5 474.441 413.942L476.234 416.055C476.831 416.755 477.37 417.513 477.91 418.256L481.101 422.627C485.308 428.553 489.389 434.571 493.343 440.681C497.264 446.802 501.039 453.038 504.507 459.464C508.134 465.881 511.103 472.647 513.368 479.661L510.147 480.579C507.904 473.853 504.989 467.37 501.447 461.228C498.007 454.933 494.233 448.783 490.327 442.722C486.421 436.66 482.384 430.627 478.216 424.798L475.053 420.427C474.499 419.684 474.033 418.97 473.45 418.314L471.745 416.245C470.637 414.788 469.457 413.505 468.262 412.165C467.066 410.824 465.871 409.498 464.633 408.201C454.718 397.793 443.653 388.544 431.651 380.632C419.631 372.692 406.954 365.794 393.759 360.013C367.38 348.355 339.398 340.385 311.036 334.818C296.841 332.05 282.539 329.893 268.13 328.348C253.731 326.702 239.274 325.609 224.787 325.434Z" fill="#A7A9AC"/>
<path d="M311.735 384.901C320.842 380.072 330.437 376.228 340.359 373.433C350.288 370.542 360.474 368.624 370.775 367.707C381.105 366.765 391.512 367.103 401.759 368.712C411.977 370.29 421.871 373.519 431.053 378.271C421.472 374.785 411.512 372.447 401.38 371.306C400.127 371.145 398.859 371 397.591 370.927L393.817 370.635C391.281 370.533 388.745 370.388 386.209 370.417C381.144 370.351 376.08 370.556 371.037 371.029C360.911 371.914 350.865 373.561 340.986 375.954C331.053 378.305 321.283 381.294 311.735 384.901Z" fill="#A7A9AC"/>
<path d="M345.679 317.799C346.144 317.918 346.565 318.171 346.888 318.527C347.241 318.85 347.572 319.196 347.879 319.562C348.521 320.276 349.089 321.019 349.672 321.762L353.097 326.308C355.356 329.339 357.659 332.341 360.092 335.212C362.496 338.08 365.086 340.787 367.846 343.314C370.538 345.815 373.512 347.996 376.707 349.813L374.987 352.727C371.741 350.558 368.758 348.02 366.097 345.164C363.477 342.373 361.043 339.414 358.81 336.305C356.566 333.215 354.438 330.039 352.441 326.848L349.366 322.068C348.841 321.281 348.317 320.494 347.748 319.751C347.467 319.371 347.166 319.006 346.845 318.658C346.552 318.26 346.146 317.96 345.679 317.799Z" fill="#A7A9AC"/>
<path d="M281.976 352.042C288.049 350.023 294.222 348.316 300.47 346.927C303.589 346.228 306.737 345.616 309.885 345.018C313.033 344.421 316.21 343.955 319.402 343.561C325.775 342.667 332.204 342.224 338.64 342.235C345.109 342.179 351.545 343.163 357.702 345.15C351.275 344.814 344.994 344.96 338.683 345.252C332.373 345.543 326.077 346.009 319.737 346.709C313.397 347.408 307.13 348.166 300.791 349.128C294.451 350.089 288.228 351.037 281.976 352.042Z" fill="#A7A9AC"/>
<path d="M271.703 313.638C275.184 308.935 269.757 299.017 259.581 291.486C249.404 283.954 238.332 281.661 234.851 286.363C231.369 291.066 236.796 300.983 246.973 308.515C257.149 316.047 268.221 318.34 271.703 313.638Z" fill="#BCBEC0"/>
<path d="M236.88 313.534C238.836 309.817 234.863 303.877 228.003 300.267C221.144 296.658 213.997 296.745 212.04 300.462C210.084 304.18 214.057 310.12 220.917 313.729C227.776 317.339 234.923 317.252 236.88 313.534Z" fill="#BCBEC0"/>
<path d="M301.393 384.757C321.789 379.028 336.58 368.179 334.429 360.524C332.278 352.87 314.001 351.308 293.605 357.036C273.21 362.764 258.419 373.613 260.57 381.268C262.72 388.923 280.998 390.485 301.393 384.757Z" fill="#BCBEC0"/>
<path d="M432.934 514.808C432.934 514.808 447.639 492.834 456.034 484.469C456.034 484.469 408.42 477.184 396.834 474.663L432.934 514.808Z" fill="#2F2E41"/>
<path d="M1005.71 826.379C960.53 826.379 940.651 804.172 940.389 803.881C935.113 798.46 930.546 793.369 926.689 788.609C920.299 794.267 913.477 799.416 906.285 804.012C875.388 817.607 849.446 819.662 829.189 810.175C804.821 798.795 797.505 774.315 797.432 774.067L798.787 773.673C798.787 773.921 806.074 797.804 829.801 808.922C849.709 818.219 875.213 816.208 905.586 802.773C912.696 798.197 919.444 793.082 925.771 787.473C915.336 774.358 910.57 763.823 911.576 756.158C911.815 754.176 912.522 752.279 913.64 750.624C914.757 748.97 916.253 747.605 918.003 746.643C920.623 745.145 923.595 744.372 926.613 744.406C929.631 744.439 932.585 745.277 935.171 746.832C941.365 750.417 944.542 755.022 944.63 760.53C944.775 769.564 936.57 779.546 927.709 787.662C931.537 792.403 936.104 797.493 941.409 802.933C941.773 803.356 976.212 841.577 1057.72 816.398C1060.9 815.413 1064.02 814.271 1067.08 812.973C1087.37 804.332 1155.01 776.253 1173.27 777.768L1173.15 779.225C1154.73 777.768 1082.02 808.194 1067.62 814.314C1064.52 815.637 1061.36 816.799 1058.15 817.796C1037.86 824.062 1020.43 826.379 1005.71 826.379ZM926.296 745.798C923.635 745.786 921.021 746.496 918.732 747.852C917.168 748.707 915.832 749.922 914.833 751.398C913.835 752.873 913.202 754.565 912.989 756.333C912.028 763.619 916.662 773.819 926.82 786.526C935.433 778.628 943.376 769.04 943.245 760.544C943.172 755.575 940.214 751.364 934.501 748.042C932.011 746.585 929.18 745.811 926.296 745.798Z" fill="#85339B"/>
<g opacity="0.25">
<path d="M1005.71 826.379C960.529 826.379 940.65 804.172 940.388 803.881C935.112 798.46 930.545 793.369 926.688 788.609C920.298 794.267 913.476 799.416 906.284 804.012C875.387 817.607 849.445 819.662 829.188 810.175C804.82 798.795 797.504 774.315 797.431 774.067L798.786 773.673C798.786 773.921 806.073 797.804 829.8 808.922C849.708 818.219 875.212 816.208 905.585 802.773C912.695 798.197 919.443 793.082 925.77 787.473C915.335 774.358 910.569 763.823 911.575 756.158C911.814 754.176 912.521 752.279 913.639 750.624C914.756 748.97 916.252 747.605 918.002 746.643C920.622 745.145 923.594 744.372 926.612 744.406C929.63 744.439 932.584 745.277 935.17 746.832C941.364 750.417 944.541 755.022 944.629 760.53C944.775 769.564 936.569 779.546 927.708 787.662C931.536 792.403 936.103 797.493 941.408 802.933C941.772 803.356 976.211 841.577 1057.72 816.398C1060.9 815.413 1064.02 814.271 1067.08 812.973C1087.37 804.332 1155.01 776.253 1173.27 777.768L1173.15 779.225C1154.73 777.768 1082.02 808.194 1067.62 814.314C1064.52 815.637 1061.36 816.799 1058.15 817.796C1037.86 824.062 1020.43 826.379 1005.71 826.379ZM926.295 745.798C923.634 745.786 921.02 746.496 918.731 747.852C917.168 748.707 915.831 749.922 914.832 751.398C913.834 752.873 913.201 754.565 912.988 756.333C912.027 763.619 916.661 773.819 926.819 786.526C935.432 778.628 943.375 769.04 943.244 760.544C943.171 755.575 940.213 751.364 934.5 748.042C932.01 746.585 929.179 745.811 926.295 745.798Z" fill="white"/>
</g>
<path d="M736.468 727.962C736.468 727.962 746.67 732.334 755.414 719.219C755.414 719.219 760.296 700.83 774.623 699.678C774.623 699.678 770.629 708.013 774.623 716.013C774.623 716.013 779.272 744.428 755.531 732.829C755.545 732.771 746.305 745.171 736.468 727.962Z" fill="#2F2E41"/>
<path d="M541.38 305.165C541.38 305.165 497.41 242.274 546.276 220.285C554.948 215.957 563.931 212.285 573.151 209.298C573.151 209.298 595.129 197.64 600.011 192.803C600.011 192.803 627.833 171.79 642.771 203.192C642.771 203.192 618.17 200.278 622.062 230.208C622.062 230.208 631.068 231.665 647.581 228.751C647.581 228.751 680.897 219.148 681.801 256.364C681.801 256.364 664.385 237.159 634.974 248.262C634.974 248.262 612.166 253.858 605.36 265.865C605.36 265.865 591.354 267.06 584.548 285.479C584.548 285.479 549.73 329.893 537.328 335.022C537.328 335.022 500.893 369.834 496.521 392.653C496.506 392.741 504.624 349.71 541.38 305.165Z" fill="#85339B"/>
<path d="M621.785 252.94C618.411 253.91 614.809 253.709 611.564 252.37C608.32 251.031 605.624 248.633 603.917 245.567C602.845 243.933 602.142 242.086 601.855 240.154C601.568 238.222 601.705 236.25 602.256 234.376C602.868 232.58 603.846 230.93 605.128 229.531C606.41 228.131 607.967 227.012 609.703 226.245C609.703 226.245 601.454 242.813 614.687 247.213C615.965 247.609 617.287 247.849 618.622 247.927C622.703 248.233 632.978 248.904 634.974 248.204C630.41 249.268 625.984 250.857 621.785 252.94Z" fill="#2F2E41"/>
<g opacity="0.2">
<path d="M549.774 218.551C547.662 225.208 546.413 232.108 546.058 239.082C545.59 246.023 545.957 252.994 547.151 259.847C548.258 266.716 550.156 273.435 552.806 279.868C554.083 283.115 555.543 286.287 557.178 289.369L557.746 290.55L558.402 291.672L559.728 293.93L562.366 298.477L559.451 294.105L557.994 291.919L557.251 290.826L556.609 289.675C554.849 286.63 553.263 283.487 551.858 280.262C551.173 278.644 550.401 277.042 549.833 275.395L548.127 270.339C547.585 268.66 547.137 266.953 546.787 265.224C546.345 263.519 545.99 261.792 545.723 260.051L545.009 254.805L544.659 249.516C544.525 245.992 544.618 242.463 544.936 238.951C545.271 235.45 545.811 231.971 546.553 228.532C547.349 225.122 548.426 221.783 549.774 218.551Z" fill="black"/>
</g>
<path opacity="0.2" d="M621.595 241.137C623.398 241.137 624.859 239.676 624.859 237.873C624.859 236.07 623.398 234.609 621.595 234.609C619.792 234.609 618.33 236.07 618.33 237.873C618.33 239.676 619.792 241.137 621.595 241.137Z" fill="black"/>
<path opacity="0.2" d="M646.007 237.873C647.81 237.873 649.271 236.412 649.271 234.609C649.271 232.806 647.81 231.345 646.007 231.345C644.204 231.345 642.742 232.806 642.742 234.609C642.742 236.412 644.204 237.873 646.007 237.873Z" fill="black"/>
<path opacity="0.2" d="M671.613 244.401C673.416 244.401 674.878 242.94 674.878 241.137C674.878 239.334 673.416 237.873 671.613 237.873C669.81 237.873 668.349 239.334 668.349 241.137C668.349 242.94 669.81 244.401 671.613 244.401Z" fill="black"/>
<g opacity="0.2">
<path d="M618.331 231.359C617.028 227.708 616.464 223.835 616.669 219.964C616.816 216.022 617.948 212.18 619.963 208.788C622.033 205.419 624.973 202.67 628.474 200.832C630.181 199.911 631.972 199.155 633.823 198.573C634.756 198.282 635.688 198.092 636.621 197.845C637.554 197.597 638.516 197.495 639.463 197.349C635.804 198.352 632.299 199.847 629.043 201.793C628.226 202.26 627.512 202.872 626.74 203.382C626.008 203.956 625.312 204.574 624.656 205.232C623.307 206.523 622.145 207.994 621.202 209.604C619.305 212.813 618.136 216.4 617.777 220.11C617.568 221.982 617.519 223.869 617.631 225.749C617.715 227.635 617.949 229.511 618.331 231.359Z" fill="black"/>
</g>
<path d="M563.601 372.619C573.489 367.63 575.315 351.325 567.681 336.201C560.047 321.078 545.843 312.863 535.956 317.852C526.068 322.842 524.241 339.146 531.875 354.27C539.509 369.393 553.713 377.608 563.601 372.619Z" fill="#F9B499"/>
<path d="M571.329 494.597V796.784L681.801 857.213V551.543L571.329 494.597Z" fill="#85339B"/>
<path opacity="0.8" d="M571.329 494.597V796.784L681.801 857.213V551.543L571.329 494.597Z" fill="white"/>
<path d="M500.047 713.828C510.05 707.037 518.217 697.876 523.817 687.161L541.306 655.789C541.306 655.789 543.477 639.847 566.33 639.308C566.33 639.308 617.033 621.093 643.82 636.554C644.705 637.075 645.426 637.836 645.897 638.748C646.369 639.661 646.573 640.688 646.487 641.711C646.4 642.735 646.025 643.713 645.407 644.533C644.788 645.353 643.95 645.982 642.989 646.346C638.819 647.61 634.453 648.103 630.106 647.803C630.106 647.803 592.359 643.548 587.039 654.186C587.039 654.186 665.2 655.249 660.42 663.745C660.42 663.745 667.867 677.049 582.871 672.182C582.536 672.167 582.202 672.222 581.89 672.345C581.578 672.468 581.295 672.655 581.06 672.894C580.825 673.133 580.643 673.419 580.525 673.733C580.408 674.047 580.358 674.383 580.379 674.717C580.42 675.336 580.7 675.914 581.16 676.33C581.619 676.746 582.222 676.967 582.842 676.947C595.682 676.466 657.563 674.746 655.639 687.147C655.639 687.147 662.781 694.709 585.801 691.62C585.747 691.634 585.699 691.665 585.665 691.708C585.631 691.752 585.612 691.805 585.612 691.861C585.612 691.916 585.631 691.97 585.665 692.013C585.699 692.057 585.747 692.088 585.801 692.101L627.512 697.77C627.512 697.77 642.931 697.347 641.867 702.345C641.867 702.345 645.059 711.088 615.284 709.471L580.598 711.073C580.598 711.073 564.333 751.204 498.881 763.313C498.881 763.313 490.632 734.65 500.047 713.828Z" fill="#F9B499"/>
<path d="M645.147 308.968C645.147 308.968 644.637 308.312 638.501 309.493C638.501 309.493 626.842 342.585 641.824 364.195C641.824 364.195 647.188 365.317 648.091 365.317L645.147 308.968Z" fill="#2F2E41"/>
<path d="M692.615 293.435C692.615 293.435 655.859 286.834 642.742 308.968C642.742 308.968 632.686 320.101 637.612 347.306C639.09 355.956 643.407 363.868 649.884 369.79C657.171 376.348 668.83 381.812 685.648 377.426L692.615 293.435Z" fill="#85339B"/>
<path d="M727.738 336.028C727.738 355.364 713.849 371 696.71 371C695.555 371 694.401 370.927 693.256 370.781C677.749 368.843 665.711 354.009 665.711 335.999C665.711 317.988 677.749 303.169 693.256 301.231C694.401 301.077 695.555 301.004 696.71 301.012C713.791 301.041 727.738 316.706 727.738 336.028Z" fill="#E6E7E8"/>
<path d="M693.256 301.449C708.763 303.387 720.801 318.221 720.801 336.217C720.801 353.849 709.258 368.391 694.247 370.825C695.063 370.898 695.879 370.941 696.71 370.941C713.849 370.941 727.738 355.277 727.738 335.969C727.738 316.662 713.849 300.997 696.71 300.997C695.555 300.997 694.401 301.07 693.256 301.216" fill="#2F2E41"/>
<path d="M695.515 293.435C673.96 293.435 656.485 312.509 656.485 336.028C656.485 359.546 673.974 378.635 695.515 378.635C717.055 378.635 734.529 359.561 734.529 336.028C734.529 312.494 717.07 293.435 695.515 293.435ZM696.71 371.029C695.554 371.032 694.4 370.954 693.256 370.796C677.749 368.872 665.711 354.038 665.711 336.028C665.711 318.017 677.749 303.183 693.256 301.26C694.4 301.102 695.554 301.024 696.71 301.027C713.849 301.027 727.738 316.706 727.738 335.999C727.738 355.291 713.791 371.029 696.71 371.029Z" fill="#85339B"/>
<path opacity="0.8" d="M695.515 293.435C673.96 293.435 656.485 312.509 656.485 336.028C656.485 359.546 673.974 378.635 695.515 378.635C717.055 378.635 734.529 359.561 734.529 336.028C734.529 312.494 717.07 293.435 695.515 293.435ZM696.71 371.029C695.554 371.032 694.4 370.954 693.256 370.796C677.749 368.872 665.711 354.038 665.711 336.028C665.711 318.017 677.749 303.183 693.256 301.26C694.4 301.102 695.554 301.024 696.71 301.027C713.849 301.027 727.738 316.706 727.738 335.999C727.738 355.291 713.791 371.029 696.71 371.029Z" fill="white"/>
<path d="M598.16 281.428C598.16 281.428 576.153 346.65 499.304 352.042C499.304 352.042 523.963 346.403 534.937 337.325C536.642 335.867 538.362 334.556 540.169 333.274C545.591 329.412 559.218 317.828 584.547 285.435C584.547 285.435 589.75 267.818 605.359 265.821C605.359 265.821 610.169 254.164 634.974 248.219C634.974 248.219 662.315 235.818 681.8 256.321C685.207 260.437 689.408 263.826 694.153 266.285C698.898 268.743 704.09 270.221 709.418 270.63C709.418 270.63 695.573 303.183 665.696 285.056C664.77 284.518 663.734 284.197 662.666 284.119C661.597 284.041 660.525 284.207 659.531 284.604C654.547 286.513 643.806 288.072 629.654 275.599C629.22 275.198 628.673 274.938 628.087 274.855C627.502 274.772 626.904 274.868 626.375 275.133C625.471 275.628 624.918 276.59 626.564 278.63C626.564 278.63 644.214 289.209 620.735 286.63C620.677 286.63 607.4 286.236 598.16 281.428Z" fill="#2F2E41"/>
<path opacity="0.2" d="M619.803 253.537C630.407 257.414 640.533 262.489 649.986 268.663C653.137 270.728 656.101 273.063 658.847 275.643C663.714 280.204 673.421 288.466 681.801 290.52C681.801 290.52 694.087 292.764 704.828 278.222C704.828 278.222 680.664 279.679 663.335 267.453C661.396 266.119 659.354 264.939 657.229 263.927C649.665 260.27 633.954 253.508 619.803 253.537Z" fill="black"/>
<path d="M818.272 336.028C818.272 355.364 804.369 371 787.244 371C786.077 371.035 784.908 370.997 783.746 370.883C768.254 368.945 756.201 354.111 756.201 336.101C756.201 318.09 768.254 303.271 783.746 301.333C784.896 301.179 786.055 301.106 787.215 301.114C804.369 301.041 818.272 316.706 818.272 336.028Z" fill="#E6E7E8"/>
<path d="M783.746 301.449C799.253 303.387 811.306 318.221 811.306 336.217C811.306 353.849 799.763 368.391 784.737 370.825C785.553 370.898 786.384 370.941 787.215 370.941C804.339 370.941 818.243 355.277 818.243 335.969C818.243 316.662 804.339 300.997 787.215 300.997C786.055 300.997 784.897 301.07 783.746 301.216" fill="#2F2E41"/>
<path d="M786.034 293.435C764.494 293.435 747.02 312.509 747.02 336.028C747.02 359.546 764.508 378.635 786.034 378.635C807.56 378.635 825.064 359.561 825.064 336.028C825.064 312.494 807.589 293.435 786.034 293.435ZM787.244 371.029C786.084 371.032 784.925 370.954 783.775 370.796C768.283 368.872 756.23 354.038 756.23 336.028C756.23 318.017 768.283 303.183 783.775 301.26C784.925 301.101 786.084 301.023 787.244 301.027C804.369 301.027 818.272 316.706 818.272 335.999C818.272 355.291 804.369 371.029 787.244 371.029Z" fill="#85339B"/>
<path opacity="0.8" d="M786.034 293.435C764.494 293.435 747.02 312.509 747.02 336.028C747.02 359.546 764.508 378.635 786.034 378.635C807.56 378.635 825.064 359.561 825.064 336.028C825.064 312.494 807.589 293.435 786.034 293.435ZM787.244 371.029C786.084 371.032 784.925 370.954 783.775 370.796C768.283 368.872 756.23 354.038 756.23 336.028C756.23 318.017 768.283 303.183 783.775 301.26C784.925 301.101 786.084 301.023 787.244 301.027C804.369 301.027 818.272 316.706 818.272 335.999C818.272 355.291 804.369 371.029 787.244 371.029Z" fill="white"/>
<path d="M171.548 768.763C138.319 768.763 114.141 762.249 97.22 754.585C60.7849 738.119 48.9799 712.895 48.8633 712.647L50.1458 712.064C50.2624 712.312 61.9508 737.128 97.905 753.361C131.148 768.355 192.476 778.876 295.952 743.831C313.053 737.997 329.836 731.27 346.233 723.678C376.663 709.631 457.666 674.353 552.543 650.062C670.826 619.767 768.793 616.547 843.704 640.605L843.267 641.931C669.923 586.369 419.394 691.46 346.816 724.975C330.37 732.584 313.538 739.33 296.389 745.186C245.03 762.555 203.975 768.763 171.548 768.763Z" fill="#85339B"/>
<g opacity="0.25">
<path d="M171.548 768.763C138.319 768.763 114.141 762.249 97.22 754.585C60.7849 738.119 48.9799 712.895 48.8633 712.647L50.1458 712.064C50.2624 712.312 61.9508 737.128 97.905 753.361C131.148 768.355 192.476 778.876 295.952 743.831C313.053 737.997 329.836 731.27 346.233 723.678C376.663 709.631 457.666 674.353 552.543 650.062C670.826 619.767 768.793 616.547 843.704 640.605L843.267 641.931C669.923 586.369 419.394 691.46 346.816 724.975C330.37 732.584 313.538 739.33 296.389 745.186C245.03 762.555 203.975 768.763 171.548 768.763Z" fill="white"/>
</g>
<path d="M396.833 474.663L432.933 514.808C432.933 514.808 404.616 562.574 420.443 632.357C420.443 632.357 426.652 666.324 465.433 703.598L402.502 708.844C402.502 708.844 367.204 686.447 362.118 590.682C362.118 590.682 355.18 535.878 396.833 474.663Z" fill="#85339B"/>
<path opacity="0.36" d="M396.833 474.663L432.933 514.808C432.933 514.808 404.616 562.574 420.443 632.357C420.443 632.357 426.652 666.324 465.433 703.598L402.502 708.844C402.502 708.844 367.204 686.447 362.118 590.682C362.118 590.682 355.18 535.878 396.833 474.663Z" fill="white"/>
<path d="M291.769 700.276C280.09 700.413 268.529 697.923 257.942 692.99C251.028 689.777 245.074 684.812 240.672 678.588C236.27 672.364 233.572 665.097 232.846 657.508C231.695 643.519 237.48 624.882 271.525 615.454C273.784 614.245 305.906 598.974 412.894 642.587C423.637 633.833 433.893 624.498 443.616 614.624C539.717 532.06 602.342 404.558 613.914 379.845C615.794 375.823 617.82 371.932 619.554 368.668C648.702 313.587 624.597 284.415 624.349 284.153L625.457 283.191C625.719 283.497 650.466 313.354 620.837 369.368C619.117 372.617 617.106 376.479 615.24 380.471C603.581 405.243 540.913 532.978 444.622 615.702C435.053 625.408 424.973 634.596 414.424 643.228C422.498 646.54 431 650.198 439.929 654.2C442.29 655.264 444.622 656.226 446.852 657.115C461.673 662.754 511.764 681.333 533.669 683.883L533.494 685.34C511.415 682.761 461.207 664.138 446.341 658.484C444.068 657.625 441.721 656.648 439.331 655.57C430.13 651.451 421.386 647.701 413.098 644.321C402.704 652.845 391.855 660.798 380.598 668.145C355.938 684.174 323.278 700.203 291.769 700.276ZM293.809 613.545C278.317 613.545 272.298 616.678 272.167 616.766L271.992 616.838C245.759 624.124 232.642 638.099 234.289 657.391C235.002 664.719 237.617 671.734 241.876 677.741C246.135 683.747 251.889 688.537 258.569 691.635C268.958 696.486 280.304 698.941 291.769 698.819C322.943 698.819 355.312 682.79 379.782 666.921C390.776 659.722 401.377 651.939 411.539 643.607C350.648 618.937 314.111 613.545 293.809 613.545Z" fill="#2F2E41"/>
<path opacity="0.2" d="M549.352 317.799C549.352 317.799 553.199 299.409 608.639 250.769" stroke="black" stroke-miterlimit="10"/>
<path d="M417.252 329.543C406.05 329.655 394.869 328.551 383.906 326.25C358.285 320.596 349.06 309.886 348.681 309.434L349.803 308.502C349.89 308.604 359.189 319.343 384.402 324.866C407.72 329.98 449.766 331.54 517.696 309.944C521.952 308.648 621.93 278.746 636.927 318.687L635.571 319.197C620.997 280.568 519.154 311.052 518.133 311.358C474.557 325.186 441.547 329.543 417.252 329.543Z" fill="#2F2E41"/>
<path d="M634.945 321.864C624.496 321.412 604.952 314.811 604.121 314.578C583.251 306.36 569.027 295.635 561.856 282.914C554.977 270.732 558.752 255.228 570.295 248.437C589.416 237.13 612.487 257.807 612.72 258.026L611.743 259.104C611.51 258.9 589.226 238.937 571.038 249.705C560.18 256.117 556.624 270.703 563.124 282.185C570.178 294.688 584.169 305.121 604.689 313.208C604.85 313.208 624.831 319.999 635.062 320.494L634.945 321.864Z" fill="#2F2E41"/>
</svg>
