<svg width="331" height="262" viewBox="0 0 331 262" fill="none" xmlns="http://www.w3.org/2000/svg">
<path d="M234.849 105.781C234.849 105.781 232.479 106.632 232.811 107.698C233.143 108.764 236.668 113.024 237.173 113.127C238.501 113.388 240.011 111.817 240.011 111.817L234.849 105.781Z" fill="#F9B499"/>
<path d="M230.426 97.7949C230.426 97.7949 232.357 99.9224 234.013 99.6652C236.818 99.2304 238.487 98.4215 239.366 99.899C240.371 101.596 246.146 109.69 244.869 110.915C243.593 112.14 239.198 114.356 237.66 112.701C236.046 110.966 235.041 108.993 232.802 106.763C230.749 104.724 228.626 107.193 225.498 104.593C224.479 103.747 226.686 96.7289 230.426 97.7949Z" fill="#F9B499"/>
<path d="M248.47 108.381C247.165 110.976 241.601 113.416 243.125 111.892C244.65 110.368 243.256 105.613 242.064 104.35C240.872 103.088 237.388 105.968 235.911 105.038C234.433 104.107 238.716 103.008 240.727 100.301C242.13 98.4309 245.445 101.073 247.362 101.428L248.905 101.204L249.737 107.843L248.47 108.381Z" fill="#F9B499"/>
<path d="M159.155 238.294L155.966 249.362C155.966 249.362 164.326 252.074 164.476 252.022C164.626 251.971 167.964 241.469 167.964 241.469L159.155 238.294Z" fill="#F9B499"/>
<path d="M207.544 241.413L206.955 254.528L215.642 254.168L216.339 242.484L207.544 241.413Z" fill="#F9B499"/>
<path d="M196.593 70.1103C191.188 74.9169 166.514 51.0055 175.688 49.4391C180.392 48.6349 181.159 44.006 180.785 39.6857C180.785 39.6108 180.785 39.536 180.785 39.4612C180.501 36.8362 179.929 34.2505 179.078 31.751C185.156 23.8491 192.609 26.3179 190.585 37.4974C190.137 39.6519 189.892 41.8433 189.851 44.0434C189.851 44.1182 189.851 44.193 189.851 44.2631C190.019 48.6068 192.507 49.3316 197.552 50.9213C204.43 53.0955 201.989 65.2943 196.593 70.1103Z" fill="#F9B499"/>
<path d="M216.886 116.259C214.946 116.465 213.099 117.222 211.163 117.69C213.389 122.281 211.925 125.48 215.6 128.444C219.374 131.474 219.921 128.668 216.886 116.259Z" fill="#F9B499"/>
<path d="M216.063 111.532C211.738 95.0831 213.197 67.534 205.341 56.5275C201.133 50.6268 191.314 47.8728 191.314 47.8728C182.309 51.2393 206.094 109.713 209.643 115.792C210.045 116.484 210.541 117.508 210.831 118.059C212.795 117.667 215.469 117.017 217.377 116.437C217.068 115.095 216.484 113.084 216.063 111.532Z" fill="#85339B"/>
<path opacity="0.2" d="M216.063 111.532C211.738 95.0831 213.197 67.534 205.341 56.5275C201.133 50.6268 191.314 47.8728 191.314 47.8728C182.309 51.2393 206.094 109.713 209.643 115.792C210.045 116.484 210.541 117.508 210.831 118.059C212.795 117.667 215.469 117.017 217.377 116.437C217.068 115.095 216.484 113.084 216.063 111.532Z" fill="black"/>
<path d="M228.126 115.432L190.253 122.258L188.079 122.651L181.809 96.453L223.277 88.9111L228.126 115.432Z" fill="#E6E6E6"/>
<path d="M228.126 115.432L190.253 122.258C228.593 114.211 223.731 91.3752 223.731 91.3752L228.126 115.432Z" fill="#DEDEDE"/>
<path d="M210.873 120.327C216.765 123.09 223.212 165.274 223.203 177.567C223.203 182.518 216.886 246.734 216.886 246.734H206.553C206.553 246.734 207.488 191.818 206.492 185.118C205.478 178.291 182.871 121.136 182.871 121.136L210.873 120.327Z" fill="#2F2E41"/>
<path d="M175.338 122.487C175.338 122.487 171.681 127.691 171.13 141.307C170.578 154.922 177.755 164.685 173.336 182.532C168.918 200.379 157.29 241.829 157.29 241.829L167.964 244.938C167.964 244.938 189.538 186.768 191.193 181.98C192.848 177.193 202.63 120.327 202.63 120.327L175.338 122.487Z" fill="#2F2E41"/>
<path d="M191.974 47.9944C191.974 47.9944 205.36 53.3153 207.871 68.6796C210.382 84.0438 207.109 87.0783 209.508 100.091C211.906 113.103 216.287 123.979 210.938 125.634C205.589 127.289 176.839 128.145 173.743 126.373C170.648 124.601 171.677 98.3187 169.718 91.7727C167.759 85.2268 158.346 58.4165 166.375 51.1224C170.349 47.5128 179.42 47.1668 179.42 47.1668C179.42 47.1668 186.171 57.7478 191.974 47.9944Z" fill="#85339B"/>
<path d="M189.459 50.9167L200.451 101.381L197.879 108.105L192.755 101.783L185.868 51.8471L189.459 50.9167Z" fill="#D3D3D3"/>
<path d="M179.438 47.1761L187.827 51.3421L183.983 53.9044L178.237 47.8447L179.438 47.1761Z" fill="#DEDEDE"/>
<path d="M187.827 51.3422L190.819 47.3912L192.063 48.0458L191.488 52.6139L187.827 51.3422Z" fill="#DEDEDE"/>
<path d="M164.742 59.7958C164.742 59.7958 190.192 97.0889 200.306 98.6693C210.419 100.25 229.51 107.422 229.51 107.422L232.315 97.8744C232.315 97.8744 206.305 88.7475 205.935 88.481C205.566 88.2145 207.408 89.8136 205.196 87.9386C202.985 86.0637 185.348 50.4257 174.337 49.0324C164.583 47.798 162.587 56.7145 164.742 59.7958Z" fill="#85339B"/>
<path opacity="0.2" d="M164.742 59.7958C164.742 59.7958 190.192 97.0889 200.306 98.6693C210.419 100.25 229.51 107.422 229.51 107.422L232.315 97.8744C232.315 97.8744 206.305 88.7475 205.935 88.481C205.566 88.2145 207.408 89.8136 205.196 87.9386C202.985 86.0637 185.348 50.4257 174.337 49.0324C164.583 47.798 162.587 56.7145 164.742 59.7958Z" fill="black"/>
<path d="M268.973 244.84C269.015 244.812 268.973 239.416 268.973 239.416H277.632C277.226 241.869 277.28 244.376 277.791 246.809L268.973 244.84Z" fill="#F9B499"/>
<path d="M319.909 247.431C319.398 244.998 319.344 242.491 319.75 240.038H311.096C311.096 240.038 311.797 244.396 311.203 245.341C311.175 245.387 311.138 245.428 311.096 245.462L319.909 247.431Z" fill="#F9B499"/>
<path d="M286.451 55.5783C285.917 55.8728 275.294 68.2026 269.436 91.9316C269.436 91.9316 255.039 101.479 248.035 100.526C248.035 100.526 248.774 109.76 249.499 109.634C250.223 109.507 275.907 105.767 279.273 100.114C282.64 94.4612 300.314 64.0833 296.456 58.033C292.599 51.9827 292.155 52.4315 286.451 55.5783Z" fill="#85339B"/>
<path d="M279.764 124.722C279.764 124.722 270.025 165.354 269.347 175.336C268.725 184.473 266.794 227.994 267.944 241.703H278.474C278.474 241.703 282.995 201.735 282.682 187.465L310.301 127.186L279.764 124.722Z" fill="#2F2E41"/>
<path d="M318.021 123.273C330.416 133.045 317.839 156.905 321.294 191.678C322.926 208.169 320.752 241.708 320.752 241.708H309.923L304.644 182.485C304.499 177.09 292.23 123.273 292.23 123.273H318.021Z" fill="#2F2E41"/>
<path d="M312.372 47.9944H312.573L312.354 48.0177L312.372 47.9944Z" fill="#F09898"/>
<path d="M312.298 48.0224L311.479 48.1533C311.751 48.1019 312.022 48.0598 312.298 48.0224Z" fill="url(#paint0_linear_154_867)"/>
<path d="M287.975 67.0571C287.975 67.0571 276.753 56.1347 283.351 46.255C283.351 46.255 268.954 21.4739 282.598 17.9672C282.598 17.9672 281.49 -0.436276 297.443 0.00791331C313.396 0.452102 319.381 18.07 319.381 18.07C319.381 18.07 334.563 21.4085 327.04 41.7523C327.04 41.7523 336.518 66.164 323.155 77.1378C309.791 88.1116 287.975 67.0571 287.975 67.0571Z" fill="#2F2E41"/>
<path d="M315.991 57.4626C314.654 67.0618 293.001 62.3861 290.186 56.9951C287.372 51.604 296.064 49.4345 297.2 46.5309C297.667 45.2872 297.565 43.7582 297.275 42.4163C297.027 41.3043 296.664 40.2214 296.19 39.1854C293.95 28.9831 306.476 33.3408 306.476 33.3408C306.001 34.3369 305.702 35.408 305.593 36.5063C305.177 40.7144 307.589 44.4549 309.45 46.2223C312.045 48.7425 317.329 47.8635 315.991 57.4626Z" fill="#F9B499"/>
<path d="M294.694 49.1165C294.694 49.1165 281.653 52.3895 279.919 62.7882C278.184 73.1869 284.543 84.5207 282.808 94.8493C281.074 105.178 273.63 129.449 281.317 129.795C289.003 130.141 321.808 131.53 322.799 128.393C323.791 125.255 317.188 101.045 318.17 94.0217C319.152 86.9988 326.119 50.7015 316.422 48.2328C306.724 45.764 294.1 58.8325 294.1 58.8325C294.1 58.8325 288.751 54.6385 294.694 49.1165Z" fill="#85339B"/>
<path d="M298.168 136.159C301.071 135.991 303.428 131.558 304.629 127.902C305.728 124.54 305.12 123.525 308.926 119.238L301.445 117.91C301.445 117.91 300.071 124.311 297.017 126.027C294.862 127.233 293.277 130.861 293.174 133.69C293.168 133.851 293.203 134.012 293.275 134.156C293.346 134.301 293.453 134.425 293.585 134.518C294.422 135.083 296.377 136.262 298.168 136.159Z" fill="#F9B499"/>
<path d="M299.673 120.374L308.431 121.87C308.431 121.87 316.038 98.66 317.254 90.2671C318.47 81.8743 326.666 53.8436 318.923 49.2381C313.897 46.2503 305.714 47.8354 306.331 68.3289C306.949 88.8224 306.121 108.479 299.673 120.374Z" fill="#85339B"/>
<path opacity="0.2" d="M299.673 120.374L308.431 121.87C308.431 121.87 316.038 98.66 317.254 90.2671C318.47 81.8743 326.666 53.8436 318.923 49.2381C313.897 46.2503 305.714 47.8354 306.331 68.3289C306.949 88.8224 306.121 108.479 299.673 120.374Z" fill="black"/>
<path d="M58.7714 32.6536C57.4998 26.8313 54.728 23.1679 52.5683 23.2137C50.4087 23.2595 47.8549 26.9357 46.7672 32.6536C46.5141 34.0149 46.3544 35.391 46.2891 36.7727H59.3809C59.276 35.3877 59.0723 34.0114 58.7714 32.6536ZM52.8389 26.4036C53.2274 26.4041 53.607 26.5162 53.9298 26.7256C54.2526 26.935 54.504 27.2325 54.6525 27.5803C54.8009 27.9282 54.8396 28.3109 54.7637 28.68C54.6877 29.0492 54.5006 29.3883 54.2259 29.6544C53.9513 29.9206 53.6013 30.1019 53.2204 30.1755C52.8394 30.249 52.4445 30.2115 52.0855 30.0677C51.7265 29.9239 51.4195 29.6802 51.2034 29.3674C50.9872 29.0547 50.8716 28.6869 50.8711 28.3104C50.8707 28.0599 50.9214 27.8118 51.0202 27.5803C51.119 27.3488 51.2639 27.1385 51.4467 26.9614C51.6295 26.7842 51.8466 26.6438 52.0855 26.5481C52.3244 26.4524 52.5804 26.4033 52.8389 26.4036Z" fill="#D1D3D4"/>
<path d="M105.203 40.5132H1.87012V189.2H105.203V40.5132Z" fill="white"/>
<path d="M107.073 191.07H0V38.643H107.073V191.07ZM3.82088 187.258H103.262V42.4571H3.82088V187.258Z" fill="#D1D3D4"/>
<path d="M68.2646 35.8376H38.3403V45.6565H68.2646V35.8376Z" fill="#D1D3D4"/>
<path d="M37.767 72.7754H19.2629C18.9902 72.7754 18.7287 72.6769 18.536 72.5015C18.3432 72.3261 18.2349 72.0883 18.2349 71.8403C18.2349 71.5923 18.3432 71.3544 18.536 71.1791C18.7287 71.0037 18.9902 70.9052 19.2629 70.9052H37.7798C38.0525 70.9052 38.3139 71.0037 38.5067 71.1791C38.6995 71.3544 38.8078 71.5923 38.8078 71.8403C38.8078 71.9641 38.7808 72.0866 38.7284 72.2008C38.6759 72.3151 38.599 72.4187 38.5022 72.5057C38.4054 72.5926 38.2905 72.6613 38.1643 72.7076C38.0381 72.7539 37.903 72.7769 37.767 72.7754Z" fill="#E1E1E1"/>
<path d="M89.6733 85.3997H19.2694C18.995 85.3997 18.7319 85.3012 18.5379 85.1259C18.3439 84.9505 18.2349 84.7126 18.2349 84.4646C18.2349 84.2166 18.3439 83.9787 18.5379 83.8034C18.7319 83.628 18.995 83.5295 19.2694 83.5295H89.6733C89.9476 83.5295 90.2108 83.628 90.4048 83.8034C90.5988 83.9787 90.7078 84.2166 90.7078 84.4646C90.7078 84.7126 90.5988 84.9505 90.4048 85.1259C90.2108 85.3012 89.9476 85.3997 89.6733 85.3997Z" fill="#E4E4E4"/>
<path d="M89.6733 91.0105H19.2694C18.995 91.0105 18.7319 90.912 18.5379 90.7366C18.3439 90.5613 18.2349 90.3234 18.2349 90.0754C18.2349 89.8274 18.3439 89.5895 18.5379 89.4142C18.7319 89.2388 18.995 89.1403 19.2694 89.1403H89.6733C89.9476 89.1403 90.2108 89.2388 90.4048 89.4142C90.5988 89.5895 90.7078 89.8274 90.7078 90.0754C90.7078 90.3234 90.5988 90.5613 90.4048 90.7366C90.2108 90.912 89.9476 91.0105 89.6733 91.0105Z" fill="#E4E4E4"/>
<path d="M89.6733 96.6213H19.2694C18.995 96.6213 18.7319 96.4982 18.5379 96.279C18.3439 96.0598 18.2349 95.7624 18.2349 95.4524C18.2349 95.1424 18.3439 94.8451 18.5379 94.6259C18.7319 94.4067 18.995 94.2835 19.2694 94.2835H89.6733C89.9476 94.2835 90.2108 94.4067 90.4048 94.6259C90.5988 94.8451 90.7078 95.1424 90.7078 95.4524C90.7078 95.7624 90.5988 96.0598 90.4048 96.279C90.2108 96.4982 89.9476 96.6213 89.6733 96.6213Z" fill="#E4E4E4"/>
<path d="M89.6733 101.765H19.2694C18.995 101.765 18.7319 101.666 18.5379 101.491C18.3439 101.315 18.2349 101.077 18.2349 100.829C18.2349 100.581 18.3439 100.344 18.5379 100.168C18.7319 99.9928 18.995 99.8943 19.2694 99.8943H89.6733C89.9476 99.8943 90.2108 99.9928 90.4048 100.168C90.5988 100.344 90.7078 100.581 90.7078 100.829C90.7078 101.077 90.5988 101.315 90.4048 101.491C90.2108 101.666 89.9476 101.765 89.6733 101.765Z" fill="#E4E4E4"/>
<path d="M89.6733 107.375H19.2694C18.995 107.375 18.7319 107.277 18.5379 107.102C18.3439 106.926 18.2349 106.688 18.2349 106.44C18.2349 106.192 18.3439 105.954 18.5379 105.779C18.7319 105.604 18.995 105.505 19.2694 105.505H89.6733C89.9476 105.505 90.2108 105.604 90.4048 105.779C90.5988 105.954 90.7078 106.192 90.7078 106.44C90.7078 106.688 90.5988 106.926 90.4048 107.102C90.2108 107.277 89.9476 107.375 89.6733 107.375Z" fill="#E4E4E4"/>
<path d="M89.6733 112.986H19.2694C18.995 112.986 18.7319 112.888 18.5379 112.712C18.3439 112.537 18.2349 112.299 18.2349 112.051C18.2349 111.803 18.3439 111.565 18.5379 111.39C18.7319 111.214 18.995 111.116 19.2694 111.116H89.6733C89.9476 111.116 90.2108 111.214 90.4048 111.39C90.5988 111.565 90.7078 111.803 90.7078 112.051C90.7078 112.299 90.5988 112.537 90.4048 112.712C90.2108 112.888 89.9476 112.986 89.6733 112.986Z" fill="#E4E4E4"/>
<path d="M89.6733 119.065H19.2694C18.995 119.065 18.7319 118.941 18.5379 118.722C18.3439 118.503 18.2349 118.206 18.2349 117.896C18.2349 117.586 18.3439 117.288 18.5379 117.069C18.7319 116.85 18.995 116.727 19.2694 116.727H89.6733C89.9476 116.727 90.2108 116.85 90.4048 117.069C90.5988 117.288 90.7078 117.586 90.7078 117.896C90.7078 118.206 90.5988 118.503 90.4048 118.722C90.2108 118.941 89.9476 119.065 89.6733 119.065Z" fill="#E4E4E4"/>
<path d="M89.6733 124.208H19.2694C18.995 124.208 18.7319 124.109 18.5379 123.934C18.3439 123.759 18.2349 123.521 18.2349 123.273C18.2349 123.025 18.3439 122.787 18.5379 122.611C18.7319 122.436 18.995 122.338 19.2694 122.338H89.6733C89.9476 122.338 90.2108 122.436 90.4048 122.611C90.5988 122.787 90.7078 123.025 90.7078 123.273C90.7078 123.521 90.5988 123.759 90.4048 123.934C90.2108 124.109 89.9476 124.208 89.6733 124.208Z" fill="#E4E4E4"/>
<path d="M89.9526 127.481H18.9901C18.573 127.481 18.2349 127.862 18.2349 128.333V128.966C18.2349 129.437 18.573 129.819 18.9901 129.819H89.9526C90.3697 129.819 90.7078 129.437 90.7078 128.966V128.333C90.7078 127.862 90.3697 127.481 89.9526 127.481Z" fill="#E4E4E4"/>
<path d="M89.6733 135.429H19.2694C18.995 135.429 18.7319 135.306 18.5379 135.087C18.3439 134.868 18.2349 134.571 18.2349 134.261C18.2349 133.951 18.3439 133.653 18.5379 133.434C18.7319 133.215 18.995 133.092 19.2694 133.092H89.6733C89.9476 133.092 90.2108 133.215 90.4048 133.434C90.5988 133.653 90.7078 133.951 90.7078 134.261C90.7078 134.571 90.5988 134.868 90.4048 135.087C90.2108 135.306 89.9476 135.429 89.6733 135.429Z" fill="#E4E4E4"/>
<path d="M89.6733 140.573H19.2694C18.995 140.573 18.7319 140.474 18.5379 140.299C18.3439 140.123 18.2349 139.886 18.2349 139.638C18.2349 139.39 18.3439 139.152 18.5379 138.976C18.7319 138.801 18.995 138.702 19.2694 138.702H89.6733C89.9476 138.702 90.2108 138.801 90.4048 138.976C90.5988 139.152 90.7078 139.39 90.7078 139.638C90.7078 139.886 90.5988 140.123 90.4048 140.299C90.2108 140.474 89.9476 140.573 89.6733 140.573Z" fill="#E4E4E4"/>
<path d="M89.6757 146.651H30.9558C30.6821 146.651 30.4196 146.553 30.2261 146.377C30.0325 146.202 29.9238 145.964 29.9238 145.716C29.9238 145.468 30.0325 145.23 30.2261 145.055C30.4196 144.879 30.6821 144.781 30.9558 144.781H89.6757C89.9493 144.781 90.2118 144.879 90.4053 145.055C90.5989 145.23 90.7076 145.468 90.7076 145.716C90.7076 145.964 90.5989 146.202 90.4053 146.377C90.2118 146.553 89.9493 146.651 89.6757 146.651Z" fill="#E4E4E4"/>
<path d="M90.1952 178.446H54.2827C54.1467 178.446 54.0163 178.396 53.9202 178.309C53.824 178.221 53.77 178.102 53.77 177.978C53.77 177.854 53.824 177.735 53.9202 177.647C54.0163 177.56 54.1467 177.51 54.2827 177.51H90.1952C90.3312 177.51 90.4616 177.56 90.5577 177.647C90.6538 177.735 90.7078 177.854 90.7078 177.978C90.7078 178.102 90.6538 178.221 90.5577 178.309C90.4616 178.396 90.3312 178.446 90.1952 178.446Z" fill="#E1E1E1"/>
<path d="M89.9534 149.924H39.5628C39.146 149.924 38.8081 150.306 38.8081 150.776V151.41C38.8081 151.88 39.146 152.262 39.5628 152.262H89.9534C90.3702 152.262 90.7081 151.88 90.7081 151.41V150.776C90.7081 150.306 90.3702 149.924 89.9534 149.924Z" fill="#E4E4E4"/>
<path d="M34.401 170.798C35.5648 165.866 32.5109 160.926 27.5798 159.762C22.6486 158.598 17.7077 161.652 16.5439 166.583C15.38 171.514 18.434 176.455 23.3651 177.619C28.2962 178.783 33.2371 175.729 34.401 170.798Z" fill="#E4E4E4"/>
<path d="M153.708 256.216L154.934 256.618L155.565 256.829L157.617 257.507L167.969 260.915L170.924 261.888L171.261 262L171.317 261.827V261.78C171.406 261.495 171.485 261.205 171.546 260.915C171.779 259.736 171.711 258.517 171.35 257.371C171.266 257.107 171.168 256.848 171.055 256.595C171.008 256.492 170.962 256.389 170.91 256.286C170.487 255.441 169.901 254.689 169.185 254.073C168.469 253.456 167.638 252.988 166.74 252.695L165.295 249.67L163.476 249.263L162.644 249.32L162.083 249.357L157.875 249.642L157.557 249.666L156.023 249.161L155.462 250.863L154.639 253.364L154.326 254.299L153.708 256.216Z" fill="#85339B"/>
<path d="M206.955 254.416V261.846H225.438V261.612C225.438 259.704 224.681 257.875 223.332 256.525C221.984 255.176 220.154 254.417 218.247 254.416L215.783 251.854L214.146 252.415L208.853 254.285L208.564 254.402L206.955 254.416Z" fill="#85339B"/>
<path d="M279.531 260.406H274.93L274.112 256.062L272.012 260.401H259.823C259.239 260.401 258.67 260.214 258.2 259.868C257.729 259.521 257.382 259.034 257.208 258.477C257.034 257.919 257.043 257.321 257.233 256.768C257.424 256.216 257.785 255.739 258.266 255.407L268 248.684V244.298L278.24 244.906L279.531 260.406Z" fill="#85339B"/>
<path d="M321.546 260.476L316.949 260.42L316.183 256.071L314.027 260.382L301.842 260.228C301.258 260.22 300.692 260.027 300.226 259.675C299.76 259.323 299.418 258.831 299.251 258.272C299.084 257.712 299.1 257.114 299.297 256.564C299.494 256.014 299.862 255.542 300.346 255.215L310.165 248.613L310.216 244.228L320.447 244.966L321.546 260.476Z" fill="#85339B"/>
<path d="M180.683 43.8938C180.796 42.971 180.846 42.0414 180.832 41.1118C180.832 41.1118 184.863 44.9786 189.833 44.2585C189.833 44.2538 186.934 46.8628 180.683 43.8938Z" fill="#F4A48E"/>
<path d="M188.158 44.5114C195.544 44.0907 201.04 35.1075 200.433 24.447C199.825 13.7864 193.345 5.48542 185.959 5.90614C178.573 6.32686 173.077 15.31 173.684 25.9705C174.292 36.6311 180.772 44.9321 188.158 44.5114Z" fill="#F9B499"/>
<path d="M175.337 33.8458L176.502 28.7025C176.502 28.7025 173.252 25.9859 174.304 22.9421C175.113 20.6042 177.741 22.7223 177.741 22.7223C177.741 22.7223 180.149 19.0613 181.014 16.5271C181.014 16.5271 190.945 17.5183 195.443 13.7731C196.079 13.9554 199.917 18.1261 199.96 20.5435C199.96 20.5435 205.5 13.8058 205.379 7.67601C205.21 -0.964638 166.103 -2.48423 170.779 12.3236C170.732 12.3143 156.77 19.6785 175.337 33.8458Z" fill="#2F2E41"/>
<path d="M297.499 44.3894C297.499 44.3894 297.256 41.7663 296.854 40.8639C299.984 40.9953 303.061 40.0258 305.551 38.124C305.551 38.124 301.749 44.0574 297.499 44.3894Z" fill="#F4A48E"/>
<path d="M298.229 42.1498C304.387 42.1498 309.38 34.8167 309.38 25.7709C309.38 16.7251 304.387 9.39202 298.229 9.39202C292.07 9.39202 287.077 16.7251 287.077 25.7709C287.077 34.8167 292.07 42.1498 298.229 42.1498Z" fill="#F9B499"/>
<path d="M285.684 9.38727C285.684 9.38727 291.725 21.9461 311.479 19.1407L310.932 11.9262L299.664 6.04884L285.684 9.38727Z" fill="#2F2E41"/>
<path d="M309.909 28.9971C311.228 28.9971 312.298 27.224 312.298 25.0368C312.298 22.8496 311.228 21.0765 309.909 21.0765C308.589 21.0765 307.52 22.8496 307.52 25.0368C307.52 27.224 308.589 28.9971 309.909 28.9971Z" fill="#F9B499"/>
<defs>
<linearGradient id="paint0_linear_154_867" x1="311.479" y1="48.0879" x2="312.298" y2="48.0879" gradientUnits="userSpaceOnUse">
<stop stop-color="#FFDC17"/>
<stop offset="0.52" stop-color="#FDBF20"/>
<stop offset="1" stop-color="#FAA02A"/>
</linearGradient>
</defs>
</svg>
