<svg width="696" height="457" viewBox="0 0 696 457" fill="none" xmlns="http://www.w3.org/2000/svg">
<path d="M695.246 372.442H6.40736V372.785H695.246V372.442Z" fill="#EBEBEB"/>
<path d="M626.219 394.605H580.589V394.948H626.219V394.605Z" fill="#EBEBEB"/>
<path d="M462.718 398.352H450.749V398.695H462.718V398.352Z" fill="#EBEBEB"/>
<path d="M579.218 381.822H552.776V382.165H579.218V381.822Z" fill="#EBEBEB"/>
<path d="M138.177 384.137H78.6753V384.48H138.177V384.137Z" fill="#EBEBEB"/>
<path d="M159.174 384.137H150.454V384.48H159.174V384.137Z" fill="#EBEBEB"/>
<path d="M316.587 389.95H187.527V390.293H316.587V389.95Z" fill="#EBEBEB"/>
<path d="M294.339 234.354C293.949 234.863 293.46 235.287 292.902 235.601C292.343 235.915 291.726 236.112 291.089 236.18C289.931 236.315 288.762 236.029 287.797 235.374C287.127 236.502 286.286 237.517 285.302 238.384C284.55 239.119 283.588 239.601 282.55 239.764C280.123 239.996 278.769 238.718 278.417 235.897C278.141 231.905 278.984 227.914 280.852 224.374C281.429 223.031 282.272 221.817 283.33 220.808C284.145 220.035 285.189 219.55 286.305 219.427C286.881 219.346 287.467 219.39 288.023 219.557C288.58 219.724 289.094 220.011 289.529 220.396C290.358 221.216 290.85 222.317 290.909 223.483C291.011 225.11 290.867 226.743 290.48 228.327C290.073 230.226 289.457 232.075 288.646 233.84C288.938 234.116 289.292 234.319 289.677 234.434C290.063 234.548 290.47 234.571 290.866 234.5C291.337 234.433 291.789 234.267 292.191 234.013C292.593 233.759 292.936 233.422 293.198 233.025C294.032 231.787 294.655 230.42 295.042 228.978C295.086 228.808 295.182 228.655 295.316 228.541C295.455 228.437 295.617 228.37 295.788 228.344C296.032 228.32 296.275 228.394 296.465 228.55C296.558 228.617 296.636 228.705 296.692 228.805C296.748 228.906 296.782 229.018 296.791 229.133C296.808 229.246 296.808 229.362 296.791 229.476C296.284 231.24 295.452 232.894 294.339 234.354ZM287.703 229.433C287.797 229.535 287.865 229.659 287.901 229.793C287.937 229.928 287.939 230.069 287.908 230.204C287.86 230.383 287.837 230.568 287.84 230.753C287.823 230.895 287.823 231.039 287.84 231.182C288.347 229.844 288.723 228.46 288.963 227.049C289.2 225.891 289.275 224.705 289.186 223.525C289.181 223.164 289.103 222.807 288.955 222.477C288.808 222.147 288.594 221.85 288.328 221.605C288.072 221.396 287.775 221.243 287.456 221.156C287.137 221.069 286.803 221.049 286.477 221.099C285.644 221.218 284.884 221.639 284.342 222.282C283.595 223.098 282.981 224.027 282.524 225.034C280.824 228.263 280.033 231.894 280.235 235.537C280.415 237.252 281.092 238.032 282.335 237.904C283.197 237.76 283.98 237.316 284.547 236.652C285.371 235.795 286.08 234.836 286.657 233.797C286.365 233.173 286.185 232.502 286.125 231.816C286.048 231.158 286.048 230.494 286.125 229.836C286.136 229.64 286.222 229.455 286.365 229.321C286.542 229.153 286.777 229.059 287.021 229.059C287.265 229.059 287.5 229.153 287.677 229.321L287.703 229.433Z" fill="#E0E0E0"/>
<path d="M313.501 227.401C313.527 227.528 313.527 227.659 313.501 227.787C312.752 230.31 311.677 232.726 310.303 234.971C309.921 235.608 309.402 236.152 308.784 236.563C308.165 236.974 307.463 237.241 306.728 237.346C306.305 237.41 305.874 237.376 305.466 237.246C305.059 237.117 304.687 236.896 304.378 236.6C303.761 235.918 303.403 235.042 303.367 234.123C303.273 233.16 303.323 232.19 303.513 231.242C303.71 230.204 303.993 228.953 304.37 227.504C304.747 226.055 305.073 224.751 305.227 223.868C305.391 223.044 305.432 222.201 305.347 221.365C305.359 221.111 305.32 220.858 305.234 220.62C305.147 220.381 305.015 220.162 304.843 219.975C304.672 219.788 304.466 219.636 304.236 219.529C304.006 219.422 303.757 219.361 303.504 219.35C303.319 219.34 303.134 219.361 302.955 219.41C301.806 219.53 300.649 220.645 299.466 222.78C298.309 224.843 297.416 227.044 296.808 229.33L294.716 237.904C294.693 238.018 294.647 238.126 294.58 238.222C294.514 238.318 294.429 238.399 294.33 238.461C294.122 238.588 293.875 238.634 293.636 238.589C293.523 238.565 293.416 238.519 293.322 238.452C293.228 238.386 293.148 238.302 293.087 238.204C293.021 238.103 292.978 237.991 292.959 237.873C292.939 237.754 292.945 237.634 292.975 237.518L295.385 227.778L297.605 218.793C297.671 218.56 297.826 218.364 298.036 218.245C298.247 218.126 298.495 218.095 298.728 218.158C298.895 218.211 299.046 218.305 299.166 218.433C299.263 218.537 299.33 218.664 299.362 218.803C299.393 218.941 299.388 219.086 299.346 219.221L299.097 220.079C299.508 219.439 300.048 218.891 300.683 218.472C301.318 218.053 302.034 217.771 302.784 217.644C303.23 217.533 303.694 217.511 304.149 217.581C304.604 217.65 305.041 217.809 305.434 218.048C305.827 218.287 306.169 218.602 306.439 218.974C306.71 219.346 306.904 219.768 307.011 220.216C307.096 220.543 307.131 220.881 307.113 221.219C307.191 222.139 307.139 223.066 306.959 223.971C306.779 224.974 306.479 226.329 306.102 228.035C305.725 229.416 305.45 230.607 305.287 231.533C305.113 232.332 305.058 233.153 305.124 233.968C305.143 234.436 305.288 234.889 305.545 235.28C305.675 235.411 305.835 235.508 306.011 235.563C306.187 235.619 306.374 235.63 306.556 235.597C307.113 235.488 307.637 235.249 308.084 234.898C308.531 234.548 308.889 234.097 309.128 233.582C310.236 231.567 311.135 229.444 311.812 227.246C311.86 227.08 311.956 226.933 312.089 226.822C312.222 226.712 312.386 226.645 312.558 226.629C312.685 226.604 312.816 226.604 312.944 226.629C313.102 226.688 313.24 226.793 313.339 226.931C313.438 227.068 313.495 227.232 313.501 227.401Z" fill="#E0E0E0"/>
<path d="M346.184 224.117C346.201 224.245 346.201 224.375 346.184 224.503C345.482 227.021 344.428 229.429 343.054 231.653C342.66 232.299 342.128 232.849 341.497 233.266C340.866 233.682 340.151 233.954 339.402 234.063C338.989 234.13 338.566 234.099 338.168 233.971C337.77 233.842 337.408 233.621 337.113 233.325C336.49 232.649 336.125 231.775 336.084 230.856C336.01 229.937 336.056 229.011 336.221 228.104C336.333 227.435 336.624 226.063 337.079 223.963C337.533 221.862 337.85 220.533 337.996 220.044C336.624 219.753 335.673 219.513 334.995 219.341C334.414 219.201 333.841 219.026 333.28 218.818C332.913 220.138 332.475 221.438 331.969 222.711L330.168 227.572C330.127 227.731 330.037 227.873 329.911 227.977C329.785 228.082 329.629 228.144 329.465 228.155C329.323 228.181 329.178 228.181 329.036 228.155C328.878 228.1 328.74 228.001 328.638 227.868C328.536 227.736 328.475 227.576 328.462 227.409C328.453 227.281 328.453 227.152 328.462 227.024L331.094 219.41L331.463 218.115C330.805 217.814 330.233 217.353 329.797 216.776C329.362 216.198 329.077 215.521 328.968 214.806C328.913 214.441 328.934 214.069 329.032 213.713C329.129 213.357 329.3 213.025 329.534 212.74C329.742 212.478 330.001 212.263 330.296 212.106C330.591 211.95 330.915 211.856 331.248 211.831C331.579 211.78 331.917 211.806 332.236 211.905C332.556 212.005 332.848 212.176 333.092 212.405C333.607 212.927 333.912 213.62 333.949 214.352C333.986 214.636 333.986 214.924 333.949 215.209C333.906 215.535 333.855 215.861 333.786 216.178C333.718 216.495 333.632 216.838 333.572 217.129C334.868 217.574 336.191 217.938 337.533 218.218C338.193 218.338 338.742 218.467 339.171 218.561C339.394 218.649 339.579 218.814 339.692 219.026C339.805 219.238 339.839 219.484 339.788 219.719C339.582 220.473 339.222 221.974 338.699 224.246C338.176 226.518 337.902 227.898 337.842 228.378C337.713 229.154 337.662 229.941 337.687 230.727C337.816 231.893 338.296 232.442 339.068 232.348C339.646 232.242 340.191 231.999 340.656 231.639C341.121 231.28 341.494 230.814 341.743 230.282C342.818 228.288 343.68 226.188 344.315 224.014C344.358 223.847 344.451 223.698 344.581 223.584C344.711 223.471 344.872 223.4 345.044 223.38C345.172 223.362 345.301 223.362 345.429 223.38C345.623 223.39 345.807 223.47 345.946 223.606C346.085 223.741 346.17 223.923 346.184 224.117ZM332.063 213.777C332.002 213.708 331.924 213.655 331.837 213.623C331.751 213.592 331.657 213.583 331.566 213.597C331.473 213.592 331.381 213.606 331.294 213.637C331.207 213.668 331.127 213.716 331.058 213.778C330.99 213.841 330.934 213.916 330.895 213.999C330.855 214.083 330.833 214.173 330.828 214.266C330.825 214.331 330.825 214.397 330.828 214.463C330.871 214.823 331 215.167 331.206 215.466C331.426 215.811 331.718 216.103 332.063 216.324C332.244 215.737 332.336 215.128 332.337 214.514C332.339 214.254 332.248 214.002 332.08 213.803L332.063 213.777Z" fill="#E0E0E0"/>
<path d="M363.057 222.437C363.074 222.565 363.074 222.694 363.057 222.822V222.951C362.448 224.751 361.891 226.269 361.342 227.469C360.835 228.662 360.143 229.767 359.293 230.745C358.532 231.652 357.452 232.235 356.275 232.374C355.856 232.439 355.427 232.406 355.023 232.278C354.618 232.15 354.249 231.931 353.943 231.636C353.322 230.955 352.958 230.079 352.914 229.158C351.485 231.673 349.859 233.019 348.036 233.197C347.54 233.272 347.032 233.221 346.562 233.047C346.091 232.873 345.672 232.582 345.344 232.202C344.633 231.287 344.217 230.178 344.152 229.021C343.989 226.796 344.213 224.56 344.812 222.411C345.37 220.071 346.33 217.846 347.65 215.835C348.084 215.05 348.688 214.372 349.418 213.851C350.148 213.331 350.985 212.98 351.868 212.825C352.646 212.688 353.447 212.79 354.166 213.115C354.885 213.441 355.488 213.977 355.898 214.652L356.421 212.714C356.46 212.537 356.56 212.379 356.704 212.268C356.822 212.158 356.968 212.083 357.126 212.053C357.285 212.022 357.449 212.036 357.599 212.095C357.749 212.153 357.88 212.252 357.977 212.382C358.073 212.511 358.131 212.665 358.144 212.825C358.17 212.938 358.17 213.055 358.144 213.168L356.532 218.964L356.198 220.345C355.598 222.797 355.166 224.669 354.903 225.96C354.655 226.952 354.56 227.975 354.62 228.995C354.606 229.489 354.754 229.974 355.041 230.376C355.167 230.512 355.327 230.614 355.504 230.671C355.681 230.728 355.87 230.738 356.052 230.702C356.694 230.583 357.294 230.302 357.796 229.884C358.297 229.467 358.683 228.928 358.916 228.318C359.842 226.431 360.63 224.48 361.274 222.479V222.351C361.32 222.187 361.414 222.041 361.544 221.931C361.674 221.821 361.833 221.753 362.002 221.734C362.13 221.708 362.261 221.708 362.388 221.734C362.558 221.769 362.712 221.856 362.832 221.981C362.951 222.107 363.03 222.266 363.057 222.437ZM350.531 229.544C351.381 228.316 352.058 226.978 352.546 225.566C353.069 224.057 353.635 222.257 354.26 220.147L354.998 217.395C354.939 216.575 354.579 215.805 353.986 215.235C353.721 214.995 353.408 214.816 353.068 214.708C352.728 214.6 352.368 214.566 352.014 214.609C351.292 214.786 350.62 215.128 350.051 215.607C349.481 216.085 349.029 216.688 348.73 217.37C347.693 219.176 346.927 221.126 346.458 223.157C345.975 224.95 345.767 226.806 345.841 228.661C345.882 229.436 346.09 230.194 346.45 230.882C346.584 231.12 346.786 231.312 347.031 231.433C347.276 231.553 347.551 231.597 347.822 231.559C348.397 231.446 348.94 231.206 349.411 230.858C349.883 230.51 350.271 230.061 350.548 229.544H350.531Z" fill="#E0E0E0"/>
<path d="M371.751 221.554C371.776 221.681 371.776 221.812 371.751 221.939C370.961 224.414 369.839 226.771 368.416 228.944C367.924 229.686 367.274 230.31 366.511 230.769C365.749 231.229 364.894 231.513 364.009 231.602C363.582 231.67 363.145 231.636 362.734 231.504C362.323 231.371 361.949 231.143 361.642 230.839C360.99 230.184 360.604 229.31 360.562 228.387C360.517 227.172 360.624 225.957 360.879 224.769C361.189 223.003 361.59 221.254 362.08 219.53L363.623 213.331L360.974 213.606C360.859 213.619 360.743 213.609 360.633 213.577C360.522 213.544 360.42 213.49 360.331 213.417C360.152 213.261 360.039 213.044 360.013 212.808C359.996 212.581 360.063 212.355 360.202 212.174C360.274 212.079 360.366 212 360.471 211.942C360.576 211.885 360.692 211.85 360.811 211.839L364.034 211.514C364.214 210.828 364.472 209.747 364.823 208.29C365.175 206.832 365.423 205.718 365.578 205.066C365.62 204.886 365.72 204.724 365.862 204.605C366.004 204.486 366.181 204.416 366.366 204.406C366.508 204.385 366.654 204.4 366.788 204.449C366.923 204.498 367.043 204.581 367.138 204.689C367.231 204.795 367.296 204.923 367.327 205.061C367.358 205.198 367.355 205.342 367.318 205.478C367.215 205.949 367.009 206.858 366.709 208.093C366.409 209.327 366.126 210.468 365.912 211.334L368.664 211.042C368.782 211.032 368.901 211.047 369.013 211.085C369.126 211.124 369.229 211.185 369.316 211.265C369.487 211.412 369.599 211.616 369.633 211.839C369.646 211.956 369.636 212.074 369.602 212.186C369.568 212.298 369.511 212.402 369.436 212.491C369.364 212.581 369.274 212.655 369.172 212.71C369.071 212.765 368.959 212.798 368.844 212.808L365.415 213.151L364.712 216.186C364.643 216.392 364.326 217.661 363.734 220.002C363.143 222.342 362.705 224.349 362.5 225.506C362.304 226.412 362.232 227.341 362.285 228.267C362.302 228.727 362.475 229.168 362.774 229.518C362.901 229.658 363.061 229.764 363.239 229.827C363.417 229.89 363.608 229.908 363.794 229.879C364.509 229.769 365.189 229.498 365.782 229.085C366.375 228.671 366.865 228.128 367.215 227.495C368.383 225.579 369.307 223.526 369.967 221.382C370.028 221.218 370.135 221.075 370.275 220.97C370.415 220.865 370.582 220.803 370.756 220.79C370.884 220.773 371.014 220.773 371.142 220.79C371.309 220.841 371.457 220.941 371.566 221.077C371.674 221.213 371.739 221.379 371.751 221.554Z" fill="#E0E0E0"/>
<path d="M388.53 219.873C388.555 220 388.555 220.132 388.53 220.259C387.837 222.775 386.789 225.18 385.417 227.401C385.032 228.049 384.506 228.603 383.879 229.022C383.251 229.44 382.537 229.713 381.791 229.819C380.076 229.99 378.97 229.107 378.49 227.152C377.981 228.087 377.276 228.9 376.423 229.536C375.65 230.129 374.733 230.504 373.766 230.624C373.221 230.718 372.662 230.695 372.127 230.556C371.592 230.417 371.092 230.166 370.662 229.819C369.819 228.986 369.326 227.864 369.282 226.681C369.222 225.418 369.358 224.155 369.684 222.934C370.05 221.368 370.908 218.078 372.257 213.066L372.78 211.196C372.819 211.026 372.916 210.875 373.054 210.768C373.19 210.658 373.353 210.587 373.525 210.562C373.67 210.541 373.818 210.558 373.955 210.61C374.091 210.663 374.212 210.75 374.306 210.862C374.401 210.967 374.467 211.095 374.497 211.233C374.527 211.372 374.52 211.516 374.477 211.651L373.097 216.958C372.077 220.842 371.459 223.225 371.253 224.134C371.057 224.907 370.987 225.706 371.048 226.501C371.228 228.215 372.077 229.021 373.62 228.858C374.582 228.722 375.457 228.23 376.072 227.478C376.939 226.476 377.595 225.31 378.001 224.048C378.507 222.694 378.936 221.313 379.304 219.916C379.733 218.373 380.35 215.989 381.19 212.783L381.851 210.21C381.893 210.039 381.992 209.888 382.134 209.782C382.322 209.639 382.556 209.57 382.792 209.589C383.028 209.608 383.248 209.713 383.411 209.885C383.511 209.985 383.581 210.111 383.613 210.249C383.645 210.387 383.637 210.531 383.591 210.665C383.205 212.14 382.862 213.528 382.528 214.797L381.893 217.224C381.319 219.427 380.89 221.356 380.59 222.985C380.333 224.078 380.212 225.198 380.23 226.32C380.233 226.789 380.383 227.245 380.659 227.624C380.781 227.758 380.936 227.858 381.109 227.914C381.282 227.97 381.467 227.979 381.645 227.941C382.219 227.828 382.758 227.581 383.218 227.221C383.678 226.86 384.047 226.396 384.294 225.866C385.38 223.873 386.256 221.773 386.909 219.599C386.942 219.428 387.037 219.276 387.175 219.17C387.306 219.059 387.467 218.991 387.638 218.973C387.766 218.956 387.896 218.956 388.024 218.973C388.194 219.048 388.336 219.176 388.427 219.338C388.519 219.501 388.554 219.688 388.53 219.873Z" fill="#E0E0E0"/>
<path d="M397.155 218.964C397.18 219.092 397.18 219.223 397.155 219.35C396.365 221.82 395.243 224.17 393.819 226.338C393.328 227.08 392.678 227.703 391.915 228.163C391.153 228.623 390.298 228.907 389.413 228.995C388.984 229.067 388.544 229.036 388.13 228.904C387.716 228.773 387.339 228.546 387.029 228.241C386.394 227.58 386.017 226.713 385.966 225.797C385.906 225.07 385.94 224.338 386.069 223.62C386.189 222.762 386.437 221.433 386.823 219.624L388.538 212.765L389.395 209.027L390.93 202.46C390.958 202.346 391.009 202.24 391.08 202.147C391.151 202.054 391.24 201.977 391.342 201.92C391.546 201.817 391.775 201.775 392.002 201.8C392.117 201.827 392.225 201.877 392.319 201.948C392.414 202.019 392.492 202.108 392.551 202.211C392.616 202.306 392.661 202.415 392.68 202.529C392.699 202.643 392.693 202.76 392.662 202.871L391.119 209.447C390.733 211.162 390.416 212.38 390.201 213.22L388.555 220.079C388.051 221.914 387.764 223.801 387.698 225.703C387.716 226.165 387.891 226.607 388.195 226.955C388.322 227.095 388.481 227.203 388.659 227.269C388.837 227.334 389.027 227.356 389.215 227.332C389.936 227.233 390.625 226.968 391.227 226.559C391.829 226.15 392.329 225.608 392.688 224.974C393.849 223.049 394.773 220.991 395.44 218.844C395.502 218.681 395.609 218.539 395.749 218.435C395.889 218.33 396.055 218.267 396.229 218.253C396.357 218.235 396.486 218.235 396.614 218.253C396.761 218.31 396.889 218.407 396.985 218.532C397.08 218.658 397.139 218.807 397.155 218.964Z" fill="#E0E0E0"/>
<path d="M320.669 284.184C320.753 284.861 320.694 285.548 320.496 286.201C320.298 286.854 319.965 287.458 319.52 287.974C318.878 288.772 318.012 289.361 317.033 289.664C316.054 289.967 315.008 289.971 314.027 289.675C313.046 289.38 312.175 288.798 311.527 288.004C310.879 287.211 310.483 286.242 310.389 285.222L309.205 273.467C309.134 272.794 309.197 272.113 309.389 271.464C309.582 270.814 309.901 270.209 310.328 269.684C310.755 269.158 311.282 268.722 311.878 268.4C312.474 268.078 313.127 267.877 313.801 267.809H313.844C314.519 267.739 315.202 267.803 315.852 267.999C316.503 268.194 317.108 268.516 317.633 268.947C318.159 269.377 318.593 269.907 318.913 270.507C319.232 271.106 319.43 271.762 319.494 272.439L320.669 284.184ZM316.124 272.713C316.076 272.219 315.833 271.766 315.449 271.451C315.066 271.137 314.573 270.988 314.08 271.037C313.586 271.086 313.132 271.328 312.818 271.712C312.504 272.095 312.355 272.588 312.403 273.082L313.569 284.845C313.592 285.091 313.664 285.33 313.78 285.548C313.896 285.765 314.055 285.958 314.247 286.114C314.535 286.345 314.885 286.487 315.254 286.522C315.622 286.556 315.992 286.481 316.319 286.307C316.645 286.132 316.913 285.866 317.088 285.54C317.264 285.215 317.341 284.845 317.308 284.476L316.124 272.713Z" fill="#E0E0E0"/>
<path d="M364.832 279.795C364.9 280.47 364.834 281.153 364.639 281.803C364.443 282.453 364.121 283.058 363.692 283.584C363.262 284.11 362.733 284.546 362.135 284.868C361.537 285.189 360.882 285.39 360.206 285.458C359.531 285.526 358.848 285.46 358.198 285.265C357.548 285.069 356.943 284.747 356.417 284.318C355.891 283.888 355.455 283.359 355.133 282.761C354.812 282.163 354.611 281.508 354.543 280.832L353.369 269.078C353.298 268.404 353.36 267.723 353.553 267.074C353.745 266.424 354.064 265.82 354.491 265.294C354.918 264.768 355.445 264.332 356.041 264.01C356.637 263.688 357.29 263.487 357.964 263.419H358.016C358.692 263.336 359.378 263.394 360.03 263.591C360.683 263.787 361.287 264.117 361.805 264.559C362.33 264.989 362.765 265.519 363.084 266.118C363.404 266.717 363.601 267.373 363.666 268.049L364.832 279.795ZM360.288 268.323C360.266 268.074 360.196 267.832 360.08 267.611C359.964 267.389 359.805 267.193 359.613 267.034C359.421 266.874 359.199 266.755 358.96 266.682C358.721 266.608 358.47 266.584 358.221 266.608C357.977 266.624 357.739 266.692 357.523 266.807C357.307 266.923 357.118 267.083 356.97 267.277C356.659 267.666 356.511 268.161 356.558 268.658L357.784 280.421C357.804 280.667 357.874 280.907 357.991 281.126C358.107 281.344 358.267 281.536 358.462 281.69C358.647 281.853 358.866 281.974 359.102 282.045C359.339 282.116 359.589 282.135 359.833 282.101C360.081 282.083 360.323 282.015 360.544 281.902C360.765 281.789 360.961 281.633 361.121 281.443C361.281 281.252 361.401 281.032 361.474 280.795C361.548 280.557 361.573 280.308 361.548 280.061L360.288 268.323Z" fill="#E0E0E0"/>
<path d="M377.924 278.457C377.991 279.133 377.925 279.815 377.729 280.465C377.533 281.115 377.211 281.72 376.781 282.245C376.351 282.771 375.822 283.207 375.224 283.527C374.625 283.848 373.97 284.048 373.294 284.116C372.619 284.183 371.936 284.117 371.286 283.921C370.636 283.725 370.031 283.403 369.506 282.973C368.98 282.543 368.545 282.014 368.224 281.416C367.903 280.817 367.703 280.162 367.635 279.486L366.461 267.732C366.343 266.708 366.536 265.672 367.014 264.759C367.492 263.846 368.233 263.098 369.141 262.611C370.049 262.124 371.082 261.921 372.107 262.029C373.132 262.136 374.101 262.549 374.889 263.213C375.416 263.641 375.852 264.17 376.17 264.769C376.488 265.369 376.682 266.026 376.741 266.703L377.924 278.457ZM373.38 266.977C373.326 266.479 373.08 266.021 372.694 265.701C372.308 265.381 371.813 265.224 371.314 265.262C371.067 265.287 370.829 265.362 370.612 265.481C370.396 265.6 370.206 265.762 370.053 265.957C369.893 266.144 369.774 266.363 369.703 266.599C369.632 266.836 369.611 267.084 369.642 267.329L370.825 279.1C370.845 279.347 370.916 279.586 371.033 279.805C371.149 280.023 371.309 280.215 371.502 280.369C371.691 280.53 371.911 280.65 372.149 280.721C372.387 280.791 372.636 280.812 372.883 280.781C373.129 280.758 373.368 280.687 373.585 280.57C373.803 280.454 373.996 280.295 374.151 280.103C374.31 279.913 374.428 279.693 374.498 279.455C374.569 279.218 374.591 278.969 374.563 278.723L373.38 266.977Z" fill="#E0E0E0"/>
<path d="M380.282 34.7407L374.812 41.8397L385.735 46.7525L380.282 34.7407Z" fill="#F0F0F0"/>
<path d="M360.605 173.009L355.135 180.1L366.058 185.021L360.605 173.009Z" fill="#F0F0F0"/>
<path d="M352.949 77.3692L361.694 77.9094L360.605 87.7435L350.222 85.017L352.949 77.3692Z" fill="#F0F0F0"/>
<path d="M381.602 136.099L377.452 143.816L368.964 138.714L375.789 130.423L381.602 136.099Z" fill="#F0F0F0"/>
<path d="M327.279 194.623L336.024 195.172L334.944 205.006L324.552 202.271L327.279 194.623Z" fill="#F0F0F0"/>
<path d="M400.49 91.5759L406.003 92.6647C406.003 92.6647 397.806 98.169 401.63 102.507C405.454 106.846 398.878 110.712 398.878 110.712L393.931 107.377C393.931 107.377 398.312 104.093 396.126 99.7123C393.94 95.3311 400.49 91.5759 400.49 91.5759Z" fill="#F0F0F0"/>
<path d="M367.601 220.027L373.114 221.116C373.114 221.116 364.917 226.638 368.75 230.925C372.582 235.211 365.989 239.121 365.989 239.121L361.076 235.846C361.076 235.846 365.458 232.562 363.263 228.198C361.068 223.834 367.601 220.027 367.601 220.027Z" fill="#F0F0F0"/>
<path d="M281.555 205.521C281.476 204.707 281.64 203.888 282.026 203.167C282.412 202.447 283.003 201.857 283.725 201.473C284.446 201.088 285.265 200.926 286.079 201.008C286.892 201.089 287.664 201.409 288.295 201.929C288.926 202.449 289.389 203.144 289.625 203.926C289.861 204.709 289.859 205.544 289.621 206.326C289.382 207.108 288.917 207.802 288.284 208.319C287.651 208.836 286.879 209.155 286.065 209.233H285.988C284.91 209.317 283.843 208.975 283.014 208.281C282.186 207.587 281.662 206.596 281.555 205.521Z" fill="#F0F0F0"/>
<path d="M344.255 3.00936C341.751 4.7241 339.651 7.86208 338.202 10.4685C335.945 14.5224 335.104 19.213 335.812 23.7985C336.52 28.3839 338.737 32.6024 342.111 35.7867C342.442 34.3291 342.874 32.8966 343.406 31.4998C343.406 31.4998 336.821 24.1522 339.428 17.096C339.428 17.096 345.369 2.98364 348.002 6.31881L351.165 10.6057L343.449 31.5341L352.811 6.16449C349.022 -1.42325 344.255 3.00936 344.255 3.00936Z" fill="#85339B"/>
<path opacity="0.2" d="M344.255 3.00936C341.751 4.7241 339.651 7.86208 338.202 10.4685C335.945 14.5224 335.104 19.213 335.812 23.7985C336.52 28.3839 338.737 32.6024 342.111 35.7867C342.442 34.3291 342.874 32.8966 343.406 31.4998C343.406 31.4998 336.821 24.1522 339.428 17.096C339.428 17.096 345.369 2.98364 348.002 6.31881L351.165 10.6057L343.449 31.5341L352.811 6.16449C349.022 -1.42325 344.255 3.00936 344.255 3.00936Z" fill="black"/>
<path d="M384.911 24.0836C384.911 24.0836 391.05 20.8341 391.419 23.0633C391.419 23.0633 393.262 31.2169 388.084 38.2302C386.325 40.5897 383.896 42.3644 381.113 43.323C380.042 43.6917 378.721 44.1032 377.161 44.5062C376.566 45.955 375.885 47.3665 375.12 48.733C375.12 48.733 389.627 46.6325 392.936 36.8841C392.936 36.8841 399.958 18.8793 390.116 18.7421L386.746 19.248L384.911 24.0836Z" fill="#85339B"/>
<path opacity="0.2" d="M384.911 24.0836C384.911 24.0836 391.05 20.8341 391.419 23.0633C391.419 23.0633 393.262 31.2169 388.084 38.2302C386.325 40.5897 383.896 42.3644 381.113 43.323C380.042 43.6917 378.721 44.1032 377.161 44.5062C376.566 45.955 375.885 47.3665 375.12 48.733C375.12 48.733 389.627 46.6325 392.936 36.8841C392.936 36.8841 399.958 18.8793 390.116 18.7421L386.746 19.248L384.911 24.0836Z" fill="black"/>
<path d="M391.419 89.9125C391.419 89.9125 377.701 73.9397 383.831 67.6209C383.831 67.6209 396.246 49.7961 410.358 37.9044C410.358 37.9044 413.702 34.1919 420.012 40.8794C420.012 40.8794 435.616 35.3065 438.96 50.5335L443.787 82.8478C443.787 82.8478 443.787 105.139 462.727 111.81C457.477 111.082 452.425 109.313 447.868 106.606C447.868 106.606 456.442 119.235 467.185 127.405C467.185 127.405 453.57 148.788 424.719 148.497L391.419 89.9125Z" fill="#2F2E41"/>
<path opacity="0.2" d="M402.239 55.369C402.239 55.369 395.38 72.8423 406.217 86.9461L403.302 91.5844C403.302 91.5844 394.394 89.5353 391.419 89.9126C391.419 89.9126 389.19 75.3372 396.615 65.5203L402.239 55.369Z" fill="black"/>
<path opacity="0.2" d="M430.969 76.1689C430.969 76.1689 425.062 93.745 436.277 107.24L463.344 132.155C463.344 132.155 448.374 149.551 424.762 148.514L419.318 97.7061L422.481 88.3693C422.481 88.3693 427.454 84.2282 429.143 75.1829C429.662 75.6562 430.289 75.9948 430.969 76.1689Z" fill="black"/>
<path d="M385.477 375.503C378.421 380.707 366.161 378.847 366.161 378.847C354.655 337.625 337.327 236.129 337.327 236.129C354.861 238.701 376.552 232.434 385.109 238.092C377.675 265.58 385.477 375.503 385.477 375.503Z" fill="#2F2E41"/>
<path opacity="0.2" d="M385.477 375.503C378.421 380.707 366.161 378.847 366.161 378.847C354.655 337.625 337.327 236.129 337.327 236.129C354.861 238.701 376.552 232.434 385.109 238.092C377.675 265.58 385.477 375.503 385.477 375.503Z" fill="black"/>
<path d="M432.273 108.852C423.699 116.277 407.409 111.15 407.409 111.15C387.689 104.162 391.436 89.9126 391.436 89.9126C394.411 89.5354 403.319 91.5845 403.319 91.5845L407.409 85.0856L422.456 88.3693L419.292 97.7061L432.273 108.852Z" fill="#F9B499"/>
<path d="M403.302 102.833C403.204 102.833 403.11 102.794 403.041 102.725C402.972 102.656 402.933 102.562 402.933 102.465C402.933 98.5377 396.46 93.7107 396.4 93.6593C396.329 93.5988 396.283 93.5135 396.273 93.4207C396.262 93.3278 396.287 93.2344 396.342 93.1592C396.398 93.0841 396.48 93.0328 396.572 93.0158C396.664 92.9988 396.759 93.0174 396.837 93.0677C397.12 93.2735 403.696 98.1605 403.696 102.499C403.688 102.595 403.641 102.684 403.568 102.747C403.494 102.809 403.398 102.84 403.302 102.833Z" fill="#F7A48B"/>
<path d="M422.241 109.967C422.148 109.966 422.059 109.929 421.993 109.864C415.554 103.785 409.407 105.474 409.346 105.491C409.3 105.505 409.252 105.51 409.204 105.506C409.156 105.501 409.109 105.486 409.067 105.463C409.024 105.44 408.987 105.408 408.957 105.371C408.927 105.333 408.905 105.289 408.892 105.242C408.878 105.196 408.873 105.147 408.877 105.098C408.882 105.049 408.896 105.002 408.919 104.959C408.943 104.916 408.974 104.878 409.012 104.847C409.05 104.816 409.094 104.793 409.141 104.779C409.406 104.702 415.734 102.936 422.499 109.324C422.566 109.394 422.604 109.488 422.604 109.585C422.604 109.683 422.566 109.776 422.499 109.847C422.431 109.918 422.339 109.961 422.241 109.967Z" fill="#F7A48B"/>
<path d="M419.275 97.7061C419.275 97.7061 413.702 99.5666 410.701 95.1339L406.191 86.9718C406.191 86.9718 413.325 96.1371 422.413 88.395L419.275 97.7061Z" fill="#F7A48B"/>
<path d="M433.756 142.272L406.277 166.047L404.417 180.16C403.671 186.101 398.106 189.068 398.106 189.068L389.533 183.503C377.649 174.587 355.366 175.701 355.366 175.701C351.285 172.357 352.794 168.645 352.794 168.645L357.253 150.074C358.138 146.991 357.873 143.691 356.507 140.789C352.794 131.504 361.891 123.256 361.891 123.256L337.567 129.257C342.394 113.293 331.36 106.451 331.36 106.451L374.983 91.5673C385.271 88.0349 391.419 89.8954 391.419 89.8954C391.419 89.8954 387.706 104.145 407.392 111.133C407.392 111.133 423.733 116.277 432.255 108.835L435.042 111.956C438.678 115.959 440.772 121.125 440.949 126.531C441.241 137.514 433.756 142.272 433.756 142.272Z" fill="#85339B"/>
<path d="M398.081 189.068L397.703 191.297L382.271 183.263C373.86 178.565 354.286 179.782 354.286 179.782L355.401 175.701C355.401 175.701 377.692 174.587 389.567 183.503L398.081 189.068Z" fill="#85339B"/>
<path opacity="0.2" d="M398.081 189.068L397.703 191.297L382.271 183.263C373.86 178.565 354.286 179.782 354.286 179.782L355.401 175.701C355.401 175.701 377.692 174.587 389.567 183.503L398.081 189.068Z" fill="white"/>
<path d="M385.109 238.092C375.806 240.862 354.861 238.735 337.327 236.129C321.955 233.857 309.206 231.225 309.206 231.225C314.65 241.067 320.111 268.546 320.111 268.546C311.941 278.2 296.714 277.12 296.714 277.12L274.422 234.045C261.055 215.106 270.71 204.706 270.71 204.706C273.659 193.56 331.9 187.644 345.764 186.393C346.66 186.305 347.528 186.031 348.312 185.588C349.096 185.145 349.779 184.543 350.317 183.821C352.957 180.322 354.269 179.791 354.269 179.791C354.269 179.791 373.843 178.573 382.254 183.272L397.686 191.305C411.104 231.405 385.109 238.092 385.109 238.092Z" fill="#2F2E41"/>
<path d="M324.201 282.29C324.08 282.765 323.919 283.23 323.721 283.679C320.351 291.284 306.745 291.944 306.745 291.944C306.138 292.013 305.525 292.013 304.919 291.944C302.767 291.678 302.286 290.469 302.286 290.469L296.714 282.23C294.484 278.8 296.714 277.085 296.714 277.085C316.536 274.668 320.111 268.512 320.111 268.512C323.086 269.626 322.683 273.339 322.683 273.339L324.201 282.29Z" fill="#85339B"/>
<path d="M331.257 325.373C325.684 322.398 318.997 326.11 318.997 326.11C318.997 317.939 304.919 291.944 304.919 291.944C305.525 292.013 306.138 292.013 306.745 291.944C306.745 291.944 320.351 291.284 323.721 283.679L329.028 300.483V300.56C329.857 302.441 331.254 304.015 333.023 305.062L335.304 306.425C336.084 316.087 331.257 325.373 331.257 325.373Z" fill="#F9B499"/>
<path d="M334.635 338.739C330.511 355.449 319.374 359.53 319.374 359.53C315.284 359.899 317.513 352.474 317.513 352.474C319.374 346.533 318.997 326.101 318.997 326.101C327.167 322.389 331.257 325.364 331.257 325.364C336.453 314.218 335.338 306.416 335.338 306.416C336.838 307.027 338.127 308.061 339.051 309.391C339.428 314.947 334.635 338.739 334.635 338.739Z" fill="#85339B"/>
<path d="M319.031 330.783C318.948 330.784 318.867 330.758 318.801 330.708C318.735 330.658 318.687 330.587 318.666 330.507C318.646 330.426 318.652 330.341 318.686 330.265C318.719 330.189 318.778 330.127 318.851 330.088C319.211 329.891 327.656 325.321 331.154 329.231C331.22 329.304 331.254 329.4 331.25 329.498C331.245 329.596 331.201 329.688 331.128 329.754C331.056 329.82 330.96 329.854 330.862 329.849C330.764 329.845 330.671 329.801 330.605 329.728C327.502 326.299 319.288 330.714 319.202 330.757C319.149 330.782 319.089 330.791 319.031 330.783Z" fill="white"/>
<path d="M319.031 334.521C318.943 334.526 318.857 334.499 318.787 334.446C318.717 334.393 318.669 334.317 318.65 334.231C318.632 334.145 318.644 334.056 318.686 333.978C318.727 333.901 318.795 333.841 318.877 333.809C319.202 333.663 326.902 330.165 330.383 333.26C330.456 333.325 330.502 333.417 330.508 333.515C330.514 333.613 330.482 333.71 330.417 333.783C330.352 333.857 330.261 333.902 330.162 333.909C330.064 333.915 329.968 333.883 329.894 333.818C326.773 331.04 319.262 334.452 319.185 334.486C319.137 334.51 319.084 334.522 319.031 334.521Z" fill="white"/>
<path d="M340.405 311.878L336.453 341.714C334.035 354.112 325.453 359.127 322.349 360.576C322.021 360.727 321.658 360.783 321.301 360.737C320.943 360.692 320.605 360.547 320.326 360.319L319.374 359.53C319.374 359.53 330.52 355.441 334.601 338.731C334.601 338.731 339.428 314.964 339.051 309.391L339.831 310.171C340.052 310.392 340.219 310.661 340.319 310.957C340.419 311.253 340.448 311.568 340.405 311.878Z" fill="#2F2E41"/>
<path d="M365.501 376.481C365.501 376.481 362.431 378.478 364.292 382.937L367.412 391.356C367.693 392.127 368.159 392.817 368.769 393.366C369.379 393.914 370.114 394.305 370.911 394.503C372.762 394.948 375.712 395.086 380.256 394.074C380.256 394.074 389.173 392.591 388.83 387.395V375.906C388.775 375.535 388.639 375.18 388.433 374.867C388.227 374.554 387.954 374.289 387.635 374.092C387.315 373.895 386.957 373.771 386.584 373.727C386.211 373.684 385.834 373.722 385.477 373.84V375.503C385.477 375.503 379.536 380.339 366.161 378.847L365.501 376.481Z" fill="#85339B"/>
<path d="M391.419 412.276C387.706 419.332 383.617 416.734 383.617 416.734C379.904 413.013 373.963 414.505 373.963 414.505C374.622 412.212 374.748 409.798 374.331 407.449L370.902 394.503C381.628 395.669 386.935 391.253 386.935 391.253L388.058 398.498C388.427 402.588 390.287 404.44 390.287 404.44C391.268 405.459 391.934 406.739 392.208 408.126C392.456 409.559 392.176 411.034 391.419 412.276Z" fill="#F9B499"/>
<path d="M382.982 436.017C382.363 436.878 381.596 437.624 380.719 438.22C371.905 444.084 357.433 441.075 354.192 440.295C354.03 440.255 353.885 440.166 353.776 440.04C353.667 439.914 353.599 439.757 353.583 439.592V439.395C354.26 434.328 361.711 431.961 361.711 431.961C370.619 426.757 373.963 414.505 373.963 414.505C373.963 414.505 379.904 413.013 383.617 416.734C383.617 416.734 387.706 419.306 391.419 412.276C392.174 411.046 392.46 409.585 392.225 408.16H392.302C393.385 409.306 394.112 410.742 394.394 412.293C395.971 417.643 386 431.875 382.982 436.017Z" fill="#85339B"/>
<path d="M353.583 439.395V439.592C353.575 439.526 353.575 439.46 353.583 439.395V439.395Z" stroke="#FF0000" stroke-miterlimit="10"/>
<path d="M392.302 426.8C389.97 433.008 385.646 438.27 380.007 441.761C369.719 448.037 357.27 443.733 354.286 442.524C354.087 442.445 353.915 442.308 353.795 442.131C353.674 441.953 353.609 441.744 353.609 441.529V439.592C353.625 439.757 353.692 439.914 353.801 440.04C353.911 440.166 354.056 440.255 354.217 440.295C357.458 441.075 371.931 444.084 380.745 438.22C381.622 437.624 382.388 436.878 383.008 436.017C386.026 431.875 395.997 417.643 394.42 412.276C398.081 417.472 392.302 426.8 392.302 426.8Z" fill="#2F2E41"/>
<path d="M381.611 425.78C381.513 425.778 381.421 425.738 381.353 425.668C378.361 422.599 370.979 422.119 370.902 422.119C370.804 422.113 370.713 422.069 370.648 421.995C370.582 421.922 370.549 421.826 370.555 421.728C370.56 421.631 370.605 421.539 370.678 421.474C370.751 421.409 370.847 421.376 370.945 421.381C371.262 421.381 378.661 421.878 381.876 425.145C381.946 425.216 381.986 425.311 381.986 425.411C381.986 425.51 381.946 425.606 381.876 425.677C381.803 425.742 381.709 425.779 381.611 425.78Z" fill="white"/>
<path d="M384.191 422.119C384.13 422.121 384.069 422.107 384.015 422.078C383.961 422.049 383.915 422.007 383.883 421.956C381.611 418.629 372.857 418.217 372.737 418.209C372.688 418.207 372.641 418.195 372.597 418.174C372.553 418.154 372.514 418.125 372.481 418.089C372.448 418.053 372.423 418.011 372.407 417.966C372.39 417.92 372.383 417.871 372.385 417.823C372.384 417.773 372.393 417.724 372.412 417.678C372.431 417.633 372.46 417.592 372.497 417.558C372.534 417.525 372.577 417.5 372.625 417.485C372.672 417.47 372.722 417.465 372.771 417.472C373.148 417.472 381.988 417.909 384.466 421.544C384.493 421.584 384.513 421.629 384.523 421.677C384.533 421.724 384.534 421.773 384.525 421.821C384.517 421.869 384.499 421.914 384.472 421.955C384.446 421.996 384.411 422.031 384.371 422.058C384.317 422.094 384.255 422.114 384.191 422.119Z" fill="white"/>
<path opacity="0.2" d="M363.563 244.034C363.46 251.836 363.709 259.647 364.292 267.423C364.649 273.259 365.764 279.023 367.61 284.57C368.313 286.285 369.119 289.372 366.632 290.066C365.989 290.383 364.669 290.923 364.515 291.781C364.515 291.987 364.669 292.201 364.892 292.407L364.823 292.364C366.221 293.024 367.91 292.201 369.324 292.818C371.451 293.676 371.836 296.248 371.176 298.16C369.179 308.26 370.448 318.694 371.365 328.862C372.394 337.162 374.22 352.294 375.215 360.722C374.006 352.226 371.888 337.264 370.782 328.931C369.727 318.342 368.373 307.411 370.696 296.899C370.801 296.484 370.814 296.051 370.734 295.631C370.653 295.211 370.481 294.813 370.23 294.466C369.979 294.119 369.655 293.832 369.281 293.624C368.906 293.417 368.491 293.294 368.064 293.264C366.87 293.471 365.644 293.374 364.497 292.981C364.3 292.841 364.137 292.658 364.021 292.446C363.905 292.233 363.839 291.997 363.829 291.755C364.034 290.418 365.389 289.903 366.401 289.389C366.808 289.28 367.161 289.024 367.392 288.672C367.622 288.319 367.715 287.894 367.653 287.477C367.56 286.536 367.329 285.615 366.967 284.742C366.358 282.873 365.818 280.987 365.38 279.075C364.521 275.254 363.988 271.368 363.786 267.457C363.288 259.655 363.246 251.836 363.529 244.034H363.563Z" fill="black"/>
<path opacity="0.2" d="M348.593 185.407C357.398 182.672 368.939 186.264 371.742 195.755C366.812 187.421 357.758 185.021 348.593 185.407Z" fill="black"/>
<path opacity="0.2" d="M378.147 185.029L381.791 187.199C381.791 187.199 376.964 199.082 387.363 203.54C387.363 203.54 379.004 203.326 378.172 194.889C378.147 194.915 378.241 185.081 378.147 185.029Z" fill="black"/>
<path opacity="0.2" d="M288.543 213.949C296.614 217.257 303.49 222.937 308.262 230.239C310.586 233.917 311.898 238.126 313.175 242.242C314.388 246.362 315.355 250.551 316.073 254.785C314.118 248.672 312.232 242.568 309.814 236.643C305.947 226.706 297.537 219.324 288.534 213.949H288.543Z" fill="black"/>
<path d="M316.253 112.873C316.253 112.873 308.039 113.893 309.265 124.756C309.523 127.406 310.78 129.859 312.781 131.615C315.01 133.519 318.628 135.045 324.201 133.33L337.567 129.24C337.567 129.24 342.763 115.874 332.372 105.843L316.253 112.873Z" fill="#85339B"/>
<path opacity="0.2" d="M316.253 112.873C316.253 112.873 308.039 113.893 309.265 124.756C309.523 127.406 310.78 129.859 312.781 131.615C315.01 133.519 318.628 135.045 324.201 133.33L337.567 129.24C337.567 129.24 342.763 115.874 332.372 105.843L316.253 112.873Z" fill="black"/>
<path d="M317.145 130.389C317.145 130.389 308.228 127.045 314.17 115.908L336.461 81.7418L346.861 86.2002L334.635 115.179C334.635 115.179 329.765 135.593 317.145 130.389Z" fill="#F9B499"/>
<path d="M326.053 78.7668L329.122 71.1533L361.402 83.2251L359.105 91.0272L326.053 78.7668Z" fill="#85339B"/>
<path d="M326.053 78.7668L326.91 83.2251L360.219 94.9454L359.105 91.0272L326.053 78.7668Z" fill="#85339B"/>
<path opacity="0.2" d="M326.053 78.7668L326.91 83.2251L360.219 94.9454L359.105 91.0272L326.053 78.7668Z" fill="black"/>
<path d="M349.768 64.3543C349.768 64.3543 354.483 62.0823 355.924 64.02C356.07 64.2268 356.167 64.4643 356.207 64.7144C356.395 65.7261 356.532 68.5469 351.988 67.6295L349.768 64.3543Z" fill="#F7A48B"/>
<path d="M350.762 73.8626C350.762 73.8626 356.49 78.9554 356.687 81.4589L347.667 78.0894L350.762 73.8626Z" fill="#2F2E41"/>
<path d="M347.667 61.5593L352.048 51.9996L356.275 54.4431L351.242 66.532L347.667 61.5593Z" fill="#2F2E41"/>
<path d="M388.821 13.778L387.732 16.6502L376.586 46.0837C375.352 48.9328 373.364 51.3914 370.837 53.1951C368.309 54.9989 365.338 56.0795 362.242 56.3208C359.148 56.5903 356.034 56.1206 353.157 54.9504C350.281 53.7802 347.723 51.9431 345.695 49.5904C342.446 45.7579 340.045 39.8421 343.432 31.5256L353.857 3.23228L355.049 0C355.049 0 378.79 0.780202 388.821 13.778Z" fill="#85339B"/>
<path opacity="0.2" d="M388.821 13.778L387.732 16.6502C375.129 3.54951 353.832 3.26657 353.832 3.26657L355.023 0.0342789C355.023 0.0342789 378.79 0.780192 388.821 13.778Z" fill="black"/>
<path opacity="0.2" d="M358.804 3.72097C358.804 3.72097 346.853 28.2933 351.311 29.7765C351.311 29.7765 353.54 30.5224 359.482 16.0586L364.257 4.68122C364.257 4.68122 361.094 3.98676 358.804 3.72097Z" fill="white"/>
<path opacity="0.2" d="M360.076 27.4076C361.746 23.699 362.341 20.3505 361.404 19.9285C360.468 19.5065 358.354 22.1708 356.683 25.8793C355.013 29.5879 354.418 32.9364 355.355 33.3585C356.292 33.7805 358.405 31.1162 360.076 27.4076Z" fill="white"/>
<path opacity="0.2" d="M358.839 48.9302C358.355 49.0094 357.918 49.2662 357.613 49.6504C357.253 50.1391 357.133 50.8336 358.359 51.5195C358.359 51.5195 360.262 52.8741 364.506 50.8507C366.835 49.7577 368.887 48.1514 370.508 46.1523C371.622 44.7634 372.617 43.0743 372.222 41.7883C372.205 41.7295 372.169 41.6782 372.119 41.6424C372.069 41.6067 372.009 41.5886 371.948 41.5911C371.596 41.5911 370.799 41.8997 369.419 43.7345C368.313 45.1786 366.829 46.2884 365.132 46.9411C363.097 47.7886 360.991 48.4543 358.839 48.9302Z" fill="white"/>
<g opacity="0.2">
<path d="M437.1 66.1377H437.048C436.952 66.1249 436.864 66.0744 436.805 65.9973C436.745 65.9202 436.719 65.8227 436.731 65.7261C439.26 46.2466 428.157 42.7657 428.08 42.7314C428.033 42.7177 427.989 42.6947 427.951 42.6639C427.913 42.6331 427.882 42.5951 427.859 42.552C427.836 42.5089 427.821 42.4616 427.817 42.413C427.812 42.3643 427.817 42.3152 427.831 42.2684C427.844 42.2218 427.866 42.1782 427.896 42.1403C427.926 42.1024 427.963 42.0709 428.006 42.0477C428.048 42.0245 428.095 42.0101 428.143 42.0053C428.191 42.0005 428.24 42.0054 428.286 42.0198C428.406 42.0198 440.075 45.6808 437.468 65.8204C437.456 65.909 437.412 65.9901 437.344 66.0485C437.276 66.1068 437.189 66.1385 437.1 66.1377Z" fill="black"/>
</g>
<g opacity="0.2">
<path d="M390.279 85.4543C390.217 85.4546 390.156 85.439 390.102 85.409C390.048 85.3789 390.002 85.3355 389.97 85.2828C389.704 84.8884 383.505 75.4316 384.894 71.0419C384.909 70.9957 384.933 70.9529 384.964 70.9158C384.995 70.8788 385.033 70.8482 385.076 70.8259C385.119 70.8036 385.166 70.79 385.214 70.7859C385.263 70.7818 385.311 70.7872 385.357 70.8018C385.403 70.8164 385.446 70.84 385.483 70.8712C385.52 70.9024 385.551 70.9406 385.573 70.9836C385.595 71.0266 385.609 71.0735 385.613 71.1218C385.617 71.17 385.612 71.2186 385.597 71.2648C384.32 75.3201 390.527 84.7855 390.587 84.8798C390.615 84.9203 390.634 84.9657 390.643 85.0136C390.653 85.0614 390.653 85.1107 390.643 85.1585C390.634 85.2064 390.615 85.2519 390.587 85.2923C390.56 85.3328 390.525 85.3674 390.484 85.3943C390.423 85.4337 390.352 85.4546 390.279 85.4543Z" fill="black"/>
</g>
<g opacity="0.2">
<path d="M434.09 101.187C434.036 101.186 433.983 101.173 433.934 101.149C433.885 101.126 433.842 101.092 433.807 101.05C429.675 95.9056 430.532 82.0248 430.567 81.4417C430.577 81.3447 430.623 81.2551 430.696 81.1902C430.769 81.1253 430.863 81.0897 430.961 81.0902C431.009 81.0935 431.057 81.1063 431.1 81.1279C431.144 81.1495 431.182 81.1795 431.214 81.2162C431.246 81.2528 431.271 81.2954 431.286 81.3415C431.301 81.3875 431.307 81.4362 431.304 81.4846C431.304 81.6304 430.446 95.6827 434.382 100.578C434.443 100.655 434.472 100.753 434.462 100.85C434.453 100.948 434.405 101.038 434.33 101.101C434.263 101.158 434.178 101.189 434.09 101.187Z" fill="black"/>
</g>
<g opacity="0.2">
<path d="M435.265 95.314C435.215 95.3143 435.166 95.3045 435.121 95.2854C435.075 95.2662 435.034 95.2381 434.999 95.2026C431.801 91.8417 433.061 89.2953 433.602 88.2064C433.661 88.09 433.713 87.9697 433.756 87.8463C433.76 87.7501 433.802 87.6594 433.873 87.5937C433.943 87.5279 434.037 87.4925 434.133 87.4948C434.232 87.4971 434.325 87.5378 434.394 87.6083C434.463 87.6788 434.502 87.7735 434.502 87.872C434.472 88.11 434.39 88.3384 434.262 88.5408C433.756 89.5611 432.693 91.7045 435.539 94.6882C435.574 94.7224 435.601 94.7632 435.62 94.808C435.638 94.8529 435.648 94.9011 435.648 94.9497C435.648 94.9983 435.638 95.0464 435.62 95.0913C435.601 95.1362 435.574 95.1769 435.539 95.2112C435.503 95.2466 435.46 95.274 435.413 95.2918C435.366 95.3095 435.315 95.3171 435.265 95.314Z" fill="black"/>
</g>
<path d="M370.439 162.978C369.882 163.835 370.25 174.587 378.052 178.299C378.052 178.299 383.377 181.96 391.505 177.63C392.359 177.167 393.238 176.749 394.137 176.379L394.428 176.25C397.3 174.976 399.698 172.832 401.286 170.122C402.873 167.411 403.57 164.271 403.276 161.143C402.813 155.802 401.759 147.897 393.279 144.501L387.792 146.902L370.439 162.978Z" fill="#85339B"/>
<path opacity="0.2" d="M370.439 162.978C369.882 163.835 370.25 174.587 378.052 178.299C378.052 178.299 383.377 181.96 391.505 177.63C392.359 177.167 393.238 176.749 394.137 176.379L394.428 176.25C397.3 174.976 399.698 172.832 401.286 170.122C402.873 167.411 403.57 164.271 403.276 161.143C402.813 155.802 401.759 147.897 393.279 144.501L387.792 146.902L370.439 162.978Z" fill="black"/>
<path opacity="0.2" d="M393.279 144.501C402.102 136.708 411.284 129.24 420.758 122.21C411.936 130.012 402.753 137.471 393.279 144.501Z" fill="black"/>
<path opacity="0.2" d="M361.891 123.256C366.757 116.534 372.028 110.114 377.675 104.033C372.812 110.761 367.541 117.183 361.891 123.264V123.256Z" fill="black"/>
<path opacity="0.2" d="M401.09 170.454C402.466 168.614 404.239 167.108 406.277 166.047C404.898 167.884 403.126 169.389 401.09 170.454Z" fill="black"/>
<path d="M351.208 105.019L336.821 96.2228L328.634 82.8564C327.15 80.6272 330.931 81.7418 330.931 81.7418C330.931 81.7418 333.092 76.1689 338.853 85.0856L341.288 89.4239L352.64 92.519C352.64 92.519 355.804 82.4792 360.253 83.2251L359.525 88.4636C359.439 89.0729 359.516 89.6941 359.748 90.2641C360.605 92.2875 362.474 97.4918 362.02 101.196C361.904 102.126 362.097 103.069 362.568 103.879L386.703 145.342C386.703 145.342 403.336 166.416 388.109 173.472C388.109 173.472 376.226 180.16 369.539 160.474L353.094 107.463C352.783 106.447 352.112 105.578 351.208 105.019Z" fill="#F9B499"/>
<path d="M330.948 81.7418C330.237 81.6304 327.802 81.2188 328.796 82.5392C331.832 86.8775 334.687 91.3358 337.456 95.837L337.207 95.597C341.494 98.1691 345.678 100.896 349.793 103.725L350.822 104.445C351.909 105.151 352.713 106.216 353.094 107.454C352.611 106.561 351.916 105.798 351.071 105.234L349.408 104.376C344.958 101.976 340.602 99.4208 336.29 96.7887L336.196 96.6344C333.623 92.459 331.197 88.2407 328.882 83.9367L328.308 82.8393C327.287 80.8159 329.868 81.2874 330.948 81.7675V81.7418Z" fill="#F7A48B"/>
<path d="M341.306 89.4582C345.188 89.99 349.029 90.7863 352.803 91.8417L351.894 92.3647C353.017 88.6265 355.572 82.9336 360.219 83.2594C356.069 84.1168 354.5 89.1924 353.36 92.7419L353.154 93.4621C349.119 92.3966 345.16 91.0589 341.306 89.4582Z" fill="#F7A48B"/>
<path d="M415.005 91.5844C423.211 91.5844 429.863 80.8594 429.863 67.6294C429.863 54.3995 423.211 43.6745 415.005 43.6745C406.799 43.6745 400.147 54.3995 400.147 67.6294C400.147 80.8594 406.799 91.5844 415.005 91.5844Z" fill="#F9B499"/>
<path d="M399.958 76.1689C401.805 76.1689 403.302 73.9233 403.302 71.1533C403.302 68.3832 401.805 66.1376 399.958 66.1376C398.112 66.1376 396.615 68.3832 396.615 71.1533C396.615 73.9233 398.112 76.1689 399.958 76.1689Z" fill="#F9B499"/>
<path d="M430.969 76.1689C432.712 76.1689 434.125 73.9233 434.125 71.1533C434.125 68.3832 432.712 66.1376 430.969 66.1376C429.227 66.1376 427.814 68.3832 427.814 71.1533C427.814 73.9233 429.227 76.1689 430.969 76.1689Z" fill="#F9B499"/>
<path d="M400.267 56.0807L412.785 50.182C413.691 49.7414 414.695 49.5364 415.702 49.5858C416.709 49.6353 417.687 49.9376 418.546 50.4649L430.644 59.0386L432.899 48.7502L423.982 41.6082L417.569 42.0198H411.704C411.704 42.0198 398.535 49.4446 400.267 56.0807Z" fill="#2F2E41"/>
<g opacity="0.2">
<path d="M395.363 59.6388C395.312 59.6508 395.259 59.6508 395.208 59.6388C395.119 59.596 395.05 59.52 395.017 59.427C394.983 59.334 394.987 59.2314 395.028 59.1415C398.025 52.6 402.917 47.1097 409.072 43.383C409.115 43.3574 409.163 43.3409 409.212 43.3344C409.262 43.3278 409.313 43.3315 409.361 43.345C409.409 43.3586 409.454 43.3819 409.493 43.4133C409.531 43.4448 409.564 43.4839 409.587 43.5282C409.61 43.5724 409.624 43.621 409.628 43.6709C409.632 43.7207 409.626 43.7709 409.61 43.8183C409.594 43.8656 409.568 43.9093 409.535 43.9465C409.501 43.9837 409.461 44.0136 409.415 44.0346C403.398 47.6863 398.618 53.0635 395.697 59.4673C395.66 59.5214 395.61 59.5655 395.552 59.5954C395.493 59.6254 395.428 59.6403 395.363 59.6388Z" fill="black"/>
</g>
<path d="M347.967 81.7419C347.967 81.7419 348.336 83.5938 342.763 80.6273L338.313 78.7668C338.313 78.7668 328.282 73.2024 332.372 67.6209C332.372 67.6209 336.821 58.3356 343.723 58.1898C344.203 58.233 344.668 58.3813 345.085 58.6244C345.501 58.8674 345.859 59.1991 346.132 59.5959C348.919 63.0254 358.136 74.7714 354.655 77.6008C354.655 77.6008 353.54 79.8299 352.083 79.4612C352.048 79.5127 350.925 82.4792 347.967 81.7419Z" fill="#F9B499"/>
<path d="M335.492 71.1533C340.359 74.1719 344.95 77.6148 349.21 81.4418C344.34 78.4282 339.749 74.985 335.492 71.1533Z" fill="#F7A48B"/>
<path d="M339.299 66.1376C343.913 70.2347 348.177 74.7084 352.048 79.5126C347.439 75.4112 343.175 70.9378 339.299 66.1376Z" fill="#F7A48B"/>
<path d="M343.406 62.2109C347.556 67.0508 351.317 72.2111 354.655 77.6436C350.503 72.8052 346.741 67.6447 343.406 62.2109Z" fill="#F7A48B"/>
<path d="M64.865 215.625L57.6347 216.884L91.3911 410.699L98.6214 409.44L64.865 215.625Z" fill="#2F2E41"/>
<path opacity="0.2" d="M64.865 215.625L57.6347 216.884L91.3911 410.699L98.6214 409.44L64.865 215.625Z" fill="white"/>
<path d="M85.5363 222.883C101.283 207.136 101.283 181.605 85.5363 165.859C69.7895 150.112 44.2589 150.112 28.5121 165.859C12.7653 181.605 12.7653 207.136 28.5121 222.883C44.2589 238.63 69.7895 238.63 85.5363 222.883Z" fill="#85339B"/>
<path opacity="0.6" d="M85.5363 222.883C101.283 207.136 101.283 181.605 85.5363 165.859C69.7895 150.112 44.2589 150.112 28.5121 165.859C12.7653 181.605 12.7653 207.136 28.5121 222.883C44.2589 238.63 69.7895 238.63 85.5363 222.883Z" fill="white"/>
<path d="M83.3816 220.74C97.9465 206.175 97.9465 182.561 83.3816 167.996C68.8167 153.431 45.2024 153.431 30.6376 167.996C16.0727 182.561 16.0727 206.175 30.6375 220.74C45.2024 235.305 68.8167 235.305 83.3816 220.74Z" fill="#85339B"/>
<path d="M35.2408 197.89L45.7007 195.129C45.7007 195.129 46.3866 187.199 42.4427 170.908C44.2142 170.249 46.0704 169.845 47.9556 169.708C49.8418 169.802 54.8146 187.807 54.8146 187.807C54.8146 187.807 73.4538 182.011 74.6627 182.577C75.4344 182.929 76.2575 185.715 76.7547 187.722C76.9015 188.28 76.8439 188.873 76.5924 189.394C76.3409 189.914 75.9121 190.327 75.3829 190.559L74.7571 190.842L78.1865 209.139C78.3035 209.818 78.1614 210.516 77.7883 211.096C77.4153 211.675 76.8384 212.093 76.1717 212.268L58.5613 216.598C56.8185 217.029 54.9859 216.921 53.3056 216.289L51.0679 215.432L40.3679 218.861L35.2408 197.89Z" fill="#85339B"/>
<path opacity="0.7" d="M35.2408 197.89L45.7007 195.129C45.7007 195.129 46.3866 187.199 42.4427 170.908C44.2142 170.249 46.0704 169.845 47.9556 169.708C49.8418 169.802 54.8146 187.807 54.8146 187.807C54.8146 187.807 73.4538 182.011 74.6627 182.577C75.4344 182.929 76.2575 185.715 76.7547 187.722C76.9015 188.28 76.8439 188.873 76.5924 189.394C76.3409 189.914 75.9121 190.327 75.3829 190.559L74.7571 190.842L78.1865 209.139C78.3035 209.818 78.1614 210.516 77.7883 211.096C77.4153 211.675 76.8384 212.093 76.1717 212.268L58.5613 216.598C56.8185 217.029 54.9859 216.921 53.3056 216.289L51.0679 215.432L40.3679 218.861L35.2408 197.89Z" fill="white"/>
<path d="M195.192 339.254L192.063 330.98C150.232 332.909 145.55 317.211 145.113 312.118C144.324 302.824 152.726 294.344 163.864 293.256C179.194 291.687 189.413 305.422 194.626 314.476C202.514 304.967 217.775 297.114 229.316 297.114C238.129 297.114 244.397 301.246 246.463 309.649C248.178 316.387 245.76 320.563 243.454 323.152C233.731 334.178 205.669 332 197.233 331.134L195.192 339.254ZM200.148 322.578C212.854 323.692 231.322 322.869 236.517 317.073C237.375 316.13 238.232 315.17 237.452 312.178C236.397 307.891 233.877 306.519 229.316 306.519C219.121 306.459 204.795 315.144 200.148 322.578ZM166.23 302.481C165.769 302.481 165.308 302.507 164.85 302.558C158.539 303.192 154.158 307.745 154.467 311.389C154.827 315.53 162.526 322.483 188.385 321.832C185.135 315.384 177.359 302.481 166.23 302.481Z" fill="#2F2E41"/>
<path d="M285.07 326.136H103.505V450.858H285.07V326.136Z" fill="#85339B"/>
<path opacity="0.2" d="M285.07 326.136H103.505V450.858H285.07V326.136Z" fill="white"/>
<path opacity="0.2" d="M285.07 369.227H103.505V450.858H285.07V369.227Z" fill="black"/>
<path d="M239.261 326.136H224.506V450.858H239.261V326.136Z" fill="#2F2E41"/>
<path d="M139.823 326.136H128.994V450.858H139.823V326.136Z" fill="#2F2E41"/>
<path opacity="0.2" d="M175.644 326.136H103.505V450.858H175.644V326.136Z" fill="black"/>
<path d="M84.3682 369.879C78.6495 370.47 59.6845 371.911 53.0998 364.486C51.988 363.274 51.2149 361.79 50.8582 360.184C50.5016 358.578 50.5739 356.907 51.0679 355.338C52.4482 349.662 56.718 346.841 62.6853 346.841C70.4788 346.841 80.8187 352.174 86.1087 358.604C89.6325 352.474 96.5343 343.172 106.909 344.252C114.445 345.007 120.129 350.742 119.598 357.035C119.306 360.422 116.125 371.088 87.8234 369.776L85.7229 375.358L84.3682 369.879ZM62.6938 353.057C59.6159 353.057 57.9183 354.06 57.1895 356.941C56.9543 357.498 56.8891 358.111 57.002 358.705C57.1149 359.298 57.4009 359.845 57.824 360.276C61.3306 364.237 73.8311 364.76 82.4391 364.006C79.284 358.965 69.5871 353.057 62.6938 353.057ZM90.4127 363.569C107.912 364.006 113.133 359.282 113.373 356.495C113.579 354.035 110.612 350.991 106.343 350.494C106.017 350.468 105.691 350.468 105.365 350.494C97.8461 350.434 92.5818 359.17 90.4127 363.526V363.569Z" fill="#85339B"/>
<path d="M147.814 366.475H24.9781V450.858H147.814V366.475Z" fill="#85339B"/>
<path opacity="0.6" d="M147.814 366.475H24.9781V450.858H147.814V366.475Z" fill="white"/>
<path opacity="0.1" d="M147.814 395.626H24.9781V450.858H147.814V395.626Z" fill="black"/>
<path opacity="0.2" d="M147.797 366.475H98.9865V450.858H147.797V366.475Z" fill="white"/>
<path d="M65.9347 366.475H55.9635V450.858H65.9347V366.475Z" fill="#85339B"/>
<path d="M130.563 366.475H123.233V450.858H130.563V366.475Z" fill="#85339B"/>
<path d="M534.206 410.115C534.206 409.618 532.491 360.388 524.457 352.543C516.578 344.869 507.507 352.251 507.13 352.543L506.572 351.883C506.675 351.797 516.612 343.686 525.057 351.883C533.357 359.951 535.003 407.998 535.063 410.038L534.206 410.115Z" fill="#2F2E41"/>
<path d="M534.969 419.795C534.909 419.203 529.507 360.808 550.804 336.356L551.456 336.921C530.399 361.091 535.766 419.126 535.826 419.709L534.969 419.795Z" fill="#2F2E41"/>
<path d="M533.734 413.613L532.877 413.553C532.877 412.885 537.061 346.953 521.328 332.489L521.911 331.854C537.944 346.593 533.906 410.878 533.734 413.613Z" fill="#2F2E41"/>
<path d="M535.826 413.588H534.969C534.969 411.779 535.483 369.176 547.503 362.351C548.631 361.628 549.915 361.185 551.248 361.059C552.582 360.934 553.926 361.13 555.168 361.631C562.387 364.675 565.971 377.535 566.126 378.075L565.268 378.298C565.268 378.17 561.65 365.258 554.808 362.411C553.686 361.965 552.473 361.794 551.271 361.912C550.069 362.03 548.912 362.433 547.898 363.088C536.332 369.673 535.826 413.142 535.826 413.588Z" fill="#2F2E41"/>
<path d="M531.042 413.605L530.185 413.553C530.185 413.219 532.028 379.781 522.974 367.967C520.745 365.06 518.31 363.68 515.746 363.86C509.745 364.28 504.755 373.008 504.703 373.094L503.958 372.674C504.172 372.297 509.222 363.457 515.686 363.003C518.567 362.797 521.242 364.289 523.651 367.444C532.902 379.516 531.128 412.216 531.042 413.605Z" fill="#2F2E41"/>
<path d="M533.425 418.149C533.177 414.908 527.535 338.782 537.421 325.415L538.107 325.93C528.41 339.039 534.223 417.291 534.283 418.08L533.425 418.149Z" fill="#2F2E41"/>
<path d="M557.878 369.124C557.878 369.124 551.928 371.328 553.745 376.506C555.563 381.685 574.408 390.284 574.408 390.284C574.408 390.284 582.296 383.048 575.059 371.302C567.823 359.556 558.049 365.421 557.878 369.124Z" fill="#85339B"/>
<path d="M531.994 359.256C531.994 359.256 538.33 358.999 538.698 364.469C539.067 369.939 524.929 385.046 524.929 385.046C524.929 385.046 514.872 381.41 517.032 367.77C519.193 354.129 530.425 355.895 531.994 359.256Z" fill="#85339B"/>
<path d="M526.618 333.166C526.618 333.166 530.853 332.712 530.519 330.131C530.184 327.55 514.083 320.949 504.575 331.649C504.575 331.649 510.671 342.091 519.459 342.229C528.247 342.366 526.618 333.166 526.618 333.166Z" fill="#85339B"/>
<path d="M534.497 326.839C534.497 326.839 530.673 328.699 529.61 326.333C528.547 323.967 538.69 309.803 552.408 313.935C552.408 313.935 552.768 326.016 545.386 330.766C538.004 335.515 534.497 326.839 534.497 326.839Z" fill="#85339B"/>
<path d="M514.486 367.041C514.486 367.041 517.401 364.683 514.263 363.543C511.125 362.403 495.667 362.685 495.495 378.024C495.495 378.024 513.5 381.016 515.721 375.186C517.941 369.356 514.486 367.041 514.486 367.041Z" fill="#85339B"/>
<path d="M551.182 332.712C551.182 332.712 548.266 330.354 551.422 329.214C554.577 328.073 570.018 328.356 570.172 343.695C570.172 343.695 552.168 346.678 549.956 340.857C547.743 335.035 551.182 332.712 551.182 332.712Z" fill="#85339B"/>
<path d="M541.665 345.041C541.665 345.041 541.416 342.177 543.731 343.326C546.046 344.475 554.088 353.134 545.746 361.382C545.746 361.382 534.497 353.049 536.529 348.719C538.561 344.389 541.665 345.041 541.665 345.041Z" fill="#85339B"/>
<path d="M511.88 349.13C511.88 349.13 513.594 346.85 511.022 346.558C508.45 346.267 497.03 349.311 499.688 360.756C499.688 360.756 513.637 359.71 514.263 354.961C514.889 350.211 511.88 349.13 511.88 349.13Z" fill="#85339B"/>
<path opacity="0.2" d="M557.878 369.124C557.878 369.124 551.928 371.328 553.745 376.506C555.563 381.685 574.408 390.284 574.408 390.284C574.408 390.284 582.296 383.048 575.059 371.302C567.823 359.556 558.049 365.421 557.878 369.124Z" fill="white"/>
<path opacity="0.2" d="M531.994 359.256C531.994 359.256 538.33 358.999 538.698 364.469C539.067 369.939 524.929 385.046 524.929 385.046C524.929 385.046 514.872 381.41 517.032 367.77C519.193 354.129 530.425 355.895 531.994 359.256Z" fill="white"/>
<path opacity="0.2" d="M526.618 333.166C526.618 333.166 530.853 332.712 530.519 330.131C530.184 327.55 514.083 320.949 504.575 331.649C504.575 331.649 510.671 342.091 519.459 342.229C528.247 342.366 526.618 333.166 526.618 333.166Z" fill="white"/>
<path opacity="0.2" d="M534.497 326.839C534.497 326.839 530.673 328.699 529.61 326.333C528.547 323.967 538.69 309.803 552.408 313.935C552.408 313.935 552.768 326.016 545.386 330.766C538.004 335.515 534.497 326.839 534.497 326.839Z" fill="white"/>
<path opacity="0.2" d="M514.486 367.041C514.486 367.041 517.401 364.683 514.263 363.543C511.125 362.403 495.667 362.685 495.495 378.024C495.495 378.024 513.5 381.016 515.721 375.186C517.941 369.356 514.486 367.041 514.486 367.041Z" fill="white"/>
<path opacity="0.2" d="M551.182 332.712C551.182 332.712 548.266 330.354 551.422 329.214C554.577 328.073 570.018 328.356 570.172 343.695C570.172 343.695 552.168 346.678 549.956 340.857C547.743 335.035 551.182 332.712 551.182 332.712Z" fill="white"/>
<path opacity="0.2" d="M541.665 345.041C541.665 345.041 541.416 342.177 543.731 343.326C546.046 344.475 554.088 353.134 545.746 361.382C545.746 361.382 534.497 353.049 536.529 348.719C538.561 344.389 541.665 345.041 541.665 345.041Z" fill="white"/>
<path opacity="0.2" d="M511.88 349.13C511.88 349.13 513.594 346.85 511.022 346.558C508.45 346.267 497.03 349.311 499.688 360.756C499.688 360.756 513.637 359.71 514.263 354.961C514.889 350.211 511.88 349.13 511.88 349.13Z" fill="white"/>
<path d="M558.992 456.01H511.151L505.981 403.616H564.162L558.992 456.01Z" fill="#407BFF"/>
<path d="M558.992 456.01H511.151L505.981 403.616H564.162L558.992 456.01Z" fill="#2F2E41"/>
<path d="M566.709 397.838H503.417V409.395H566.709V397.838Z" fill="#2F2E41"/>
<path opacity="0.2" d="M566.709 397.838H503.417V409.395H566.709V397.838Z" fill="white"/>
</svg>
