<svg width="558" height="36" viewBox="0 0 558 36" fill="none" xmlns="http://www.w3.org/2000/svg">
<path d="M0.476918 35V2.27273H8.38707V28.576H22.0021V35H0.476918ZM96.1938 2.27273L103.513 26.2429H103.784L111.103 2.27273H119.956L108.914 35H98.3831L87.3408 2.27273H96.1938ZM296.453 35H287.951L298.993 2.27273H309.524L320.567 35H312.065L304.379 10.5185H304.123L296.453 35ZM295.318 22.12H313.088V28.1286H295.318V22.12Z" fill="#85339B"/>
<path d="M37.5708 35.4634C35.0033 35.4634 32.7874 34.9574 30.923 33.9453C29.0693 32.9226 27.6418 31.4684 26.6404 29.5827C25.6496 27.6864 25.1542 25.4332 25.1542 22.8232C25.1542 20.2876 25.6549 18.0717 26.6563 16.1754C27.6578 14.2685 29.0693 12.7876 30.8911 11.733C32.7128 10.6676 34.8595 10.1349 37.3311 10.1349C39.0782 10.1349 40.6762 10.4066 42.1251 10.9499C43.574 11.4933 44.8257 12.2976 45.8804 13.3629C46.9351 14.4283 47.7554 15.744 48.3414 17.31C48.9273 18.8654 49.2203 20.6499 49.2203 22.6634V24.6129H27.8868V20.0746H41.9493C41.9387 19.2436 41.7416 18.5032 41.358 17.8533C40.9745 17.2035 40.4472 16.6974 39.776 16.3352C39.1155 15.9624 38.3538 15.7759 37.4909 15.7759C36.6173 15.7759 35.8343 15.973 35.1418 16.3672C34.4493 16.7507 33.9007 17.2781 33.4958 17.9492C33.091 18.6097 32.8779 19.3608 32.8566 20.2024V24.8207C32.8566 25.8221 33.0537 26.701 33.4479 27.4574C33.8421 28.2031 34.4014 28.7837 35.1258 29.1992C35.8502 29.6147 36.7132 29.8224 37.7146 29.8224C38.407 29.8224 39.0356 29.7266 39.6002 29.5348C40.1649 29.343 40.6496 29.0607 41.0544 28.6879C41.4593 28.315 41.7629 27.8569 41.9653 27.3136L49.1404 27.5213C48.8421 29.13 48.1869 30.5309 47.1748 31.7241C46.1734 32.9066 44.8577 33.8281 43.2277 34.4886C41.5977 35.1385 39.7121 35.4634 37.5708 35.4634ZM74.6406 17.9492L67.4656 18.141C67.391 17.6296 67.1886 17.1768 66.8583 16.7827C66.5281 16.3778 66.0966 16.0636 65.5639 15.8398C65.0419 15.6055 64.4347 15.4883 63.7422 15.4883C62.8366 15.4883 62.0643 15.6694 61.4251 16.0316C60.7965 16.3938 60.4876 16.8839 60.4982 17.5018C60.4876 17.9812 60.6793 18.3967 61.0735 18.7482C61.4783 19.0998 62.1974 19.3821 63.2308 19.5952L67.9609 20.4901C70.4112 20.9588 72.233 21.7365 73.4261 22.8232C74.63 23.9098 75.2372 25.348 75.2479 27.1378C75.2372 28.821 74.7365 30.2859 73.7457 31.5323C72.7656 32.7788 71.4233 33.7482 69.7188 34.4407C68.0142 35.1225 66.0646 35.4634 63.87 35.4634C60.3651 35.4634 57.6005 34.7443 55.5763 33.3061C53.5629 31.8572 52.4123 29.9183 52.1246 27.4893L59.843 27.2976C60.0135 28.1925 60.4556 28.8743 61.1694 29.343C61.8832 29.8118 62.794 30.0462 63.902 30.0462C64.9034 30.0462 65.7184 29.8597 66.3469 29.4869C66.9755 29.114 67.2951 28.6186 67.3058 28.0007C67.2951 27.4467 67.0501 27.0046 66.5707 26.6744C66.0913 26.3335 65.3402 26.0671 64.3175 25.8754L60.0348 25.0604C57.5739 24.6129 55.7415 23.7873 54.5376 22.5835C53.3338 21.369 52.7372 19.8242 52.7479 17.9492C52.7372 16.3086 53.174 14.9077 54.0582 13.7464C54.9425 12.5746 56.1996 11.6797 57.8295 11.0618C59.4595 10.4439 61.3825 10.1349 63.5984 10.1349C66.9222 10.1349 69.543 10.8327 71.4606 12.2283C73.3782 13.6133 74.4382 15.5202 74.6406 17.9492ZM134.938 35.4634C132.359 35.4634 130.144 34.9361 128.29 33.8814C126.447 32.8161 125.025 31.3352 124.023 29.4389C123.032 27.532 122.537 25.3214 122.537 22.8072C122.537 20.2823 123.032 18.0717 124.023 16.1754C125.025 14.2685 126.447 12.7876 128.29 11.733C130.144 10.6676 132.359 10.1349 134.938 10.1349C137.516 10.1349 139.726 10.6676 141.569 11.733C143.423 12.7876 144.845 14.2685 145.836 16.1754C146.837 18.0717 147.338 20.2823 147.338 22.8072C147.338 25.3214 146.837 27.532 145.836 29.4389C144.845 31.3352 143.423 32.8161 141.569 33.8814C139.726 34.9361 137.516 35.4634 134.938 35.4634ZM134.986 29.5668C135.923 29.5668 136.717 29.2791 137.367 28.7038C138.016 28.1286 138.512 27.3295 138.853 26.3068C139.204 25.2841 139.38 24.1016 139.38 22.7592C139.38 21.3956 139.204 20.2024 138.853 19.1797C138.512 18.157 138.016 17.358 137.367 16.7827C136.717 16.2074 135.923 15.9197 134.986 15.9197C134.016 15.9197 133.196 16.2074 132.525 16.7827C131.864 17.358 131.358 18.157 131.006 19.1797C130.666 20.2024 130.495 21.3956 130.495 22.7592C130.495 24.1016 130.666 25.2841 131.006 26.3068C131.358 27.3295 131.864 28.1286 132.525 28.7038C133.196 29.2791 134.016 29.5668 134.986 29.5668ZM151.341 35V10.4545H159.155V35H151.341ZM155.256 7.59411C154.159 7.59411 153.216 7.23189 152.428 6.50746C151.639 5.77237 151.245 4.88814 151.245 3.85476C151.245 2.83203 151.639 1.95845 152.428 1.23402C153.216 0.498933 154.159 0.13139 155.256 0.13139C156.364 0.13139 157.307 0.498933 158.085 1.23402C158.873 1.95845 159.267 2.83203 159.267 3.85476C159.267 4.88814 158.873 5.77237 158.085 6.50746C157.307 7.23189 156.364 7.59411 155.256 7.59411ZM170.777 10.4545L174.82 18.5405L179.007 10.4545H186.885L180.029 22.7273L187.141 35H179.326L174.82 26.8501L170.425 35H162.499L169.626 22.7273L162.851 10.4545H170.777ZM209.085 35.3516C207.274 35.3516 205.628 34.8828 204.147 33.9453C202.667 33.0078 201.484 31.6016 200.6 29.7266C199.716 27.8516 199.274 25.5238 199.274 22.7433C199.274 19.8562 199.732 17.4805 200.648 15.6161C201.564 13.7518 202.763 12.3722 204.243 11.4773C205.735 10.5824 207.338 10.1349 209.053 10.1349C210.342 10.1349 211.445 10.3587 212.361 10.8061C213.277 11.2429 214.034 11.8075 214.63 12.5C215.227 13.1925 215.68 13.9116 215.989 14.6573H216.149V2.27273H223.963V35H216.228V31.021H215.989C215.658 31.7773 215.19 32.4858 214.582 33.1463C213.975 33.8068 213.214 34.3395 212.297 34.7443C211.392 35.1491 210.321 35.3516 209.085 35.3516ZM211.802 29.2631C212.75 29.2631 213.56 28.9968 214.231 28.4641C214.902 27.9208 215.419 27.1591 215.781 26.179C216.143 25.1989 216.324 24.0483 216.324 22.7273C216.324 21.3849 216.143 20.229 215.781 19.2596C215.429 18.2901 214.913 17.5444 214.231 17.0224C213.56 16.5004 212.75 16.2393 211.802 16.2393C210.832 16.2393 210.012 16.5057 209.341 17.0384C208.67 17.571 208.158 18.3221 207.807 19.2915C207.466 20.261 207.296 21.4062 207.296 22.7273C207.296 24.0483 207.471 25.1989 207.823 26.179C208.174 27.1591 208.68 27.9208 209.341 28.4641C210.012 28.9968 210.832 29.2631 211.802 29.2631ZM240.378 35.4634C237.811 35.4634 235.595 34.9574 233.731 33.9453C231.877 32.9226 230.449 31.4684 229.448 29.5827C228.457 27.6864 227.962 25.4332 227.962 22.8232C227.962 20.2876 228.463 18.0717 229.464 16.1754C230.465 14.2685 231.877 12.7876 233.699 11.733C235.52 10.6676 237.667 10.1349 240.139 10.1349C241.886 10.1349 243.484 10.4066 244.933 10.9499C246.382 11.4933 247.633 12.2976 248.688 13.3629C249.743 14.4283 250.563 15.744 251.149 17.31C251.735 18.8654 252.028 20.6499 252.028 22.6634V24.6129H230.694V20.0746H244.757C244.746 19.2436 244.549 18.5032 244.166 17.8533C243.782 17.2035 243.255 16.6974 242.584 16.3352C241.923 15.9624 241.161 15.7759 240.298 15.7759C239.425 15.7759 238.642 15.973 237.949 16.3672C237.257 16.7507 236.708 17.2781 236.303 17.9492C235.899 18.6097 235.686 19.3608 235.664 20.2024V24.8207C235.664 25.8221 235.861 26.701 236.256 27.4574C236.65 28.2031 237.209 28.7837 237.933 29.1992C238.658 29.6147 239.521 29.8224 240.522 29.8224C241.215 29.8224 241.843 29.7266 242.408 29.5348C242.972 29.343 243.457 29.0607 243.862 28.6879C244.267 28.315 244.57 27.8569 244.773 27.3136L251.948 27.5213C251.65 29.13 250.994 30.5309 249.982 31.7241C248.981 32.9066 247.665 33.8281 246.035 34.4886C244.405 35.1385 242.52 35.4634 240.378 35.4634ZM273.501 2.27273V35H265.687V2.27273H273.501ZM284.979 2.27273V5.91619C284.979 6.92827 284.776 7.95099 284.372 8.98438C283.977 10.0071 283.461 10.9659 282.822 11.8608C282.182 12.7557 281.506 13.5121 280.792 14.13L277.468 12.3082C277.958 11.4986 278.395 10.5877 278.779 9.57564C279.162 8.55291 279.354 7.33842 279.354 5.93217V2.27273H284.979ZM339.926 24.4052V10.4545H347.725V35H340.278V30.4297H340.022C339.479 31.9318 338.552 33.125 337.242 34.0092C335.942 34.8828 334.371 35.3196 332.528 35.3196C330.855 35.3196 329.385 34.9361 328.117 34.169C326.849 33.402 325.864 32.3313 325.161 30.957C324.458 29.5721 324.101 27.9528 324.09 26.0991V10.4545H331.904V24.565C331.915 25.8967 332.267 26.946 332.959 27.7131C333.652 28.4801 334.594 28.8636 335.788 28.8636C336.565 28.8636 337.263 28.6932 337.881 28.3523C338.51 28.0007 339.005 27.4947 339.367 26.8342C339.74 26.163 339.926 25.3533 339.926 24.4052ZM361.663 35.3516C359.852 35.3516 358.206 34.8828 356.726 33.9453C355.245 33.0078 354.062 31.6016 353.178 29.7266C352.294 27.8516 351.852 25.5238 351.852 22.7433C351.852 19.8562 352.31 17.4805 353.226 15.6161C354.142 13.7518 355.341 12.3722 356.821 11.4773C358.313 10.5824 359.916 10.1349 361.631 10.1349C362.921 10.1349 364.023 10.3587 364.939 10.8061C365.856 11.2429 366.612 11.8075 367.209 12.5C367.805 13.1925 368.258 13.9116 368.567 14.6573H368.727V2.27273H376.541V35H368.807V31.021H368.567C368.237 31.7773 367.768 32.4858 367.161 33.1463C366.553 33.8068 365.792 34.3395 364.875 34.7443C363.97 35.1491 362.899 35.3516 361.663 35.3516ZM364.38 29.2631C365.328 29.2631 366.138 28.9968 366.809 28.4641C367.48 27.9208 367.997 27.1591 368.359 26.179C368.721 25.1989 368.902 24.0483 368.902 22.7273C368.902 21.3849 368.721 20.229 368.359 19.2596C368.008 18.2901 367.491 17.5444 366.809 17.0224C366.138 16.5004 365.328 16.2393 364.38 16.2393C363.411 16.2393 362.59 16.5057 361.919 17.0384C361.248 17.571 360.737 18.3221 360.385 19.2915C360.044 20.261 359.874 21.4062 359.874 22.7273C359.874 24.0483 360.049 25.1989 360.401 26.179C360.753 27.1591 361.259 27.9208 361.919 28.4641C362.59 28.9968 363.411 29.2631 364.38 29.2631ZM392.941 35.4634C390.362 35.4634 388.146 34.9361 386.293 33.8814C384.45 32.8161 383.028 31.3352 382.026 29.4389C381.035 27.532 380.54 25.3214 380.54 22.8072C380.54 20.2823 381.035 18.0717 382.026 16.1754C383.028 14.2685 384.45 12.7876 386.293 11.733C388.146 10.6676 390.362 10.1349 392.941 10.1349C395.519 10.1349 397.729 10.6676 399.572 11.733C401.426 12.7876 402.848 14.2685 403.839 16.1754C404.84 18.0717 405.341 20.2823 405.341 22.8072C405.341 25.3214 404.84 27.532 403.839 29.4389C402.848 31.3352 401.426 32.8161 399.572 33.8814C397.729 34.9361 395.519 35.4634 392.941 35.4634ZM392.988 29.5668C393.926 29.5668 394.72 29.2791 395.369 28.7038C396.019 28.1286 396.515 27.3295 396.856 26.3068C397.207 25.2841 397.383 24.1016 397.383 22.7592C397.383 21.3956 397.207 20.2024 396.856 19.1797C396.515 18.157 396.019 17.358 395.369 16.7827C394.72 16.2074 393.926 15.9197 392.988 15.9197C392.019 15.9197 391.199 16.2074 390.528 16.7827C389.867 17.358 389.361 18.157 389.009 19.1797C388.669 20.2024 388.498 21.3956 388.498 22.7592C388.498 24.1016 388.669 25.2841 389.009 26.3068C389.361 27.3295 389.867 28.1286 390.528 28.7038C391.199 29.2791 392.019 29.5668 392.988 29.5668ZM409.344 35V10.4545H416.775V14.9609H417.047C417.558 13.4695 418.421 12.2923 419.635 11.4293C420.85 10.5664 422.299 10.1349 423.982 10.1349C425.686 10.1349 427.146 10.5717 428.36 11.4453C429.575 12.3189 430.347 13.4908 430.678 14.9609H430.933C431.391 13.5014 432.286 12.3349 433.618 11.4613C434.95 10.5771 436.521 10.1349 438.332 10.1349C440.654 10.1349 442.54 10.8807 443.989 12.3722C445.438 13.853 446.162 15.8878 446.162 18.4766V35H438.348V20.2663C438.348 19.0412 438.034 18.109 437.405 17.4698C436.777 16.82 435.962 16.495 434.96 16.495C433.884 16.495 433.037 16.8466 432.419 17.5497C431.812 18.2422 431.509 19.1744 431.509 20.3462V35H423.998V20.1864C423.998 19.0465 423.689 18.1463 423.071 17.4858C422.453 16.8253 421.638 16.495 420.626 16.495C419.944 16.495 419.342 16.6602 418.82 16.9904C418.298 17.31 417.888 17.7681 417.59 18.3647C417.302 18.9613 417.158 19.6644 417.158 20.4741V35H409.344ZM457.924 35.4155C456.358 35.4155 454.967 35.1545 453.753 34.6325C452.549 34.0998 451.596 33.3008 450.892 32.2354C450.2 31.1594 449.854 29.8118 449.854 28.1925C449.854 26.8288 450.093 25.6783 450.573 24.7408C451.052 23.8033 451.713 23.0415 452.554 22.4556C453.396 21.8697 454.365 21.4276 455.463 21.1293C456.56 20.8203 457.732 20.6126 458.978 20.506C460.374 20.3782 461.498 20.245 462.35 20.1065C463.202 19.9574 463.82 19.7496 464.204 19.4833C464.598 19.2063 464.795 18.8175 464.795 18.3168V18.2369C464.795 17.4165 464.513 16.7827 463.948 16.3352C463.384 15.8878 462.622 15.6641 461.663 15.6641C460.63 15.6641 459.799 15.8878 459.17 16.3352C458.542 16.7827 458.142 17.4006 457.972 18.1889L450.765 17.9332C450.978 16.4418 451.526 15.1101 452.411 13.9382C453.305 12.7557 454.531 11.8288 456.086 11.1577C457.652 10.4759 459.532 10.1349 461.727 10.1349C463.293 10.1349 464.737 10.3214 466.058 10.6942C467.379 11.0565 468.529 11.5891 469.509 12.2923C470.489 12.9847 471.246 13.837 471.778 14.8491C472.322 15.8612 472.593 17.017 472.593 18.3168V35H465.243V31.5803H465.051C464.614 32.4112 464.055 33.1143 463.373 33.6896C462.702 34.2649 461.908 34.6964 460.992 34.984C460.086 35.2717 459.064 35.4155 457.924 35.4155ZM460.337 30.3018C461.178 30.3018 461.935 30.1314 462.606 29.7905C463.288 29.4496 463.831 28.9808 464.236 28.3842C464.641 27.777 464.843 27.0739 464.843 26.2749V23.9418C464.619 24.0589 464.348 24.1655 464.028 24.2614C463.719 24.3572 463.378 24.4478 463.005 24.533C462.632 24.6183 462.249 24.6928 461.855 24.7567C461.461 24.8207 461.082 24.8793 460.72 24.9325C459.985 25.0497 459.357 25.2308 458.835 25.4759C458.323 25.7209 457.929 26.0405 457.652 26.4347C457.386 26.8182 457.252 27.2763 457.252 27.8089C457.252 28.6186 457.54 29.2365 458.115 29.6626C458.701 30.0888 459.442 30.3018 460.337 30.3018ZM477.371 35V10.4545H484.962V14.929H485.218C485.665 13.3097 486.395 12.1058 487.407 11.3175C488.419 10.5185 489.596 10.119 490.939 10.119C491.301 10.119 491.674 10.1456 492.057 10.1989C492.441 10.2415 492.798 10.3107 493.128 10.4066V17.1982C492.755 17.0703 492.265 16.9691 491.658 16.8945C491.061 16.82 490.528 16.7827 490.06 16.7827C489.133 16.7827 488.297 16.9904 487.551 17.4059C486.816 17.8107 486.235 18.3807 485.809 19.1158C485.393 19.8402 485.186 20.6925 485.186 21.6726V35H477.371ZM506.495 35.4634C503.917 35.4634 501.701 34.9361 499.847 33.8814C498.004 32.8161 496.582 31.3352 495.581 29.4389C494.59 27.532 494.095 25.3214 494.095 22.8072C494.095 20.2823 494.59 18.0717 495.581 16.1754C496.582 14.2685 498.004 12.7876 499.847 11.733C501.701 10.6676 503.917 10.1349 506.495 10.1349C509.073 10.1349 511.284 10.6676 513.127 11.733C514.981 12.7876 516.403 14.2685 517.394 16.1754C518.395 18.0717 518.896 20.2823 518.896 22.8072C518.896 25.3214 518.395 27.532 517.394 29.4389C516.403 31.3352 514.981 32.8161 513.127 33.8814C511.284 34.9361 509.073 35.4634 506.495 35.4634ZM506.543 29.5668C507.481 29.5668 508.274 29.2791 508.924 28.7038C509.574 28.1286 510.069 27.3295 510.41 26.3068C510.762 25.2841 510.938 24.1016 510.938 22.7592C510.938 21.3956 510.762 20.2024 510.41 19.1797C510.069 18.157 509.574 17.358 508.924 16.7827C508.274 16.2074 507.481 15.9197 506.543 15.9197C505.574 15.9197 504.753 16.2074 504.082 16.7827C503.422 17.358 502.916 18.157 502.564 19.1797C502.223 20.2024 502.053 21.3956 502.053 22.7592C502.053 24.1016 502.223 25.2841 502.564 26.3068C502.916 27.3295 503.422 28.1286 504.082 28.7038C504.753 29.2791 505.574 29.5668 506.543 29.5668ZM522.899 35V10.4545H530.713V35H522.899ZM526.814 7.59411C525.717 7.59411 524.774 7.23189 523.985 6.50746C523.197 5.77237 522.803 4.88814 522.803 3.85476C522.803 2.83203 523.197 1.95845 523.985 1.23402C524.774 0.498933 525.717 0.13139 526.814 0.13139C527.922 0.13139 528.865 0.498933 529.642 1.23402C530.431 1.95845 530.825 2.83203 530.825 3.85476C530.825 4.88814 530.431 5.77237 529.642 6.50746C528.865 7.23189 527.922 7.59411 526.814 7.59411ZM557.116 17.9492L549.941 18.141C549.867 17.6296 549.664 17.1768 549.334 16.7827C549.004 16.3778 548.572 16.0636 548.04 15.8398C547.517 15.6055 546.91 15.4883 546.218 15.4883C545.312 15.4883 544.54 15.6694 543.901 16.0316C543.272 16.3938 542.963 16.8839 542.974 17.5018C542.963 17.9812 543.155 18.3967 543.549 18.7482C543.954 19.0998 544.673 19.3821 545.706 19.5952L550.437 20.4901C552.887 20.9588 554.709 21.7365 555.902 22.8232C557.106 23.9098 557.713 25.348 557.723 27.1378C557.713 28.821 557.212 30.2859 556.221 31.5323C555.241 32.7788 553.899 33.7482 552.194 34.4407C550.49 35.1225 548.54 35.4634 546.346 35.4634C542.841 35.4634 540.076 34.7443 538.052 33.3061C536.038 31.8572 534.888 29.9183 534.6 27.4893L542.319 27.2976C542.489 28.1925 542.931 28.8743 543.645 29.343C544.359 29.8118 545.27 30.0462 546.378 30.0462C547.379 30.0462 548.194 29.8597 548.823 29.4869C549.451 29.114 549.771 28.6186 549.781 28.0007C549.771 27.4467 549.526 27.0046 549.046 26.6744C548.567 26.3335 547.816 26.0671 546.793 25.8754L542.51 25.0604C540.049 24.6129 538.217 23.7873 537.013 22.5835C535.809 21.369 535.213 19.8242 535.223 17.9492C535.213 16.3086 535.65 14.9077 536.534 13.7464C537.418 12.5746 538.675 11.6797 540.305 11.0618C541.935 10.4439 543.858 10.1349 546.074 10.1349C549.398 10.1349 552.019 10.8327 553.936 12.2283C555.854 13.6133 556.914 15.5202 557.116 17.9492Z" fill="#0D0D0D"/>
</svg>
