<svg width="40" height="30" viewBox="0 0 40 45" fill="none" xmlns="http://www.w3.org/2000/svg">
<path d="M20 2.8125C22.1217 2.8125 24.1566 3.40513 25.6569 4.46002C27.1571 5.51492 28 6.94566 28 8.4375V19.6875H12V8.4375C12 6.94566 12.8429 5.51492 14.3431 4.46002C15.8434 3.40513 17.8783 2.8125 20 2.8125ZM32 19.6875V8.4375C32 6.19974 30.7357 4.05362 28.4853 2.47129C26.2348 0.888948 23.1826 0 20 0C16.8174 0 13.7652 0.888948 11.5147 2.47129C9.26428 4.05362 8 6.19974 8 8.4375V19.6875C5.87827 19.6875 3.84344 20.2801 2.34315 21.335C0.842854 22.3899 0 23.8207 0 25.3125V39.375C0 40.8668 0.842854 42.2976 2.34315 43.3525C3.84344 44.4074 5.87827 45 8 45H32C34.1217 45 36.1566 44.4074 37.6569 43.3525C39.1571 42.2976 40 40.8668 40 39.375V25.3125C40 23.8207 39.1571 22.3899 37.6569 21.335C36.1566 20.2801 34.1217 19.6875 32 19.6875Z" fill="#919191"/>
</svg>
