<svg width="400" height="350" viewBox="0 0 656 484" fill="none" xmlns="http://www.w3.org/2000/svg">
<path d="M532.131 346.266C612.465 276.889 569.821 113.121 569.821 113.121C553.516 8.15231 428.167 31.1365 428.167 31.1365C396.859 36.7747 354.744 28.5108 334.385 23.6983C318.443 19.8626 302.092 17.9842 285.694 18.1047C198.592 18.9675 109.199 63.2029 109.199 63.2029C-52.8355 157.959 13.4021 321.013 13.4021 321.013C13.4021 321.013 44.9924 431.099 277.631 424.018C277.631 424.018 426.173 437.764 532.131 346.266Z" fill="#85339B"/>
<path opacity="0.7" d="M532.131 346.266C612.465 276.889 569.821 113.121 569.821 113.121C553.516 8.15231 428.167 31.1365 428.167 31.1365C396.859 36.7747 354.744 28.5108 334.385 23.6983C318.443 19.8626 302.092 17.9842 285.694 18.1047C198.592 18.9675 109.199 63.2029 109.199 63.2029C-52.8355 157.959 13.4021 321.013 13.4021 321.013C13.4021 321.013 44.9924 431.099 277.631 424.018C277.631 424.018 426.173 437.764 532.131 346.266Z" fill="white"/>
<path d="M526.144 304.195L514.793 451.011H521.919L537.212 317.956L636.059 318.967L648.332 438.441L655.42 437.184L647.268 303.689L526.144 304.195Z" fill="#E1E1E2"/>
<path d="M286.662 304.195L275.311 451.011H282.437L297.73 317.956L396.577 318.967L408.85 438.441L415.938 437.184L407.786 303.689L286.662 304.195Z" fill="#C2C4C6"/>
<path d="M564.986 297.568H412.621C409.951 297.568 407.786 299.732 407.786 302.402V305.98C407.786 308.65 409.951 310.815 412.621 310.815H564.986C567.656 310.815 569.821 308.65 569.821 305.98V302.402C569.821 299.732 567.656 297.568 564.986 297.568Z" fill="#C2C4C6"/>
<path d="M548.414 8.15234H27.6687C24.8547 8.15234 22.5735 10.4335 22.5735 13.2476V280.244C22.5735 283.058 24.8547 285.339 27.6687 285.339H548.414C551.228 285.339 553.509 283.058 553.509 280.244V13.2476C553.509 10.4335 551.228 8.15234 548.414 8.15234Z" fill="#CCCCCC"/>
<path d="M543.318 8.15234H29.7068V274.13H543.318V8.15234Z" fill="#EBEBEB"/>
<path d="M452.624 366.87H442.434V404.574H452.624V366.87Z" fill="#5D6166"/>
<path d="M414.161 297.568H280.138C277.468 297.568 275.303 299.732 275.303 302.402V305.98C275.303 308.65 277.468 310.815 280.138 310.815H414.161C416.831 310.815 418.995 308.65 418.995 305.98V302.402C418.995 299.732 416.831 297.568 414.161 297.568Z" fill="#E1E1E2"/>
<path d="M469.174 220.12H508.44C512.824 220.126 517.026 221.872 520.123 224.973C523.221 228.075 524.961 232.28 524.961 236.663V355.675H460.955C459.861 355.675 458.777 355.46 457.767 355.041C456.756 354.622 455.837 354.009 455.064 353.235C454.29 352.462 453.677 351.543 453.258 350.532C452.839 349.522 452.624 348.438 452.624 347.344V236.663C452.624 234.49 453.052 232.338 453.884 230.331C454.716 228.323 455.935 226.499 457.472 224.963C459.009 223.427 460.833 222.208 462.841 221.377C464.849 220.547 467.001 220.119 469.174 220.12Z" fill="#2E3135"/>
<path d="M391.496 355.66H522.945V371.965H382.31V364.847C382.31 363.64 382.547 362.446 383.009 361.331C383.471 360.217 384.147 359.204 385 358.351C385.853 357.498 386.866 356.821 387.981 356.36C389.095 355.898 390.29 355.66 391.496 355.66Z" fill="#5D6166"/>
<path d="M458.976 220.12H498.243C500.415 220.12 502.566 220.548 504.573 221.38C506.581 222.211 508.404 223.429 509.94 224.966C511.476 226.502 512.695 228.325 513.526 230.332C514.358 232.339 514.786 234.491 514.786 236.663V347.329C514.786 348.423 514.57 349.507 514.151 350.518C513.733 351.528 513.119 352.447 512.345 353.22C511.572 353.994 510.654 354.607 509.643 355.026C508.632 355.445 507.549 355.66 506.455 355.66H450.764C448.555 355.66 446.436 354.783 444.874 353.22C443.311 351.658 442.434 349.539 442.434 347.329V236.663C442.434 232.276 444.177 228.068 447.279 224.966C450.381 221.863 454.589 220.12 458.976 220.12Z" fill="#3F4347"/>
<path d="M300.787 0H291.615V282.282H300.787V0Z" fill="#CCCCCC"/>
<path d="M80.0934 290.732C80.0934 290.732 81.7224 294.756 76.2404 297.322C72.7667 298.958 66.4368 299.992 55.0339 299.04L57.2654 90.769L61.8251 87.3846L84.7795 70.3807L80.0934 290.732Z" fill="#85339B"/>
<path opacity="0.3" d="M76.2404 297.292C72.7667 298.929 66.4368 299.963 55.0339 299.011L57.2654 90.7394L61.8251 87.355V229.143C61.827 234.126 62.2275 239.101 63.0226 244.02C64.9789 256.337 69.4418 280.318 76.2404 297.292Z" fill="white"/>
<path d="M44.7395 290.732C44.7395 290.732 43.9957 298.616 24.6042 297.597C24.6042 297.597 21.5842 300.186 13.4468 299.405V138.195L27.096 122.716L40.9163 107.007L44.7395 290.732Z" fill="#85339B"/>
<path opacity="0.3" d="M25.6306 186.492C25.6306 186.492 15.4402 270.053 24.6042 297.567C24.6042 297.567 21.5842 300.156 13.4468 299.375V138.195L27.096 122.716C27.4456 131.062 27.9588 152.477 25.6306 186.492Z" fill="white"/>
<path d="M501.032 162.035C541.274 162.035 573.897 129.412 573.897 89.1699C573.897 48.9275 541.274 16.3047 501.032 16.3047C460.79 16.3047 428.167 48.9275 428.167 89.1699C428.167 129.412 460.79 162.035 501.032 162.035Z" fill="#85339B"/>
<path opacity="0.3" d="M501.032 162.035C541.274 162.035 573.897 129.412 573.897 89.1699C573.897 48.9275 541.274 16.3047 501.032 16.3047C460.79 16.3047 428.167 48.9275 428.167 89.1699C428.167 129.412 460.79 162.035 501.032 162.035Z" fill="white"/>
<path d="M526.002 72.3519C530.279 71.742 531.626 74.0701 532.012 76.0264C532.233 77.2197 532.141 78.4497 531.745 79.5968L522.365 108.606C520.968 113.061 518.399 117.059 514.927 120.18C501.865 131.754 481.135 132.498 481.135 132.498C471.963 126.383 467.002 118.759 464.436 111.626C461.193 102.448 461.141 92.4452 464.287 83.2341L470.944 63.1954C475.02 51.986 480.116 57.0812 480.116 57.0812C486.713 62.8532 499.314 61.2912 503.918 60.4804C504.436 60.3876 504.97 60.4253 505.47 60.5903C505.97 60.7552 506.421 61.0421 506.782 61.4251C509.72 64.5566 517.857 72.3519 526.002 72.3519Z" fill="#85339B"/>
<path d="M493.095 94.198L485.888 82.4605C484.897 80.8464 483.315 79.6841 481.478 79.2225C479.642 78.761 477.697 79.0368 476.062 79.991C474.428 80.9441 473.231 82.4985 472.728 84.3221C472.225 86.1457 472.455 88.0938 473.369 89.75L482.89 107.007C483.8 108.662 485.306 109.909 487.102 110.495C488.897 111.08 490.849 110.961 492.56 110.161L543.452 86.3581C545.067 85.5976 546.335 84.2561 547.004 82.6015C547.673 80.9469 547.693 79.1009 547.06 77.4322C546.712 76.5254 546.182 75.6996 545.503 75.0061C544.823 74.3127 544.008 73.7662 543.108 73.4008C542.208 73.0353 541.243 72.8586 540.272 72.8816C539.302 72.9046 538.346 73.1269 537.465 73.5345L493.095 94.198Z" fill="white"/>
<path d="M176.107 476.926C167.62 478.592 151.062 478.414 137.688 477.967C126.397 477.573 117.382 476.926 117.382 476.926C115.343 466.736 123.496 462.63 123.496 462.63L142.508 457.125C143.009 457.283 143.545 457.297 144.054 457.165C144.562 457.034 145.024 456.762 145.387 456.382C146.038 456.378 146.677 456.564 147.225 456.916C147.773 457.269 148.207 457.773 148.473 458.368C148.624 458.633 148.748 458.912 148.845 459.201C154.841 466.959 170.372 471.846 170.372 471.846C175.437 473.869 176.107 476.926 176.107 476.926Z" fill="#85339B"/>
<path opacity="0.2" d="M137.658 477.967C126.367 477.573 117.352 476.926 117.352 476.926C115.314 466.736 123.466 462.63 123.466 462.63L142.478 457.125C142.98 457.283 143.515 457.297 144.024 457.165C144.533 457.034 144.994 456.762 145.357 456.382C146.008 456.378 146.647 456.564 147.195 456.916C147.743 457.269 148.177 457.773 148.444 458.368L136.684 464.698C128.561 470.812 137.658 477.967 137.658 477.967Z" fill="black"/>
<path d="M406.566 483.993L345.468 482.207C345.045 482.194 344.638 482.04 344.312 481.771C343.985 481.502 343.756 481.132 343.661 480.72C343.518 480.146 343.478 479.552 343.542 478.964C344.115 474.077 352.758 473.869 352.758 473.869C359.891 472.85 372.097 464.698 372.097 464.698C372.097 464.698 377.996 460.279 384.326 458.606C387.108 457.862 389.979 457.646 392.508 458.606L393.527 459.052C396.197 460.183 403.405 462.979 406.551 461.722C408.783 464.973 408.894 476.822 408.85 481.806C408.844 482.099 408.78 482.389 408.662 482.658C408.544 482.927 408.374 483.17 408.162 483.373C407.95 483.577 407.7 483.736 407.426 483.842C407.152 483.948 406.86 483.999 406.566 483.993Z" fill="#2F2E41"/>
<path opacity="0.2" d="M406.566 483.992L345.468 482.207C345.045 482.193 344.638 482.04 344.312 481.771C343.985 481.502 343.756 481.132 343.661 480.72C343.518 480.146 343.478 479.552 343.542 478.964H366.385C368.594 478.945 370.787 478.596 372.893 477.93C381.001 475.416 393.282 474.955 397.291 474.903C398.417 474.902 399.532 474.677 400.571 474.241C403.546 472.954 403.546 471.087 402.944 469.681C402.472 468.637 401.694 467.76 400.712 467.167C393.408 462.347 392.463 458.583 392.463 458.583L393.482 459.03C396.153 460.16 403.36 462.957 406.507 461.7C408.738 464.951 408.85 476.8 408.805 481.783C408.799 482.373 408.561 482.936 408.141 483.349C407.722 483.763 407.156 483.994 406.566 483.992Z" fill="black"/>
<path d="M163.714 146.749L186.847 140.315L197.789 153.124L225.72 266.126C225.72 266.126 211.736 271.66 209.356 271.333C206.975 271.006 165.47 266.967 165.47 266.967L163.714 146.749Z" fill="#E6E6E6" stroke="#FF0000" stroke-width="0.25" stroke-miterlimit="10"/>
<path d="M193.78 307.758L181.551 356.679C179.888 366.772 177.441 376.72 174.232 386.432C169.204 401.877 163.201 416.987 156.261 431.672C156.152 431.923 156.069 432.184 156.016 432.453C154 445.165 152.438 451.621 151.612 454.507C151.457 455.069 151.132 455.57 150.682 455.941C150.233 456.313 149.68 456.536 149.098 456.582C146.867 456.791 144.271 457.252 143.267 457.43C142.986 457.486 142.715 457.584 142.463 457.721C137.256 460.48 128.249 461.276 123.518 461.499C123.12 461.512 122.724 461.442 122.354 461.294C121.984 461.147 121.649 460.924 121.37 460.64C121.09 460.356 120.873 460.018 120.73 459.646C120.588 459.274 120.524 458.877 120.543 458.479C120.595 457.319 120.662 456.159 120.729 455.006C123.064 416.646 136.751 381.084 136.751 381.084C138.566 371.578 140.574 365.888 142.255 362.489C144.797 357.275 146.23 351.592 146.465 345.797L148.064 310.317C148.064 310.317 177.921 297.939 186.885 291.096C186.847 291.163 196.837 286.358 193.78 307.758Z" fill="#2F2E41"/>
<path d="M225.474 297.292L224.351 362.794C224.351 388.27 220.379 390.449 220.379 390.449C217.404 399.777 220.275 447.374 220.275 447.374C220.39 448.583 220.408 449.799 220.327 451.011C220.327 451.011 198.882 450.431 194.806 434.126C194.806 434.126 189.815 425.833 192.307 407.051C192.307 407.051 190.73 388.53 187.673 381.761C186.164 369.416 187.757 356.889 192.307 345.314C192.307 345.314 205.584 298.393 225.474 297.292Z" fill="#2F2E41"/>
<path d="M192.3 345.321C187.749 356.896 186.157 369.423 187.666 381.769C190.723 388.523 192.3 407.059 192.3 407.059C189.808 425.84 194.799 434.134 194.799 434.134C198.875 450.439 220.32 451.019 220.32 451.019C219.933 455.906 217.538 456.397 215.857 456.099C215.265 455.995 214.692 455.799 214.161 455.519C203.97 451.443 197.856 460.614 197.856 460.614C197.525 460.787 197.185 460.941 196.837 461.075C191.147 463.307 190.217 457.988 190.299 453.816C190.34 450.446 190.071 447.08 189.495 443.759C187.442 431.345 186.847 410.83 186.847 410.83C186.037 379.396 181.551 356.679 181.551 356.679L193.78 307.758C196.837 286.358 186.847 291.163 186.847 291.163C177.884 298.006 148.027 310.384 148.027 310.384L148.533 299.011L187.643 258.264C200.883 265.843 223.347 254.768 223.347 254.768L225.735 282.736L225.489 297.292C205.584 298.393 192.3 345.321 192.3 345.321Z" fill="#2F2E41"/>
<path opacity="0.2" d="M192.3 345.321C187.749 356.896 186.157 369.423 187.666 381.769C190.723 388.523 192.3 407.059 192.3 407.059C189.808 425.84 194.799 434.134 194.799 434.134C198.875 450.439 220.32 451.019 220.32 451.019C219.933 455.906 217.538 456.397 215.857 456.099C215.265 455.995 214.692 455.799 214.161 455.519C203.97 451.443 197.856 460.614 197.856 460.614C197.525 460.787 197.185 460.941 196.837 461.075C191.147 463.307 190.217 457.988 190.299 453.816C190.34 450.446 190.071 447.08 189.495 443.759C187.442 431.345 186.847 410.83 186.847 410.83C186.037 379.396 181.551 356.679 181.551 356.679L193.78 307.758C196.837 286.358 186.847 291.163 186.847 291.163C177.884 298.006 148.027 310.384 148.027 310.384L148.533 299.011L187.643 258.264C200.883 265.843 223.347 254.768 223.347 254.768L225.735 282.736L225.489 297.292C205.584 298.393 192.3 345.321 192.3 345.321Z" fill="black"/>
<path d="M161.052 121.087C161.052 121.087 161.171 127.388 160.152 129.426C160.152 129.426 165.894 132.156 167.099 124.167L166.712 123.349C166.712 123.349 165.009 124.985 161.052 121.087Z" fill="#2F2E41"/>
<path d="M167.099 124.167C167.099 124.167 169.33 135.48 163.714 141.111C163.714 141.111 168.304 146.749 170.342 150.826C170.342 150.826 192.761 156.94 187.666 143.692L185.91 136.47C185.91 136.47 175.065 140.308 167.099 124.167Z" fill="#F9B499"/>
<path d="M167.099 124.167C167.099 124.167 167.932 127.648 167.099 134.142C167.099 134.142 178.048 140.449 185.91 136.47C185.91 136.47 175.065 140.308 167.099 124.167Z" fill="#F7A48B"/>
<path d="M187.665 256.806C187.665 269.726 184.988 278.801 180.897 285.131C167.917 305.214 140.79 297.567 140.79 297.567V221.139L131.618 182.416C127.371 158.613 136.572 152.544 139.763 151.175C141.041 150.618 142.283 149.982 143.482 149.271L148.131 146.578L149.797 145.611L152.237 144.191C154.61 142.883 156.826 141.308 158.842 139.497C161.699 136.797 163.752 141.104 163.752 141.104C166.303 143.625 170.379 150.818 170.379 150.818C171.977 153.629 173.374 156.549 174.559 159.558C180.287 173.735 183.872 192.286 185.553 202.454C186.297 207.036 186.684 209.893 186.684 209.893L187.665 256.806Z" fill="#85339B"/>
<path d="M234.913 282.736C234.913 282.736 219.248 290.434 216.199 262.92C216.199 262.92 211.922 234.818 209.043 216.453C208.21 211.105 207.489 206.575 207.027 203.808C207.027 203.808 204.372 191.699 200.712 178.273C200.132 176.131 199.515 173.951 198.897 171.787C195.587 160.294 191.749 149.107 188.417 144.771L186.847 140.308C186.847 140.308 193.088 141.513 203.308 148.602C203.859 148.981 204.417 149.345 204.989 149.799C208.478 151.608 211.494 154.209 213.795 157.395C216.095 160.581 217.617 164.261 218.237 168.142C218.237 168.142 220.788 174.926 223.496 185.525C223.667 186.202 223.845 186.894 224.016 187.608V187.645C226.754 198.632 228.568 209.828 229.439 221.117L234.913 282.736Z" fill="#85339B"/>
<path opacity="0.2" d="M187.665 256.806C187.665 269.726 184.988 278.801 180.897 285.131C180.242 269.629 162.197 245.596 162.197 245.596C149.961 230.311 144.866 199.739 144.866 199.739L174.418 187.511C169.323 164.073 148.094 146.601 148.094 146.601L149.76 145.634L174.522 159.58C180.25 173.758 183.835 192.309 185.516 202.477C186.26 207.059 186.646 209.915 186.646 209.915L187.665 256.806Z" fill="black"/>
<path opacity="0.2" d="M146.584 202.462C146.584 202.462 157.176 231.784 167.925 236.023C169.127 236.459 170.306 236.956 171.458 237.511L184.348 244.205L169.263 238.947C168.52 238.679 167.731 238.441 166.95 238.203C165.634 237.823 162.599 236.611 159.46 233.085C157.575 230.924 156.112 228.429 155.146 225.729L146.584 202.462Z" fill="black"/>
<path opacity="0.2" d="M234.913 282.736C234.913 282.736 219.249 290.434 216.199 262.92C216.199 262.92 211.922 234.818 209.043 216.453C208.21 211.105 207.489 206.575 207.027 203.808C207.027 203.808 204.372 191.699 200.712 178.273C200.132 176.13 199.515 173.951 198.897 171.786L203.308 148.601C203.308 148.601 211.014 190.256 212.071 217.42C212.071 217.42 213.343 231.464 218.259 235.703C218.719 236.099 219.276 236.365 219.872 236.476C220.468 236.586 221.083 236.537 221.654 236.333C222.226 236.129 222.733 235.778 223.124 235.314C223.515 234.851 223.777 234.292 223.883 233.695C225.043 227.112 227.341 209.149 223.332 185.25C223.332 185.25 223.384 185.346 223.496 185.525C223.667 186.202 223.845 186.894 224.016 187.608V187.645C226.754 198.631 228.568 209.828 229.439 221.117L234.913 282.736Z" fill="black"/>
<path opacity="0.2" d="M174.217 386.484C169.189 401.929 163.186 417.039 156.246 431.724C156.137 431.975 156.054 432.236 156.001 432.505C153.985 445.217 152.423 451.673 151.597 454.559C151.442 455.121 151.117 455.622 150.668 455.993C150.218 456.365 149.665 456.589 149.083 456.635C146.852 456.843 144.256 457.304 143.252 457.483C142.971 457.538 142.7 457.636 142.448 457.773C137.242 460.532 128.234 461.328 123.503 461.551C123.105 461.564 122.709 461.494 122.339 461.346C121.969 461.199 121.634 460.976 121.355 460.692C121.075 460.409 120.858 460.07 120.715 459.698C120.573 459.326 120.509 458.929 120.528 458.531C120.58 457.371 120.647 456.211 120.714 455.058C144.442 457.646 153.04 429.024 153.04 429.024L174.217 386.484Z" fill="black"/>
<path d="M249.455 475.944C240.961 477.611 224.403 477.432 211.037 476.986C199.745 476.592 190.723 475.944 190.723 475.944C188.685 465.754 196.837 461.648 196.837 461.648L215.857 456.144C216.357 456.301 216.891 456.314 217.399 456.182C217.906 456.051 218.367 455.78 218.728 455.4C219.38 455.394 220.019 455.579 220.568 455.932C221.116 456.285 221.55 456.79 221.815 457.386C221.969 457.65 222.096 457.929 222.194 458.219C228.182 465.977 243.713 470.864 243.713 470.864C248.808 472.85 249.455 475.944 249.455 475.944Z" fill="#85339B"/>
<path opacity="0.2" d="M211.066 476.948C199.775 476.554 190.752 475.907 190.752 475.907C188.714 465.717 196.867 461.611 196.867 461.611L215.886 456.106C216.387 456.263 216.921 456.277 217.428 456.145C217.936 456.014 218.396 455.743 218.757 455.363C219.409 455.357 220.049 455.542 220.597 455.895C221.146 456.248 221.579 456.753 221.844 457.349L210.114 463.664C201.932 469.793 211.066 476.948 211.066 476.948Z" fill="black"/>
<path d="M211.565 254.768L216.905 256.479C225.757 259.201 231.202 256.479 231.202 256.479C237.033 260.198 240.7 254.768 240.7 254.768C246.852 257.825 247.187 254.582 246.978 252.767C246.934 252.452 246.816 252.153 246.632 251.894C246.448 251.635 246.205 251.424 245.922 251.279C242.734 249.617 239.905 247.342 237.599 244.585C233.522 241.528 234.913 235.562 234.913 235.562C237.316 227.559 234.913 227.135 234.913 227.135L224.351 237.452C220.275 240.509 212.918 239.147 212.918 239.147L212.123 252.737C212.037 253.438 211.849 254.122 211.565 254.768Z" fill="#F9B499"/>
<path d="M212.918 239.14L215.976 239.43C215.976 239.43 215.336 253.34 219.338 257.111C216.709 256.46 214.115 255.678 211.565 254.768C211.896 254.137 212.086 253.441 212.123 252.73L212.918 239.14Z" fill="#F7A48B"/>
<path d="M229.29 254.768C229.769 254.745 230.238 254.912 230.596 255.232C230.953 255.552 231.171 256 231.202 256.479C230.722 256.501 230.253 256.334 229.896 256.014C229.538 255.694 229.321 255.247 229.29 254.768Z" fill="#F7A48B"/>
<path d="M235.561 251.711C236.92 252.342 238.209 253.115 239.406 254.017C239.816 254.3 240.249 254.549 240.7 254.76C240.176 254.946 239.603 254.946 239.079 254.76C238.322 254.512 237.621 254.117 237.018 253.598C236.414 253.078 235.919 252.444 235.561 251.733V251.711Z" fill="#F7A48B"/>
<path d="M257.98 245.596C252.884 249.673 245.915 251.272 245.915 251.272C239.964 247.768 237.599 244.577 237.599 244.577C234.542 242.539 234.683 237.615 234.683 237.615C231.901 236.871 230.22 235.733 229.298 234.64C228.441 233.75 227.936 232.579 227.877 231.345H254.952C253.903 238.463 257.98 245.596 257.98 245.596Z" fill="#F9B499"/>
<path d="M257.979 245.596C252.884 249.673 245.914 251.272 245.914 251.272C239.964 247.768 237.598 244.577 237.598 244.577C234.541 242.539 234.683 237.615 234.683 237.615C231.901 236.871 230.22 235.733 229.297 234.64C229.297 234.64 245.751 243.566 250.868 238.478C252.778 236.461 254.176 234.014 254.944 231.345C253.903 238.463 257.979 245.596 257.979 245.596Z" fill="#F7A48B"/>
<path d="M401.672 223.178L387.956 241.305L379.253 252.797L373.139 260.875C373.139 260.875 370.081 264.951 362.948 257.817C361.284 256.541 359.848 254.991 358.701 253.236C357.607 251.413 357.161 249.338 358.872 247.627L361.929 243.551C361.929 243.551 339.51 243.551 332.377 238.456C332.377 238.456 325.325 240.814 322.38 238.813C321.443 238.18 320.892 237.109 321.167 235.399C321.282 232.321 321.623 229.255 322.187 226.227C321.859 226.592 312.517 236.864 277.646 242.948H277.46C271.696 243.945 265.232 244.83 257.994 245.544C257.994 245.544 253.918 240.449 254.937 231.278C254.937 231.278 253.048 226.956 263.677 227.083C263.677 227.083 294.687 221.087 307.935 197.649L319.509 180.675C321.789 177.33 323.251 173.495 323.778 169.481C324.611 163.218 326.605 153.474 331.179 148.795C331.549 148.399 331.955 148.038 332.392 147.716C333.547 145.749 334.569 143.707 335.449 141.602C336.017 140.154 336.994 138.901 338.26 137.997C339.526 137.093 341.028 136.575 342.582 136.507C342.582 136.507 341.623 142.212 338.811 146.266C338.776 146.309 338.746 146.357 338.722 146.407C340.478 144.275 342.607 142.48 345.007 141.111C347.389 139.726 350.034 138.852 352.773 138.545C352.773 138.545 363.982 136.507 367.039 134.469C367.039 134.469 370.096 132.431 373.153 137.526C373.153 137.526 374.864 139.81 376.59 142.242C377.155 143.06 377.735 143.893 378.249 144.659C378.249 144.659 382.325 149.754 387.42 163.999C387.42 163.999 390.477 172.181 397.61 185.399L405.793 201.703C405.793 201.703 411.899 208.911 401.672 223.178Z" fill="#2F2E41"/>
<path opacity="0.2" d="M322.187 226.235C321.859 226.599 312.517 236.871 277.646 242.956C309.207 237.094 323.22 175.268 323.22 175.268C322.38 192.852 322.209 204.277 322.201 210.971V226.257L322.187 226.235Z" fill="black"/>
<path opacity="0.2" d="M378.234 144.711C366.005 142.673 352.758 151.844 352.758 151.844C343.72 160.064 342.627 153.451 342.545 150.58C342.543 150.087 342.402 149.605 342.139 149.188C341.876 148.771 341.501 148.436 341.058 148.222C332.831 144.503 328.286 191.587 328.286 191.587C326.248 181.397 331.15 157.661 331.15 157.661C331.671 154.746 331.671 151.762 331.15 148.847C331.52 148.45 331.925 148.089 332.362 147.768C333.518 145.801 334.539 143.759 335.419 141.654C335.988 140.206 336.964 138.953 338.231 138.049C339.497 137.144 340.998 136.627 342.553 136.559C342.553 136.559 341.593 142.264 338.781 146.318C338.746 146.361 338.716 146.409 338.692 146.459C340.448 144.326 342.578 142.532 344.977 141.163C347.36 139.778 350.004 138.904 352.743 138.597C352.743 138.597 363.952 136.559 367.01 134.521C367.01 134.521 370.067 132.483 373.124 137.578C373.124 137.578 374.835 139.861 376.56 142.294C377.14 143.112 377.721 143.945 378.234 144.711Z" fill="black"/>
<path opacity="0.2" d="M375.541 216.171C374.535 218.431 373.732 220.776 373.139 223.177L361.929 243.558C361.929 243.558 339.51 243.558 332.377 238.463C332.377 238.463 320.148 242.539 321.168 235.406C321.168 235.406 337.115 231.545 341.556 224.055C342.188 222.923 342.376 221.596 342.081 220.333C341.787 219.07 341.032 217.962 339.964 217.227C337.524 215.501 335.196 212.987 342.567 212.987C342.567 212.987 357.503 216.766 360.739 201.086C360.739 201.086 363.618 187.191 360.739 179.701C361.133 180.318 373.927 200.082 376.568 205.452C376.575 205.489 380.993 208.167 375.541 216.171Z" fill="black"/>
<path opacity="0.2" d="M387.948 241.319L373.139 260.882C373.139 260.882 370.081 264.958 362.948 257.825C361.284 256.548 359.848 254.999 358.701 253.243C358.701 253.243 376.263 252.291 387.948 241.319Z" fill="black"/>
<path d="M407.786 460.622C407.524 461.126 407.08 461.512 406.544 461.7C403.397 462.957 396.19 460.16 393.519 459.03L392.5 458.583C386.386 454.507 384.318 456.545 384.318 456.545C374.128 460.622 375.147 453.191 375.147 453.191V431.069C369.033 413.746 358.842 398.46 358.842 398.46C358.842 416.803 354.766 422.664 354.766 422.664V460.599C354.707 460.703 354.64 460.793 354.58 460.897C353.935 461.959 353.187 462.955 352.349 463.872C350.695 465.825 348.366 467.084 345.825 467.398C339.205 468.082 332.637 461.336 329.379 457.341C328.033 455.69 327.252 454.515 327.252 454.515L326.233 415.791C322.157 387.258 321.071 302.931 321.071 302.931C319.992 273.639 322.35 264.252 322.35 264.252V238.82C325.325 240.821 332.347 238.463 332.347 238.463C339.48 243.558 361.899 243.558 361.899 243.558L358.842 247.634C357.131 249.345 357.578 251.421 358.671 253.243C359.818 254.999 361.254 256.548 362.918 257.825C370.052 264.958 373.109 260.882 373.109 260.882L379.253 252.797C380.169 255.538 380.768 258.376 381.038 261.254C382.169 272.181 379.424 282.728 379.424 282.728C375.511 303.555 379.253 330.177 379.253 330.177C381.143 336.811 382.171 343.661 382.31 350.558C382.31 358.74 384.348 359.729 384.348 359.729C388.07 365.517 390.181 372.193 390.462 379.069L392.5 385.183C403.717 416.803 407.786 460.622 407.786 460.622Z" fill="#85339B"/>
<path opacity="0.2" d="M381.038 261.261C372.64 262.645 368.847 273.988 368.847 273.988C347.231 275.885 344.605 262.92 344.605 262.92C340.254 252.774 328.695 248.787 322.38 247.374V238.82C325.355 240.821 332.377 238.463 332.377 238.463C339.51 243.558 361.929 243.558 361.929 243.558L358.872 247.634C357.161 249.345 357.607 251.421 358.701 253.243C359.848 254.999 361.284 256.548 362.948 257.825C370.081 264.958 373.139 260.882 373.139 260.882L379.253 252.797C380.17 255.541 380.769 258.381 381.038 261.261Z" fill="black"/>
<path d="M328.695 283.725L339.51 326.279C339.51 326.279 340.529 329.165 343.586 347.508C343.586 347.508 348.682 381.136 358.872 398.46" stroke="#FF0000" stroke-width="0.25" stroke-miterlimit="10"/>
<path opacity="0.2" d="M358.872 398.46C358.872 416.803 354.796 422.664 354.796 422.664V442.985C351.738 435.547 340.529 403.563 340.529 403.563C330.339 376.041 329.431 286.611 329.431 286.611C331.343 290.486 341.965 336.938 344.196 346.727C344.471 347.932 344.657 349.144 344.828 350.364C349.7 385.198 358.872 398.46 358.872 398.46Z" fill="black"/>
<path d="M392.5 458.583C390.001 457.646 387.13 457.84 384.318 458.583V456.531C384.318 456.531 386.386 454.507 392.5 458.583Z" fill="#F9B499"/>
<path d="M353.39 484L290.596 482.021C290.248 481.604 289.986 481.121 289.827 480.601C289.667 480.081 289.612 479.535 289.666 478.994C289.867 477.618 291.08 476.019 294.873 474.866C298.529 473.78 302.063 472.321 305.421 470.514L329.409 457.349C332.667 461.343 339.235 468.089 345.855 467.405C348.395 467.092 350.724 465.833 352.378 463.879C352.438 464.4 354.022 479.924 353.39 484Z" fill="#2F2E41"/>
<path d="M367.024 134.528C365.046 135.852 359.638 137.169 356.075 137.928C354.141 138.344 352.758 138.604 352.758 138.604C347.235 139.274 342.195 142.084 338.722 146.429C340.613 143.41 341.918 140.062 342.568 136.559C343.587 135.54 343.758 129.686 343.758 129.686L355.815 113.121L362.212 111.083L365.782 120.753L366.853 123.654L367.024 134.528Z" fill="#F9B499"/>
<path d="M343.757 129.686C343.757 129.686 344.152 130.653 343.356 134.149C345.735 133.171 347.842 131.632 349.497 129.664C351.153 127.695 352.307 125.355 352.862 122.843C352.862 122.843 348.674 128.407 343.757 129.686Z" fill="#F7A48B"/>
<path d="M367.024 134.528C365.046 135.852 359.638 137.169 356.075 137.928C357.035 136.663 360.352 134.737 361.929 133.859C362.697 133.449 363.389 132.911 363.975 132.267C366.139 129.805 364.347 128.474 364.347 128.474C361.654 126.488 361.222 121.534 361.222 121.534L365.782 120.79L366.853 123.691L367.024 134.528Z" fill="#F7A48B"/>
<path d="M185.516 202.462C173.399 164.073 149.76 145.619 149.76 145.619L152.2 144.198C154.573 142.89 156.789 141.315 158.805 139.504C161.661 136.804 163.714 141.111 163.714 141.111C166.266 143.633 170.342 150.825 170.342 150.825C178.539 164.98 183.456 190.01 185.516 202.462Z" fill="#85339B"/>
<path opacity="0.3" d="M185.516 202.462C173.399 164.073 149.76 145.619 149.76 145.619L152.2 144.198C154.573 142.89 156.789 141.315 158.805 139.504C161.661 136.804 163.714 141.111 163.714 141.111C166.266 143.633 170.342 150.825 170.342 150.825C178.539 164.98 183.456 190.01 185.516 202.462Z" fill="white"/>
<path d="M209.043 216.453C208.21 211.105 207.489 206.575 207.027 203.808C207.027 203.808 196.309 155.036 188.432 144.771L186.862 140.308C186.862 140.308 193.103 141.513 203.323 148.602C203.308 148.609 211.066 195.47 209.043 216.453Z" fill="#85339B"/>
<path opacity="0.3" d="M209.043 216.453C208.21 211.105 207.489 206.575 207.027 203.808C207.027 203.808 196.309 155.036 188.432 144.771L186.862 140.308C186.862 140.308 193.103 141.513 203.323 148.602C203.308 148.609 211.066 195.47 209.043 216.453Z" fill="white"/>
<path d="M144.866 198.029C144.866 198.029 158.113 234.387 169.323 236.425L198.116 251.346C198.116 251.346 211.103 261.901 212.122 252.73L213.141 236.432C213.141 236.432 195.595 227.901 185.516 220.961C185.516 220.961 182.109 216.386 178.821 218.127C178.79 218.147 178.752 218.156 178.714 218.152C178.677 218.147 178.642 218.13 178.615 218.103C178.589 218.076 178.573 218.04 178.57 218.003C178.567 217.965 178.577 217.927 178.598 217.896C179.632 216.409 181.283 213.27 180.086 209.714C180.086 209.714 171.725 185.54 171.517 178.362" fill="#85339B"/>
<path d="M172.737 185.257C174.701 191.089 176.702 197.627 178.561 203.533C179.216 205.556 179.848 207.587 180.592 209.566C181.13 210.997 181.182 212.565 180.741 214.028C180.339 215.448 179.722 216.798 178.911 218.03L178.531 217.554C181.336 216.877 184.058 218.625 185.516 220.924C183.924 218.967 181.291 217.45 178.732 218.172L177.988 218.402C179.141 216.394 180.22 214.162 180.138 211.804C180.129 211.141 179.979 210.487 179.699 209.885C176.851 201.826 174.533 193.589 172.759 185.228L172.737 185.257Z" fill="#85339B"/>
<path opacity="0.3" d="M172.737 185.257C174.701 191.089 176.702 197.627 178.561 203.533C179.216 205.556 179.848 207.587 180.592 209.566C181.13 210.997 181.182 212.565 180.741 214.028C180.339 215.448 179.722 216.798 178.911 218.03L178.531 217.554C181.336 216.877 184.058 218.625 185.516 220.924C183.924 218.967 181.291 217.45 178.732 218.172L177.988 218.402C179.141 216.394 180.22 214.162 180.138 211.804C180.129 211.141 179.979 210.487 179.699 209.885C176.851 201.826 174.533 193.589 172.759 185.228L172.737 185.257Z" fill="black"/>
<path d="M185.111 136.646C193.937 134.858 198.867 122.429 196.124 108.885C193.381 95.3404 184.002 85.8096 175.176 87.5972C166.351 89.3847 161.42 101.814 164.164 115.358C166.907 128.903 176.285 138.433 185.111 136.646Z" fill="#F9B499"/>
<path d="M159.995 114.527C159.995 114.527 150.98 105.988 158.113 97.8354C158.113 97.8354 157.719 95.7973 155.369 97.8354C155.369 97.8354 155.056 93.7592 161.171 95.7973C161.171 95.7973 160.151 87.6152 169.353 84.5879C169.353 84.5879 167.314 87.645 171.391 86.626C171.391 86.626 182.37 80.7646 190.061 81.4638C191.12 81.5582 192.137 81.924 193.014 82.5259C193.891 83.1278 194.598 83.9456 195.067 84.9003C197.261 89.3632 200.846 98.728 192.976 99.6578C191.815 97.6338 190.534 95.6815 189.138 93.8113C189.138 93.8113 190.708 99.6875 173.235 99.8661C172.827 99.8637 172.422 99.9473 172.048 100.111C171.674 100.275 171.339 100.516 171.063 100.818C170.401 101.562 169.844 102.864 170.372 104.969C170.372 104.969 171.391 108.026 168.334 109.045C168.334 109.045 170.007 116.699 168.155 119.458L159.995 114.527Z" fill="#2F2E41"/>
<path d="M167.44 122.937C168.915 121.628 168.445 118.689 166.39 116.372C164.335 114.055 161.473 113.237 159.997 114.545C158.522 115.853 158.992 118.793 161.048 121.11C163.103 123.427 165.965 124.245 167.44 122.937Z" fill="#F9B499"/>
<path d="M376.575 142.294C363.7 140.895 351.739 150.245 351.739 150.245C343.557 156.798 344.992 150.245 344.992 150.245V141.163C347.375 139.778 350.019 138.904 352.758 138.597C352.758 138.597 363.967 136.559 367.024 134.521C367.024 134.521 370.082 132.483 373.139 137.578C373.139 137.578 374.85 139.861 376.575 142.294Z" fill="#85339B"/>
<path d="M342.567 136.559C342.567 136.559 341.608 142.264 338.796 146.318C338.761 146.361 338.731 146.409 338.707 146.459L338.625 146.571C338.625 146.571 334.028 150.937 331.187 148.847C331.557 148.451 331.962 148.09 332.399 147.768C333.555 145.801 334.576 143.759 335.456 141.654C336.023 140.209 336.996 138.959 338.258 138.055C339.52 137.151 341.017 136.631 342.567 136.559Z" fill="#85339B"/>
<path d="M358.492 111.353C361.995 98.9254 358.446 87.0505 350.566 84.8295C342.685 82.6085 333.458 90.8824 329.955 103.31C326.453 115.737 330.002 127.612 337.882 129.833C345.762 132.054 354.99 123.78 358.492 111.353Z" fill="#F9B499"/>
<path d="M376.575 98.899C376.155 105.454 375.003 111.94 373.139 118.238V125.372C373.139 125.372 370.082 128.429 368.043 123.334C367.656 123.485 367.258 123.61 366.853 123.706C365.686 123.981 363.878 124.189 362.561 123.259C361.468 122.515 360.672 121.028 360.739 118.305C360.739 118.305 358.634 107.148 357.727 107.096L353.018 115.278C353.018 115.278 348.682 115.211 350.72 106.04C350.72 106.04 352.84 99.6875 351.352 95.7526C351.148 95.2577 350.846 94.8086 350.466 94.432C350.085 94.0554 349.633 93.7589 349.136 93.5599C348.639 93.3609 348.107 93.2635 347.571 93.2735C347.036 93.2834 346.508 93.4005 346.019 93.6178C344.025 94.4361 340.581 95.3063 337.889 93.0525C337.237 92.5023 336.686 91.8429 336.26 91.1037C336.26 91.1037 333.076 94.9195 332.221 97.4262C332.221 97.4262 328.755 87.935 334.259 82.5497C334.551 82.2692 334.924 82.0885 335.325 82.0337C335.726 81.9789 336.134 82.0528 336.49 82.2448C338.09 83.0927 341.608 84.2308 347.201 82.4084C347.789 82.215 348.414 81.977 349.054 81.7166L349.403 81.5753C349.403 81.5753 358.902 76.4727 363.997 83.6134C363.967 83.5688 377.966 81.6199 376.575 98.899Z" fill="#2F2E41"/>
<path opacity="0.2" d="M333.143 83.8143C333.143 83.8143 329.007 88.7459 332.221 97.3668C332.221 97.3668 333.708 93.3576 335.092 92.5394C335.092 92.5394 331.878 90.1815 333.143 83.8143Z" fill="black"/>
<path opacity="0.2" d="M362.948 115.189C362.948 115.189 361.185 121.139 362.561 123.267C361.468 122.523 360.672 121.035 360.739 118.313C360.739 118.313 358.634 107.156 357.726 107.103L353.018 115.286C353.018 115.286 348.682 115.219 350.72 106.047C350.72 106.047 352.84 99.6949 351.352 95.7601C351.148 95.2651 350.846 94.8161 350.466 94.4395C350.085 94.0629 349.633 93.7664 349.136 93.5674C348.639 93.3684 348.107 93.271 347.571 93.281C347.036 93.2909 346.508 93.408 346.019 93.6253C344.025 94.4435 340.581 95.3138 337.889 93.06C342.909 92.6993 347.888 91.8928 352.765 90.65C352.765 90.65 355.064 94.3691 353.918 103.771C353.918 103.771 353.784 107.074 357.86 106.055C357.853 105.988 364.986 103.95 362.948 115.189Z" fill="black"/>
<path opacity="0.2" d="M373.138 125.349C373.138 125.349 370.081 128.407 368.043 123.311C367.656 123.463 367.258 123.587 366.853 123.683C366.853 123.683 366.005 116.178 369.085 111.083C369.062 111.083 368.013 126.346 373.138 125.349Z" fill="black"/>
<path d="M360.829 113.245C361.326 110.188 359.928 107.416 357.706 107.055C355.484 106.693 353.28 108.879 352.782 111.936C352.285 114.993 353.683 117.765 355.905 118.126C358.127 118.488 360.332 116.302 360.829 113.245Z" fill="#F9B499"/>
<path d="M368.847 262.042L366.005 273.111C350.72 273.111 347.841 265.806 347.841 265.806L349.686 259.424C346.297 260.217 342.747 259.957 339.51 258.68C339.237 258.581 338.998 258.404 338.824 258.17C338.651 257.937 338.549 257.657 338.532 257.367C338.516 257.076 338.585 256.787 338.731 256.535C338.877 256.284 339.094 256.08 339.354 255.95C342.634 254.121 349.686 253.243 349.686 253.243C352.536 253.415 355.386 252.889 357.987 251.711C361.17 257.825 368.847 262.042 368.847 262.042Z" fill="#F9B499"/>
<path d="M368.846 262.042L366.005 273.111C350.719 273.111 347.841 265.806 347.841 265.806L349.686 259.424C346.297 260.217 342.747 259.957 339.51 258.68C339.51 258.68 347.997 259.796 350.883 257.788C350.883 257.788 349.7 265.97 356.834 268.015C356.834 268.015 363.074 269.577 363.268 266.528C363.279 266.118 363.192 265.711 363.013 265.343C362.834 264.974 362.57 264.653 362.241 264.408C360.426 262.972 355.792 258.658 356.291 252.358C356.881 252.167 357.46 251.94 358.024 251.681C361.17 257.825 368.846 262.042 368.846 262.042Z" fill="#F7A48B"/>
<path d="M215.857 456.106C210.412 463.82 196.837 461.611 196.837 461.611V461.068C197.185 460.933 197.525 460.779 197.856 460.607C197.856 460.607 203.97 451.435 214.161 455.511C214.692 455.797 215.264 455.997 215.857 456.106Z" fill="#F9B499"/>
<path d="M121.986 461.187C121.986 461.187 119.39 464.698 124.485 463.679C124.485 463.679 135.531 463.024 140.195 458.769C140.195 458.769 130.733 461.759 121.986 461.187Z" fill="#F9B499"/>
</svg>
